<?xml version="1.0" encoding="UTF-8"?><svg id="Layer_1" xmlns="http://www.w3.org/2000/svg" viewBox="0 0 241.92 241.92"><defs><style>.cls-1{fill:#f8d8c0;}.cls-1,.cls-2,.cls-3,.cls-4,.cls-5,.cls-6,.cls-7,.cls-8,.cls-9,.cls-10,.cls-11,.cls-12,.cls-13{stroke-width:0px;}.cls-2{fill:#f8dcc6;}.cls-3{fill:#23388f;}.cls-4{fill:#ee9d5f;}.cls-5{fill:#f2b588;}.cls-6{fill:#ee9e62;}.cls-7{fill:#e56d13;}.cls-8{fill:#ec924e;}.cls-9{fill:#e66e14;}.cls-10{fill:#e66e13;}.cls-11{fill:#e66d13;}.cls-12{fill:#fbf9fa;}.cls-13{fill:#fefefe;}</style></defs><path class="cls-11" d="m122.03,241.9h-2.4c-1.39-.26-2.79-.05-4.19-.12h-1.2c-10.01.16-19.69-1.77-29.22-4.67-7.56-2.3-14.78-5.37-21.73-9.09-6.95-3.72-13.43-8.16-19.55-13.14-4.38-3.56-8.43-7.48-12.25-11.6-6.51-7.02-12.08-14.75-16.75-23.13-5.16-9.26-9.03-19.03-11.65-29.3-1.11-4.33-2.05-8.71-2.49-13.17-.36-3.66-.51-7.34-.46-11.02-.06-1.22.14-2.44-.12-3.65v-3.84c.26-.78.05-1.59.12-2.38,0-.47,0-.93,0-1.4,0-.39,0-.78,0-1.17-.14-9.92,1.78-19.52,4.68-28.95,2.14-6.97,4.89-13.68,8.26-20.14,4-7.68,8.78-14.83,14.3-21.5,3.29-3.97,6.84-7.71,10.59-11.24,6.78-6.36,14.21-11.86,22.27-16.51,7.82-4.51,16.04-8.07,24.65-10.76,7.15-2.23,14.45-3.77,21.89-4.57,1.86-.2,3.75-.21,5.62-.27,4.07-.11,8.14-.13,12.21-.14,15.54-.06,30.29,3.48,44.51,9.58,10.42,4.47,19.96,10.39,28.72,17.56,4.45,3.64,8.59,7.61,12.48,11.87,4.27,4.67,8.17,9.61,11.67,14.86,7.24,10.85,12.53,22.6,15.96,35.19,1.58,5.79,2.75,11.65,3.37,17.62.21,2.01.24,4.04.31,6.06.13,3.99.13,7.98.15,11.97.07,15.4-3.42,30.04-9.4,44.15-3.68,8.68-8.4,16.77-14,24.35-4.45,6.02-9.43,11.58-14.91,16.66-9.28,8.61-19.64,15.69-31.13,21.04-10.74,5.01-21.99,8.43-33.72,10.13-3.67.53-7.4.54-11.12.59h-2.59c-.95.07-1.91-.15-2.86.12Z"/><path class="cls-13" d="m127.56,241.7c29.28-1.85,54.75-12.69,76.11-32.77,18.34-17.24,30.08-38.33,35.35-62.98,1.89-8.86,2.77-17.83,2.57-26.88-.59-26.08-8.48-49.74-24.26-70.54-18.64-24.57-43.19-40.06-73.47-45.98-26.15-5.11-51.48-1.98-75.45,9.76C37.97,27.21,17.27,50.92,6.2,82.96,2.71,93.04.85,103.47.23,114.12c-.06.17-.13.18-.21.01C.02,76.46.03,38.79,0,1.12,0,.26.14,0,1.08,0,80.97.03,160.86.03,240.75,0c.97,0,1.17.19,1.16,1.17-.03,79.85-.03,159.7,0,239.55,0,1.07-.29,1.2-1.25,1.2-37.71-.03-75.42-.02-113.12-.02-.17-.08-.16-.14.01-.2Z"/><path class="cls-13" d="m.22,126.88c.38,10.47,2.24,20.68,5.41,30.65,5.82,18.34,15.46,34.41,28.97,48.12,18.26,18.52,40.24,29.99,65.84,34.52,4.52.8,9.08,1.28,13.67,1.53.18.05.18.12.01.2-37.69,0-75.39,0-113.08.02-.86,0-1.04-.18-1.04-1.04.03-38.01.02-76.03.02-114.04.05-.05.1-.11.14-.16.02.07.04.14.06.21Z"/><path class="cls-4" d="m115.3,241.68c1.45,0,2.91-.18,4.33.22h-4.31c-.17-.06-.18-.13-.02-.22Z"/><path class="cls-6" d="m.22,126.88h-.11s-.09-.05-.09-.05v-3.84c.36,1.28.26,2.58.2,3.88Z"/><path class="cls-8" d="m122.03,241.9c.94-.47,1.93-.15,2.89-.22.16.09.16.16-.02.22h-2.88Z"/><path class="cls-8" d="m.24,116.75c-.05.81.23,1.64-.22,2.42v-2.4c.06-.17.13-.18.22-.02Z"/><path class="cls-5" d="m.24,116.75c-.07,0-.14.01-.22.02v-1.44c.05-.18.12-.19.2-.02,0,.48,0,.96.01,1.44Z"/><path class="cls-5" d="m124.91,241.9c0-.07,0-.15.02-.22.48,0,.96.01,1.44.02.17.08.17.15-.02.2h-1.44Z"/><path class="cls-2" d="m.23,115.31c-.07,0-.14,0-.2.02v-1.2c.07,0,.14-.01.21-.01,0,.4,0,.79,0,1.19Z"/><path class="cls-1" d="m115.3,241.68c.02.07.03.15.02.22h-1.2c0-.07-.01-.13-.01-.2.4,0,.8-.02,1.19-.02Z"/><path class="cls-1" d="m126.35,241.9c0-.07.01-.13.02-.2.4,0,.8,0,1.2,0,0,.07,0,.13-.01.2h-1.2Z"/><path class="cls-3" d="m160.39,128.46v1.6c0,13.18,0,26.36,0,39.55,0,8.54-6.56,15.12-15.09,15.12-17.22,0-34.43,0-51.65,0-8.68,0-15.21-6.54-15.21-15.24,0-42.78.03-85.56-.03-128.34-.01-7.78,6.33-15.59,15.48-15.51,17.02.16,34.03.04,51.05.05,8.89,0,15.44,6.55,15.44,15.42,0,5.43-.02,10.87.02,16.3,0,.87-.18,1.17-1.11,1.15-2.27-.07-4.55-.05-6.83,0-.79.02-1.01-.22-1.01-1.01.03-4.15,0-8.31.03-12.46,0-.9-.18-1.23-1.17-1.23-21.13.03-42.26.03-63.39,0-1.21,0-1.22.54-1.22,1.43.01,28.92.01,57.84.01,86.76,0,7.79.02,15.58-.02,23.37,0,1.09.29,1.4,1.4,1.4,21.01-.03,42.02-.03,63.03,0,1.13,0,1.38-.34,1.37-1.41-.05-6.43-.01-12.86-.04-19.29,0-.76.21-1.24.83-1.69,2.63-1.88,5.21-3.81,8.09-5.93Z"/><path class="cls-3" d="m132.11,123.56c-4.7-.99-8.39-3.25-11.04-7.09-1.89-2.74-2.85-5.79-2.86-9.11-.02-9.62-.03-19.25,0-28.87.02-8.7,6.89-15.95,15.55-16.1,10.02-.17,20.05-.06,30.07-.07,5.35,0,10.7-.01,16.05,0,9.81.02,16.9,7.15,16.9,16.96,0,9.31.01,18.61,0,27.92-.01,7.55-5.31,14.21-12.63,15.93-1.25.29-2.52.41-3.8.4-6.55-.01-13.1,0-19.65-.01-.58,0-1.04.05-1.47.56-3.12,3.67-6.99,6.34-11.23,8.55-2.64,1.37-5.34,2.48-8.35,2.67-.54.03-1.08.29-1.6.49-1.06.4-2.09.42-3.13-.06-.32-.15-.66-.28-1.01-.37-4-1.14-4.96-5.13-3.62-8.29.5-1.17,1.17-2.26,1.82-3.5Z"/><path class="cls-12" d="m96.85,199.08c.17.33.47.35.72.47,3.26,1.6,3.59,5.68.63,7.8-1.67,1.2-3.61,1.49-5.58,1.41-2.75-.11-5.51-.04-8.26.05-.87.03-1.18-.16-1.23-1.07-.29-5.07-.13-10.14-.07-15.2.02-2.11.14-2.11,2.28-2.19,3.23-.13,6.47-.25,9.69.03,2.89.25,4.22,1.51,4.61,4.13.18,1.18-.14,2.21-.94,3.09-.54.6-1.18,1.07-1.85,1.48Z"/><path class="cls-12" d="m154.73,203.08c0,1.36,0,2.71,0,4.07,0,.58-.19.99-.81,1.13-3.81.89-7.66,1.31-11.49.39-4.05-.98-6.28-4.13-6.46-8.58-.33-8.15,5.67-10.44,11.46-10.12.87.05,1.75.2,2.6.38,2.68.58,4.18,2.41,4.33,5.13.03.63-.21.76-.74.75-1.76-.03-3.51-.07-5.27-.08-.41,0-.61-.14-.81-.52-.65-1.25-2.01-1.43-3.04-.45-.42.4-.68.89-.82,1.44-.45,1.77-.46,3.58-.21,5.36.28,1.98,1.48,2.6,3.96,2.33.81-.09,1.31-.25,1.29-1.27-.02-.8-.29-.93-.97-.91-1.84.06-1.7.18-1.71-1.76,0-2.66-.16-2.3,2.32-2.29,1.84,0,3.67.08,5.51.11.72.01,1.06.26,1.02,1.07-.07,1.27-.02,2.55-.02,3.83-.05,0-.09,0-.14,0Z"/><path class="cls-12" d="m125.85,189.76c6.99.09,9.91,5.23,8.98,11.64-.52,3.54-2.23,6.15-5.81,7.12-3.83,1.04-7.56,1.01-10.59-2.06-2.02-2.04-2.42-4.7-2.29-7.44.06-1.23.21-2.48.66-3.64,1.34-3.4,4.04-4.99,7.5-5.51.55-.08,1.11-.09,1.55-.12Z"/><path class="cls-12" d="m101.94,199.5c0-2.55,0-5.11,0-7.66,0-1.68.02-1.7,1.64-1.68,1.52.01,3.03-.04,4.55.11.9.09,1.21.4,1.18,1.35-.12,3.63-.13,7.26-.23,10.89-.03.92.3,1.19,1.18,1.14,1.51-.08,3.03-.07,4.55-.1.66-.01,1.03.15.98.95-.07,1.07-.01,2.16.03,3.23.02.56-.08.85-.75.9-4.11.27-8.22.14-12.33.19-.9,0-.77-.64-.78-1.17-.02-2.72,0-5.43,0-8.15Z"/><path class="cls-10" d="m118.67,176.24c-3.78.06-7.09-3.05-7.18-6.74-.09-4.05,3.18-7.63,6.99-7.66,4.18-.03,7.33,3.03,7.39,7.17.06,4.23-2.86,7.16-7.2,7.23Z"/><path class="cls-7" d="m118.68,37.7c-3.24,0-6.47-.02-9.71.02-.79,0-1.11-.15-1.1-1.03.02-2.5-.02-2.5,2.51-2.5,5.99,0,11.98.02,17.97-.02,1.03,0,1.48.18,1.42,1.35-.1,2.18-.02,2.19-2.23,2.19-2.96,0-5.91,0-8.87,0Z"/><path class="cls-10" d="m157.36,67.43c7.47,0,14.94,0,22.41,0,6.95,0,12.12,5.14,12.13,12.1.02,8.91.01,17.82,0,26.73-.01,7.11-5.14,12.19-12.28,12.19-7.19,0-14.38.01-21.57-.02-.81,0-1.35.21-1.78.89-2.98,4.78-7.89,7.11-12.58,9.62-2,1.07-4.36,1.5-6.64,1.92-.77.14-1.5.06-2.05-.62-.62-.75-.22-1.39.1-2.09,1.32-2.85,3.08-5.5,3.84-8.61.24-.97.05-1.13-.88-1.1-1.63.05-3.29.12-4.91-.09-5.87-.79-10.07-5.63-10.1-11.67-.05-9.15-.05-18.3,0-27.45.04-6.73,5.2-11.78,11.9-11.78,7.47,0,14.94,0,22.41,0Z"/><path class="cls-9" d="m89.88,202.53c0,.22-.02.13,0,.06.23-.68-.47-1.82.87-1.95,1.45-.14,2.54.51,2.76,1.52.28,1.32-.19,2.21-1.4,2.62-1.91.65-2.28.32-2.22-2.25Z"/><path class="cls-9" d="m91,193.88c1.6.11,2.41.88,2.28,2.3-.11,1.24-1.48,2.21-2.9,2.09-.51-.04-.7-.3-.71-.77-.01-.84,0-1.68-.05-2.51-.06-.94.42-1.2,1.37-1.1Z"/><path class="cls-10" d="m122.99,200.01c.08-1.31.13-2.63.5-3.91.31-1.07,1.01-1.73,2.14-1.77,1.15-.04,1.88.6,2.17,1.69.65,2.37.61,4.75-.09,7.08-.33,1.11-1.21,1.65-2.39,1.63-1.09-.02-1.61-.72-1.94-1.66-.34-1-.45-2.02-.4-3.07Z"/><path class="cls-3" d="m158.14,86.69c-8.07,0-16.13-.02-24.2.02-1.03,0-1.43-.22-1.34-1.32.1-1.31.05-2.63.02-3.95-.01-.62.2-.9.83-.83.2.02.4,0,.6,0,16.09,0,32.19.01,48.28-.03,1.14,0,1.57.25,1.46,1.44-.1,1.15-.08,2.32,0,3.47.06.94-.25,1.22-1.2,1.22-5.91-.04-11.82-.02-17.73-.02-2.24,0-4.47,0-6.71,0Z"/><path class="cls-3" d="m158.1,106.94c-8.07,0-16.13-.02-24.2.03-1.08,0-1.4-.29-1.3-1.33.09-.99.1-2,0-2.99-.13-1.17.38-1.37,1.42-1.36,3.47.05,6.95.02,10.42.02,12.62,0,25.24.02,37.86-.03,1.26,0,1.6.37,1.48,1.54-.09.95-.08,1.92,0,2.87.08.97-.2,1.28-1.24,1.28-8.15-.05-16.29-.03-24.44-.03Z"/><path class="cls-3" d="m158.2,96.35c-8.11,0-16.21-.02-24.32.02-.97,0-1.4-.22-1.27-1.25.15-1.25-.54-2.88.29-3.67.77-.73,2.36-.21,3.59-.21,15.26-.01,30.51,0,45.77-.03,1.17,0,1.7.24,1.52,1.5-.16,1.17.49,2.71-.28,3.45-.71.67-2.21.18-3.36.19-7.31.01-14.62,0-21.92,0Z"/></svg>