<?xml version="1.0" encoding="UTF-8"?><svg id="Layer_1" xmlns="http://www.w3.org/2000/svg" viewBox="0 0 1024 1024"><defs><style>.cls-1,.cls-2,.cls-3,.cls-4,.cls-5,.cls-6,.cls-7,.cls-8,.cls-9{stroke-width:0px;}.cls-2{fill:#4f4f71;}.cls-3{fill:#243b8d;}.cls-4{fill:#253c8f;}.cls-5{fill:#bebebe;}.cls-6{fill:#fdfefe;}.cls-7{fill:#7f7f7f;}.cls-8{fill:#e77124;}.cls-9{fill:#fefefe;}</style></defs><path class="cls-9" d="m264.27,657.87c-.07-.05-.25.12-.24-.12.01-.32,0-.64,0-.96,0-96.21,0-192.43-.03-288.64,0-1.01.24-1.15,1.18-1.15,164.66.03,329.33.02,493.99.02.7,0,1.35-.06,1.08.97-.09.08-.19.13-.31.14-.12-.01-.23-.05-.34-.1-.23-.14-.5-.12-.75-.14-1.12.02-2.24.02-3.36.02-162.57,0-325.13,0-487.7,0-.94,0-1.93-.23-2.8.37-.34.24-.36.6-.37.96,0,.44,0,.88,0,1.32,0,94.76,0,189.52,0,284.28,0,.87.17,1.76-.07,2.62-.06.15-.15.29-.26.41Z"/><path class="cls-5" d="m264.27,657.87c0-.09.01-.18.02-.27.35-.32.8-.34,1.24-.35.6-.02,1.2-.01,1.8-.01,163.22,0,326.44,0,489.65,0,.96,0,1.92-.11,2.87.13.15.06.29.15.41.26-.05.07.12.25-.12.24-.32-.01-.64,0-.96,0h-494.91Z"/><path class="cls-7" d="m760.26,657.63c-.09,0-.18-.02-.27-.03-.36-.39-.31-.88-.31-1.36.01-95.26,0-190.52.02-285.79,0-.82-.24-1.68.3-2.44.09,0,.18-.02.26-.03v289.64Z"/><path class="cls-4" d="m264.73,367.98c0-.32.11-.53.48-.51.36.02.72,0,1.08,0,163.91,0,327.81,0,491.72,0,.51,0,1.04-.12,1.54.11.32.68.23,1.41.23,2.12,0,30.77,0,61.54,0,92.31,0,63.98,0,127.96,0,191.93,0,.68.03,1.36-.03,2.04-.11.41-.25.79-.8.71-.78-.27-1.59-.16-2.38-.16-38.95,0-77.9,0-116.84,0-124.08,0-248.16,0-372.25,0-.76,0-1.52.05-2.28-.06-.52-.12-.68-.49-.68-.98,0-.44,0-.88,0-1.32,0-94.73,0-189.46,0-284.19,0-.67-.17-1.36.21-2Z"/><path class="cls-1" d="m759.11,656.64c.14-.16.29-.32.43-.48.25-.49.12-1.02.12-1.53,0-95.03,0-190.06.01-285.09,0-.51-.13-1.04.11-1.54.07-.02.14-.02.21.01,0,.52.02,1.04.02,1.56,0,95.49,0,190.98,0,286.47,0,.52-.02,1.04-.03,1.56-.48,0-.96.03-1.44.03-164.27,0-328.55,0-492.82,0-.48,0-.96-.02-1.44-.03,0-.4-.02-.8-.02-1.2,0-95.7,0-191.39.02-287.09,0-.43-.47-1.15.44-1.33,0,.56.02,1.12.02,1.68,0,95.02,0,190.04.03,285.06,0,.49-.47,1.25.46,1.49.31.25.67.22,1.03.22.52,0,1.04,0,1.56,0,163.01,0,326.03,0,489.04,0,.75,0,1.52-.17,2.24.2Z"/><path class="cls-2" d="m759.78,368c0,95.57,0,191.14-.02,286.72,0,.48.25,1.03-.23,1.44,0-96.07,0-192.15,0-288.22,0-.12,0-.24,0-.36.08.14.16.28.24.42Z"/><path class="cls-8" d="m505.47,546.01c-1.3-.76-1.81-2.13-2.45-3.36-3.03-5.85-5.42-11.98-7.85-18.09-3.89-9.81-7.56-19.7-11.15-29.63-3.1-8.58-6.16-17.18-9.29-25.75-.91-2.5-2.59-4.62-3.66-7.06-1.28-2.92-2.22-5.9-2.66-9.08-.2-1.49.37-2.6.94-3.76,4.25-8.57,8.49-17.15,12.85-25.67,2.03-3.96,4.09-7.92,6.59-11.63.6-.9,1.25-1.35,2.41-1.34,13.63.04,27.27.04,40.9,0,1.22,0,2.05.41,2.73,1.35,3.27,4.51,5.72,9.5,8.22,14.45,4.44,8.78,8.51,17.73,12.62,26.67.24.52.2.91,0,1.45-5.19,13.28-10.31,26.6-15.54,39.87-4.88,12.39-9.85,24.74-14.82,37.09-1.79,4.45-3.58,8.9-5.74,13.19-.23.46-.52.88-.78,1.32-1.01-.05-2.02.03-3.03-.04-1.13-.18-1.59-.94-1.7-1.99-.04-.36,0-.72,0-1.08,0-23.77.03-47.54-.06-71.31,0-1.83.63-2.62,2.11-3.49,3.47-2.03,6.75-4.35,9.12-7.76,2.05-2.95,1.99-6.19,1.71-9.49-.18-2.07-.78-4.04-2-5.76-1.67-2.35-3.94-3.92-6.58-5.03-2.27-.96-4.65-1.68-7.07-1.78-3.19-.13-6.16.81-8.69,2.9-3.14,2.59-5.13,5.94-6.39,9.73-.48,1.46-.09,2.99.27,4.46,1.4,5.82,5.26,9.72,10.24,12.55,1.95,1.11,2.59,2.26,2.58,4.49-.09,23.53-.06,47.06-.06,70.59,0,1.91-.36,2.45-1.91,2.96-.61.05-1.23.02-1.84.02Z"/><path class="cls-8" d="m423.33,471.73c1.7.48,2.19,1.69,2.16,3.35-.05,3.87-.01,7.73-.02,11.6,0,1.63-.41,2.15-1.99,2.66-1.15.37-2.33.48-3.53.45-.48,0-.64.04-.55.66.18,1.29.15,2.62.21,3.93.13.55-.12,1.13.15,1.67.1,4.72,1.06,9.3,2.26,13.83,2.91,11.03,8.15,20.92,15.07,29.95,4.23,5.52,9,10.55,14.11,15.25,5.2,4.79,10.74,9.19,16.6,13.17,2.15,1.46,4.68,2.14,7.08,3.03,5.45,2.02,11.01,3.69,16.76,4.68,2.58.44,5.15.94,7.79.88.94.27,1.91.02,2.86.14.25.08.5.13.75,0,.29-.5.02-1.05.16-1.56.14-.54.23-1.09.43-1.61.4-1.03,1.12-1.53,2.3-1.51,3.52.05,7.04.05,10.55,0,.91-.01,1.47.31,2.01.99,1.28,1.61,2.45,3.32,3.92,4.77.83.16,1.66.18,2.49,0,5.31-.07,10.39-1.35,15.36-3.09,8.61-3.02,16.37-7.58,23.67-13.02,3.13-2.33,6.21-4.72,9.14-7.28,4.38-3.83,8.67-7.77,12.57-12.09,2.08-2.3,3.6-5.06,5.13-7.76,3.88-6.81,6.93-13.97,8.84-21.6,1.08-4.32,1.97-8.67,2.33-13.12.04-.54.25-1.07.2-1.63.23-.38.04-.81.14-1.2.03-.63.07-1.26.1-1.89.24-.64,0-1.31.14-1.95.04-1.39.06-2.79.12-4.18.02-.53-.22-.71-.71-.69-.36.02-.73.07-1.07,0-2.76-.55-3.06-.93-3.06-3.8,0-3.39,0-6.78,0-10.17,0-1.59.61-2.45,1.95-2.86,4.21-.02,8.43-.02,12.64,0,1.24.29,2.08.98,2.29,2.29.05,4.78.05,9.55,0,14.33-.23.31-.57.22-.88.25-3.05.31-4.83,2.19-4.98,5.25-.23.38-.02.82-.16,1.22-.03,1.52-.05,3.04-.08,4.56-.27.54-.01,1.12-.16,1.67-.77,7.45-2.4,14.69-5.33,21.62-2.71,6.42-6.18,12.41-10.3,18.02-3.06,4.17-6.45,8.07-10.06,11.79-5.25,5.4-10.87,10.37-16.86,14.92-2.3,1.75-4.44,3.78-7.07,5-3.73,1.73-7.55,3.29-11.54,4.33-.62.16-1.08.31-.78,1.08.37.22.78.12,1.17.12,16.88,0,33.76,0,50.64,0,.39,0,.8.11,1.17-.12,1.4-.68,1.6-1.98,1.7-3.33.25-.46.01-.97.16-1.45-.05-.78.35-.96,1.08-.96,4.3.03,8.6,0,12.91.02,1.89,0,2.62.63,2.96,2.38.05,4.38.06,8.76,0,13.13-.29,1.77-.7,2.18-2.51,2.51-3.98.04-7.96.05-11.94,0-1.46-.42-2.3-1.67-2.38-3.51q-.11-2.56-2.68-2.56c-25.83,0-51.66,0-77.49.02-.45,0-1.34-.48-1.24.67-.25.54-.02,1.13-.14,1.68-.22.82-.3,1.68-.7,2.46-.34.67-.8,1.15-1.58,1.25-3.98.06-7.96.04-11.94,0-1.4-.26-2.17-1.19-2.38-2.89-.04-.35-.08-.7-.12-1.06-.17-.67.13-1.38-.17-2.05-.44-.03-.87-.09-1.31-.09-25.76,0-51.53,0-77.29,0-.44,0-.87.06-1.31.09-.29.66-.02,1.37-.16,2.04-.12.62-.2,1.25-.37,1.85-.28.99-.78,1.82-1.89,2.08-4.06.08-8.13.07-12.19,0-1.86-.29-2.37-.86-2.38-2.73-.01-4.11.02-8.22-.02-12.33-.01-1.71.97-3.07,3.01-3,3.59.12,7.18.03,10.78.03,1.61,0,2.31.53,2.71,2.09.15.57.24,1.16.36,1.74.13.62-.13,1.27.15,1.88h0c.37.23.78.13,1.17.13,17.45,0,34.91,0,52.36,0,.64,0,1.64.3,1.17-1.02-3.88-1.12-7.65-2.54-11.28-4.29-3.81-1.84-7.39-4.09-10.85-6.53-3.03-2.13-5.89-4.5-8.64-6.97-2.46-2.22-4.74-4.64-7.01-7.04-4.13-4.37-8.09-8.91-11.33-13.98-2.45-3.83-4.16-8.07-5.89-12.28-2.55-6.22-4.65-12.59-6.26-19.13-1.27-5.16-2.45-10.33-3.04-15.62-.12-1.06-.46-1.62-1.72-1.57-1.35.05-2.7-.28-3.19-1.87-.02-4.7-.06-9.39.02-14.09.23-1.01.67-1.84,1.8-2.06,4.3.02,8.59-.05,12.89.04Z"/><path class="cls-8" d="m480.27,405.98c-1.4-.59-1.88-1.92-2.34-3.16-1.33-3.57-2.03-7.31-2.69-11.05-.27-1.51-.48-3.03-.74-4.55-.08-.46.13-.58.52-.83,1.33-.85,2.76-.86,4.25-.86,22.7.01,45.41.02,68.11-.02,1.13,0,1.53.22,1.46,1.42-.35,5.78-1.31,11.42-3.61,16.77-.43,1-1.12,1.82-2.17,2.27-7.87.05-15.74.02-23.61.02-13.06,0-26.12.01-39.19,0Z"/><path class="cls-6" d="m415.36,614.94c0-4.63.02-9.27-.02-13.9,0-.88.24-1.17,1.15-1.17,4.4.02,8.79.04,13.18.24,1.07.05,1.45.41,1.64,1.48.81,4.55,1.73,9.09,2.62,13.63.06.33.01.81.52.8.42-.01.37-.44.43-.74.88-4.66,1.95-9.29,2.64-13.99.14-.95.47-1.28,1.5-1.27,4.51.06,9.02.02,13.54-.04.85-.01,1.22.19,1.23,1.1.13,8.02.31,16.04.46,24.06.02.96-.06,1.91-.1,2.87-.07,1.83-.06,1.9-1.84,1.95-2.48.07-4.96,0-7.44.04-.63,0-.8-.33-.92-.85-.28-1.22-.27-2.46-.27-3.69,0-3.27.03-6.55.04-9.82,0-.32,0-.64-.02-.96-.03-.26.02-.6-.37-.66-.47-.07-.47.3-.55.61-.55,2.33-1.12,4.65-1.66,6.98-.55,2.41-1.13,4.81-1.58,7.24-.16.84-.54,1.05-1.27,1.05-2.52,0-5.03-.01-7.55,0-.7,0-1.04-.22-1.21-.98-1.13-5.06-2.31-10.1-3.49-15.14-.1-.43,0-1.16-.59-1.13-.67.04-.37.78-.39,1.2-.22,4.91-.28,9.82-.21,14.73.01.92-.2,1.23-1.17,1.21-2.44-.06-4.88-.02-7.31.05-.79.02-.98-.21-.97-.99.04-4.63.02-9.27.02-13.9-.02,0-.03,0-.05,0Z"/><path class="cls-6" d="m676.99,615.85c0,4.27-.02,8.55.02,12.82,0,.8-.21.99-.99,1.01-3.79.07-7.58.17-11.38.11-.89-.01-1.26-.33-1.54-1.1-1.6-4.42-3.23-8.83-4.88-13.23-.16-.42-.12-1.26-.8-1.11-.64.14-.31.9-.31,1.37,0,4.31,0,8.62.05,12.94,0,.89-.09,1.33-1.24,1.28-2.43-.11-4.87,0-7.3.07-1.14.04-1.62-.44-1.58-1.55.32-9.13-.03-18.28.37-27.41.03-.74.37-.88.93-.89,3.99-.06,7.99-.1,11.98-.17.66-.01.75.43.92.88,1.74,4.67,3.48,9.33,5.23,13.99.1.26.19.52.31.78.1.21.21.47.52.38.29-.08.29-.34.29-.59,0-.24,0-.48,0-.72.01-4.55.05-9.11,0-13.66,0-.91.35-1.04,1.12-1.02,2.4.04,4.8.06,7.19.02.75-.01.94.21.93.94-.03,4.95-.02,9.9-.02,14.85h.16Z"/><path class="cls-6" d="m503.5,615.86c0,4.27-.02,8.55.02,12.82,0,.68-.07.99-.87,1-3.79.06-7.58.16-11.38.12-1.01-.01-1.38-.37-1.69-1.23-1.57-4.34-3.19-8.67-4.79-13-.11-.3-.21-.6-.34-.89-.1-.22-.22-.45-.53-.36-.22.07-.3.24-.3.46,0,.28,0,.56,0,.84.02,4.35.02,8.7.06,13.06,0,.92-.13,1.32-1.25,1.27-2.43-.1-4.87,0-7.3.07-1.14.04-1.61-.45-1.57-1.56.32-9.13-.03-18.28.38-27.41.03-.64.25-.86.82-.87,4.03-.06,8.07-.1,12.1-.18.67-.01.75.44.91.89,1.74,4.67,3.48,9.33,5.23,13.99.08.22.16.45.26.67.12.24.19.58.57.47.29-.08.28-.35.28-.59,0-.24,0-.48,0-.72.01-4.55.04-9.1.01-13.66,0-.79.23-1.03,1-1.01,2.44.05,4.88.07,7.31.02.76-.01.92.23.92.95-.03,4.95-.02,9.9-.02,14.85h.16Z"/><path class="cls-6" d="m529.61,612.55c2.15.14,4.31-.05,6.47.17.87.09,1.26.32,1.23,1.3-.12,4.47-.17,8.94-.2,13.41,0,.88-.35,1.28-1.15,1.53-2.23.68-4.52,1.1-6.82,1.22-4.09.22-8.2.62-12.25-.54-5.69-1.63-9.35-5.91-10.05-11.8-.31-2.64-.31-5.27.33-7.85,1.42-5.7,5.38-8.78,10.86-10.08,4.03-.96,8.13-.89,12.1.23,4.64,1.32,6.29,4.57,6.34,8.75,0,.53-.29.59-.69.58-3.15-.06-6.31-.13-9.46-.18-.4,0-.61-.13-.79-.55-.95-2.28-3.53-2.67-5.24-.84-.83.88-1.18,1.97-1.4,3.12-.47,2.49-.41,5.03-.2,7.52.26,3.07,2.15,4.44,5.38,4.24.48-.03.95-.12,1.43-.16,1.18-.1,1.94-.4,1.89-1.92-.06-1.65.07-1.7-1.58-1.62q-2.83.14-2.83-2.72c0-.92,0-1.84,0-2.76,0-.73.32-1.1,1.1-1.06.92.04,1.84,0,2.76,0,.92,0,1.84,0,2.75,0Z"/><path class="cls-6" d="m644.6,614.45c.08,2.61-.17,5.19-1.2,7.62-1.44,3.43-3.8,5.94-7.41,7.17-3.51,1.19-7.07,1.59-10.73.88-6.11-1.19-9.91-5.16-10.91-11.32-.53-3.3-.26-6.54.59-9.72,1.03-3.87,3.58-6.54,7.15-8.22,4.3-2.02,8.74-2.15,13.31-.91,5.5,1.49,8.91,7.29,9.17,12.1.04.8,0,1.6,0,2.39Z"/><path class="cls-6" d="m612.45,614.54c.07,2.57-.18,5.11-1.18,7.51-1.45,3.48-3.84,6.01-7.5,7.23-3.47,1.17-7,1.55-10.62.85-6.14-1.19-9.91-5.13-10.93-11.29-.55-3.3-.29-6.55.58-9.73,1.28-4.66,4.56-7.48,9.01-9,3.82-1.31,7.66-1.2,11.55-.13,5.4,1.48,8.82,7.26,9.09,12.04.05.84,0,1.68,0,2.51Z"/><path class="cls-6" d="m411.85,614.48c.07,2.61-.18,5.19-1.21,7.62-1.45,3.43-3.82,5.94-7.42,7.16-3.51,1.19-7.07,1.57-10.73.86-6.09-1.19-9.9-5.19-10.88-11.34-.52-3.26-.25-6.47.57-9.61,1.02-3.91,3.59-6.63,7.21-8.32,4.3-2.01,8.74-2.13,13.32-.89,5.48,1.49,8.9,7.31,9.15,12.12.04.8,0,1.6,0,2.39Z"/><path class="cls-6" d="m558.84,621.15c1.4,0,2.8.03,4.19-.01.73-.02,1.15.17,1.47.88.85,1.9,2.9,2.35,4.56,1.09,1.25-.95,1.18-2.49-.1-3.39-1.65-1.15-3.65-1.07-5.48-1.59-1.65-.47-3.31-.9-4.89-1.57-4.99-2.14-6.6-6.8-4.05-11.63,1.1-2.08,2.81-3.48,4.92-4.35,4.88-2.01,9.89-2.12,14.86-.49,3.03,1,5.07,3.11,5.65,6.38.22,1.23.03,1.51-1.21,1.55-2.67.08-5.35.14-8.02.21-.87.02-1.5-.18-1.86-1.12-.42-1.12-1.49-.86-2.38-.81-.97.06-1.91.44-2.18,1.4-.25.9.52,1.43,1.29,1.76,1.33.56,2.75.81,4.14,1.16,2.09.52,4.19.99,6.16,1.91,2.87,1.33,4.65,3.42,4.9,6.67.27,3.54-.77,6.62-3.93,8.4-6.11,3.45-12.57,3.99-19.1,1.25-2.98-1.25-4.15-3.91-4.5-6.98-.09-.79.54-.6.88-.61,1.56-.05,3.11-.02,4.67-.02,0-.03,0-.06,0-.09Z"/><path class="cls-6" d="m374.74,611.35c-1.36,0-2.72-.04-4.08.02-.75.03-1.12-.28-1.27-.95-.09-.39-.18-.78-.26-1.17-.22-1.1-.71-1.97-1.94-2.12-1.13-.14-2.37.65-2.88,1.76-.34.73-.6,1.51-.63,2.3-.09,2.67-.41,5.33-.07,8,.11.84.34,1.64.85,2.34,1.12,1.53,2.98,1.39,3.83-.27.13-.25.24-.5.34-.76q.72-1.89,2.7-1.89c2.6,0,5.2.03,7.8-.01.9-.01,1.27.14,1.15,1.21-.67,5.75-4.32,9.48-10.42,10.5-2.59.43-5.18.46-7.74-.06-4.75-.96-7.92-3.8-9.52-8.33-1.56-4.42-1.73-8.93-.22-13.39,1.92-5.66,6.33-8.15,11.95-8.91,2.96-.4,5.9-.26,8.76.7,4.45,1.51,7.33,5.72,7.1,10.31-.04.76-.58.69-1,.7-1.48.04-2.96.02-4.44.02h0Z"/><path class="cls-6" d="m469.46,610.86c.04,5.4.06,11.26.39,17.13.1,1.85.07,1.83-1.76,1.86-2.99.05-5.99.12-8.98.2-1.64.05-1.72-.04-1.67-1.73.27-9.14.55-18.27.39-27.42-.01-.8.2-.98,1-.93,3.27.21,6.55.21,9.83.11.72-.02.84.15.83.83-.04,3.16-.02,6.31-.02,9.94Z"/><path class="cls-9" d="m759.11,656.64c-.44,0-.88.03-1.32.03-163.75,0-327.49,0-491.24-.02-.43,0-1.15.49-1.32-.44.44,0,.88-.02,1.32-.02,163.69,0,327.39,0,491.08.03.47,0,1.22-.51,1.47.42Z"/><path class="cls-3" d="m480.27,405.98c15.38,0,30.76-.01,46.14-.02,5.55,0,11.1,0,16.66,0-.41.26-.86.14-1.29.14-20.07,0-40.14,0-60.21,0-.43,0-.88.11-1.29-.13Z"/><path class="cls-3" d="m477.83,577.12c.3,1.1.3,1.1-.94,1.11-12.35,0-24.7,0-37.05,0-5.16,0-10.31,0-15.47-.01-.41,0-.88.19-1.24-.19,17.78,0,35.57,0,53.35,0,.63,0,1.48.27,1.35-.9Z"/><path class="cls-3" d="m599.48,578.02c-.38.32-.84.2-1.27.2-16.87,0-33.73,0-50.6,0-.37,0-.8.19-1.12-.19,17.66,0,35.32,0,52.98,0Z"/><path class="cls-3" d="m614.69,488.32c0-4.78,0-9.55,0-14.33.05.19.15.37.15.56,0,4.4,0,8.8,0,13.21,0,.19-.1.37-.15.56Z"/><path class="cls-3" d="m408.64,473.75c0,4.7-.01,9.39-.02,14.09-.24-.36-.14-.77-.14-1.16,0-3.93,0-7.85,0-11.78,0-.39-.11-.8.16-1.15Z"/><path class="cls-3" d="m618.28,587.83c0-4.38,0-8.76,0-13.13.26.36.15.77.15,1.15,0,3.61,0,7.22,0,10.83,0,.39.11.8-.16,1.15Z"/><path class="cls-3" d="m423.33,471.73c-4.3-.01-8.59-.02-12.89-.04,2.35-.28,4.7-.11,7.05-.11,1.94,0,3.9-.22,5.84.14Z"/><path class="cls-3" d="m612.4,471.7c-4.21,0-8.43,0-12.64,0,.98-.3,1.98-.14,2.97-.12,3.22.04,6.45-.18,9.67.12Z"/><path class="cls-3" d="m408.51,590.33c4.06,0,8.13,0,12.19,0-.27.24-.6.17-.91.17-3.46,0-6.91,0-10.37,0-.31,0-.64.07-.91-.16Z"/><path class="cls-3" d="m505.69,590.34c3.98,0,7.96,0,11.94,0-.64.32-1.33.14-1.99.14-2.93.02-5.87.01-8.8,0-.39,0-.8.11-1.16-.14Z"/><path class="cls-3" d="m603.83,590.34c3.98,0,7.96,0,11.94,0-.81.3-1.64.13-2.46.14-2.77.02-5.55.01-8.32,0-.39,0-.8.11-1.15-.15Z"/><path class="cls-3" d="m515.77,545.98c1.01.01,2.02.03,3.03.04-1.01.15-2.02.23-3.03-.04Z"/><path class="cls-3" d="m502.27,576.97c-.96.06-1.92.15-2.86-.14.95.07,1.92-.17,2.86.14Z"/><path class="cls-3" d="m524.9,578.04c-.83.15-1.66.34-2.49,0,.83,0,1.66,0,2.49,0Z"/><path class="cls-3" d="m422.96,586.39c.03-.68-.14-1.38.16-2.04-.08.68.18,1.38-.16,2.04Z"/><path class="cls-3" d="m503.02,584.35c.29.66.14,1.36.17,2.05-.36-.66-.09-1.37-.17-2.05Z"/><path class="cls-3" d="m423.12,578.01c-.28-.61-.15-1.25-.15-1.88.32.61.08,1.26.15,1.88Z"/><path class="cls-3" d="m505.47,546.01c.61,0,1.23-.01,1.84-.02-.61.24-1.23.21-1.84.02Z"/><path class="cls-3" d="m602.53,493.41c.05.66.09,1.31-.14,1.95.04-.65-.18-1.32.14-1.95Z"/><path class="cls-3" d="m503.19,575.41c-.02.52.12,1.07-.16,1.56.07-.52-.15-1.07.16-1.56Z"/><path class="cls-3" d="m519.91,586.63c0-.56-.1-1.14.14-1.68-.05.56.16,1.14-.14,1.68Z"/><path class="cls-3" d="m608.44,501.27c-.03-.56-.09-1.13.16-1.67-.06.56.16,1.14-.16,1.67Z"/><path class="cls-3" d="m419.75,496.04c-.25-.54-.2-1.1-.15-1.67.31.53.09,1.11.15,1.67Z"/><path class="cls-3" d="m601.34,573.25c.03.49.1.99-.16,1.44.04-.48-.16-.99.16-1.44Z"/><path class="cls-3" d="m602.28,497.25c.05.41.07.82-.14,1.2.03-.4-.13-.83.14-1.2Z"/><path class="cls-3" d="m608.67,495.04c-.03-.42-.09-.84.16-1.22-.03.41.14.84-.16,1.22Z"/><path class="cls-4" d="m633.78,614.75c.02,1.96-.12,3.91-.71,5.79-.61,1.93-2.11,3-4.02,2.96-1.56-.04-2.74-1.04-3.27-3-1.07-3.96-.68-7.91.5-11.77.43-1.41,1.61-2.13,3.11-2.22,1.61-.1,2.79.57,3.46,2.04.9,1.98.91,4.1.93,6.21Z"/><path class="cls-4" d="m601.62,613.82c.01,2.88-.11,4.78-.68,6.63-.61,1.97-2.02,3.04-3.95,3.05-1.61,0-2.84-1.01-3.37-3.02-1.05-3.96-.68-7.91.52-11.77.44-1.4,1.62-2.12,3.12-2.2,1.61-.09,2.78.59,3.45,2.06.89,1.98.9,4.1.92,5.26Z"/><path class="cls-4" d="m401.02,614.8c0,1.92-.12,3.83-.7,5.67-.61,1.96-2.04,3.03-3.96,3.03-1.6,0-2.83-1.03-3.36-3.05-1.04-3.93-.65-7.83.49-11.66.42-1.41,1.57-2.17,3.07-2.28,1.6-.13,2.82.5,3.5,1.97.94,2.01.95,4.17.96,6.33Z"/></svg>