<?xml version="1.0" encoding="UTF-8"?><svg id="Layer_1" xmlns="http://www.w3.org/2000/svg" viewBox="0 0 1024 1024"><defs><style>.cls-1{fill:#f8d8c0;}.cls-1,.cls-2,.cls-3,.cls-4,.cls-5,.cls-6,.cls-7,.cls-8,.cls-9,.cls-10,.cls-11,.cls-12{stroke-width:0px;}.cls-2{fill:#f8dcc6;}.cls-3{fill:#f8f8f8;}.cls-4{fill:#23388f;}.cls-5{fill:#ee9d5f;}.cls-6{fill:#f2b588;}.cls-7{fill:#ee9e62;}.cls-8{fill:#ec924e;}.cls-9{fill:#e66e14;}.cls-10{fill:#e66e13;}.cls-11{fill:#e66d13;}.cls-12{fill:#fefefe;}</style></defs><path class="cls-11" d="m391.02,514v-3.84c.26-.78.05-1.59.12-2.38,0-.47,0-.93,0-1.4,0-.39,0-.78,0-1.17-.14-9.92,1.78-19.52,4.68-28.95,2.14-6.97,4.89-13.68,8.26-20.14,4-7.68,8.78-14.83,14.3-21.5,3.29-3.97,6.84-7.71,10.59-11.24,6.78-6.36,14.21-11.86,22.27-16.51,7.82-4.51,16.04-8.07,24.65-10.76,7.15-2.23,14.45-3.77,21.89-4.57,1.86-.2,3.75-.21,5.62-.27,4.07-.11,8.14-.13,12.21-.14,15.54-.06,30.29,3.48,44.51,9.58,10.42,4.47,19.96,10.39,28.72,17.56,4.45,3.64,8.59,7.61,12.48,11.87,4.27,4.67,8.17,9.61,11.67,14.86,7.24,10.86,12.53,22.6,15.96,35.19,1.58,5.79,2.75,11.65,3.37,17.62.21,2.01.24,4.04.31,6.06.13,3.99.13,7.98.15,11.97.07,15.4-3.42,30.04-9.4,44.15-3.68,8.68-8.4,16.77-14,24.35-4.45,6.02-9.43,11.58-14.91,16.66-9.28,8.61-19.64,15.69-31.13,21.04-10.74,5.01-21.99,8.43-33.72,10.13-3.67.53-7.4.54-11.12.59h-2.6c-.95.07-1.91-.15-2.86.12h-2.4c-1.39-.26-2.79-.05-4.19-.12h-1.2c-10.01.16-19.69-1.77-29.22-4.67-7.56-2.3-14.79-5.37-21.74-9.09-6.95-3.72-13.43-8.16-19.55-13.14-4.38-3.56-8.43-7.48-12.25-11.6-6.51-7.02-12.08-14.75-16.75-23.13-5.16-9.26-9.03-19.04-11.65-29.3-1.11-4.33-2.05-8.71-2.49-13.17-.36-3.66-.51-7.34-.46-11.02-.06-1.22.14-2.44-.12-3.65Z"/><path class="cls-12" d="m518.56,632.7c29.28-1.85,54.75-12.69,76.11-32.77,18.34-17.24,30.08-38.33,35.35-62.98,1.89-8.86,2.77-17.83,2.57-26.88-.59-26.08-8.48-49.74-24.26-70.54-18.64-24.57-43.19-40.06-73.47-45.98-26.15-5.11-51.48-1.98-75.45,9.76-30.44,14.9-51.14,38.61-62.21,70.64-3.49,10.08-5.34,20.51-5.97,31.16-.06.17-.13.18-.21.01,0-37.67,0-75.34-.02-113.01,0-.86.14-1.12,1.08-1.12,79.89.03,159.78.03,239.67,0,.97,0,1.17.19,1.16,1.17-.03,79.85-.03,159.7,0,239.55,0,1.07-.29,1.2-1.25,1.2-37.71-.03-75.42-.02-113.12-.02-.17-.08-.16-.14.01-.2Z"/><path class="cls-12" d="m391.22,517.88c.38,10.47,2.24,20.68,5.41,30.65,5.82,18.34,15.46,34.41,28.97,48.12,18.26,18.52,40.24,29.99,65.84,34.52,4.52.8,9.08,1.28,13.67,1.53.18.05.18.12.01.2-37.69,0-75.39,0-113.08.02-.86,0-1.04-.18-1.04-1.04.03-38.01.02-76.03.02-114.04.05-.05.1-.11.14-.16.02.07.04.14.06.21Z"/><path class="cls-5" d="m506.3,632.68c1.45,0,2.91-.18,4.33.22h-4.31c-.17-.06-.18-.13-.02-.22Z"/><path class="cls-7" d="m391.22,517.88h-.11s-.09-.05-.09-.05v-3.84c.36,1.28.26,2.58.2,3.88Z"/><path class="cls-8" d="m513.03,632.9c.94-.47,1.93-.15,2.89-.22.16.09.16.16-.02.22h-2.88Z"/><path class="cls-8" d="m391.24,507.75c-.05.81.23,1.64-.22,2.42v-2.4c.06-.17.13-.18.22-.02Z"/><path class="cls-6" d="m391.24,507.75c-.07,0-.14.01-.22.02v-1.44c.05-.18.12-.19.2-.02,0,.48,0,.96.01,1.44Z"/><path class="cls-6" d="m515.91,632.9c0-.07,0-.15.02-.22.48,0,.96.01,1.44.02.17.08.17.15-.02.2h-1.44Z"/><path class="cls-2" d="m391.23,506.31c-.07,0-.14,0-.2.02v-1.2c.07,0,.14-.01.21-.01,0,.4,0,.79,0,1.19Z"/><path class="cls-1" d="m506.3,632.68c.02.07.03.15.02.22h-1.2c0-.07-.01-.13-.01-.2.4,0,.8-.02,1.19-.02Z"/><path class="cls-1" d="m517.35,632.9c0-.07.01-.13.02-.2.4,0,.8,0,1.2,0,0,.07,0,.13-.01.2h-1.2Z"/><path class="cls-4" d="m434.77,512c0-42.49,34.56-77.04,77.1-76.98,43.74.06,77.91,36.19,77,78.78-.88,41.15-34.87,75.9-78.14,75.35-42.1-.54-76.07-35.03-75.96-77.15Z"/><path class="cls-3" d="m472.67,606.47c.68-.94.89-2.03,1.26-3.05.51-1.43,1.01-2.86,1.43-4.31.21-.72.54-.86,1.21-.63,1.21.41,2.42.82,3.65,1.12.88.21.77.68.6,1.31-1.12,4.19-2.24,8.39-3.34,12.59-.59,2.24-.59,2.27-2.81,1.62-1.99-.58-3.95-1.25-5.93-1.83-.73-.21-1-.59-1.04-1.35-.12-2.43-.32-4.85-.5-7.28-.03-.38.06-.8-.46-1.2-.52,1.3-1.01,2.53-1.5,3.77-.45,1.15-.9,2.3-1.31,3.46-.23.66-.55.74-1.17.47-1.56-.7-3.15-1.35-4.74-1.98-.83-.33-.96-.78-.58-1.57,2.08-4.3,4.15-8.61,6.19-12.93.31-.65.56-.89,1.33-.56,1.97.86,3.98,1.62,6,2.37.66.24.89.57.9,1.29.04,2.91.27,5.81.8,8.7Z"/><path class="cls-3" d="m567.95,604.67c-3.18,0-4.96-1.05-6.05-3.33-1.27-2.66-2.61-5.29-3.96-7.91-.4-.77-.42-1.23.49-1.66,1.51-.71,2.97-1.54,4.42-2.38.69-.4,1.07-.36,1.49.38,1.45,2.57,2.97,5.09,4.45,7.64.88,1.51,1.54,1.9,2.46,1.41.99-.54,1.07-1.53.16-3-1.53-2.47-3.06-4.95-4.67-7.38-.53-.8-.55-1.23.34-1.76,1.57-.94,3.09-1.98,4.59-3.03.6-.42.92-.33,1.33.27,1.83,2.66,3.68,5.31,5.57,7.92,1.45,2.01,1.64,4.12.25,6.12-2.79,4.02-6.75,6.16-10.89,6.7Z"/><path class="cls-3" d="m448.79,586.32c3.77.22,7.39,1.95,9.9,5.43,2.21,3.07,1.8,6.39-.14,9.55-1.76,2.87-4.34,4.12-7.7,3.57-3.41-.55-6.35-2.1-8.73-4.6-2.3-2.42-3.28-5.25-1.82-8.43,1.53-3.33,4-5.53,8.49-5.53Z"/><path class="cls-3" d="m575.88,584.07c-.03-1.78.46-2.96,1.15-4.05,1.79-2.83,4.21-5,7.21-6.46,1.47-.71,3.04-.93,4.61-.13.76.39.91.83.26,1.46-1.28,1.26-2.55,2.52-3.84,3.78-.28.28-.6.56-1.05.43-1.32-.4-1.78.59-2.23,1.45-.39.75.09,1.09.78.94.57-.12,1.1-.44,1.63-.72,1.86-.99,3.56-2.27,5.55-3.04,1.81-.7,3.54-.75,5,.69,1.49,1.46,1.62,3.27.83,5.09-2.03,4.64-5.39,7.95-10.15,9.74-1.6.6-3.13.27-4.49-.82-.49-.39-.57-.62-.01-1.06,1.61-1.25,3.18-2.54,4.74-3.85.4-.34.76-.47,1.3-.33,1.17.31,2.64-.73,2.81-1.92.11-.79-.41-1.27-1.22-1.11-.72.14-1.33.51-1.94.89-1.76,1.1-3.55,2.14-5.58,2.68-3.06.81-5.34-.96-5.35-3.66Z"/><path class="cls-3" d="m512.73,619.99c-1,0-2-.03-2.99.01-.67.03-1.03-.15-1.08-.89-.09-1.23-.68-1.8-2.03-1.63-.93.12-1.92.02-2.86-.12-.97-.14-1.54.18-1.71,1.13-.2,1.07-.81,1.39-1.86,1.27-1.86-.21-3.73-.35-5.6-.48-.73-.05-1.02-.18-.6-.99,2.51-4.76,5.01-9.52,7.19-14.43.23-.52.54-.57,1.02-.55,2.43.08,4.86.14,7.29.17.56,0,.89.18,1.09.7,1.96,5.01,4.01,9.98,6.3,14.85.28.6.12.78-.47.8-1.23.05-2.47.12-3.7.19,0,0,0-.02,0-.03Z"/><path class="cls-3" d="m432.35,573.93c3.48.37,6.61,2.69,9.25,5.84.73.86,1.22,1.85,1.5,2.96.4,1.61.08,3.06-.74,4.47-.34.58-.61.57-1.11.23-1.56-1.05-2.98-2.27-4.44-3.45-.55-.44-.36-.91-.11-1.39.33-.66.46-1.3-.15-1.86-.67-.61-1.49-.94-2.3-.44-1.72,1.06-3.11,2.5-4.09,4.27-.42.76-.2,1.55.43,2.19.62.63,1.32.55,1.97.14.79-.5,1.32-.28,1.99.28,1.39,1.19,2.85,2.32,4.33,3.4.76.55.64.93.04,1.48-1.31,1.18-2.85,1.55-4.55,1.37-4.27-.44-9.69-4.96-10.9-9.08-1.47-5,2.75-10.43,8.89-10.42Z"/><path class="cls-3" d="m526.52,619.29c-5.57.34-8.83-1.93-9.78-6.24-.95-4.31.67-8.38,5.13-10.09,2.46-.94,4.99-1.42,7.62-1,2.51.41,4.18,1.81,4.96,4.27.19.6.03.82-.49.92-1.76.35-3.52.69-5.28,1.04-.6.12-.86-.19-1.06-.69-.29-.74-.68-1.4-1.65-1.22-.99.19-1.56.83-1.64,1.8-.15,1.72.07,3.43.49,5.1.23.91.83,1.53,1.89,1.52,1.05,0,1.32-.75,1.49-1.56.13-.6.36-.96,1.05-1.07,1.81-.29,3.62-.61,5.4-1.02.98-.22,1.18.14,1.18,1.01,0,2.41-1.21,4.06-3.17,5.27-2.16,1.33-4.55,1.89-6.13,1.95Z"/><path class="cls-3" d="m533.69,601.69c-.15-.79.23-.84.59-.93,4.65-1.14,9.21-2.56,13.66-4.32.58-.23.83-.08,1.08.48,1.52,3.31,1.55,3.34-1.93,4.5-.92.31-1.03.65-.72,1.5,1.14,3.1,2.19,6.24,3.33,9.35.28.78.16,1.13-.66,1.36-2.07.58-4.13,1.2-6.18,1.86-.84.27-1.14-.01-1.33-.81-.68-2.91-1.39-5.81-2.14-8.71-.47-1.79-.51-1.78-2.26-1.36q-2.62.62-3.23-2.03c-.09-.39-.18-.78-.21-.9Z"/><path class="cls-3" d="m497.69,603.73c-.1.97-.2,1.88-.27,2.8-.05.64-.37.8-.95.71-.9-.15-1.82-.22-2.72-.4-.73-.15-.99.09-1.08.8-.45,3.36-.97,6.7-1.41,10.06-.11.82-.31,1.1-1.19.92-2.06-.44-4.15-.78-6.23-1.15-.84-.15-1.12-.48-.88-1.39.76-2.89,1.43-5.8,2.11-8.7.4-1.72.34-1.79-1.29-2.2q-2.69-.67-1.98-3.39c.4-1.53.4-1.54,1.87-1.18,4.34,1.06,8.74,1.75,13.18,2.26.62.07,1.01.21.84.87Z"/><path class="cls-10" d="m511.9,476.84c15.9,0,31.79,0,47.69,0,2.11,0,2.29.16,2.3,2.34.01,7.03,0,14.06,0,21.09,0,14.9,0,29.8,0,44.7,0,2.24-.14,2.39-2.36,2.39-31.83,0-63.67,0-95.5,0-2.19,0-2.26-.07-2.26-2.32,0-21.93,0-43.86,0-65.79,0-.4,0-.8.02-1.2.06-.81.51-1.22,1.33-1.21.36,0,.72,0,1.08,0,15.9,0,31.79,0,47.69,0Z"/><path class="cls-10" d="m446.3,597.13c.5-2.23,1.9-4.13,3.89-5.56.8-.58,1.76-.3,2.57.28.78.57,1.17,1.33.96,2.27-.46,2.03-1.45,3.78-2.93,5.24-.88.87-1.91.87-2.98.35-.98-.48-1.56-1.21-1.5-2.59Z"/><path class="cls-9" d="m505.65,613.96q-2.42-.11-1.67-2.38c.44-1.32.9-2.63,1.35-3.95.09-.26.16-.63.45-.63.39,0,.43.42.5.72.38,1.63.7,3.27,1.13,4.88.3,1.12-.02,1.55-1.16,1.37-.19-.03-.4,0-.6,0Z"/><path class="cls-4" d="m511.91,478.96c15.46,0,30.92.01,46.37-.03,1.16,0,1.57.2,1.54,1.47-.03,1.3-.41,2.23-1.35,3.13-11.16,10.75-22.28,21.52-33.42,32.3-3.44,3.33-6.89,6.66-10.31,10.02-2.81,2.75-4.02,2.76-6.79,0-12.58-12.5-25.16-25-37.73-37.5-1.64-1.63-3.29-3.26-4.94-4.89-.99-.98-1.5-2.13-1.44-3.54.03-.67.21-1.07.97-.98.31.04.64,0,.96,0,15.38,0,30.76,0,46.13,0Z"/><path class="cls-4" d="m511.71,545.2c-15.45,0-30.91,0-46.36,0-1.52,0-1.9-.63-1.22-2.05.34-.7.93-1.2,1.45-1.74,8.7-8.86,17.41-17.71,26.12-26.56,1.26-1.28,1.25-1.27,2.5,0,4.21,4.26,8.43,8.51,12.65,12.76.28.28.57.56.88.82,2.41,2.03,4.85,2.07,7.22,0,1.59-1.39,3.07-2.91,4.59-4.38,3.41-3.3,6.84-6.6,10.21-9.94.7-.69,1.1-.68,1.78.01,9.04,9.2,18.11,18.36,27.17,27.54.37.37.65.8.83,1.3.63,1.71.29,2.24-1.48,2.24-15.45,0-30.91,0-46.36,0Z"/><path class="cls-4" d="m463.93,539.84v-1.16c0-17.37,0-34.74,0-52.12,0-.24,0-.48,0-.72,0-.23-.07-.53.18-.65.34-.17.49.18.66.36,8.58,8.75,17.15,17.52,25.76,26.24.8.81.21,1.13-.23,1.59-4.53,4.62-9.06,9.23-13.6,13.84-3.89,3.96-7.79,7.91-11.67,11.87-.28.28-.48.64-.71.96-.13-.07-.25-.14-.38-.22Z"/><path class="cls-4" d="m559.7,485.3v54.1c-.43.17-.58-.21-.77-.41-8.59-8.74-17.17-17.5-25.77-26.23-.72-.73-.83-1.15,0-1.94,8.7-8.35,17.35-16.74,26.02-25.12.11-.1.24-.18.54-.4Z"/></svg>