<?xml version="1.0" encoding="UTF-8"?><svg id="Layer_1" xmlns="http://www.w3.org/2000/svg" viewBox="0 0 1024 1024"><defs><style>.cls-1{fill:#f8dac3;}.cls-1,.cls-2,.cls-3,.cls-4,.cls-5,.cls-6,.cls-7,.cls-8,.cls-9{stroke-width:0px;}.cls-2{fill:#f8ddc7;}.cls-3{fill:#23388f;}.cls-4{fill:#f2b689;}.cls-5{fill:#f2b68a;}.cls-6{fill:#e56d13;}.cls-7{fill:#ec9451;}.cls-8{fill:#e66e13;}.cls-9{fill:#fefefe;}</style></defs><path class="cls-9" d="m517.51,383.02c40.56,0,81.11,0,121.67-.02.9,0,1.1.2,1.1,1.1-.02,85.03-.02,170.05,0,255.08,0,.9-.2,1.1-1.1,1.1-85.39-.02-170.77-.02-256.16-.02,0-85.39,0-170.77-.02-256.16,0-.9.2-1.1,1.1-1.1,40.64.03,81.27.02,121.91.02.08.12.07.24-.04.33-1.23.42-2.53.32-3.78.41-14.29.97-27.99,4.41-41.13,10.03-11.98,5.12-22.91,11.97-32.78,20.5-11.47,9.92-21.04,21.4-28.44,34.64-7.86,14.07-12.88,29.1-15.1,45.07-1.06,7.58-1.43,15.19-1.11,22.81.57,13.58,3.22,26.77,7.98,39.52,4.32,11.57,10.21,22.28,17.62,32.15,2.97,3.96,6.22,7.69,9.62,11.31,8.05,8.56,17.15,15.78,27.2,21.81,14.72,8.83,30.62,14.36,47.59,16.8,3.99.57,8,.91,12.03,1.1,2.47.12,4.95.21,7.42.18,8.89-.11,17.68-1.11,26.36-3.04,10.78-2.4,21.09-6.11,30.91-11.17,8.49-4.38,16.37-9.65,23.68-15.79,3.12-2.62,6.14-5.35,8.98-8.27,7.82-8.01,14.55-16.85,20.11-26.59,6.26-10.98,10.73-22.65,13.54-34.96,1.26-5.49,2.05-11.06,2.62-16.67.61-6.06.6-12.14.36-18.19-.41-10.13-2.18-20.07-5.06-29.8-2.07-6.99-4.68-13.77-7.91-20.3-4.31-8.73-9.56-16.88-15.75-24.42-3.02-3.67-6.16-7.24-9.59-10.53-8.01-7.7-16.77-14.4-26.44-19.91-7.18-4.09-14.69-7.41-22.51-10.04-8.35-2.81-16.92-4.73-25.68-5.73-2.78-.32-5.56-.55-8.34-.72-.28-.02-.56-.04-.8-.21-.11-.1-.12-.21-.04-.34Z"/><path class="cls-5" d="m507.44,383.02h3.12c.07.15.04.27-.09.37-.98.33-1.96.33-2.93,0-.14-.1-.17-.22-.09-.37Z"/><path class="cls-4" d="m512.72,383.02h3.12c.07.15.04.27-.09.37-.98.33-1.96.33-2.93,0-.14-.1-.17-.22-.09-.37Z"/><path class="cls-7" d="m512.72,383.02c0,.07,0,.15.02.22-.73.54-1.46.53-2.19,0,.01-.07.02-.15.01-.22h2.16Z"/><path class="cls-2" d="m515.85,383.23c-.01-.07-.02-.14-.02-.21h1.68c0,.07,0,.14,0,.21-.56.47-1.12.47-1.67,0Z"/><path class="cls-1" d="m507.44,383.02c0,.07,0,.14-.01.22-.49.42-.97.43-1.44-.02,0-.07,0-.13.01-.2h1.44Z"/><path class="cls-6" d="m505.99,383.22c.48,0,.96.01,1.44.02,1.04,0,2.08,0,3.12,0,.73,0,1.46,0,2.19,0,1.04,0,2.08,0,3.12-.01.56,0,1.11,0,1.67,0,30,1.56,56.44,12.08,78.99,31.93,21.88,19.26,35.59,43.36,41.28,71.96,2.37,11.9,2.9,23.92,1.78,36-2.65,28.48-13.58,53.38-32.7,74.61-14.88,16.53-32.97,28.32-54.03,35.51-9.21,3.14-18.67,5.16-28.36,6.09-23.96,2.31-46.82-1.65-68.53-12.04-12.26-5.87-23.29-13.56-33.1-22.99-15.4-14.8-26.48-32.32-33.2-52.6-4.85-14.62-6.98-29.67-6.32-45.03,1.33-30.66,12.08-57.63,32.51-80.57,18.51-20.79,41.52-34.09,68.69-40.12,7.06-1.57,14.23-2.43,21.46-2.75Z"/><path class="cls-3" d="m450.83,545.09c0-7.27-.06-14.54.03-21.81.04-3.16-.77-6.16-1.24-9.23-.08-.51-.15-1.03-.15-1.54-.01-5.67,0-11.34-.02-17.02,0-.44.3-1.1-.6-1.15-.92-.04-.77.59-.77,1.13-.02,5.79-.23,11.57-1.53,17.25-.39,1.71-.93,3.38-1.85,4.9-2.11,3.51-6.74,3.7-9.16.36-1.06-1.46-1.63-3.15-1.68-4.92-.35-11.72.82-23.19,5.71-34.03,2.48-5.49,5.94-10.28,10.54-14.22.86-.74,1.41-.72,2.13.2,3.86,4.94,7.79,9.82,11.65,14.76.57.73.87.78,1.49.07,3.64-4.19,6.99-8.62,10.42-12.98.17-.22.34-.44.52-.66.8-1,1.61-.99,2.39.02,3.43,4.46,6.85,8.94,10.55,13.19.81.93,1.67,1.83,2.57,2.68.96.91,1.72.87,2.71-.02,3.84-3.43,7.69-6.86,11.74-10.04,1.72-1.35,4.83-1.3,6.52.1,1.47,1.22,2.29,2.82,2.85,4.61.2.63-.15.99-.42,1.4-2.39,3.67-5.33,6.86-8.5,9.86-3.75,3.54-7.68,6.89-11.94,9.78-2.61,1.77-3.31,1.82-5.55.05-2.55-2.01-4.72-4.41-6.92-6.79-.22-.23-.41-.51-.67-.67-.32-.2-.64-.14-.7.31-.04.32-.02.64-.02.96-.02,5.43,0,10.86-.07,16.3-.06,4.4-.86,8.73-1.78,13.02-.13.6-.17,1.18-.17,1.78,0,15.1,0,30.2,0,45.3,0,1.99-.44,3.88-1.35,5.65-1.76,3.41-5.42,4.34-8.6,2.2-1.55-1.04-2.75-2.43-3.76-3.98-.49-.75-.76-.84-1.25-.01-.8,1.34-1.81,2.53-2.92,3.63-2.83,2.81-7.15,1.28-8.54-1.05-1.17-1.95-1.65-4.05-1.65-6.28-.01-7.71,0-15.42,0-23.13Z"/><path class="cls-3" d="m527.1,428.78c14.1,0,28.21,0,42.31,0,2.69,0,5.33.37,7.89,1.22,5.89,1.95,8.99,6.18,9.98,12.15.23,1.42.27,2.86.27,4.3,0,23.93,0,47.86,0,71.8,0,4.21-1.1,8.05-4.06,11.2-2.68,2.85-6.13,4.24-9.84,5.08-3.05.7-6.16.92-9.27.92-25.93.02-51.86.01-77.79.01-.36,0-.72.02-1.08-.01-2.64-.21-3.8-1.38-3.91-4.03-.05-1.28-.02-2.56,0-3.84.02-1.22,1.08-2.35,2.32-2.47.36-.04.72,0,1.08,0,28.45,0,56.89,0,85.34,0,.96,0,1.92-.05,2.87-.15,2.74-.28,4.45-2.12,4.7-5.02.04-.4.03-.8.03-1.2,0-24.45,0-48.9,0-73.35,0-.72-.02-1.43-.19-2.14-.56-2.43-2.08-3.84-4.53-4.09-.91-.1-1.83-.15-2.75-.15-27.65,0-55.3-.01-82.94.02-1.24,0-2.01-.43-2.65-1.42-1.55-2.39-2.61-5.02-3.75-7.61-.21-.48-.07-.68.36-.91.57-.29,1.15-.29,1.75-.29,14.62,0,29.25,0,43.87,0Z"/><path class="cls-3" d="m454.94,463.35c-.05-.87.04-1.89.35-2.9.24-.77.7-1.09,1.52-.96,1.26.2,2.55.27,3.79.54.89.2,1.45-.03,1.86-.8.07-.14.2-.25.27-.39.24-.43.91-.79.68-1.27-.19-.4-.88-.18-1.34-.23-4.24-.45-7.36-2.67-9.64-6.16-1.79-2.74-2.83-5.79-3.54-8.96-.05-.23-.11-.48-.06-.7,1-4.32,2.39-8.5,5.7-11.65,3.53-3.35,7.65-4.77,12.51-3.25,3.67,1.15,7.15,2.64,9.72,5.6,3.17,3.66,4.31,7.8,2.66,12.55-1.26,3.63-2.8,7.06-5.75,9.64-2.11,1.84-4.6,2.83-7.42,2.96-.32.02-.8-.15-.93.29-.09.31.23.58.46.8,1.04,1.03,2.11,1.89,3.75,1.73,1.23-.12,2.48.03,3.71-.04.82-.05,1.14.33,1.34,1.03.33,1.14.32,2.3.22,3.45-.1,1.23-2.12,2.42-3.27,2.02-.19-.07-.38-.12-.56-.21-1.39-.68-2.68-.75-4.14.08-1.46.83-3.1.72-4.57-.21-.87-.55-1.71-.68-2.72-.42-.92.24-1.89.34-2.84.39-1.49.08-1.77-.22-1.78-1.68,0-.36,0-.72,0-1.26Z"/><path class="cls-3" d="m565.21,477.91c3.53-.79,7.02,4.73,6.65,7.79-.18,1.52-1,2.66-2.17,3.58-2.13,1.69-4.63,2.65-7.18,3.47-.68.22-1.06.57-1.37,1.18-1.46,2.93-2.97,5.83-4.41,8.76-.41.83-.91,1.46-1.79,1.8-.52.2-1,.49-1.5.74-2.12,1.06-4.1.71-5.69-1.05-1.34-1.49-2.03-3.32-2.46-5.25-.13-.56.11-1.02.32-1.49.86-1.97,1.03-3.82.02-5.92-2.46-5.1-4.59-10.35-7.21-15.38-1.45-2.78-1.73-2.81-3.41-.19-3.29,5.12-5.73,10.68-8.34,16.15-.53,1.11-.99,2.27-1.56,3.37-.46.88-.55,1.77-.15,2.64.91,1.94.24,3.59-1.1,4.89-1.85,1.79-3.99,3.25-6.8,2.79-2.21-.37-3.58-1.85-4.46-3.79-1.33-2.94-1.55-6.08-1.59-9.24-.01-.83.72-1,1.18-1.37,1.49-1.21,1.61-1.29,3-.01,1.35,1.24,2.89.91,4.4.91.62,0,.9-.62,1.23-1.05,1.89-2.48,3.47-5.17,5-7.88,1.98-3.51,3.85-7.08,5.83-10.59.58-1.02.64-2.04.39-3.11-.26-1.09-.57-2.16-.87-3.24-.98-3.51,2.25-8.08,5.89-8.31,1.02-.07,1.83.52,2.67.95,1.81.93,3.4,2.11,4.26,4.04.55,1.24.83,2.49-.08,3.72-2.23,3.04-2.12,6-.36,9.38,2.21,4.23,3.86,8.76,6.29,12.9.4.69.9,1.32,1.32,2,.83,1.37,2.44,1.2,3.63,1.86.03.01.08-.02.12-.02,1.26-.11,3.96-3.69,3.77-4.96-.17-1.14-.21-2.31-.45-3.44-.44-2.1,2.16-5.64,4.54-6.46.69-.24,1.5-.1,2.45-.15Z"/><path class="cls-3" d="m525.24,515.6c-12.06,0-24.12,0-36.18,0-1.48,0-2.86-.25-4-1.27-.9-.8-.93-1.3-.12-2.21.8-.89,1.89-1.17,3.01-1.3.95-.11,1.91-.16,2.87-.16,23.16,0,46.33,0,69.49,0,1.37,0,2.71.14,4,.63,1.71.65,1.97,2.29.53,3.44-.96.77-2.12.87-3.29.87-4.35.01-8.71,0-13.06,0-7.75,0-15.5,0-23.24,0Z"/><path class="cls-3" d="m499.59,596.22c-.57,2.48-1.18,4.94-1.67,7.43-.17.87-.55,1.13-1.36,1.09-1.04-.04-2.08-.04-3.11,0-.69.03-.98-.26-1.13-.93-.52-2.41-1.09-4.82-1.65-7.22-.09-.38-.21-.75-.36-1.28-.4.65-.31,1.21-.32,1.74-.02,2.2-.06,4.39-.02,6.59.01.75-.22.96-.95.93-1.08-.05-2.16-.03-3.23.05-.77.06-.97-.28-.97-.96.02-3.47.02-6.95.02-10.42,0-1.16.03-2.32-.03-3.47-.05-.86.18-1.22,1.12-1.18,2.15.09,4.31.1,6.46.1.64,0,.89.19,1,.84.41,2.32.89,4.62,1.35,6.92.05.23.02.49.31.69.51-.74.44-1.62.62-2.43.38-1.75.7-3.52.99-5.29.1-.62.39-.77.96-.77,2.24,0,4.47,0,6.71-.06.74-.02,1.06.16,1.07.99.04,3.03.16,6.06.21,9.09.03,1.71-.01,3.42.02,5.14.01.65-.2.94-.89.93-1.16-.03-2.32-.05-3.47.04-1.01.09-1.25-.41-1.26-1.25,0-2.08-.02-4.15-.04-6.23,0-.34-.04-.69-.06-1.03l-.33-.06Z"/><path class="cls-3" d="m439.19,468.31c-.52-.7-.71-1.48-.71-2.35.02-6.39-.02-12.78.02-19.17.03-4.29.86-8.34,3.94-11.6.8-.85,1.7-1.57,2.68-2.19.24-.15.55-.23.78-.04.25.2.02.45-.06.65-1.29,3.5-1.16,7.15-1.04,10.77.07,2.21.98,4.26,1.61,6.36.67,2.21,1.42,4.4,2.16,6.59.18.54.2.95-.23,1.41-2.75,2.95-5.47,5.93-8.2,8.89-.26.29-.53.6-.96.69Z"/><path class="cls-3" d="m482.79,599.74c0,1.16-.03,2.32.01,3.47.02.63-.2.96-.81,1.1-3.22.76-6.48,1.1-9.72.37-4.17-.94-6.42-4.76-5.73-9.43.58-3.96,3.16-6.38,7.17-6.81,1.73-.18,3.42-.11,5.11.26,2.2.49,3.58,2.17,3.67,4.42.02.44-.07.67-.56.66-1.56-.02-3.11-.03-4.67-.03-.37,0-.54-.17-.72-.49-.59-1.04-1.52-1.21-2.46-.49-.46.35-.74.84-.88,1.39-.41,1.53-.37,3.1-.18,4.64.23,1.82,2.67,2.83,4.23,1.85.52-.33.26-.88.29-1.32.04-.53-.46-.37-.71-.33-1.3.22-1.72-.35-1.54-1.57.06-.39.02-.8,0-1.2-.02-.53.14-.82.74-.81,2,.03,3.99.02,5.99.06.62.01.99.21.89,1.03-.13,1.06-.03,2.15-.03,3.23-.03,0-.05,0-.08,0Z"/><path class="cls-3" d="m449.94,596.52c0-2.28,0-4.55,0-6.83,0-.47-.12-.98.65-.99,3.07-.05,6.15-.34,9.2.19,3.49.61,5.1,2.27,5.81,5.76.92,4.53-1.48,8.67-5.65,9.74-.57.15-1.18.21-1.78.22-2.35.06-4.71.05-7.06.14-.91.04-1.2-.31-1.19-1.17.03-2.36,0-4.71,0-7.07Z"/><path class="cls-3" d="m507.44,596.63c0-2.32.03-4.63-.02-6.95-.01-.7.11-.98.89-.98,3.35,0,6.71-.02,10.06-.09.86-.02,1.18.19,1.18,1.12-.02,2.79.03,2.79-2.75,2.79-.72,0-1.44-.02-2.16,0-.36.01-.87-.34-1.06.19-.21.6-.25,1.27-.1,1.89.1.39.53.23.83.22,1.24-.03,2.47-.06,3.71-.12.7-.03.97.22.99.96.05,2.33.08,2.34-2.19,2.44-.76.04-1.52.11-2.27.03-1.26-.13-1.01.7-1.09,1.44-.1.95.31,1.16,1.16,1.1,1.39-.11,2.79-.11,4.18-.19.67-.04.89.18.92.87.13,3.27.15,3.22-3.2,3.2-2.63-.01-5.27.09-7.9.2-.91.04-1.27-.19-1.24-1.18.07-2.31.02-4.63.02-6.95.01,0,.02,0,.03,0Z"/><path class="cls-3" d="m564.33,588.44c2.71,0,5.43.02,8.14-.01.76-.01,1.08.23,1.11,1,.08,2.19-.2,4.26-1.4,6.19-1.65,2.64-3.05,5.42-4.38,8.24-.32.67-.73.94-1.47.91-1.4-.06-2.8-.01-4.19-.02-.88,0-1.22-.28-.74-1.22,1.67-3.22,3.25-6.49,4.92-9.71.44-.85.33-1.06-.63-1.02-1.63.07-3.27.01-4.91.06-.79.02-1.02-.3-1.05-1.06-.11-3.55-.13-3.55,3.41-3.54.4,0,.8,0,1.2,0,0,.07,0,.14,0,.2Z"/><path class="cls-3" d="m551.54,592.83c-2.12,0-4.04-.03-5.95.01-.78.02-1.08-.26-1.03-1.04.05-.96.03-1.92,0-2.87-.01-.51.19-.7.71-.69,4.11.08,8.22.15,12.32.2.53,0,.69.25.71.73.07,2.17.02,4.28-1.21,6.23-1.68,2.66-3.09,5.49-4.46,8.32-.35.73-.75,1.11-1.63,1.05-1.35-.09-2.71-.02-4.07-.03-.9,0-1.3-.2-.76-1.24,1.68-3.21,3.27-6.47,4.9-9.72.14-.28.27-.56.46-.95Z"/><path class="cls-3" d="m532.89,594.4c-.95.46-1.73.85-2.51,1.22-.53.25-.94.29-.85-.51,0-.04,0-.08,0-.12-.43-2.4,0-4.3,2.74-4.95.04,0,.08-.03.1-.06,1.58-1.77,3.67-1.54,5.73-1.5.7.02.97.12.97.9-.01,4.75.01,9.5.07,14.25.01.84-.29,1.15-1.09,1.14-1.28-.02-2.56-.06-3.83.01-1.12.06-1.45-.39-1.41-1.46.08-2.63.06-5.27.08-7.9,0-.28,0-.55,0-1.02Z"/><path class="cls-3" d="m489.09,459.02c.1-.63.14-1.33.83-1.5.87-.22,1.8-.42,2.59.31,1.03.96,1.86,2.09,2.62,3.26,1.54,2.38,2.99,4.81,4.54,7.18.46.7.26,1-.34,1.42-2.78,1.94-3.11,1.9-4.93-.86-1.62-2.47-3.23-4.95-4.53-7.6-.35-.72-.64-1.46-.79-2.21Z"/><path class="cls-3" d="m448.85,528.37c0,.96.04,1.91-.01,2.86-.07,1.26-1.28,1.97-2.28,1.23-2.18-1.6-4.27-3.35-5.55-5.82-.74-1.41-.62-1.58.88-2.04,1.64-.5,3.32-.82,5.03-.87,1.32-.04,1.86.43,1.92,1.76.05.95,0,1.91,0,2.86Z"/><path class="cls-8" d="m455.57,596.58c0-1.16.02-2.32,0-3.47-.02-.94.3-1.4,1.33-1.33,1.36.09,2.2.62,2.54,1.93.48,1.85.44,3.71-.1,5.56-.19.67-.53,1.26-1.13,1.64-.66.42-1.44.59-2.15.3-.65-.26-.37-.98-.39-1.51-.03-1.04,0-2.08,0-3.11h-.09Z"/></svg>