<?xml version="1.0" encoding="UTF-8"?><svg id="Layer_1" xmlns="http://www.w3.org/2000/svg" viewBox="0 0 360 360"><defs><style>.cls-1{fill:#233890;}.cls-1,.cls-2{stroke-width:0px;}.cls-2{fill:#e76e13;}</style></defs><circle class="cls-2" cx="180" cy="182.08" r="175.42"/><path class="cls-1" d="m103.65,290.35l2.51-.04c4.37,0,7.44.72,9.21,2.17.38.28.79.74,1.23,1.39,1.3,1.89,1.94,3.97,1.94,6.25,0,4.07-1.4,7.07-4.2,9.02-1.67,1.17-3.59,1.76-5.76,1.78l-.05.05h-.34l-3.57-.04c-1.62,0-3.64.04-6.07.12-.17-.32-.25-.7-.25-1.14v-.48s.01-2.09.01-2.09l.03-2.98v-4.91c-.02-1.13-.03-1.97-.03-2.52v-2.51s.01-3.83.01-3.83c0-.07.49-.13,1.46-.18.97-.05,1.75-.07,2.33-.07h1.53Zm5.68,4.64c-.51-.37-1.07-.57-1.69-.62-.21,0-.51-.02-.88-.03-.37,0-.64-.02-.81-.03-.16.24-.27.42-.32.54l-.24.5v.75c0,1.55.04,3.64.11,6.29l.08,3.87c.05.28.23.44.54.5.92-.02,1.63-.08,2.13-.19,1.76-.62,2.64-2.77,2.64-6.42,0-2.71-.52-4.43-1.56-5.16Z"/><path class="cls-1" d="m140.48,309.85s0,.03.01.05l-.04.11h.01v.03s0,.03-.01.04c-.42.32-1.45.62-3.08.88-1.63.27-2.75.4-3.36.4s-.95,0-1.03-.01l-.68.04c-.72.04-1.13.07-1.23.07-3.75,0-6.61-.94-8.57-2.83-1.96-1.88-2.94-4.56-2.94-8.04s1.06-6.11,3.17-7.9c2.11-1.8,4.98-2.7,8.59-2.7.66,0,1.48.06,2.45.19.97.13,1.82.31,2.55.55.89.37,1.66.9,2.3,1.59s1.06,1.46,1.25,2.3c.04.23.08.6.13,1.09s.09.86.13,1.09c-.05.13-.25.2-.58.2l-6.81-.12s-.08-.14-.13-.36v.04c-.16-.72-.48-1.17-.95-1.33-.21-.08-.5-.12-.84-.12s-.68.06-.99.17c-.31.12-.57.28-.77.48-.21.21-.39.44-.55.72-.16.27-.28.56-.36.88-.08.31-.15.63-.21.96-.06.33-.1.66-.11.98-.01.32-.03.63-.04.93-.01.29-.02.54,0,.73s.01.32.01.38v.92c0,.58.03.99.08,1.21.05.23.12.48.19.75.07.27.16.48.25.62.35.49.73.83,1.13,1.03s1.04.29,1.9.29,1.68-.13,2.46-.39l.07-2.12-.97-.08-.13.07h-1.56s-.33-.33-.33-.33c-.02-.15-.03-.39-.03-.72v-3c0-.15.11-.3.32-.46h.9c.78,0,1.65,0,2.61.03h.13c.88.02,1.54.03,2,.03h1.11c1.59-.01,2.5.09,2.72.29l-.16,10.18v.19Z"/><path class="cls-1" d="m149.85,299.09c-.11,2.53-.16,5.13-.16,7.8v4h-1.31s-4.76.03-4.76.03c-.3,0-.46,0-.48.01,0,0,.02-.08.05-.23v-.13c-.03-.64-.05-1.43-.05-2.35l.05-14.98v-.7s-.01-.67-.01-.67l-.03-1.26c0-.09.05-.18.15-.28h2.91c2.52-.01,4.32.02,5.41.09,1.09.07,1.87.11,2.34.11.26,1.54.64,3.58,1.15,6.11l.95,4.8h.47l1.72-8.77c.03-.13.09-.53.19-1.17.1-.65.17-1.01.23-1.08h.05l8.73-.08h.52s1.5.01,1.5.01c.08.04.12.2.13.5l.13,5.07c.11,4.2.18,7.47.23,9.81,0,1.81-.03,3.5-.08,5.08-.03.11-.21.17-.54.19l-.6.03c-.48.02-.84.03-1.07.03h-.7c-.87,0-2.15.01-3.83.01-.31-.28-.47-1.47-.47-3.59l.03-4.21v-1.09c0-.96,0-1.66-.01-2.12l-.51-.09c-.29,1.08-.86,3.49-1.7,7.23l-.12.54c-.06.28-.17.77-.32,1.48-.15.71-.27,1.25-.35,1.62-.11.12-.58.19-1.42.19h-.17l-1.5-.04h-.82s-.63.01-.63.01h-1.06s-.38.01-.38.01c-.41,0-.64-.09-.68-.28h.01s-1.22-5.31-1.22-5.31c-.04-.13-.12-.43-.24-.88-.12-.45-.2-.83-.21-1.13l-1.01-4.34-.5.03Z"/><path class="cls-1" d="m172.32,294.03l-.07-3.53s.04.01.09.04c6.79-.12,11.91-.18,15.35-.19.04.02.06.04.08.08v3.78c0,.37,0,.67-.03.9-.04.14-.31.21-.79.21h-.09c-2.16,0-4.41-.04-6.76-.11,0,.08-.01.22-.03.43-.02.21-.04.35-.05.44l-.07.51c-.04.34-.08.93-.09,1.77l4.16-.09c.71-.02,1.23-.03,1.55-.03h.21c.54,0,.9.02,1.07.05s.26.12.26.27v.11s-.01.32-.01.32l.07,3.45h-.01s0,0,0,0c-2.72.13-4.89.2-6.51.2h-.63v3.24l7.28-.23c.4,0,.66.06.76.17,0,.23-.01.56-.01.99l.09,3.65c0,.22-.1.35-.29.39l-4.45-.04c-.88,0-2.62.03-5.23.09l-2.2.05c-1.56.05-2.71.08-3.46.08l-.04-.03h.01c-.09-.09-.17-.17-.25-.25v-.47l.08-14.33v-1.94Z"/><path class="cls-1" d="m212.9,291.72l-.03,3.94c0,2.63.02,4.89.07,6.78l.12,8.33c-.22.21-.8.31-1.73.31l-1.15-.03h-.78s-.55.01-.55.01h-.84c-.9.01-1.8,0-2.68-.03l-.21-.34c-.09-.12-.13-.41-.13-.84s.04-3.34.11-8.7l.05-3.67c-1.47,1-2.9,1.72-4.29,2.16-.06,0-.1-.05-.11-.12v-2.02c-.01-2.35,0-3.53.04-3.55.04-.01.17-.08.4-.21.23-.12.49-.25.78-.36.29-.12.47-.2.53-.24.06-.04.13-.08.21-.12,2.3-1.1,3.7-2.05,4.21-2.84l4.13.08c.82,0,1.43-.02,1.82-.05.03.05.04.3.04.75v.76Z"/><path class="cls-1" d="m227.15,299.35c1.11-1.31,2.59-1.97,4.44-1.97s3.44.61,4.75,1.82,1.96,2.73,1.96,4.56c0,2.37-.94,4.26-2.83,5.68-1.47,1.11-3.36,1.74-5.66,1.9-1.71-.02-3.12-.2-4.23-.55-1.11-.35-1.91-.73-2.38-1.15h0c-1.5-1.5-2.51-3.19-3.03-5.05-.27-1.2-.4-2.53-.4-4,0-2.1.4-3.97,1.2-5.62s1.95-2.95,3.45-3.92c1.5-.96,3.23-1.5,5.21-1.59,3.03.07,5.19.96,6.49,2.67.68.9,1.1,1.97,1.27,3.19-.79.2-2.95.29-6.5.29-.18,0-.27.02-.28.05l-.03-.8c-.19-.3-.53-.46-1.03-.46-.96,0-1.62.46-1.97,1.37-.29.77-.44,1.62-.44,2.55v.6c0,.1,0,.24.01.42Zm2.36,1.62c-1.74,0-2.61,1.14-2.61,3.43,0,1.27.43,2.18,1.3,2.72l.16-.2s.07.01.13.01l-.05.27.2.07h-.01c.45.13.79.2,1.04.2s.53-.07.85-.2c1.03-.45,1.54-1.52,1.54-3.23,0-.97-.19-1.72-.58-2.25-.38-.53-1.04-.8-1.97-.82Z"/><path class="cls-1" d="m257.18,296.04c0,2.02-1.1,3.41-3.3,4.18,1.47.73,2.38,1.33,2.75,1.8.77.97,1.15,2.08,1.15,3.34,0,1.87-.76,3.35-2.29,4.44-.81.57-1.75.99-2.8,1.24s-2.43.38-4.12.38-3.05-.12-4.08-.35c-1.85-.42-3.21-1.18-4.08-2.28-.71-.89-1.14-2.03-1.31-3.41.21-2.23,1.41-3.9,3.62-5-1.99-.92-2.99-2.38-2.99-4.38,0-.92.18-1.75.54-2.49.63-1.34,1.71-2.33,3.21-2.96s3.11-.95,4.82-.95c3,0,5.34.71,7.01,2.12,1.25,1.05,1.88,2.49,1.88,4.32Zm-6.3,8.83c0-1.94-.82-2.91-2.47-2.91-.73,0-1.33.27-1.8.82-.46.54-.7,1.21-.7,2,.09.8.35,1.43.77,1.9.42.47,1.01.7,1.76.7s1.34-.23,1.78-.69c.43-.46.65-1.07.65-1.82Zm-2.52-11.17c-.67,0-1.18.27-1.54.82s-.54,1.13-.54,1.74c0,1.7.73,2.55,2.19,2.55.72,0,1.26-.25,1.6-.74.34-.5.52-1.11.52-1.84,0-1.68-.74-2.52-2.23-2.52Z"/><path class="cls-1" d="m112.88,136.94c1.38,1.19,8.66,29.24,21.86,84.15h28.05c1.74-.09,9.35-15.31,22.82-45.65l3.16-2.2h82.22c1.38.27,2.06,1.01,2.06,2.2v5.09c0,1.47-.69,2.2-2.06,2.2h-78.1l-17.6,38.36h16.64c1.38.28,2.06,1.01,2.06,2.2v11.41c0,1.38-.69,2.06-2.06,2.06h-8.39v.96c9.08,19.62,13.61,31.07,13.61,34.37-1.29,0-4.4,1.05-9.35,3.16-10.63-25.39-16.55-38.22-17.74-38.5h-22.82c-2.48,3.02-8.75,15.86-18.84,38.5h-.96c-5.59-2.11-8.39-4.21-8.39-6.32,6.96-14.3,11.82-25.02,14.57-32.17h-10.31c-1.56,0-9.9-31.9-25.02-95.7,3.21-1.38,8.06-2.75,14.57-4.12Zm47.85-91.57h6.19c18.06,4.31,27.09,12.97,27.09,25.99v7.29c0,13.84-9.35,22.87-28.05,27.09h-2.06c-20.17-3.48-30.25-13.56-30.25-30.25,3.94-20.07,12.97-30.11,27.09-30.11Zm116.46,63.38l1.1,2.2c-2.93,38.77-5.36,58.16-7.29,58.16h-58.3c-1.38,0-2.06-3.12-2.06-9.35h-1.1c0,5.77-.32,8.89-.96,9.35-13.84,0-20.76-2.43-20.76-7.29v-3.02c.18-1.47.87-2.2,2.06-2.2,6.87.73,12.05,1.1,15.54,1.1,0-.64-6.6-5.13-19.8-13.47v2.06c0,17.97-3.44,31.49-10.31,40.56-8.62,20.07-13.84,30.11-15.67,30.11h-20.76c-1.38,0-2.06-.69-2.06-2.06,2.75-56.1,4.12-89.37,4.12-99.82l2.06-1.1h32.31l45.79,38.5c1.83-22.82,3.53-34.24,5.09-34.24,30.06-4.86,47.07-8.02,51.01-9.49Zm-83.18,86.35h40.56c1.38.27,2.06.96,2.06,2.06v80.16c0,1.38-.69,2.06-2.06,2.06h-23.92c-1.38,0-2.06-.69-2.06-2.06v-60.36h-23.92l-2.06-.96c5.68-13.93,9.49-20.9,11.41-20.9Zm0-33.27c.18,1.38.87,2.06,2.06,2.06h6.19v-.96l-5.09-1.1h-3.16Zm33.27-36.44c-1.38,18.33-2.06,29.1-2.06,32.31h41.52c1.47,0,2.2-.69,2.2-2.06,1.38-21.72,2.06-34.19,2.06-37.4.64,0,.96-.37.96-1.1h-.96c-29.15,4.12-43.72,6.87-43.72,8.25Zm15.54,37.54v.96h4.26v-.96h-4.26Zm6.33,0v.96h15.54v-.96h-15.54Z"/></svg>