<?xml version="1.0" encoding="UTF-8"?><svg id="Layer_1" xmlns="http://www.w3.org/2000/svg" viewBox="0 0 360 360"><defs><style>.cls-1{fill:#233890;}.cls-1,.cls-2{stroke-width:0px;}.cls-2{fill:#e76e13;}</style></defs><circle class="cls-2" cx="183.03" cy="180" r="175.42"/><path class="cls-1" d="m109.63,294.1l2.51-.04c4.37,0,7.44.72,9.21,2.17.38.28.79.74,1.23,1.39,1.3,1.89,1.94,3.97,1.94,6.25,0,4.07-1.4,7.07-4.2,9.02-1.67,1.17-3.59,1.76-5.76,1.78l-.05.05h-.34l-3.57-.04c-1.62,0-3.64.04-6.07.12-.17-.32-.25-.7-.25-1.14v-.48s.01-2.09.01-2.09l.03-2.98v-4.91c-.02-1.13-.03-1.97-.03-2.52v-2.51s.01-3.83.01-3.83c0-.07.49-.13,1.46-.18.97-.05,1.75-.07,2.33-.07h1.53Zm5.68,4.64c-.51-.37-1.07-.57-1.69-.62-.21,0-.51-.02-.88-.03-.37,0-.64-.02-.81-.03-.16.24-.27.42-.32.54l-.24.5v.75c0,1.55.04,3.64.11,6.29l.08,3.87c.05.28.23.44.54.5.92-.02,1.63-.08,2.13-.19,1.76-.62,2.64-2.77,2.64-6.42,0-2.71-.52-4.43-1.56-5.16Z"/><path class="cls-1" d="m146.46,313.6s0,.03.01.05l-.04.11h.01v.03s0,.03-.01.04c-.42.32-1.45.62-3.08.88-1.63.27-2.75.4-3.36.4s-.95,0-1.03-.01l-.68.04c-.72.04-1.13.07-1.23.07-3.75,0-6.61-.94-8.57-2.83-1.96-1.88-2.94-4.56-2.94-8.04s1.06-6.11,3.17-7.9c2.11-1.8,4.98-2.7,8.59-2.7.66,0,1.48.06,2.45.19.97.13,1.82.31,2.55.55.89.37,1.66.9,2.3,1.59s1.06,1.46,1.25,2.3c.04.23.08.6.13,1.09s.09.86.13,1.09c-.05.13-.25.2-.58.2l-6.81-.12s-.08-.14-.13-.36v.04c-.16-.72-.48-1.17-.95-1.33-.21-.08-.5-.12-.84-.12s-.68.06-.99.17c-.31.12-.57.28-.77.48-.21.21-.39.44-.55.72-.16.27-.28.56-.36.88-.08.31-.15.63-.21.96-.06.33-.1.66-.11.98-.01.32-.03.63-.04.93-.01.29-.02.54,0,.73s.01.32.01.38v.92c0,.58.03.99.08,1.21.05.23.12.48.19.75.07.27.16.48.25.62.35.49.73.83,1.13,1.03s1.04.29,1.9.29,1.68-.13,2.46-.39l.07-2.12-.97-.08-.13.07h-1.56s-.33-.33-.33-.33c-.02-.15-.03-.39-.03-.72v-3c0-.15.11-.3.32-.46h.9c.78,0,1.65,0,2.61.03h.13c.88.02,1.54.03,2,.03h1.11c1.59-.01,2.5.09,2.72.29l-.16,10.18v.19Z"/><path class="cls-1" d="m155.83,302.84c-.11,2.53-.16,5.13-.16,7.8v4h-1.31s-4.76.03-4.76.03c-.3,0-.46,0-.48.01,0,0,.02-.08.05-.23v-.13c-.03-.64-.05-1.43-.05-2.35l.05-14.98v-.7s-.01-.67-.01-.67l-.03-1.26c0-.09.05-.18.15-.28h2.91c2.52-.01,4.32.02,5.41.09,1.09.07,1.87.11,2.34.11.26,1.54.64,3.58,1.15,6.11l.95,4.8h.47l1.72-8.77c.03-.13.09-.53.19-1.17.1-.65.17-1.01.23-1.08h.05l8.73-.08h.52s1.5.01,1.5.01c.08.04.12.2.13.5l.13,5.07c.11,4.2.18,7.47.23,9.81,0,1.81-.03,3.5-.08,5.08-.03.11-.21.17-.54.19l-.6.03c-.48.02-.84.03-1.07.03h-.7c-.87,0-2.15.01-3.83.01-.31-.28-.47-1.47-.47-3.59l.03-4.21v-1.09c0-.96,0-1.66-.01-2.12l-.51-.09c-.29,1.08-.86,3.49-1.7,7.23l-.12.54c-.06.28-.17.77-.32,1.48-.15.71-.27,1.25-.35,1.62-.11.12-.58.19-1.42.19h-.17l-1.5-.04h-.82s-.63.01-.63.01h-1.06s-.38.01-.38.01c-.41,0-.64-.09-.68-.28h.01s-1.22-5.31-1.22-5.31c-.04-.13-.12-.43-.24-.88-.12-.45-.2-.83-.21-1.13l-1.01-4.34-.5.03Z"/><path class="cls-1" d="m178.3,297.78l-.07-3.53s.04.01.09.04c6.79-.12,11.91-.18,15.35-.19.04.02.06.04.08.08v3.78c0,.37,0,.67-.03.9-.04.14-.31.21-.79.21h-.09c-2.16,0-4.41-.04-6.76-.11,0,.08-.01.22-.03.43-.02.21-.04.35-.05.44l-.07.51c-.04.34-.08.93-.09,1.77l4.16-.09c.71-.02,1.23-.03,1.55-.03h.21c.54,0,.9.02,1.07.05s.26.12.26.27v.11s-.01.32-.01.32l.07,3.45h-.01s0,0,0,0c-2.72.13-4.89.2-6.51.2h-.63v3.24l7.28-.23c.4,0,.66.06.76.17,0,.23-.01.56-.01.99l.09,3.65c0,.22-.1.35-.29.39l-4.45-.04c-.88,0-2.62.03-5.23.09l-2.2.05c-1.56.05-2.71.08-3.46.08l-.04-.03h.01c-.09-.09-.17-.17-.25-.25v-.47l.08-14.33v-1.94Z"/><path class="cls-1" d="m218.88,295.47l-.03,3.94c0,2.63.02,4.89.07,6.78l.12,8.33c-.22.21-.8.31-1.73.31l-1.15-.03h-.78s-.55.01-.55.01h-.84c-.9.01-1.8,0-2.68-.03l-.21-.34c-.09-.12-.13-.41-.13-.84s.04-3.34.11-8.7l.05-3.67c-1.47,1-2.9,1.72-4.29,2.16-.06,0-.1-.05-.11-.12v-2.02c-.01-2.35,0-3.53.04-3.55.04-.01.17-.08.4-.21.23-.12.49-.25.78-.36.29-.12.47-.2.53-.24.06-.04.13-.08.21-.12,2.3-1.1,3.7-2.05,4.21-2.84l4.13.08c.82,0,1.43-.02,1.82-.05.03.05.04.3.04.75v.76Z"/><path class="cls-1" d="m226.06,295.32l-.05-.86c0-.55.12-.83.36-.83,3.22,0,7.97.06,14.26.19l2.78.05c.21,0,.32.66.32,1.96v.63c0,2.04-.21,3.49-.62,4.34s-.88,1.73-1.41,2.63c-1.72,2.92-3.68,6.64-5.88,11.17-.04.13-.17.2-.36.2h-1.21s-.66-.01-.66-.01h-.67s-1.19-.01-1.19-.01h-.87c-2.15.01-3.23-.08-3.23-.25,0-.11.05-.25.15-.44.1-.18.17-.32.2-.41l5.66-11.29c.81-1.61,1.32-2.59,1.51-2.94h-.94c-.87,0-2.29.02-4.28.05h-3.22c-.14,0-.25-.02-.33-.07-.08-.05-.19-.17-.32-.36v-3.75Z"/><path class="cls-1" d="m249.35,308.86l3.69.07c.08.06.17.25.25.58.29.48.63.78,1.02.9,1.11,0,1.66-.87,1.66-2.61,0-1.04-.13-1.76-.4-2.16s-.7-.6-1.32-.6-1,.33-1.15.98h0c-.02.08-.03.16-.04.26,0,.1-.02.19-.04.28-.02.08-.11.13-.27.15-.63-.03-1.56-.04-2.78-.04h-3.08c-.33,0-.5-.43-.5-1.3v-.75s-.03-2.95-.03-2.95c-.02-1.2-.03-2.08-.03-2.65v-2.57c0-.48,0-.85.03-1.11v-.48c0-.49.08-.86.24-1.1.44.02,1.05.03,1.82.03l13.19.12h.2c.33-.01.53.05.6.17v3.46c0,.5-.02.84-.05,1.01-.03.17-.13.26-.29.26h-.25c-3.3,0-6.23.02-8.81.05-.07.29-.11.59-.11.92s0,.54-.01.62l-.09,1.29s0,.13,0,.27c0,.15,0,.23,0,.26,1.34-.88,2.75-1.33,4.22-1.33,1.97,0,3.56.6,4.75,1.81,1.19,1.21,1.79,2.76,1.79,4.65,0,1.13-.18,2.16-.54,3.07-.64,1.64-1.81,2.87-3.49,3.7-1.46.72-3.21,1.07-5.25,1.07s-3.84-.38-5.38-1.15c-.91-.45-1.64-1.02-2.2-1.73-.48-.73-.84-1.81-1.06-3.23.06-.14.44-.21,1.14-.21h.31s2.24.01,2.24.01Zm3.77-2.87l.23.12-.24-.09s0-.01,0-.01c0,0,0,0,0-.01Z"/><path class="cls-1" d="m80.29,94.5h137.84v1.25c0,1.21-1.67,2.83-5.01,4.87H77.79c-10.66,0-16,7.37-16,22.12v103.34c0,13.17,4.54,19.75,13.63,19.75h206.68c8.16-1.67,12.24-5.79,12.24-12.38v-120.59c0-6.49-4.5-10.57-13.49-12.24h-29.49v-1.25c1.3-3.24,4.17-4.87,8.62-4.87h12.24c18.82,0,28.24,6.95,28.24,20.86v115.72c0,13.91-8.16,20.86-24.48,20.86H87.67c-20.49,0-30.74-6.58-30.74-19.75v-118.09c0-11.41,7.37-17.94,22.11-19.61h1.25Zm22.12,10.99h104.59v1.25c-25.41,25.22-38.11,39.18-38.11,41.87-3.25,9.74-4.87,16.27-4.87,19.61.74,0,1.11.42,1.11,1.25,14.65-2.69,27.77-10.89,39.36-24.62,25.78-26.05,39.31-39.17,40.61-39.36h33.24c6.58,0,10.29,4.96,11.13,14.88v102.09c0,12.24-2.46,18.36-7.37,18.36H102.41c-6.49,0-9.74-3.25-9.74-9.74v-115.72c0-6.58,3.24-9.88,9.74-9.88Zm-1.25,67.74c.28,1.67,1.11,2.5,2.5,2.5h16c1.67,0,2.5-.83,2.5-2.5s-.83-2.5-2.5-2.5h-16c-1.67.28-2.5,1.11-2.5,2.5Zm168.57-120.59c6.58,2.13,9.88,5.84,9.88,11.13-62.03,63.98-94.86,95.97-98.47,95.97-1.39,0-5.05,1.21-10.99,3.62,0-.83-.42-1.25-1.25-1.25,0-9.64,10.66-23.55,31.99-41.73,43.58-45.16,66.53-67.74,68.85-67.74Z"/></svg>