<?xml version="1.0" encoding="UTF-8"?><svg id="Layer_1" xmlns="http://www.w3.org/2000/svg" viewBox="0 0 1024 1024"><defs><style>.cls-1{fill:#f8dac3;}.cls-1,.cls-2,.cls-3,.cls-4,.cls-5,.cls-6,.cls-7,.cls-8,.cls-9,.cls-10,.cls-11,.cls-12{stroke-width:0px;}.cls-2{fill:#f8ddc8;}.cls-3{fill:#f8dbc5;}.cls-4{fill:#f8dbc4;}.cls-5{fill:#23388f;}.cls-6{fill:#f2b68a;}.cls-7{fill:#f2b588;}.cls-8{fill:#e56d13;}.cls-9{fill:#e66e13;}.cls-10{fill:#e66d13;}.cls-11{fill:#ec914d;}.cls-12{fill:#fefefe;}</style></defs><path class="cls-12" d="m659.66,516.4c0,47.34,0,94.69.02,142.03,0,.96-.13,1.25-1.2,1.25-97.77-.03-195.54-.03-293.31,0-.97,0-1.17-.19-1.17-1.17.03-97.77.03-195.54,0-293.31,0-1.07.29-1.2,1.25-1.2,46.43.03,92.85.02,139.28.02.08.12.07.24-.04.33-1.15.41-2.37.33-3.54.41-12.67.86-24.99,3.46-36.99,7.58-16.33,5.61-31.18,13.93-44.63,24.77-5.65,4.55-10.87,9.56-15.79,14.86-8.05,8.68-14.9,18.25-20.62,28.63-7.59,13.78-12.81,28.4-15.74,43.84-1.07,5.61-1.81,11.28-2.15,16.99-.24,4.07-.55,8.13-.44,12.2.28,10.41,1.4,20.71,3.72,30.88,2.01,8.84,4.82,17.41,8.38,25.73,4.25,9.93,9.63,19.21,15.96,27.96,3.61,4.99,7.56,9.7,11.75,14.22,10.71,11.52,22.98,20.99,36.72,28.59,7.68,4.25,15.69,7.76,24.01,10.53,9.69,3.23,19.62,5.42,29.78,6.64,7.76.93,15.54,1.17,23.31.85,13.06-.54,25.86-2.79,38.34-6.79,8.09-2.6,15.92-5.79,23.44-9.72,9.34-4.89,18.06-10.73,26.16-17.48,3.44-2.87,6.79-5.84,9.93-9.02,9.86-9.97,18.27-21.05,25.01-33.37,8.38-15.31,13.86-31.59,16.48-48.84.64-4.18,1.07-8.39,1.33-12.62.1-1.58-.03-3.19.41-4.75.1-.11.21-.12.34-.04Z"/><path class="cls-12" d="m519.16,364.02c46.47,0,92.95,0,139.42-.02.9,0,1.1.2,1.1,1.1-.03,47.31-.02,94.62-.02,141.93-.12.08-.23.07-.33-.04-.47-1.47-.31-3.01-.4-4.5-.47-8.2-1.7-16.28-3.56-24.28-2.02-8.71-4.83-17.15-8.37-25.35-5.29-12.22-12.22-23.44-20.53-33.82-4.38-5.47-9.18-10.56-14.3-15.31-8.85-8.21-18.54-15.28-29.14-21.1-11.52-6.33-23.65-11.05-36.41-14.16-6.84-1.67-13.76-2.81-20.77-3.46-2.21-.2-4.45-.21-6.64-.66-.11-.1-.12-.21-.04-.33Z"/><path class="cls-11" d="m507.89,364.02h8.15c.07.16.03.29-.12.39-1.68.47-3.39.16-5.09.21-.94.03-1.91.18-2.82-.21-.15-.09-.19-.22-.12-.39Z"/><path class="cls-6" d="m659.66,509.92v3.6c-.15.07-.27.04-.37-.1-.34-1.13-.34-2.27,0-3.41.1-.14.22-.17.37-.1Z"/><path class="cls-3" d="m659.66,509.92c-.07,0-.14,0-.21-.01-.59-.96-.59-1.92,0-2.88.07,0,.14,0,.21,0v2.88Z"/><path class="cls-4" d="m659.45,513.53c.07,0,.14,0,.2-.02v2.88c-.07,0-.14.01-.21.01-.6-.96-.6-1.92,0-2.87Z"/><path class="cls-7" d="m507.89,364.02c0,.07-.02.14-.03.21-.56.51-1.18.41-1.8.16-.13-.1-.16-.22-.09-.37h1.92Z"/><path class="cls-7" d="m516.07,364.23c0-.07-.02-.14-.03-.21h1.92c.07.15.04.27-.09.37-.63.25-1.24.36-1.8-.16Z"/><path class="cls-2" d="m505.97,364.02c0,.07,0,.14-.02.21-.48.43-.95.43-1.43,0,.01-.07.01-.14,0-.21h1.44Z"/><path class="cls-1" d="m517.97,364.23c-.01-.07-.02-.14-.01-.21h1.2c0,.07.01.13.01.2-.39.39-.79.39-1.2.01Z"/><path class="cls-8" d="m517.97,364.23c.4,0,.8,0,1.2-.01,21.09,1.06,41.06,6.34,59.87,15.95,13.25,6.77,25.2,15.36,35.84,25.76,17.33,16.95,29.81,36.92,37.38,59.96,3.92,11.93,6.25,24.17,6.95,36.71.08,1.47.15,2.95.23,4.42,0,.96,0,1.92,0,2.88,0,1.21,0,2.42.01,3.63,0,.96,0,1.92,0,2.87-.71,21.71-5.88,42.3-15.63,61.72-6.68,13.3-15.19,25.32-25.54,36.03-19.28,19.94-42.3,33.49-69.11,40.56-14.47,3.81-29.2,5.28-44.13,4.59-20.6-.96-40.17-6-58.65-15.16-13.73-6.81-26.13-15.55-37.1-26.26-21.26-20.75-35.14-45.64-41.58-74.65-1.94-8.75-2.97-17.63-3.25-26.6-.79-25.21,4.36-49.13,15.81-71.6,14.29-28.03,35.45-49.39,63.22-64.15,14.43-7.67,29.78-12.61,45.91-15.12,5.01-.78,10.05-1.28,15.12-1.52.48,0,.95,0,1.43,0,.64,0,1.27,0,1.91,0,2.73,0,5.47,0,8.2,0,.64,0,1.27,0,1.91,0Z"/><path class="cls-5" d="m547.77,517.78c.12-1.73.24-3.43.35-5.13.37-6.11,1.45-12.13,2.33-18.17,1.45-9.92,3.14-19.8,3.23-29.87.03-2.84-.22-5.67-.57-8.48-.08-.66.11-1.05.55-1.45,1.19-1.09,2.56-1.89,3.96-2.68,1.05-.59,2.05-1.26,2.64-2.36.63-1.18.5-1.96-.48-2.88-1.02-.95-2.27-1.3-3.62-1.37-1.63-.1-3.27-.19-4.9-.22-.6,0-.93-.16-1.17-.74-.55-1.36-1.42-2.54-2.56-3.42-2.85-2.19-3.93-5.24-4.37-8.62-.49-3.7-1.42-7.28-2.76-10.75-.16-.41-.28-.87-.56-1.18-1.28-1.39-.91-2.83-.24-4.32,1.52-3.37,4.04-5.84,7.12-7.72,5.25-3.2,10.96-4.69,17.13-4.38,4.74.24,7.97,2.7,10.05,6.83,1.5,2.98,1.95,6.22,2.31,9.48.47,4.31.02,8.62-.02,12.93,0,.34-.12.58-.35.85-1.36,1.57-1.39,3.04-.02,4.59.8.89,1.63,1.79,2.61,2.47,5.09,3.52,7.8,8.72,10.29,14.13,5.39,11.74,8.75,24.04,10.57,36.8.79,5.51,1.23,11.03,1.2,16.6,0,1.22-.33,2.27-1.12,3.19-1.09,1.27-2.08,2.66-3.29,3.81-2.06,1.96-2.33,4.31-2.02,6.93.24,2.03.77,3.99,1.09,6,.85,5.44.29,10.75-1.57,15.93-1.02,2.85-2,5.73-3.16,8.53-2.37,5.73-3.33,11.72-3.64,17.86-.32,6.31-.51,12.61-.44,18.93.01.88-.19,1.15-1.11,1.14-8.87-.04-17.74-.04-26.61,0-.99,0-1.16-.32-1.16-1.22.02-15.75.02-31.51,0-47.26,0-.46.41-1.27-.42-1.35-.81-.07-1.46.37-1.5,1.34-.04.84-.15,1.67-.13,2.51.02.73-.29,1.06-.96,1.06-3.19,0-6.28-.26-8.68-2.79-1.18-1.24-2.46-2.39-3.59-3.69-.5-.58-.71-1.19-.71-1.96.03-3.28-.01-6.56.03-9.84.01-.79-.23-1.28-.91-1.64-.64-.33-1.26-.69-1.88-1.06-1.14-.68-2.14-.89-3.08.41-.51.71-1.35.61-2.03.13-1.35-.93-2.67-1.9-3.98-2.87-1.13-.83-1.25-1.44-.52-2.62,1-1.63,2.08-3.22,3.02-4.89.8-1.42.55-1.69-.98-2.3-4.85-1.93-9.67-3.94-14.51-5.93-4.09-1.68-8.19-3.37-12.28-5.06-.94-.39-1.59-2.32-1.07-3.17.16-.25.41-.24.63-.21.67.08,1.37.1,2,.32,10.01,3.52,19.93,7.28,29.49,11.9,3.77,1.83,7.39,3.95,10.93,6.2.42.27.8.65,1.42.72Z"/><path class="cls-5" d="m465.72,484.36c-.14.2-.17.23-.18.26q-.09,2.77-2.82,2.77c-13.58,0-27.17-.01-40.75.02-1.01,0-1.47-.18-1.34-1.3.1-.87.02-1.76.02-2.64,0-1.15-.27-1.38-1.46-1.12-1.25.27-2.49.58-3.7.98-1.16.38-2.34.42-3.54.44-.72.01-.98-.17-.94-.93.31-5.54.59-11.08.86-16.63.14-2.87.3-5.75.36-8.62.02-.87.34-1.01,1.06-.89,2.23.37,4.45.21,6.68-.03.6-.06,1.07-.33,1.19-.84.25-1.03.95-.97,1.74-.97,13.5.01,27.01,0,40.51.02.88,0,1.61-.21,2.34-.7,5.66-3.76,11.09-7.83,16.44-12.02.66-.51.94-1.06.93-1.91-.05-3.16,0-6.32-.04-9.48-.01-.85.21-1.18,1.11-1.26,10.5-.92,21.01-1.53,31.53-2.23,3.99-.26,7.98-.2,11.97-.27.84-.02,1.07.23,1.07,1.07-.03,5.8-.03,11.6,0,17.39,0,.82-.23,1.05-1.05,1.14-6.94.76-13.87,1.58-20.81,2.36-.66.07-1.02.23-.98,1,.06,1.08.06,2.16,0,3.24-.04.7.3.9.89.97,3.92.49,7.84.98,11.75,1.5,4.43.59,8.87,1.08,13.27,1.88.6.11.8.31.8.91-.02,6-.03,12,.01,17.99,0,.76-.44.93-.95,1.16-8.91,4.11-17.78,8.3-26.74,12.29-2.2.98-3.43,2.07-3.38,4.65.05,2.45-.7,4.8-2.33,6.78-2.64,3.22-8.56,3.88-11.84,1.29-1.27-1-1.8-2.42-2.24-3.88-.59-1.91-1-3.87-.99-5.88,0-.76-.23-1.04-1.03-1.02-2.28.05-4.55,0-6.83.03-.69,0-1.11-.05-1.08-.94.04-1.04-.72-1.63-1.56-2.09-1.58-.86-3.32-1.36-4.97-2.05-1.2-.51-2.31-1.1-2.96-2.44Z"/><path class="cls-5" d="m530.01,591.02c-2.49,0-4.83-.01-7.17,0-.74,0-.77-.61-.98-1.03-3.96-7.89-7.89-15.78-11.83-23.67-4.33-8.68-8.67-17.36-13-26.03-.19-.39-.41-.77-.85-1.15v1.18c0,16.44-.01,32.87.03,49.31,0,1.19-.32,1.52-1.45,1.41-1.07-.1-2.16-.02-3.23-.02q-1.61,0-1.61-1.55c0-7.08,0-14.16,0-21.24v-29.55c-1.21.52-2.25.94-2.85,2.2-7.67,16.2-15.37,32.38-23.07,48.56-.71,1.48-1.97,2.18-3.54,2.29-1.27.09-2.56,0-3.83.05-.66.03-.81-.25-.8-.84,0-.69.12-1.32.43-1.96,7.72-15.78,15.43-31.56,23.15-47.34,1.63-3.34,3.24-6.68,4.89-10,.28-.56.35-1.12.35-1.73,0-7.36.01-14.72-.03-22.07,0-.99.15-1.37,1.28-1.35,4.39.08,8.79.06,13.19.01.91,0,1.13.26,1.13,1.14-.04,6.92-.01,13.84-.03,20.76,0,.82.15,1.55.51,2.29,9.54,19.55,19.06,39.11,28.58,58.67.24.49.45,1,.75,1.65Z"/><path class="cls-5" d="m496.98,610.87c-.64,2.81-1.3,5.31-1.76,7.84-.23,1.28-.72,1.77-2.01,1.62-.99-.11-2-.08-2.99-.02-.76.05-1.04-.26-1.19-.97-.56-2.61-1.17-5.21-1.77-7.82-.09-.41-.11-.86-.52-1.28-.35,1.24-.17,2.43-.21,3.59-.06,1.8-.05,3.6,0,5.4.02.74-.14,1.1-.98,1.05-1.19-.07-2.4-.07-3.59,0-.82.05-1.03-.29-1.02-1.03.02-4.32.01-8.63.01-12.95,0-.84.03-1.68-.02-2.51-.04-.7.18-.98.94-.99,2.52-.02,5.03.11,7.54.21.59.02.69.29.78.79.44,2.39.92,4.78,1.39,7.16.08.39.12.79.45,1.27.57-1.41.65-2.83.96-4.18.32-1.4.54-2.82.76-4.24.09-.57.31-.84.91-.84,2.59,0,5.18,0,7.78-.04.71-.01.76.39.77.91.07,2.59.15,5.19.21,7.78.05,2.44.06,4.87.12,7.31.03,1.02-.28,1.54-1.43,1.44-1.07-.1-2.17-.11-3.23,0-1.23.14-1.53-.47-1.53-1.5,0-2.16,0-4.32-.03-6.47,0-.38.12-.78-.35-1.51Z"/><path class="cls-5" d="m474.37,610.25c1.24.03,2.47-.05,3.71.11.58.07.83.26.81.89-.08,2.52-.13,5.03-.15,7.55,0,.64-.28.94-.87,1.08-3.57.82-7.18,1.22-10.78.34-3.25-.8-5.24-2.99-5.78-6.31-.58-3.58-.33-7.01,2.88-9.42,2.39-1.8,5.2-2.11,8.1-1.86.75.06,1.5.2,2.24.38,2.35.57,3.76,2.34,3.85,4.72.02.54-.08.84-.69.82-1.63-.06-3.27-.11-4.91-.15-.4,0-.63-.14-.85-.51-.74-1.23-1.99-1.33-2.92-.24-.25.3-.51.65-.61,1.02-.51,1.88-.56,3.81-.15,5.69.36,1.67,3.23,2.58,4.57,1.53.49-.38.25-.97.22-1.46-.02-.47-.47-.29-.76-.34-.58-.11-1.47.4-1.68-.43-.24-.99-.25-2.06.04-3.07.11-.37.51-.32.83-.32.96,0,1.92,0,2.88,0Z"/><path class="cls-5" d="m443.19,611.63c0-2.56,0-5.12,0-7.68,0-.5-.04-.94.69-.98,3.51-.16,7.01-.39,10.5.27,2.52.48,4.21,1.91,5.21,4.27,2.19,5.2-.47,11.24-5.54,12.47-2.24.54-4.54.22-6.8.3-.96.04-1.92-.03-2.87.05-.91.07-1.2-.28-1.19-1.15.03-2.52.01-5.04.01-7.56Z"/><path class="cls-5" d="m552.98,620.63c-4.46.03-7.25-2.54-7.74-6.97-.22-1.97-.26-3.9.32-5.81.98-3.21,3.28-4.96,6.47-5.49,2.77-.46,5.35.03,7.21,2.44,2.47,3.21,2.47,9.96,0,13.14-1.58,2.03-3.79,2.66-6.25,2.69Z"/><path class="cls-5" d="m577.53,611.29c.05,1.62-.2,3.17-.77,4.69-1.02,2.77-3.07,4.22-5.91,4.55-5.47.63-8.53-1.84-9.19-7.39-.17-1.39-.11-2.77.12-4.17,1.02-6.24,7.51-7.73,11.24-6.22,2.96,1.2,3.98,3.72,4.39,6.62.09.63.09,1.27.13,1.91Z"/><path class="cls-5" d="m505.45,611.52c0-2.48.03-4.96-.02-7.43-.02-.8.14-1.09,1.02-1.09,3.79.01,7.58-.05,11.37-.13.49-.01.66.1.64.56,0,.04,0,.08,0,.12q.27,3.55-3.24,3.55c-.76,0-1.52.01-2.27-.04-.71-.06-.97.19-1.01.92-.1,1.65-.14,1.63,1.54,1.56,1.12-.04,2.24,0,3.35-.05.78-.03,1.14.18,1.14,1.07,0,2.57.05,2.56-2.52,2.63-.64.02-1.27.06-1.91.11-.5.04-1.27-.25-1.44.18-.25.62-.16,1.41-.1,2.11.05.53.56.34.88.33,1.59-.04,3.19-.08,4.78-.19.76-.05,1.16.14,1.05.97-.02.16,0,.32,0,.48.05,2.96.05,2.94-2.85,2.97-2.91.03-5.82.1-8.74.17-1.73.04-1.73.05-1.73-1.61,0-2.4,0-4.79,0-7.19h.06Z"/><path class="cls-5" d="m533.05,609.03c-1.09.61-1.97,1.15-2.95,1.51-.55.2-.73.09-.72-.48.01-1.2.02-2.4,0-3.59-.01-.63.43-.79.87-.99,1.45-.67,2.91-1.33,4.07-2.46.34-.33.73-.27,1.12-.27,1.08,0,2.16.08,3.23.01.82-.05,1.01.27.99,1.03-.05,1.83-.04,3.67-.02,5.51.04,3.31.08,6.62.17,9.93.02.84-.25,1.14-1.08,1.11-1.55-.04-3.11-.05-4.67,0-.87.03-1.09-.34-1.08-1.13.05-2.91.06-5.83.08-8.74,0-.43,0-.86,0-1.44Z"/><path class="cls-10" d="m489.18,454.04c-1.31,0-2.63,0-3.94,0-.12,0-.24-.01-.36,0-.96.1-.85-.66-.7-1.1.27-.82-.87-2.32.65-2.43,2.93-.22,5.88-.06,8.83-.07.52,0,.71.22.7.71-.01.72-.03,1.43,0,2.15.03.58-.23.76-.78.75-1.47-.02-2.94,0-4.42,0Z"/><path class="cls-9" d="m453.73,611.15c.05,1.08-.02,2.16-.35,3.2-.21.65-.51,1.27-1.05,1.71-.77.62-1.72.83-2.59.52-.72-.26-.34-1.14-.37-1.73-.11-2.11-.16-4.22-.18-6.34,0-.8-.28-1.8.76-2.17,1.2-.42,2.71.29,3.26,1.42.52,1.07.56,2.23.52,3.4Z"/><path class="cls-9" d="m555.18,610.75c-.06,1.84.03,3.13-.3,4.38-.25.97-.75,1.72-1.84,1.75-1.09.03-1.54-.8-1.72-1.69-.52-2.48-.51-4.99.04-7.47.21-.97.8-1.68,1.9-1.66,1.15.02,1.61.87,1.76,1.8.18,1.13.14,2.3.17,2.89Z"/><path class="cls-10" d="m571.67,611.11c.04,1.28,0,2.56-.26,3.81-.21,1.04-.68,1.95-1.9,1.96-1.14,0-1.54-.87-1.73-1.82-.47-2.45-.47-4.91.07-7.35.22-.98.81-1.68,1.91-1.64,1.06.04,1.46.81,1.73,1.71.32,1.1.11,2.22.18,3.33Z"/></svg>