<?xml version="1.0" encoding="UTF-8"?><svg id="Layer_1" xmlns="http://www.w3.org/2000/svg" viewBox="0 0 350.83 350.83"><defs><style>.cls-1{fill:#233890;}.cls-1,.cls-2{stroke-width:0px;}.cls-2{fill:#e76e13;}</style></defs><circle class="cls-2" cx="175.42" cy="175.42" r="175.42"/><path class="cls-1" d="m99.07,283.69l2.51-.04c4.37,0,7.44.72,9.21,2.17.38.28.79.74,1.23,1.39,1.3,1.89,1.94,3.97,1.94,6.25,0,4.07-1.4,7.07-4.2,9.02-1.67,1.17-3.59,1.76-5.76,1.78l-.05.05h-.34l-3.57-.04c-1.62,0-3.64.04-6.07.12-.17-.32-.25-.7-.25-1.14v-.48s.01-2.09.01-2.09l.03-2.98v-4.91c-.02-1.13-.03-1.97-.03-2.52v-2.51s.01-3.83.01-3.83c0-.07.49-.13,1.46-.18.97-.05,1.75-.07,2.33-.07h1.53Zm5.68,4.64c-.51-.37-1.07-.57-1.69-.62-.21,0-.51-.02-.88-.03-.37,0-.64-.02-.81-.03-.16.24-.27.42-.32.54l-.24.5v.75c0,1.55.04,3.64.11,6.29l.08,3.87c.05.28.23.44.54.5.92-.02,1.63-.08,2.13-.19,1.76-.62,2.64-2.77,2.64-6.42,0-2.71-.52-4.43-1.56-5.16Z"/><path class="cls-1" d="m135.9,303.18s0,.03.01.05l-.04.11h.01v.03s0,.03-.01.04c-.42.32-1.45.62-3.08.88-1.63.27-2.75.4-3.36.4s-.95,0-1.03-.01l-.68.04c-.72.04-1.13.07-1.23.07-3.75,0-6.61-.94-8.57-2.83-1.96-1.88-2.94-4.56-2.94-8.04s1.06-6.11,3.17-7.9c2.11-1.8,4.98-2.7,8.59-2.7.66,0,1.48.06,2.45.19.97.13,1.82.31,2.55.55.89.37,1.66.9,2.3,1.59s1.06,1.46,1.25,2.3c.04.23.08.6.13,1.09s.09.86.13,1.09c-.05.13-.25.2-.58.2l-6.81-.12s-.08-.14-.13-.36v.04c-.16-.72-.48-1.17-.95-1.33-.21-.08-.5-.12-.84-.12s-.68.06-.99.17c-.31.12-.57.28-.77.48-.21.21-.39.44-.55.72-.16.27-.28.56-.36.88-.08.31-.15.63-.21.96-.06.33-.1.66-.11.98-.01.32-.03.63-.04.93-.01.29-.02.54,0,.73s.01.32.01.38v.92c0,.58.03.99.08,1.21.05.23.12.48.19.75.07.27.16.48.25.62.35.49.73.83,1.13,1.03s1.04.29,1.9.29,1.68-.13,2.46-.39l.07-2.12-.97-.08-.13.07h-1.56s-.33-.33-.33-.33c-.02-.15-.03-.39-.03-.72v-3c0-.15.11-.3.32-.46h.9c.78,0,1.65,0,2.61.03h.13c.88.02,1.54.03,2,.03h1.11c1.59-.01,2.5.09,2.72.29l-.16,10.18v.19Z"/><path class="cls-1" d="m145.27,292.43c-.11,2.53-.16,5.13-.16,7.8v4h-1.31s-4.76.03-4.76.03c-.3,0-.46,0-.48.01,0,0,.02-.08.05-.23v-.13c-.03-.64-.05-1.43-.05-2.35l.05-14.98v-.7s-.01-.67-.01-.67l-.03-1.26c0-.09.05-.18.15-.28h2.91c2.52-.01,4.32.02,5.41.09,1.09.07,1.87.11,2.34.11.26,1.54.64,3.58,1.15,6.11l.95,4.8h.47l1.72-8.77c.03-.13.09-.53.19-1.17.1-.65.17-1.01.23-1.08h.05l8.73-.08h.52s1.5.01,1.5.01c.08.04.12.2.13.5l.13,5.07c.11,4.2.18,7.47.23,9.81,0,1.81-.03,3.5-.08,5.08-.03.11-.21.17-.54.19l-.6.03c-.48.02-.84.03-1.07.03h-.7c-.87,0-2.15.01-3.83.01-.31-.28-.47-1.47-.47-3.59l.03-4.21v-1.09c0-.96,0-1.66-.01-2.12l-.51-.09c-.29,1.08-.86,3.49-1.7,7.23l-.12.54c-.06.28-.17.77-.32,1.48-.15.71-.27,1.25-.35,1.62-.11.12-.58.19-1.42.19h-.17l-1.5-.04h-.82s-.63.01-.63.01h-1.06s-.38.01-.38.01c-.41,0-.64-.09-.68-.28h.01s-1.22-5.31-1.22-5.31c-.04-.13-.12-.43-.24-.88-.12-.45-.2-.83-.21-1.13l-1.01-4.34-.5.03Z"/><path class="cls-1" d="m167.74,287.36l-.07-3.53s.04.01.09.04c6.79-.12,11.91-.18,15.35-.19.04.02.06.04.08.08v3.78c0,.37,0,.67-.03.9-.04.14-.31.21-.79.21h-.09c-2.16,0-4.41-.04-6.76-.11,0,.08-.01.22-.03.43-.02.21-.04.35-.05.44l-.07.51c-.04.34-.08.93-.09,1.77l4.16-.09c.71-.02,1.23-.03,1.55-.03h.21c.54,0,.9.02,1.07.05s.26.12.26.27v.11s-.01.32-.01.32l.07,3.45h-.01s0,0,0,0c-2.72.13-4.89.2-6.51.2h-.63v3.24l7.28-.23c.4,0,.66.06.76.17,0,.23-.01.56-.01.99l.09,3.65c0,.22-.1.35-.29.39l-4.45-.04c-.88,0-2.62.03-5.23.09l-2.2.05c-1.56.05-2.71.08-3.46.08l-.04-.03h.01c-.09-.09-.17-.17-.25-.25v-.47l.08-14.33v-1.94Z"/><path class="cls-1" d="m208.32,285.05l-.03,3.94c0,2.63.02,4.89.07,6.78l.12,8.33c-.22.21-.8.31-1.73.31l-1.15-.03h-.78s-.55.01-.55.01h-.84c-.9.01-1.8,0-2.68-.03l-.21-.34c-.09-.12-.13-.41-.13-.84s.04-3.34.11-8.7l.05-3.67c-1.47,1-2.9,1.72-4.29,2.16-.06,0-.1-.05-.11-.12v-2.02c-.01-2.35,0-3.53.04-3.55.04-.01.17-.08.4-.21.23-.12.49-.25.78-.36.29-.12.47-.2.53-.24.06-.04.13-.08.21-.12,2.3-1.1,3.7-2.05,4.21-2.84l4.13.08c.82,0,1.43-.02,1.82-.05.03.05.04.3.04.75v.76Z"/><path class="cls-1" d="m232.83,299.29c-1,2.7-2.95,4.41-5.86,5.12-.89.22-1.87.33-2.93.33s-2.05-.13-2.97-.4c-1.69-.49-3.02-1.37-4-2.65s-1.62-2.77-1.91-4.5c-.08-.38-.17-1.16-.25-2.33l-.07-.88c0-4.2,1.3-7.24,3.89-9.12,1.51-1.09,3.39-1.75,5.64-1.97h.19c3.07,0,5.38.96,6.92,2.89,1.54,1.93,2.31,4.74,2.31,8.43,0,1.72-.32,3.41-.97,5.08Zm-6.71-11.11c-.17-.26-.38-.46-.66-.6-.27-.14-.59-.21-.96-.21s-.7.08-.99.23c-.29.16-.53.35-.72.58-.19.23-.36.55-.49.95-.36,1.07-.54,2.57-.54,4.49s.05,3.02.15,3.54c.21,1.13.49,1.93.84,2.43.35.49.85.74,1.48.74,1.01,0,1.71-.52,2.11-1.55.33-.88.5-2.23.5-4.02v-.25c.04-.55.05-1.2.05-1.96s0-1.28-.03-1.56-.05-.61-.09-.99-.12-.71-.23-1c-.11-.29-.25-.56-.42-.82Z"/><path class="cls-1" d="m253.34,301.02l-.07,2.63v.27c0,.22-.1.34-.29.36l-5.52-.12c-3.84,0-7.86.09-12.05.27l-.17-.23c-.15-.11-.23-.51-.23-1.2s0-1.44.03-2.25v-.09c.02-.73.03-1.29.03-1.68,0-.14.71-.68,2.13-1.62l2.32-1.54c1.61-1.11,2.83-2.04,3.67-2.8,1.47-1.33,2.2-2.53,2.2-3.59,0-.46-.14-.83-.42-1.11-.28-.27-.64-.41-1.08-.41s-.78.11-1.01.32c-.24.21-.38.44-.44.7-.17.75-.33,1.17-.47,1.25-.28,0-.69.01-1.25.01h-4.67s-.52-.01-.52-.01c-.3,0-.48-.04-.52-.12.07-1.08.19-1.88.36-2.39.23-.85.65-1.59,1.24-2.22s1.3-1.12,2.12-1.47c1.6-.66,3.4-.99,5.39-.99,3.14,0,5.52.71,7.16,2.12,1.22,1.04,1.84,2.41,1.84,4.12,0,2.16-.98,4.14-2.94,5.94-.97.88-2.24,1.85-3.83,2.88l-.94.84,6.54-.12c.54,0,.91.19,1.11.56.19.38.29.94.29,1.69Z"/><path class="cls-1" d="m122.29,156.01v-4.26H33.09v1.42h-1.22c0-2.3.71-4.26,2.13-5.88s2.13-2.97,2.13-4.05c0-.94-.27-1.62-.81-2.03-.54-.41-.81-1.08-.81-2.03h86.98l-5.27-7.1,57.78-25.14c.41-.41,1.08-.61,2.03-.61h.61l-2.64,1.42-56.16,24.33v.61c.27.27.67.88,1.22,1.82h114.14c.27,0,.57-.23.91-.71.34-.47.51-.84.51-1.12,0-.94-.48-1.42-1.42-1.42h.81c.27,0,.67.03,1.22.1.54.07.81.37.81.91v.41l-1.42,1.01c-.27.54-.88,1.45-1.83,2.74-.95,1.29-1.62,2.2-2.03,2.74h86.37v5.88c.94.54,1.52,1.35,1.72,2.43.2,1.08.44,1.96.71,2.64h-.41c-.41,0-.68-.2-.81-.61-.14-.41-.27-.84-.41-1.32-.14-.47-.34-.91-.61-1.32-.27-.41-.74-.61-1.42-.61v-4.26h-8.11c0,.27-.07.88-.2,1.82-.14.95-.34,1.56-.61,1.82,0,.41-.2.61-.61.61h-11.15l1.22-.61h9.33c.27,0,.44-.2.51-.61.07-.41.1-.74.1-1.01v-.41c0-1.08-.2-1.62-.61-1.62h-10.54c0,.14-.07.44-.2.91-.14.48-.27.78-.41.91h-.61c-.27-.13-.47-.44-.61-.91-.14-.47-.2-.78-.2-.91h-8.72c0,.27-.03.88-.1,1.82-.07.95-.24,1.56-.51,1.82,0,.41-.2.61-.61.61l-11.15-.2h10.75c.27,0,.41-.27.41-.81v-1.62c0-1.08-.14-1.62-.41-1.62h-10.95v3.65l-1.22-3.65h-9.33c0,.27-.04.88-.1,1.82-.07.95-.17,1.56-.3,1.82,0,.41-.27.61-.81.61h-11.35c-.27,0-.41-.2-.41-.61-.27-.27-.44-.88-.51-1.82-.07-.94-.1-1.55-.1-1.82h-8.31c0,.14-.03.51-.1,1.12-.07.61-.17,1.25-.3,1.93,0,.27-.07.54-.2.81-.14.27-.27.54-.41.81h-6.28c-.27,1.22-.71,1.93-1.32,2.13s-.91.85-.91,1.93h90.63c0,1.49-.68,2.6-2.03,3.35-1.35.74-2.57,1.45-3.65,2.13v106.24c-5.14,0-10.38.07-15.71.2-5.34.13-10.85.2-16.52.2s-10.82-.2-16.22-.61c-5.41-.41-10.61-1.15-15.61-2.23-8.51-1.89-16.73-4.32-24.63-7.3-7.91-2.97-16.12-5.4-24.63-7.3-2.03-.27-4.06-.51-6.08-.71-2.03-.2-4.12-.3-6.29-.3h-12.37c-8.51,0-16.46.47-23.82,1.42-7.37.95-15.1,2.77-23.21,5.47-5.27,1.76-10.38,3.58-15.31,5.47-4.94,1.89-10.24,3.18-15.92,3.85-5.14.68-10.21,1.15-15.21,1.42-5,.27-10.07.41-15.21.41h-30.21v-106.44h84.34Zm-87.08-9.43c-.34.48-.61,1.01-.81,1.62-.2.61-.37,1.15-.51,1.62-.14.48-.41.78-.81.91h89.41c0-.67-.37-1.52-1.12-2.53-.74-1.01-1.25-1.52-1.52-1.52h-6.29c-.41-.27-.74-.81-1.01-1.62,0-.67-.07-1.32-.2-1.93-.14-.61-.2-.98-.2-1.12h-7.3c0,.27-.07.88-.2,1.82-.14.95-.27,1.56-.41,1.82,0,.41-.27.61-.81.61l-11.15-.2h10.54c.41,0,.61-.34.61-1.01,0-.27.03-.78.1-1.52.07-.74.1-1.25.1-1.52h-11.35l-1.01,3.65v-3.65h-9.73c0,.27-.04.88-.1,1.82-.07.95-.24,1.56-.51,1.82,0,.41-.2.61-.61.61h-11.15l1.22-.61h9.53c.27,0,.41-.2.41-.61,0-.27.07-.78.2-1.52.13-.74.2-1.25.2-1.52h-11.56l-1.01,3.65v-3.65h-9.73c0,.27-.04.88-.1,1.82-.07.95-.17,1.56-.3,1.82,0,.41-.2.61-.61.61h-11.56c-.27,0-.41-.2-.41-.61-.27-.27-.44-.88-.51-1.82-.07-.94-.1-1.55-.1-1.82h-7.91v3.65c-.81.14-1.39.44-1.72.91Zm-1.32,7.4h-.2c-.14,0-.2-.07-.2-.2,0-.27.13-.41.41-.41.13,0,.2.14.2.41,0,.14-.07.2-.2.2Zm1.01.61c1.22,0,2.03.34,2.43,1.01h-.41c-.41,0-.85-.1-1.32-.3-.48-.2-.78-.44-.91-.71h.2Zm1.22-13.99h86.17v-.61H36.13v.61Zm78.56,89.41c.2.41.64.61,1.32.61,1.22,0,2.8-.3,4.76-.91,1.96-.61,3.68-.91,5.17-.91.13,0,.34.1.61.3.27.2.47.3.61.3h4.46c.41-.27,1.32-.71,2.74-1.32,1.42-.61,2.33-1.04,2.74-1.32,1.35.68,3.01,1.18,4.97,1.52,1.96.34,3.95.54,5.98.61,2.03.07,3.99.07,5.88,0,1.89-.07,3.58-.1,5.07-.1,0,.41.2.61.61.61h.81c.13,0,.81-.34,2.03-1.01,1.22-.67,1.96-1.01,2.23-1.01h1.01c1.35,0,2.46.41,3.35,1.22.88.81,1.72,1.22,2.53,1.22h9.33c.81,0,1.65-.41,2.54-1.22.88-.81,2.06-1.22,3.55-1.22,1.08,0,2.03.34,2.84,1.01.81.68,1.69,1.01,2.64,1.01h.2c.54,0,1.01-.2,1.42-.61,3.92.27,7.53.1,10.85-.51,3.31-.61,6.92-.91,10.85-.91,1.22,0,2.33.34,3.35,1.01,1.01.68,2.26,1.01,3.75,1.01h1.82c.27,0,.71-.1,1.32-.3.61-.2.98-.3,1.11-.3,1.35,0,3.04.3,5.07.91,2.03.61,3.58.91,4.66.91.67,0,1.01-.2,1.01-.61,0-.54.2-.94.61-1.22.81-.67,2.06-1.25,3.75-1.72,1.69-.47,3.21-.71,4.56-.71,1.75,0,3.38.3,4.87.91,1.49.61,3.11.91,4.87.91h1.83c.27,0,.84-.07,1.72-.2.88-.13,1.82-.3,2.84-.51,1.01-.2,1.93-.37,2.74-.51.81-.13,1.35-.2,1.62-.2h.41l13.79,2.64h.61c.13-.27.44-.51.91-.71.47-.2.78-.37.91-.51h30.21v-65.69h-84.34v2.23h8.72v23.72h-1.01c-.68,0-1.15-.54-1.42-1.62h-5.88v3.85h.61c.27,0,.61-.13,1.01-.41.41-.27.74-.41,1.01-.41s.41.27.41.81c-1.62.68-2.57,1.25-2.84,1.72-.27.48-.41,1.66-.41,3.55h7.1v24.33h-4.87v1.62l4.87.81h-5.27v2.23h-11.96v-6.08h-5.47v-56.36h-5.27l-1.62,1.42v24.53c-.95,0-1.55-.13-1.82-.41-.27-.27-.41-.47-.41-.61s.03-.27.1-.41c.07-.13-.1-.2-.51-.2h-6.29c0,.68-.1,1.18-.3,1.52-.2.34-.48.61-.81.81-.34.2-.61.44-.81.71-.2.27-.3.74-.3,1.42.94,0,1.82-.1,2.64-.3.81-.2,1.75-.3,2.84-.3h3.04c-1.49.14-2.74.24-3.75.3-1.01.07-2.06.37-3.14.91-.27.27-.75.48-1.42.61l-.81,19.26v-62.45c-.81,0-1.22-.41-1.22-1.22s-.61-1.22-1.82-1.22c-1.08,0-1.66.27-1.72.81-.07.54-.51,1.08-1.32,1.62,0,1.22-.07,3.42-.2,6.59-.14,3.18-.2,6.05-.2,8.62v50.48l-2.03,2.03v7.3h10.75v-7.3l-2.03-2.03v-.81c0-.13.07-.41.2-.81.13-.41.27-.67.41-.81l.81,1.62v-17.23h7.91v23.92h-6.29v1.22h6.89l1.01,1.62v-28.18c1.22.41,1.83-.13,1.83-1.62,0-.27-.14-.54-.41-.81l2.03,2.84h-2.84v28.38c-.14,0-.37.14-.71.41-.34.27-.64.34-.91.2-.14-.13-.27-.44-.41-.91-.14-.47-.2-.78-.2-.91h-6.49v1.82h-12.37v-7.91c.27-.41.57-.98.91-1.72.34-.74.51-1.25.51-1.52v-26.96l-7.5,6.29v9.93l1.42.81v19.87h1.22v-26.15l.41,1.01v26.36h-14.19v-24.33l.61-1.22v1.22c0,.81.03,2.33.1,4.56.07,2.23.17,4.56.3,7,.13,2.43.23,4.76.3,6.99.07,2.23.1,3.75.1,4.56v-19.87l1.62-.81v-7.91c-.68.41-1.18.98-1.52,1.72-.34.75-.85,1.32-1.52,1.72-.14-.81-.07-1.42.2-1.82.27-.41.61-.78,1.01-1.12.41-.34.78-.71,1.12-1.12.34-.41.51-.94.51-1.62.13,0,.37.04.71.1.34.07.71.1,1.12.1h.2c.81,0,1.22-.2,1.22-.61v-6.29c-.14,0-.54.07-1.22.2-.68.14-1.08.27-1.22.41-.27.27-.41.61-.41,1.01,0,1.08-.17,1.42-.51,1.01-.34-.41-.71-.61-1.11-.61v-23.52h4.46v-2.23h-10.54v22.5c.41.27.61.68.61,1.22v.61h-.61v28.79c-.68-.41-1.42-.61-2.23-.61h-3.24c-1.08,0-2.1.2-3.04.61-.95.41-1.42,1.01-1.42,1.83v6.89h10.34v-8.11c.54.54.81,1.22.81,2.03v2.64c0,.81-.03,1.69-.1,2.64-.07.95-.24,1.42-.51,1.42h-11.56v-1.82h-7.3c0,.14-.03.44-.1.91-.07.48-.24.78-.51.91-.14.14-.37.07-.71-.2-.34-.27-.64-.41-.91-.41v-28.18c-.95,0-1.42-.34-1.42-1.01,0-.94.3-1.69.91-2.23.61-.54,1.32-.98,2.13-1.32.81-.34,1.65-.57,2.53-.71.88-.13,1.59-.2,2.13-.2h2.43c1.08,0,1.82.2,2.23.61v.61c-.41-.41-1.22-.61-2.43-.61h-2.43c-.95,0-2.23.27-3.85.81-1.62.54-2.43,1.55-2.43,3.04,0,.27.27.41.81.41l.81,28.79v-2.23h7.91v-1.22h-6.29v-23.92h8.52v17.23l.2-36.09-1.01-.61v6.89h-8.72v-18.04h-.81v22.1c.41,0,.67-.3.81-.91.13-.61.2-1.04.2-1.32h8.31l.41,2.64h-.41c-.41-.41-.61-1.08-.61-2.03h-6.89c.13.68-.14,1.35-.81,2.03-.14,0-.41-.1-.81-.3-.41-.2-.68-.3-.81-.3v-23.92l-1.42-1.82h-4.87v55.55l-1.42-55.55h-.61c-.14,0-.27.2-.41.61v54.94l1.01.81h-3.85v6.08h-12.57v-1.82h-4.06c-.41,1.08-.81,1.62-1.22,1.62h-2.23v-28.59c-.68,0-1.22-.2-1.62-.61v-.41l6.29-3.85c.27-.27,1.15-.74,2.64-1.42l.41.81c-.27.14-.88.44-1.82.91-.95.47-1.56.78-1.82.91-.54.27-1.56.95-3.04,2.03v29.2l.41.61c.41-.13.71-.41.91-.81l.51-1.01c.27,0,.88-.07,1.82-.2.94-.13,1.62-.27,2.03-.41.41,0,.61-.27.61-.81.13-.13.2-.27.2-.41v-.41h-4.66v-24.33h5.47c.41,0,.64-.23.71-.71.07-.47.1-.91.1-1.32v-1.42c0-.13-.14-.34-.41-.61-.27-.27-.41-.47-.41-.61l.81-.61c0-.41.03-1.08.1-2.03.07-.94.1-1.55.1-1.82h-5.88c.13.27.1.61-.1,1.01s-.37.74-.51,1.01c-.14.14-.54.07-1.22-.2-.68-.27-1.08-.41-1.22-.41v-23.52h8.72v-2.23l-83.12-.81h83.12v-1.01h-7.1c-3.11,0-6.73-.03-10.85-.1-4.12-.07-8.35-.13-12.67-.2-4.33-.07-8.58-.13-12.77-.2-4.19-.07-7.84-.1-10.95-.1h-29.4v68.12h30.01c.54.27,1.15.68,1.82,1.22h.61l13.79-2.64h.61c.13,0,.64.07,1.52.2.88.14,1.82.3,2.84.51,1.01.2,1.93.37,2.74.51.81.14,1.35.2,1.62.2h1.82c1.75,0,3.38-.3,4.87-.91,1.49-.61,2.97-.91,4.46-.91,2.84,0,5.81.81,8.92,2.43.13.41.3.81.51,1.22Zm-70.45-70.76c2.7.14,5.4.2,8.11.2h19.26c4.32,0,9.09.04,14.29.1,5.2.07,10.44.1,15.71.1h20.68v-2.64H38.56v1.62c1.08.27,2.97.48,5.68.61Zm1.62,36.8c-.54-.07-.88-.23-1.01-.51v-.41c.54-.81,1.25-1.65,2.13-2.53.88-.88,1.79-1.52,2.74-1.93h4.06c.81,0,1.79.04,2.94.1,1.15.07,1.72.44,1.72,1.12v.61c-1.08-.81-1.96-1.22-2.64-1.22h-2.84c-.95,0-2.37.27-4.26.81-1.89.54-2.84,1.42-2.84,2.64v.41c.54.14,1.08.27,1.62.41v28.79c.67-.13,1.08-.37,1.22-.71.13-.34.27-.71.41-1.12h8.31c0,1.08.13,1.49.41,1.22s.61-.41,1.01-.41v-27.78l1.62-.41-.61-1.42h.2c.67,0,1.01.47,1.01,1.42,0,.41-.07.74-.2,1.01-.14.27-.61.27-1.42,0v28.18c0,.27-.2.44-.61.51-.41.07-.68.1-.81.1-.68,0-1.11-.1-1.32-.3-.2-.2-.24-.71-.1-1.52h-6.89c-.27.81-.58,1.35-.91,1.62-.34.27-.91.41-1.72.41v-28.99c-.27,0-.68-.03-1.22-.1Zm-.1-52.51c.07.74.1,1.25.1,1.52,0,.41.27.61.81.61h10.75v-3.65h-11.76c0,.27.03.78.1,1.52Zm13.28,21.39v24.13c-1.22,0-1.86-.37-1.93-1.12-.07-.74-.44-1.12-1.12-1.12h-6.29c.27.81.1,1.42-.51,1.82-.61.41-1.25.61-1.93.61v-24.33h11.76Zm-11.15,23.52c.54,0,.88-.3,1.01-.91.13-.61.2-1.04.2-1.32h7.5c.27.27.54.48.81.61,0,.41.2.88.61,1.42.13.14.27.2.41.2v-22.71h-10.54v22.71Zm9.53-21.49v17.44h-8.72v-17.44h8.72Zm0,30.01v23.52h-8.72v-23.52h8.72Zm2.43-3.85c0,.41-.27.61-.81.61-.41,0-.61-.2-.61-.61s.2-.61.61-.61c.54,0,.81.2.81.61Zm7.5,2.43v-.41l.41-.61c.67-.41,1.65-1.08,2.94-2.03,1.28-.94,2.26-1.55,2.94-1.83.13-.13.47-.41,1.01-.81,1.35.68,2.16,1.15,2.43,1.42.54,0,.81.2.81.61h-.2c-.54,0-1.05-.1-1.52-.3-.48-.2-.98-.3-1.52-.3-.41,0-.95.17-1.62.51-.68.34-1.35.75-2.03,1.22-.68.47-1.25.91-1.72,1.32-.48.41-.71.68-.71.81l.61,29.2h.2c.54,0,.91-.24,1.11-.71.2-.47.37-.84.51-1.12h8.11c0,.41.27.81.81,1.22h.41l.61-28.59-.61-1.42h.41c.27,0,.71.17,1.32.51.61.34.91.71.91,1.11v.2c-.27.27-.58.44-.91.51-.34.07-.58.1-.71.1v28.18c-.41.27-.74.47-1.01.61h-.2c-.54,0-.91-.23-1.12-.71-.2-.47-.37-.84-.51-1.12h-6.89c-.27.95-.64,1.52-1.12,1.72-.48.2-1.25.3-2.33.3v-28.99c-.41,0-.68-.2-.81-.61Zm13.58-30.61v24.33c-.54,0-1.15-.2-1.82-.61-.68-.41-.88-1.01-.61-1.82h-6.89c.41,1.08.1,1.76-.91,2.03-1.01.27-1.72.41-2.13.41v-24.33h12.37Zm-11.76,23.92c.67,0,1.22-.27,1.62-.81.41-.54.47-1.15.2-1.82h8.11c0,.27.07.71.2,1.32.13.61.47.91,1.01.91v-22.71h-11.15v23.11Zm9.33-21.9v17.44h-8.11v-17.44h8.11Zm0,30.01v23.52h-8.11v-23.52h8.11Zm.2-4.46h.41c.54,0,.81.2.81.61h-.81c-.41,0-.61-.2-.61-.61h.2Zm9.12,2.64l3.24-3.24c.13-.27.41-.54.81-.81.41-.27.67-.41.81-.41h6.28c-.41,0-1.32.04-2.74.1-1.42.07-2.33.24-2.74.51-.54.14-1.32.61-2.33,1.42-1.01.81-1.52,1.49-1.52,2.03v.41c0,.27.2.41.61.41v27.57l.81,1.22c.27-.13.47-.41.61-.81.13-.41.34-.74.61-1.01h8.11c.13.95.61,1.56,1.42,1.83v-28.79l1.62-.41c-.27-1.08-.85-1.79-1.72-2.13-.88-.34-1.59-.91-2.13-1.72h.61c.81,0,1.79.44,2.94,1.32,1.15.88,1.72,1.79,1.72,2.74v.2c-.41.41-1.08.61-2.03.61v26.96c0,.81-.07,1.32-.2,1.52-.14.2-.48.3-1.01.3-.68,0-1.11-.17-1.32-.51-.2-.34-.44-.78-.71-1.32h-6.89c-.14.54-.27.98-.41,1.32-.14.34-.54.51-1.22.51-.27,0-.61-.03-1.01-.1-.41-.07-.61-.24-.61-.51v-28.18l-1.62-1.01Zm14.4-30.21v24.33c-.68,0-1.35-.2-2.03-.61-.68-.41-.88-1.01-.61-1.82h-6.89c.41,1.08.41,1.69,0,1.82-.41.14-.88.2-1.42.2h-.2c-.95,0-1.42-.2-1.42-.61v-23.32h12.57Zm-11.15,23.32c.27-.27.47-.61.61-1.01.13-.41.34-.74.61-1.01h8.11c0,.27.07.71.2,1.32.13.61.47.91,1.01.91v-22.71h-9.93l-1.42,1.22v19.87l.81,1.42Zm9.33-21.29v17.44h-8.11v-17.44h8.11Zm0,30.01v23.52h-8.11v-23.52h8.11Zm13.18-51.9c0,.27.13.44.41.51.27.07.47.1.61.1h2.23c1.49,0,2.9-.17,4.26-.51,1.35-.34,2.03-1.38,2.03-3.14h-9.53v3.04Zm.61,43.79c.81,0,1.35-.3,1.62-.91.27-.61.34-1.25.2-1.93h6.28v-1.82h-6.28v-17.64h6.28v-.81h-8.11v23.11Zm115.97-50.69l.61-.61c.27-.13.51-.44.71-.91.2-.47.44-.78.71-.91h-111.71l1.82,1.82,107.86.61Zm-33.66,23.11h11.76c1.08-1.35,1.75-2.23,2.03-2.64l2.43-3.65v.41c0,.27-.14.71-.41,1.32-.27.61-.58,1.22-.91,1.82-.34.61-.68,1.18-1.01,1.72-.34.54-.58.88-.71,1.01h6.89c0-.27.03-.81.1-1.62.07-.81.24-1.35.51-1.62.13-.13.47-.41,1.01-.81.54-.41.81-.74.81-1.01.13-.13.27-.64.41-1.52.13-.88.2-1.38.2-1.52.13-.13.57-.34,1.32-.61.74-.27,1.12-.54,1.12-.81,0-.13.07-.34.2-.61.13-.27.2-.54.2-.81s-.07-.54-.2-.81c-.14-.27-.2-.54-.2-.81.81.27,1.52.14,2.13-.41.61-.54.78-1.22.51-2.03h1.42c1.08,0,1.75.34,2.03,1.01.27.68.81,1.01,1.62,1.01.67,0,1.01-.54,1.01-1.62,0-.54-.1-.91-.3-1.11s-.41-.34-.61-.41c-.2-.07-.37-.23-.51-.51-.14-.27-.2-.74-.2-1.42h-105.22c-.14,0-.68.51-1.62,1.52-.95,1.01-1.42,1.66-1.42,1.93,0,.54.23.95.71,1.22.47.27.91.41,1.32.41s.74-.17,1.01-.51c.27-.34.27-.84,0-1.52h3.85c-.27.81-.2,1.39.2,1.72.41.34.88.51,1.42.51,1.08,0,1.55-.47,1.42-1.42-.14-.94.34-1.42,1.42-1.42h20.48c.81,0,1.45.44,1.93,1.32.47.88,1.11,1.32,1.93,1.32,1.08,0,1.55-.67,1.42-2.03h1.42c1.22,0,1.89.34,2.03,1.01.13.68.67,1.01,1.62,1.01,1.35,0,2.09-.67,2.23-2.03h21.9c.41,1.35,1.08,2.03,2.03,2.03.67,0,1.01-.34,1.01-1.01s.81-1.01,2.43-1.01h2.03c-.27.81-.2,1.39.2,1.72.41.34.88.51,1.42.51.41,0,.84-.17,1.32-.51.47-.34.57-.91.3-1.72h22.91c.41,0,.61.48.61,1.42v.61l-1.01-1.42h-21.9c-.41,1.08-1.08,1.89-2.03,2.43v11.96Zm-21.29-52.51h1.62l-52.1,22.5h6.29c.54,0,1.35-.2,2.43-.61l41.77-17.44h1.01c1.08,0,2.06.17,2.94.51.88.34,1.65.78,2.33,1.32h-.61c-.95,0-1.76-.2-2.43-.61-.68-.41-1.49-.61-2.43-.61h-.81l-41.36,17.44h93.26l-1.82-1.22h1.22c.27.27.88.61,1.82,1.01.94.41,1.55.74,1.82,1.01h-108.87l53.93-23.32Zm-50.18,105.73c-1.15.34-1.86.51-2.13.51-.27.27-.58.48-.91.61-.34.14-.51.34-.51.61v8.11h10.14l.61-.61v-14.6c0-3.24.03-6.96.1-11.15.07-4.19.13-8.51.2-12.98.07-4.46.13-8.78.2-12.98.07-4.19.1-7.84.1-10.95v-7.3.81c0,.68.13,1.35.41,2.03.27.68.74,1.01,1.42,1.01l-1.22.41v60.01h1.42v-60.01c.27.27.47.71.61,1.32.13.61.34,1.05.61,1.32,0,.14.13.34.41.61h6.08l-3.45-5.68v-.61c.41.27.84.78,1.32,1.52.47.74.91,1.45,1.32,2.13.41.68.81,1.29,1.22,1.82.41.54.74.81,1.01.81h11.96v-11.96l-2.43-2.43h-21.9c-.14.95-.41,1.56-.81,1.82-.41.27-.61.95-.61,2.03,0,.41.07.91.2,1.52.13.61.74.71,1.82.3l-2.03,1.22-.81,32.03v-36.49c-.68.14-1.12.07-1.32-.2-.2-.27-.34-.57-.41-.91-.07-.34-.2-.67-.41-1.01-.2-.34-.64-.51-1.32-.51-1.08,0-1.62.41-1.62,1.22,0,.95-.27,1.69-.81,2.23,0,1.89-.04,5.24-.1,10.04-.07,4.8-.14,9.87-.2,15.21-.07,5.34-.14,10.41-.2,15.21-.07,4.8-.1,8.14-.1,10.04v13.38h4.26c-.27,0-.98.17-2.13.51Zm-1.52-72.48h105.63v-3.04h-105.63v3.04Zm4.87,72.99c0,.41-.2.61-.61.61s-.61-.2-.61-.61c0-.54.2-.81.61-.81s.61.27.61.81Zm1.62-1.22v-27.57l1.01,28.79h-.81c-.54,0-.88-.27-1.01-.81l.81-.41Zm2.23,1.82c0,.41-.2.61-.61.61s-.61-.2-.61-.61.2-.61.61-.61.61.2.61.61Zm13.58-51.29h10.14v-1.82h-11.15l1.01,1.82Zm10.14,11.96v-10.54h-8.11v.61c2.57.41,4.19.61,4.87.61.27,0,.71-.03,1.32-.1.61-.07.91.1.91.51v8.31l1.01.61Zm1.22,37.51h6.29v-63.05c0-.67-.54-1.49-1.62-2.43-1.08-.94-1.89-1.42-2.43-1.42-1.08,0-1.56.34-1.42,1.01.13.68-.14,1.15-.81,1.42v64.47Zm7.5-52.51h10.54l1.01-6.29v6.29h12.16v-11.96c-.27-.27-.58-.61-.91-1.01-.34-.41-.71-.88-1.12-1.42h-20.48l-1.22,2.43v11.96Zm1.82,26.15c0,.54-.2.81-.61.81s-.61-.27-.61-.81c0-.41.2-.61.61-.61s.61.2.61.61Zm.81.81c0,.41-.27.61-.81.61-.41,0-.61-.2-.61-.61,0-.54.2-.81.61-.81.54,0,.81.27.81.81Zm.41,1.01h-.41v-.41l.41.41Zm1.42.61c0,.54-.27.81-.81.81-.41,0-.61-.27-.61-.81,0-.41.2-.61.61-.61.54,0,.81.2.81.61Zm.61.81c0,.41-.2.61-.61.61-.54,0-.81-.2-.81-.61,0-.54.27-.81.81-.81.41,0,.61.27.61.81Zm.2.61h.41l1.22,1.22h-.81c-.14-.13-.3-.34-.51-.61-.2-.27-.37-.47-.51-.61h.2Zm4.05-25.75c-.68.14-1.08.2-1.22.2-.81,0-1.22.2-1.22.61v21.9c-.41-.81-.27-1.42.41-1.82.67-.41,1.35-.61,2.03-.61h1.22v-1.62h-3.04v-16.83c0-.27.2-.41.61-.41.13-.27.54-.44,1.22-.51.67-.07,1.08-.1,1.22-.1v-1.01c-.14,0-.54.07-1.22.2Zm-2.43,58.8l6.89-.2h-6.08v-19.67h-.81v19.87Zm2.03-18.65h5.47v-10.54h-5.47v10.54Zm1.42-12.16c-.27,0-.41.07-.41.2s.13.2.41.2c.13,0,.2-.07.2-.2s-.07-.2-.2-.2Zm1.62-6.08v5.07c0,.27.23.44.71.51.47.07.84.1,1.12.1.54-.13.94-.34,1.22-.61,1.62-1.08,3.01-2.26,4.16-3.55,1.15-1.28,2.46-2.6,3.95-3.95,0-.67.03-1.89.1-3.65.07-1.75.13-3.58.2-5.47.07-1.89.13-3.68.2-5.37.07-1.69.1-2.87.1-3.55v-4.46h-11.35c-.27,0-.41.2-.41.61-.27.27-.41.61-.41,1.01v.61h6.08v23.52c-.27,0-.71.14-1.32.41-.61.27-1.05.34-1.32.2-.54-.13-.81-.54-.81-1.22,0-.54-.34-.81-1.01-.81-.81,0-1.22.2-1.22.61Zm1.93-1.32c.34.07.57.17.71.3.13.14.23.34.3.61.07.27.3.68.71,1.22h.61c.41-.54.61-1.01.61-1.42v-20.48c0-.27-.27-.44-.81-.51-.54-.07-1.08-.1-1.62-.1h-.41c-.14,0-.51-.03-1.12-.1-.61-.07-.91.17-.91.71.27.27.81.41,1.62.41.94,0,1.42.2,1.42.61v16.42c-.27,0-.85.1-1.72.3-.88.2-1.32.58-1.32,1.12v.61c.94.14,1.59.24,1.93.3Zm-1.93,7.6c0,.54.13.81.41.81.54,0,.81-.27.81-.81,0-.41-.27-.61-.81-.61-.27,0-.41.2-.41.61Zm1.22-86.77c.94,0,1.96.41,3.04,1.22h-.61c-.68,0-1.22-.07-1.62-.2-.41-.13-.95-.47-1.62-1.01h.81Zm0,2.43c.81,0,1.42.27,1.83.81h-.61c-.81,0-1.49-.27-2.03-.81h.81Zm1.83,114.96h.61c.41-.13.61-.34.61-.61v-19.26h-.61l-.61,19.87Zm1.22-113.54c.94,0,1.96.34,3.04,1.01h-.61c-.95,0-1.96-.34-3.04-1.01h.61Zm.61,84.34c0,.27-.2.41-.61.41s-.61-.13-.61-.41c0-.41.2-.61.61-.61s.61.2.61.61Zm.81.41c0,.41-.27.61-.81.61-.41,0-.61-.2-.61-.61,0-.27.2-.41.61-.41.54,0,.81.14.81.41Zm-.61-86.37c-.14,0-.24-.1-.3-.3-.07-.2.03-.3.3-.3.41,0,.61.07.61.2,0,.27-.2.41-.61.41Zm.81,87.38v.2c0,.14-.14.24-.41.3-.27.07-.41-.03-.41-.3,0-.41.2-.61.61-.61.13,0,.2.14.2.41Zm0-80.69c-.14,0-.27-.07-.41-.2-.14-.13,0-.2.41-.2.27,0,.41.07.41.2s-.14.2-.41.2Zm.81-6.49c.94,0,1.62.27,2.03.81h-.61c-1.08,0-1.69-.27-1.82-.81h.41Zm.61,6.89c.94,0,1.62.27,2.03.81h-.61c-.95,0-1.62-.27-2.03-.81h.61Zm1.42-3.65c.94,0,1.96.41,3.04,1.22h-.61c-.68,0-1.18-.1-1.52-.3-.34-.2-.85-.51-1.52-.91h.61Zm.81-1.62c-.14,0-.24-.1-.3-.3-.07-.2.03-.3.3-.3.13,0,.2.14.2.41,0,.14-.07.2-.2.2Zm.81,6.89c-.27,0-.44-.1-.51-.3-.07-.2.1-.3.51-.3.13,0,.2.07.2.2,0,.27-.07.41-.2.41Zm.61-6.29c-.27,0-.41-.07-.41-.2,0-.27.13-.41.41-.41.13,0,.2.07.2.2,0,.27-.07.41-.2.41Zm.81,6.49c.81,0,1.42.27,1.83.81h-.61c-.81,0-1.42-.27-1.83-.81h.61Zm.81-5.68c-.54,0-.81-.2-.81-.61,0-.13.27-.2.81-.2.27,0,.41.07.41.2,0,.41-.14.61-.41.61Zm.41,2.03c.94,0,1.96.41,3.04,1.22h-.41c-1.22,0-2.23-.41-3.04-1.22h.41Zm1.01-1.62c-.27,0-.41-.07-.41-.2s.13-.2.41-.2c.13,0,.2.07.2.2s-.07.2-.2.2Zm4.05,101.37c0,.68-.34.98-1.01.91-.68-.07-1.08-.1-1.22-.1s-.54.04-1.22.1c-.68.07-1.01-.23-1.01-.91h4.46Zm-3.04-94.68c.94,0,1.96.34,3.04,1.01h-.61c-.68,0-1.22-.07-1.62-.2-.41-.13-.95-.41-1.62-.81h.81Zm.2-6.08c-.14,0-.24-.1-.3-.3-.07-.2.03-.3.3-.3s.41.14.41.41c0,.14-.14.2-.41.2Zm1.62.41c.81,0,1.42.2,1.83.61h-.61c-.81,0-1.49-.2-2.03-.61h.81Zm.61,2.43c.67,0,1.18.1,1.52.3.34.2.84.51,1.52.91h-.61c-1.08,0-2.1-.41-3.04-1.22h.61Zm1.83,5.07c.67,0,1.35.2,2.03.61h-.81c-.81,0-1.42-.2-1.82-.61h.61Zm.61-6.29c.67,0,1.22.1,1.62.3s.88.51,1.42.91h-.61c-.81,0-1.83-.41-3.04-1.22h.61Zm0,49.27h9.33c.27,0,.51-.13.71-.41.2-.27.44-.54.71-.81l.2-.61h-10.95v1.82Zm0,11.96l.81-.61v-9.12h7.5v-.81h-8.31v10.54Zm0,11.96c.27-.27.51-.61.71-1.01s.44-.74.71-1.01h8.31v2.03l.2-21.9h-.61v18.04h-8.51v-6.29h-.81v10.14Zm2.03-70.15c1.08,0,2.09.48,3.04,1.42h-.61c-1.08,0-2.1-.47-3.04-1.42h.61Zm.2,4.66c-.14,0-.24-.1-.3-.3-.07-.2.03-.3.3-.3.13,0,.2.14.2.41,0,.14-.07.2-.2.2Zm1.62.61c.81,0,1.35.14,1.62.41h-.41l-2.03-.41h.81Zm.61-6.28c.94,0,1.96.34,3.04,1.01h-.61c-.95,0-1.96-.34-3.04-1.01h.61Zm1.62,3.24c-.27,0-.44-.1-.51-.3-.07-.2.1-.3.51-.3.13,0,.2.14.2.41,0,.14-.07.2-.2.2Zm.81,4.05c.67,0,1.18.1,1.52.3.34.2.84.58,1.52,1.12h-.61c-1.08,0-2.1-.47-3.04-1.42h.61Zm.61-3.85c.81,0,1.42.27,1.82.81h-.61c-.81,0-1.42-.27-1.83-.81h.61Zm1.01-1.42c-.14,0-.27-.1-.41-.3-.14-.2,0-.3.41-.3.13,0,.2.14.2.41,0,.14-.07.2-.2.2Zm.2,72.18c.27.14.71.24,1.32.3.61.07,1.05.37,1.32.91h-.61c-.27-.13-.61-.27-1.01-.41-.41-.13-.75-.2-1.01-.2v-.61Zm1.22-71.57c-.41,0-.61-.07-.61-.2,0-.27.2-.41.61-.41.54,0,.81.14.81.41,0,.14-.27.2-.81.2Zm.81,2.23h.61c.27.14.88.44,1.83.91.94.48,1.55.78,1.82.91h-1.22c-.27-.13-.91-.44-1.93-.91-1.01-.47-1.66-.78-1.93-.91h.81Zm.61,4.46h.81c.41,0,.74.14,1.01.41h-.61c-.14,0-.74-.13-1.82-.41h.61Zm.2-6.08c-.14,0-.24-.1-.3-.3-.07-.2.03-.3.3-.3.13,0,.2.14.2.41,0,.14-.07.2-.2.2Zm1.42.81c-.27,0-.44-.13-.51-.41-.07-.27.1-.41.51-.41.13,0,.2.07.2.2,0,.41-.07.61-.2.61Zm1.01,6.89c-.14,0-.24-.13-.3-.41-.07-.27.03-.41.3-.41s.41.14.41.41-.14.41-.41.41Zm.41-6.69c.81,0,1.42.2,1.82.61h-.61c-.81,0-1.42-.2-1.82-.61h.61Zm1.22,6.89c.94,0,1.62.2,2.03.61h-.61c-.95,0-1.62-.2-2.03-.61h.61Zm.61-3.85c.94,0,1.55.2,1.83.61h-.41c-.95,0-1.62-.2-2.03-.61h.61Zm1.01-1.62c-.14,0-.27-.1-.41-.3-.14-.2,0-.3.41-.3.27,0,.41.14.41.41,0,.14-.14.2-.41.2Zm1.42.61c.27,0,.94.14,2.03.41h-.61c-.27,0-.95-.13-2.03-.41h.61Zm0,6.08c.67,0,1.22.1,1.62.3.41.2.94.51,1.62.91h-.81c-.54,0-1.01-.07-1.42-.2-.41-.13-.95-.47-1.62-1.01h.61Zm0,88.6h1.42v-55.55h-1.42v55.55Zm.61-92.05c-.27,0-.44-.1-.51-.3-.07-.2.1-.3.51-.3.13,0,.2.14.2.41,0,.14-.07.2-.2.2Zm1.42.41h.81c.41,0,.74.14,1.01.41h-.61c-.14,0-.74-.13-1.82-.41h.61Zm1.01,31.73c-.41.07-.61.24-.61.51v59.4h1.42v-60.01c-.14,0-.41.03-.81.1Zm0-33.35c-.27,0-.44-.1-.51-.3-.07-.2.1-.3.51-.3.13,0,.2.07.2.2,0,.27-.07.41-.2.41Zm1.01.61c-.14,0-.24-.1-.3-.3-.07-.2.03-.3.3-.3s.41.07.41.2c0,.27-.14.41-.41.41Zm.61,2.64c-.14,0-.24-.13-.3-.41-.07-.27.03-.41.3-.41.41,0,.61.14.61.41s-.2.41-.61.41Zm1.01-2.23c.67,0,1.35.2,2.03.61h-.81c-.95,0-1.49-.2-1.62-.61h.41Zm.61,27.37c-.14.14-.47.34-1.01.61v61.84l.41-.61c.27-6.21.47-11.49.61-15.81.13-4.32.27-8.78.41-13.38.13-4.59.2-8.45.2-11.56v-10.34c0-1.62.07-3.14.2-4.56.13-1.42.2-2.67.2-3.75v-2.43h-1.01Zm0-24.94c.94,0,1.62.2,2.03.61h-.61c-.95,0-1.62-.2-2.03-.61h.61Zm3.85,86.98c-1.35-.13-2.16-.2-2.43-.2-1.35,0-2.03.68-2.03,2.03v7.3h9.93v-7.3l-1.62-2.03v-42.37c0-.94-.03-2.5-.1-4.66-.07-2.16-.17-4.43-.3-6.79-.14-2.36-.24-4.59-.3-6.69-.07-2.09-.1-3.55-.1-4.36-.14-.94-.27-1.72-.41-2.33-.14-.61-.75-.91-1.83-.91-.95,0-1.42.41-1.42,1.22s-.41,1.49-1.22,2.03c-.14,1.62-.3,4.39-.51,8.31-.2,3.92-.37,8.21-.51,12.87-.14,4.66-.24,9.43-.3,14.29-.07,4.87-.1,9.06-.1,12.57v15.81h5.68v1.42c-.27,0-1.08-.07-2.43-.2Zm-1.42-88.4c1.22,0,2.3.48,3.24,1.42h-.61c-1.08,0-2.1-.47-3.04-1.42h.41Zm.41,3.04c-.27,0-.41-.13-.41-.41s.13-.41.41-.41.41.14.41.41-.14.41-.41.41Zm3.85-.81c-.27,0-.41-.07-.41-.2,0-.27.13-.41.41-.41.13,0,.2.14.2.41,0,.14-.07.2-.2.2Zm1.62.41c.54,0,1.15.2,1.83.61h-.81c-.68,0-1.22-.2-1.62-.61h.61Zm1.62,15.71c1.08.34,2.36.51,3.85.51h2.43c.54-.13.81-.41.81-.81v-1.22c0-1.08-.27-1.62-.81-1.62h-7.91c0,1.76.54,2.81,1.62,3.14Zm-1.62,10.44h84.34c.13,0,.64-.2,1.52-.61.88-.41,1.52-.81,1.93-1.22.27-.27.71-.51,1.32-.71s.91-.64.91-1.32h-90.02v3.85Zm0,3.04h84.34v-1.62h-84.34v1.62Zm0,2.64h84.34v-1.22h-84.34v1.22Zm6.69,24.73c.27,0,.51.3.71.91.2.61.37,1.05.51,1.32v-21.9l-.61-.61c-.14,0-.54-.07-1.22-.2-.68-.13-1.08-.2-1.22-.2h-2.43c-1.49,0-2.3.41-2.43,1.22h7.3v17.64h-6.89v1.82h6.29Zm-6.29-45.41h86.37v-.61h-86.37v.61Zm2.23-9.53c-.14,0-.24-.1-.3-.3-.07-.2.03-.3.3-.3s.41.07.41.2c0,.27-.14.41-.41.41Zm2.03,60.21c1.08,0,1.75.41,2.03,1.22h-.2c-.95,0-1.69-.41-2.23-1.22h.41Zm3.04,1.83h.2c.54,0,.81.2.81.61h-.81c-.41,0-.61-.2-.61-.61h.41Zm.61,30.61v-28.18c0-.27.34-.61,1.01-1.01h.41c.67.27,1.15.74,1.42,1.42h-2.23v28.38c-.41.27-.74.47-1.01.61h-.61v-1.22h1.01Zm10.64-27.57c-.2-.27-.3-.61-.3-1.01,0-1.89.88-3.11,2.64-3.65,1.75-.54,3.31-.81,4.66-.81,1.49,0,3.24.3,5.27.91,2.03.61,3.04,1.86,3.04,3.75v.2c-.41.41-.95.61-1.62.61v28.99c-1.35,0-2.3-.67-2.84-2.03h-7.5c0,.14-.04.44-.1.91-.07.48-.17.78-.3.91h-.81c-.27-.13-.54-.34-.81-.61v-28.18c-.68.27-1.12.27-1.32,0Zm0-52.61c.07.74.1,1.25.1,1.52,0,.41.27.61.81.61h9.93c.41,0,.61-.2.61-.61,0-.27.07-.78.2-1.52.13-.74.2-1.25.2-1.52h-11.96c0,.27.03.78.1,1.52Zm1.72,80.19l1.22-1.22h8.51c0,1.08.54,1.62,1.62,1.62v-28.59c-.68,0-.34-.13,1.01-.41v-.41c0-1.49-.91-2.43-2.74-2.84-1.83-.41-3.28-.61-4.36-.61-.41,0-.98.04-1.72.1-.74.07-1.52.24-2.33.51-.81.27-1.49.64-2.03,1.12-.54.47-.81,1.05-.81,1.72v.41c.54.14,1.08.27,1.62.41v28.18Zm11.56-58.8v24.33c-.54,0-1.15-.2-1.83-.61-.68-.41-.88-1.01-.61-1.82h-6.89c-.54,0-.85.37-.91,1.12-.07.74-.58,1.12-1.52,1.12v-24.13h11.76Zm-11.15,23.32c.54-1.35.94-2.03,1.22-2.03h8.11c0,.27.1.71.3,1.32.2.61.51.91.91.91v-22.71h-10.54v22.5Zm9.33-21.29v17.44h-8.51v-17.44h8.51Zm0,30.01v23.52h-8.11v-23.52h8.11Zm9.53-1.42v-.41c.13-.13.54-.44,1.22-.91.67-.47,1.38-.94,2.13-1.42.74-.47,1.45-.91,2.13-1.32.67-.41,1.15-.67,1.42-.81.13-.13.47-.41,1.01-.81.54,0,.81.27.81.81-.81.41-2.1.98-3.85,1.72-1.76.74-2.84,1.66-3.24,2.74,0,.14.1.3.3.51.2.2.37.37.51.51v26.96l.61,1.22c.27-.13.47-.41.61-.81.13-.41.34-.74.61-1.01h8.11l1.01,1.22v-28.18l.81-.41-1.83-2.03h.2c.54,0,1.22.27,2.03.81.81.54,1.35.95,1.62,1.22v.41c-.27.27-.68.44-1.22.51-.54.07-.88.1-1.01.1v29.4c-1.76,0-2.5-.81-2.23-2.43h-6.89c-.27,1.22-.88,1.82-1.83,1.82-.27,0-.61-.03-1.01-.1-.41-.07-.61-.24-.61-.51v-28.18c-.81,0-1.29-.2-1.42-.61Zm13.58-30.61v24.13c-.95,0-1.42-.34-1.42-1.01,0-.81-.34-1.22-1.01-1.22h-6.29c.41,1.08.1,1.76-.91,2.03-1.01.27-1.79.41-2.33.41v-24.33h11.96Zm-10.54,23.32c.27-.27.47-.61.61-1.01.13-.41.34-.74.61-1.01h7.5c.27,0,.74.68,1.42,2.03v-22.5h-10.14l-.61,20.48.61,2.03Zm9.33-21.29v17.44h-8.72v-17.44h8.72Zm0,30.01v23.52h-8.72v-23.52h8.72Zm-2.84-5.47c-.14,0-.24-.1-.3-.3-.07-.2.03-.3.3-.3s.41.14.41.41c0,.14-.14.2-.41.2Zm1.42.41h.2c.41,0,.61.2.61.61h-.61c-.54,0-.81-.2-.81-.61h.61Zm10.75,3.65v-.2c0-1.08.3-1.96.91-2.64.61-.67,1.38-1.18,2.33-1.52.94-.33,1.89-.54,2.84-.61.94-.07,1.83-.1,2.64-.1.41,0,.88.03,1.42.1.54.07.88.1,1.01.1l2.03,1.22h-.61c-.81,0-1.49-.1-2.03-.3-.54-.2-1.35-.3-2.43-.3s-2.5.17-4.26.51c-1.76.34-2.64,1.32-2.64,2.94v.41c1.35.27,1.69.41,1.01.41v27.78c.54,0,.94.14,1.22.41.27.27.41-.13.41-1.22h8.11c.13.95.61,1.56,1.42,1.83v-28.79c.41,0,.91-.13,1.52-.41.61-.27.64-.74.1-1.42.41.27.61.74.61,1.42,0,.41-.07.74-.2,1.01-.14.27-.54.27-1.22,0v29.4c-.54,0-1.25-.17-2.13-.51-.88-.34-1.18-.98-.91-1.93h-6.89c.41.95.2,1.59-.61,1.93-.81.34-1.49.51-2.03.51v-29.4c-.68,0-1.22-.2-1.62-.61Zm13.79-30.61v24.33c-.68,0-1.35-.2-2.03-.61-.68-.41-.88-1.01-.61-1.82h-6.08c-.68,0-1.08.37-1.22,1.12-.14.74-.81,1.12-2.03,1.12v-24.13h11.96Zm-10.54-19.26h-.61l.61-.61v.61Zm-.61,42.78c.41,0,.71-.3.91-.91.2-.61.3-1.04.3-1.32h8.11c0,.27.07.71.2,1.32.13.61.47.91,1.01.91v-22.71h-10.54v22.71Zm9.33-21.49v17.44h-8.72v-17.44h8.72Zm-8.72,30.01h8.72v23.52h-8.72v-23.52Zm11.15-4.46c0,.41-.2.61-.61.61s-.61-.2-.61-.61.2-.61.61-.61.61.2.61.61Zm.61.61c0,.41-.2.61-.61.61s-.61-.2-.61-.61.2-.61.61-.61.61.2.61.61Z"/></svg>