<?xml version="1.0" encoding="UTF-8"?><svg id="Layer_1" xmlns="http://www.w3.org/2000/svg" viewBox="0 0 1024 1024"><defs><style>.cls-1{fill:#f8d8c0;}.cls-1,.cls-2,.cls-3,.cls-4,.cls-5,.cls-6,.cls-7,.cls-8,.cls-9,.cls-10{stroke-width:0px;}.cls-2{fill:#23388f;}.cls-3{fill:#f2b588;}.cls-4{fill:#e56d14;}.cls-5{fill:#ec934f;}.cls-6{fill:#ec924e;}.cls-7{fill:#e46d14;}.cls-8{fill:#e66e13;}.cls-9{fill:#e66d13;}.cls-10{fill:#fefefe;}</style></defs><path class="cls-8" d="m510.56,389.02h2.64c.93.27,1.88.05,2.82.12.46,0,.92,0,1.38,0,14.27-.29,27.8,3.09,40.92,8.39,11.49,4.64,21.97,10.98,31.57,18.82,4.62,3.77,8.88,7.94,12.92,12.3,7.06,7.62,12.95,16.09,17.83,25.28,4.73,8.9,8.28,18.24,10.71,28.01,1.18,4.73,2.21,9.5,2.6,14.36.36,4.5.45,9.01.44,13.53,0,5.79.06,11.59-.5,17.36-.59,6.05-1.95,11.97-3.57,17.83-1.96,7.06-4.58,13.88-7.79,20.46-4.24,8.68-9.47,16.73-15.61,24.21-3.71,4.52-7.79,8.68-12.05,12.66-6.5,6.07-13.68,11.26-21.38,15.72-11.08,6.42-22.87,10.98-35.38,13.71-3.87.84-7.75,1.52-11.69,1.93-1.97.2-3.96.21-5.94.3-4.39.2-8.78.13-13.17.13-15.25.02-29.75-3.47-43.73-9.4-9.05-3.84-17.51-8.7-25.37-14.61-3.7-2.78-7.2-5.8-10.6-8.96-9.32-8.67-17-18.61-23.24-29.67-5.09-9.02-8.89-18.57-11.52-28.59-1.54-5.84-2.7-11.75-3.27-17.76-.18-1.85-.25-3.72-.25-5.58,0-3.59-.33-7.17-.08-10.77.14-2.1.07-4.21.11-6.31.1-6.1,1.1-12.08,2.43-18,2.28-10.23,5.83-20,10.63-29.31,4.25-8.23,9.35-15.89,15.35-22.95,2.46-2.89,4.97-5.73,7.69-8.37,8-7.77,16.79-14.49,26.57-19.9,9.67-5.35,19.84-9.38,30.57-12.02,4.15-1.02,8.34-1.9,12.59-2.33,3.3-.33,6.61-.44,9.93-.46.39,0,.79,0,1.18,0,.47,0,.95,0,1.42,0,.95-.07,1.91.15,2.86-.12Z"/><path class="cls-10" d="m505.03,389.22c-29.37,1.86-55,12.63-76.57,32.66-19.78,18.37-32.08,40.97-37.07,67.52-1.45,7.71-2.09,15.5-1.99,23.35.22,18.31,4.25,35.73,12.25,52.22,6.23,12.84,14.43,24.27,24.68,34.2,17.69,17.14,38.64,28.1,62.87,32.72,11.21,2.13,22.51,2.7,33.86,1.6,28.02-2.71,52.36-13.67,72.89-32.94,14.83-13.92,25.47-30.6,32-49.86,4.67-13.78,6.75-27.97,6.32-42.51-.78-26.04-8.86-49.6-24.62-70.33-18.77-24.69-43.49-40.19-73.92-46.45-5.99-1.23-12.05-1.96-18.16-2.18-.07-.02-.13-.03-.2-.05.05-.04.1-.09.15-.13,38.63,0,77.26,0,115.88-.02.87,0,1.12.15,1.12,1.09-.03,81.01-.03,162.03,0,243.04,0,1-.24,1.15-1.18,1.15-81.05-.03-162.1-.03-243.15,0-.94,0-1.18-.14-1.18-1.15.03-80.97.03-161.95,0-242.92,0-1.05.27-1.21,1.24-1.21,38.27.03,76.54.02,114.81.02.17.08.16.14-.01.2Z"/><path class="cls-6" d="m510.56,389.02c-.94.47-1.93.15-2.89.22-.16-.09-.16-.16.02-.22h2.88Z"/><path class="cls-5" d="m516.09,389.25c-.96-.07-1.96.24-2.89-.22h2.88c.17.07.17.14.01.22Z"/><path class="cls-3" d="m507.69,389.02c0,.07,0,.15-.02.22-.48,0-.96-.01-1.44-.02-.17-.08-.17-.15.02-.2h1.44Z"/><path class="cls-3" d="m516.09,389.25c-.02-.07-.02-.15-.01-.22h1.44c.04.05.06.11.04.18-.49.01-.98.03-1.47.04Z"/><path class="cls-1" d="m506.25,389.02c0,.07-.01.13-.02.2-.4,0-.8,0-1.2,0,0-.07,0-.13.01-.2h1.2Z"/><path class="cls-2" d="m511.76,551.68c-25.25,0-50.49,0-75.74,0-1.95,0-1.65.11-1.65-1.68,0-32.6,0-65.19,0-97.79,0-1.79-.22-1.61,1.59-1.61,50.57,0,101.14,0,151.72,0,1.75,0,1.5-.2,1.5,1.55,0,32.64,0,65.27,0,97.91,0,1.79.32,1.62-1.68,1.62-25.25,0-50.49,0-75.74,0Z"/><path class="cls-2" d="m550.38,576.37h-77.39c.65-1.28,1.65-2.14,2.55-3.06,4.3-4.4,8.8-8.58,13.23-12.84.47-.45.98-.58,1.61-.58,14.29.01,28.59.02,42.88-.01.94,0,1.58.38,2.21.96,3.22,2.99,6.24,6.17,9.3,9.33,1.78,1.83,3.52,3.7,5.27,5.56.15.16.4.28.34.64Z"/><path class="cls-2" d="m496.39,598c.42-2.15.91-4.29,1.22-6.45.17-1.14.5-1.63,1.76-1.56,1.87.1,3.75.02,5.62-.06.85-.04,1.12.29,1.13,1.07.06,4.51.31,9.01.19,13.52-.02.67-.32.82-.86.82-1.12.01-2.24-.02-3.35.04-.85.05-1.14-.32-1.14-1.12,0-1.92,0-3.83-.03-5.75,0-.38.09-.78-.23-1.32-.62,1.46-.74,2.87-1.13,4.21-.17.61-.28,1.24-.42,1.87q-.45,2.01-2.57,2.01-2.76,0-3.39-2.67c-.37-1.59-.72-3.19-1.1-4.78-.09-.4-.11-.84-.55-1.33-.27,1.89-.07,3.63-.2,5.35-.08,1.1.5,2.56-.26,3.2-.65.54-2.06.09-3.13.21-1.19.14-1.57-.24-1.55-1.47.08-4.35.06-8.7.05-13.05,0-.75.39-.83.98-.81,1.99.04,3.99.01,5.98.12.97.05,1.18.43,1.31,1.24.35,2.04.78,4.07,1.19,6.1.04.21.13.42.19.63.09,0,.18-.02.27-.03Z"/><path class="cls-2" d="m484.56,600.72c0,1.04-.03,2.07.01,3.11.02.62-.19,1-.8,1.13-3.02.67-6.07,1.06-9.13.36-3.9-.89-5.9-4-5.67-8.25.32-6.02,5.17-7.66,9.75-7.32.79.06,1.59.2,2.35.4,1.21.32,2.14,1.06,2.71,2.19.96,1.91.56,2.6-1.51,2.59-.76,0-1.52-.05-2.27-.03-.69.02-1.31.06-1.61-.81-.19-.55-.8-.63-1.34-.51-.81.17-1.34.69-1.58,1.48-.5,1.64-.52,3.32-.17,4.97.31,1.47,2.69,2.27,3.93,1.42.45-.31.31-.8.32-1.2,0-.45-.44-.33-.74-.39-.47-.1-1.2.32-1.36-.34-.22-.88-.17-1.82,0-2.73.06-.29.36-.28.6-.28,1.95.02,3.91.05,5.86.07.55,0,.77.21.75.8-.04,1.12-.01,2.24-.01,3.35-.03,0-.06,0-.1,0Z"/><path class="cls-2" d="m453.27,597.72c0-2.23,0-4.47,0-6.7,0-.5-.03-.93.69-.97,2.95-.13,5.91-.34,8.83.2,3.66.69,5.82,3.69,5.53,7.48-.38,4.92-3.14,7.5-8.08,7.55-1.99.02-3.99.01-5.98.07-.73.02-1.01-.19-1-.94.03-2.23.01-4.47.01-6.7Z"/><path class="cls-2" d="m560.01,597.4c-1.76-.97-2.33-2.45-1.91-4.28.45-1.93,1.88-2.89,3.68-3.36,2.18-.57,4.35-.52,6.44.38,1.9.82,2.81,2.3,2.75,4.21-.04,1.45-.94,2.28-2.16,2.96.68.59,1.46.85,1.92,1.54,1.39,2.03.64,4.78-1.69,5.97-1.85.95-3.87.83-5.86.76-.91-.03-1.81-.19-2.69-.51-1.66-.61-2.64-1.79-2.91-3.49-.25-1.58.57-2.75,1.77-3.69.18-.14.37-.28.65-.49Z"/><path class="cls-2" d="m507.96,598.09c.09-2.67.15-4.82,0-6.98-.04-.66.07-1.02.88-1.02,3.23-.01,6.47-.07,9.7-.16.8-.02,1.02.25,1.03,1.02.05,2.76.08,2.76-2.63,2.76-.72,0-1.45.07-2.15-.02-.78-.1-.92.28-1.05.91-.2,1.04.07,1.45,1.19,1.33,1.07-.11,2.15-.02,3.23-.07.67-.03.89.22.92.89.11,2.29.13,2.28-2.12,2.32-.64.01-1.28.06-1.91.08-1.13.03-1.66.91-1.22,1.98.17.42.5.32.8.32,1.32-.02,2.64-.01,3.95-.11.8-.06,1.12.08,1.15.99.08,2.9.12,2.88-2.8,2.9-2.63.02-5.27.07-7.9.16-.85.03-1.11-.26-1.09-1.09.05-2.24.02-4.47.02-6.2Z"/><path class="cls-2" d="m550.03,594.02c-1.91,0-3.65-.04-5.4.02-.92.03-1.35-.24-1.24-1.22.06-.55.08-1.13,0-1.67-.19-1.2.19-1.6,1.46-1.55,3.55.14,7.1.15,10.66.17.7,0,1.03.21,1.05.94.06,2.02-.1,3.96-1.21,5.76-1.58,2.54-2.95,5.21-4.23,7.91-.37.78-.85,1.05-1.66,1-1.31-.07-2.63-.1-3.94-.08-.92.02-1-.28-.61-1.04,1.53-2.98,3.02-5.98,4.53-8.98.19-.38.37-.77.61-1.27Z"/><path class="cls-2" d="m532.19,595.56c-.79.37-1.57.74-2.35,1.11-.54.26-.81.18-.79-.49.03-.96.02-1.92,0-2.88-.01-.46.16-.74.57-.94,1.36-.66,2.72-1.3,3.9-2.3.64-.54,1.54-.16,2.33-.16,2.27,0,2.26.02,2.27,2.31.03,3.95.05,7.91.14,11.86.02,1.02-.35,1.34-1.3,1.3-1.16-.05-2.32-.07-3.47,0-1.12.08-1.36-.46-1.33-1.43.08-2.39.12-4.79.16-7.18,0-.38.11-.79-.13-1.22Z"/><path class="cls-8" d="m511.76,543.4c-22.53,0-45.05,0-67.58.03-1.16,0-1.44-.29-1.44-1.44.03-27.2.04-54.4,0-81.6,0-1.26.37-1.5,1.54-1.5,45.01.03,90.03.02,135.04.02q1.52,0,1.52,1.57c0,27.12,0,54.24,0,81.36,0,1.82.21,1.56-1.61,1.56-22.49,0-44.97,0-67.46,0Z"/><path class="cls-9" d="m458.55,597.55c0-1.08.02-2.15,0-3.23-.03-1.04.42-1.41,1.46-1.32,1.25.11,2.01.74,2.3,1.9.43,1.73.4,3.48-.11,5.2-.15.51-.39.96-.76,1.34-.61.64-1.44.82-2.21.62-.8-.2-.54-1.05-.56-1.65-.03-.95,0-1.91,0-2.87-.04,0-.08,0-.12,0Z"/><path class="cls-7" d="m566.21,600.68c0,1.12-.68,1.87-1.7,1.89-1.07.02-1.92-.9-1.88-2.04.04-1.08.87-1.9,1.92-1.88,1.1.02,1.67.73,1.67,2.02Z"/><path class="cls-4" d="m565.97,594.37c-.01,1.21-.56,1.86-1.55,1.84-.94-.02-1.55-.7-1.55-1.76,0-1.07.68-1.89,1.57-1.91,1.03-.02,1.54.59,1.53,1.82Z"/><path class="cls-2" d="m567.86,540.01h-1.34c-17.69,0-35.38,0-53.07,0-.41,0-.95.24-1.22-.21-.3-.49.15-.9.39-1.29.42-.68.88-1.33,1.32-2,1.24-1.87.95-3.45-.91-4.77-1.54-1.1-3.34-1.49-5.17-1.72-1.26-.16-2.55-.18-3.82-.28-1.13-.08-2.08-.92-3.28-.81-.38.03-.3-.5-.3-.79,0-3.59,0-7.19-.02-10.78,0-.62.22-.8.8-.88,2.96-.41,5.92-.88,8.76-1.87,1.44-.5,2.85-1.07,3.93-2.2,1.01-1.05,1.05-1.73.27-2.93-2.01-3.07-4.1-6.1-5.64-9.45-.83-1.8-.8-1.81.61-3.11,2.11-1.95,4.24-3.88,6.33-5.86.55-.53.94-.62,1.61-.16,3.3,2.24,6.73,4.3,9.87,6.76.84.66,1.51.17,2.14-.28,1.34-.94,1.96-2.39,2.48-3.87,1-2.84,1.46-5.81,1.65-8.8.09-1.35.82-1.8,1.85-1.82,3.35-.08,6.71-.02,10.06-.04.89,0,.78.63.83,1.15.3,2.74.73,5.46,1.47,8.12.35,1.27.8,2.51,1.46,3.65.44.77.96,1.48,1.79,1.88.91.45,1.63.53,2.52-.34,2.13-2.06,4.77-3.46,7.28-5.02.98-.61,2.01-1.67,2.98-1.62.79.04,1.47,1.47,2.25,2.22,1.76,1.68,3.51,3.38,5.36,4.96.8.68.75,1.17.26,1.98-2.03,3.3-4.17,6.53-6.37,9.71-.51.74-.51,1.32-.06,2.05.95,1.56,2.39,2.43,4.03,3.04,2.58.95,5.28,1.29,8,1.19.98-.04,1.53.75,2.41.82.28.02.17.48.17.74,0,3.19-.03,6.39.02,9.58.01.95-.56,1.25-1.24,1.51-2.88,1.1-5.89,1.72-8.88,2.43-.23.06-.47.1-.7.16-3.03.69-3.02.69-4.07,3.4-.16.41.13.59.28.83.9,1.5,1.83,2.98,2.89,4.7Z"/><path class="cls-2" d="m494.94,513.05c0,.12,0,.24,0,.36,0,3.31,0,3.33-3.27,3.58-.95.07-2.07.64-2.8.14-.64-.45-.8-1.59-1.18-2.42-.37-.8-.79-1.58-1.4-2.22-.7-.74-1.39-.94-2.25-.13-1.36,1.29-2.8,2.5-4.23,3.72-.22.19-.43.67-.86.2-1.1-1.2-2.55-1.91-3.94-2.68-.63-.35-.72-.67-.43-1.32.65-1.46,1.2-2.96,1.53-4.53.32-1.51-.06-2.06-1.61-2.1-1.8-.05-3.6-.05-5.39,0-.79.02-1.03-.25-1-1.03.06-1.48.06-2.96,0-4.43-.03-.69.26-.98.83-1.23,1.42-.63,2.83-1.32,3.97-2.41.59-.56.81-1-.07-1.67-1.7-1.28-2.96-3.01-4.33-4.62-.22-.26-.35-.43,0-.75,1.1-1.02,1.79-2.34,2.47-3.65.39-.75.69-.96,1.51-.51,1.51.82,3.16,1.31,4.87,1.59.81.13,1.08-.08,1.07-.88-.02-1.72.17-3.43.73-5.07.87-2.55,3.33-3.74,5.88-2.9.45.15.45.53.56.84.52,1.47.99,2.96,1.86,4.26.92,1.37,1.65,1.41,2.68.17,1.02-1.23,2.06-2.44,3.39-3.37.71-.5,1.37-.64,2.19-.11,1.1.72,2.28,1.32,3.44,1.94.53.28.64.55.39,1.13-.71,1.61-1.31,3.26-1.68,4.98-.18.84,0,1.22.98,1.21,1.68-.02,3.35.14,4.94.77,1.64.65,2.03,1.42,2.2,3.17.2,2-.16,3.36-2.38,3.97-1.28.35-2.35,1.33-2.92,2.67-.28.65-.24,1.08.48,1.45,1.25.64,2.41,1.42,3.32,2.51.76.91,1.04,1.81.27,2.92-.66.94-1.2,1.98-1.72,3.01-.34.66-.68.83-1.39.5-1.45-.67-2.95-1.2-4.52-1.54-1.5-.33-2.08.08-2.18,1.61-.06.96-.01,1.92-.01,2.88h0Z"/><path class="cls-8" d="m526.62,522.91c0-1.27-.05-2.55.17-3.82.55-3.15,2.19-5.57,4.9-7.18,3.51-2.08,7.26-3.3,11.42-2.59,2.3.39,4.17,1.55,5.72,3.25,2.2,2.42,3.46,5.34,4.38,8.42.28.95-.05,1.9-.22,2.84-.47,2.61-1.24,5.12-2.75,7.34-1.6,2.35-3.77,3.89-6.6,4.37-4.98.83-9.53-.32-13.56-3.3-2.24-1.66-3.36-4.01-3.46-6.81-.03-.84,0-1.68,0-2.52Z"/><path class="cls-8" d="m486.77,504.13c-3.78,0-6.13-2.58-6.22-6.66-.09-4.15,2.95-6.11,6.78-6.25,3.7-.14,6.2,2.67,6.22,6.68.02,3.82-2.6,6.22-6.78,6.23Z"/></svg>