<?xml version="1.0" encoding="UTF-8"?><svg id="Layer_1" xmlns="http://www.w3.org/2000/svg" viewBox="0 0 360 360"><defs><style>.cls-1{fill:#233890;}.cls-1,.cls-2{stroke-width:0px;}.cls-2{fill:#e76e13;}</style></defs><circle class="cls-2" cx="180" cy="180" r="175.42"/><path class="cls-1" d="m103.65,290.35l2.51-.04c4.37,0,7.44.72,9.21,2.17.38.28.79.74,1.23,1.39,1.3,1.89,1.94,3.97,1.94,6.25,0,4.07-1.4,7.07-4.2,9.02-1.67,1.17-3.59,1.76-5.76,1.78l-.05.05h-.34l-3.57-.04c-1.62,0-3.64.04-6.07.12-.17-.32-.25-.7-.25-1.14v-.48s.01-2.09.01-2.09l.03-2.98v-4.91c-.02-1.13-.03-1.97-.03-2.52v-2.51s.01-3.83.01-3.83c0-.07.49-.13,1.46-.18.97-.05,1.75-.07,2.33-.07h1.53Zm5.68,4.64c-.51-.37-1.07-.57-1.69-.62-.21,0-.51-.02-.88-.03-.37,0-.64-.02-.81-.03-.16.24-.27.42-.32.54l-.24.5v.75c0,1.55.04,3.64.11,6.29l.08,3.87c.05.28.23.44.54.5.92-.02,1.63-.08,2.13-.19,1.76-.62,2.64-2.77,2.64-6.42,0-2.71-.52-4.43-1.56-5.16Z"/><path class="cls-1" d="m140.48,309.85s0,.03.01.05l-.04.11h.01v.03s0,.03-.01.04c-.42.32-1.45.62-3.08.88-1.63.27-2.75.4-3.36.4s-.95,0-1.03-.01l-.68.04c-.72.04-1.13.07-1.23.07-3.75,0-6.61-.94-8.57-2.83-1.96-1.88-2.94-4.56-2.94-8.04s1.06-6.11,3.17-7.9c2.11-1.8,4.98-2.7,8.59-2.7.66,0,1.48.06,2.45.19.97.13,1.82.31,2.55.55.89.37,1.66.9,2.3,1.59s1.06,1.46,1.25,2.3c.04.23.08.6.13,1.09s.09.86.13,1.09c-.05.13-.25.2-.58.2l-6.81-.12s-.08-.14-.13-.36v.04c-.16-.72-.48-1.17-.95-1.33-.21-.08-.5-.12-.84-.12s-.68.06-.99.17c-.31.12-.57.28-.77.48-.21.21-.39.44-.55.72-.16.27-.28.56-.36.88-.08.31-.15.63-.21.96-.06.33-.1.66-.11.98-.01.32-.03.63-.04.93-.01.29-.02.54,0,.73s.01.32.01.38v.92c0,.58.03.99.08,1.21.05.23.12.48.19.75.07.27.16.48.25.62.35.49.73.83,1.13,1.03s1.04.29,1.9.29,1.68-.13,2.46-.39l.07-2.12-.97-.08-.13.07h-1.56s-.33-.33-.33-.33c-.02-.15-.03-.39-.03-.72v-3c0-.15.11-.3.32-.46h.9c.78,0,1.65,0,2.61.03h.13c.88.02,1.54.03,2,.03h1.11c1.59-.01,2.5.09,2.72.29l-.16,10.18v.19Z"/><path class="cls-1" d="m149.85,299.09c-.11,2.53-.16,5.13-.16,7.8v4h-1.31s-4.76.03-4.76.03c-.3,0-.46,0-.48.01,0,0,.02-.08.05-.23v-.13c-.03-.64-.05-1.43-.05-2.35l.05-14.98v-.7s-.01-.67-.01-.67l-.03-1.26c0-.09.05-.18.15-.28h2.91c2.52-.01,4.32.02,5.41.09,1.09.07,1.87.11,2.34.11.26,1.54.64,3.58,1.15,6.11l.95,4.8h.47l1.72-8.77c.03-.13.09-.53.19-1.17.1-.65.17-1.01.23-1.08h.05l8.73-.08h.52s1.5.01,1.5.01c.08.04.12.2.13.5l.13,5.07c.11,4.2.18,7.47.23,9.81,0,1.81-.03,3.5-.08,5.08-.03.11-.21.17-.54.19l-.6.03c-.48.02-.84.03-1.07.03h-.7c-.87,0-2.15.01-3.83.01-.31-.28-.47-1.47-.47-3.59l.03-4.21v-1.09c0-.96,0-1.66-.01-2.12l-.51-.09c-.29,1.08-.86,3.49-1.7,7.23l-.12.54c-.06.28-.17.77-.32,1.48-.15.71-.27,1.25-.35,1.62-.11.12-.58.19-1.42.19h-.17l-1.5-.04h-.82s-.63.01-.63.01h-1.06s-.38.01-.38.01c-.41,0-.64-.09-.68-.28h.01s-1.22-5.31-1.22-5.31c-.04-.13-.12-.43-.24-.88-.12-.45-.2-.83-.21-1.13l-1.01-4.34-.5.03Z"/><path class="cls-1" d="m172.32,294.03l-.07-3.53s.04.01.09.04c6.79-.12,11.91-.18,15.35-.19.04.02.06.04.08.08v3.78c0,.37,0,.67-.03.9-.04.14-.31.21-.79.21h-.09c-2.16,0-4.41-.04-6.76-.11,0,.08-.01.22-.03.43-.02.21-.04.35-.05.44l-.07.51c-.04.34-.08.93-.09,1.77l4.16-.09c.71-.02,1.23-.03,1.55-.03h.21c.54,0,.9.02,1.07.05s.26.12.26.27v.11s-.01.32-.01.32l.07,3.45h-.01s0,0,0,0c-2.72.13-4.89.2-6.51.2h-.63v3.24l7.28-.23c.4,0,.66.06.76.17,0,.23-.01.56-.01.99l.09,3.65c0,.22-.1.35-.29.39l-4.45-.04c-.88,0-2.62.03-5.23.09l-2.2.05c-1.56.05-2.71.08-3.46.08l-.04-.03h.01c-.09-.09-.17-.17-.25-.25v-.47l.08-14.33v-1.94Z"/><path class="cls-1" d="m212.9,291.72l-.03,3.94c0,2.63.02,4.89.07,6.78l.12,8.33c-.22.21-.8.31-1.73.31l-1.15-.03h-.78s-.55.01-.55.01h-.84c-.9.01-1.8,0-2.68-.03l-.21-.34c-.09-.12-.13-.41-.13-.84s.04-3.34.11-8.7l.05-3.67c-1.47,1-2.9,1.72-4.29,2.16-.06,0-.1-.05-.11-.12v-2.02c-.01-2.35,0-3.53.04-3.55.04-.01.17-.08.4-.21.23-.12.49-.25.78-.36.29-.12.47-.2.53-.24.06-.04.13-.08.21-.12,2.3-1.1,3.7-2.05,4.21-2.84l4.13.08c.82,0,1.43-.02,1.82-.05.03.05.04.3.04.75v.76Z"/><path class="cls-1" d="m227.15,299.35c1.11-1.31,2.59-1.97,4.44-1.97s3.44.61,4.75,1.82,1.96,2.73,1.96,4.56c0,2.37-.94,4.26-2.83,5.68-1.47,1.11-3.36,1.74-5.66,1.9-1.71-.02-3.12-.2-4.23-.55-1.11-.35-1.91-.73-2.38-1.15h0c-1.5-1.5-2.51-3.19-3.03-5.05-.27-1.2-.4-2.53-.4-4,0-2.1.4-3.97,1.2-5.62s1.95-2.95,3.45-3.92c1.5-.96,3.23-1.5,5.21-1.59,3.03.07,5.19.96,6.49,2.67.68.9,1.1,1.97,1.27,3.19-.79.2-2.95.29-6.5.29-.18,0-.27.02-.28.05l-.03-.8c-.19-.3-.53-.46-1.03-.46-.96,0-1.62.46-1.97,1.37-.29.77-.44,1.62-.44,2.55v.6c0,.1,0,.24.01.42Zm2.36,1.62c-1.74,0-2.61,1.14-2.61,3.43,0,1.27.43,2.18,1.3,2.72l.16-.2s.07.01.13.01l-.05.27.2.07h-.01c.45.13.79.2,1.04.2s.53-.07.85-.2c1.03-.45,1.54-1.52,1.54-3.23,0-.97-.19-1.72-.58-2.25-.38-.53-1.04-.8-1.97-.82Z"/><path class="cls-1" d="m240.12,305.56c.14-.19.27-.33.39-.43l6.18.09c.07.03.16.2.26.52s.24.54.41.68c.17.14.42.21.74.21s.59-.04.81-.13c.22-.08.4-.19.54-.32.14-.13.27-.3.39-.52.3-.56.5-1.46.58-2.68v-.28s0-.14,0-.28c0-.14,0-.21,0-.22-1.08.7-2.34,1.07-3.77,1.13-1.47,0-2.85-.34-4.12-1.03-1.27-.68-2.19-1.65-2.75-2.9-.3-.68-.47-1.42-.51-2.21.21-2.78,1.6-4.87,4.2-6.27,1.48-.8,3.11-1.21,4.87-1.21,3.18,0,5.53.89,7.05,2.68h0c.87,1.08,1.48,2.24,1.84,3.46.36,1.23.54,2.61.54,4.15,0,3.33-.7,6.01-2.09,8.06-1.58,2.32-4.5,3.49-8.75,3.49-1.96,0-3.58-.53-4.88-1.58-1.2-.88-1.84-2.35-1.93-4.41Zm5.26-8.41c.12,1.95,1.01,2.92,2.68,2.92s2.51-1.06,2.51-3.18-.83-3.18-2.48-3.18c-1.12,0-1.9.51-2.35,1.53-.24.54-.36,1.18-.36,1.9Z"/><path class="cls-1" d="m34.58,129.47h-12.36v-2.4h12.36v2.4Zm-9.64-18.96l10.63,6.28-.99,1.87-10.63-6.28.99-1.87Zm9.52,27.37l1.11,2-10.63,6.68-.99-2.14,10.5-6.54Zm42.51-54.21c2.31,0,4.22.87,5.75,2.6,1.52,1.74,2.29,3.76,2.29,6.08v73.31c0,2.4-.76,4.45-2.29,6.14-1.53,1.69-3.44,2.54-5.75,2.54h-27.19c-2.22,0-4.12-.85-5.68-2.54-1.57-1.69-2.35-3.74-2.35-6.14v-73.31c0-2.31.78-4.34,2.35-6.08,1.56-1.74,3.46-2.6,5.68-2.6h27.19Zm3.21,10.55h-34.72v64.23h34.72v-64.23Zm-22.86-3.74h11.37v-2.14h-11.37v2.14Zm5.56,79.18c1.07,0,2.02-.4,2.84-1.2.82-.8,1.24-1.82,1.24-3.07,0-1.16-.41-2.14-1.24-2.94-.82-.8-1.77-1.2-2.84-1.2-.99,0-1.85.4-2.6,1.2-.74.8-1.11,1.78-1.11,2.94,0,1.25.37,2.27,1.11,3.07.74.8,1.61,1.2,2.6,1.2Zm29.41-51.01l-.99-1.87,10.5-6.28.99,1.87-10.5,6.28Zm0,19.23l10.5,6.54-.99,2.14-10.5-6.68.99-2Zm0-10.82h12.6v2.4h-12.6v-2.4Z"/><path class="cls-1" d="m114.84,248.77h124.35c4.17,0,12.22,8.34,24.14,25.02v2.03l-2.86,2.03H91.59c-.89,0-1.82-1-2.77-3,13.17-17.39,21.84-26.08,26.01-26.08Zm-10.28,13.04v3l4.65.97c1.19-.64,2.15-.97,2.86-.97v-3l-4.65-.97c-1.25.64-2.21.97-2.86.97Zm5.63-5.99c.18,1.29.8,1.93,1.88,1.93h4.56c1.25,0,1.88-.64,1.88-1.93,0-1.35-.63-2.03-1.88-2.03h-4.56c-1.25.19-1.88.87-1.88,2.03Zm13.86-141.42h104.86c8.04,0,12.07,5.35,12.07,16.04v80.28c0,11.34-5.54,17-16.63,17h-26.91c.77,5.99,3.55,8.98,8.31,8.98v3.09l-4.65.97h-51.94c-1.25,0-1.88-.68-1.88-2.03l7.42-8.02v-2.99h-26.01c-11.08,0-16.63-4.67-16.63-14.01v-86.26c.6-8.69,4.59-13.04,11.98-13.04Zm-7.42,147.41v3l4.65.97h.98c1.19,0,1.79-.64,1.79-1.93v-2.03l-4.56-.97c-1.25.64-2.21.97-2.86.97Zm5.63-5.99c.18,1.29.77,1.93,1.79,1.93h4.65c1.25,0,1.88-.64,1.88-1.93,0-1.35-.63-2.03-1.88-2.03h-4.65c-1.19.19-1.79.87-1.79,2.03Zm5.54-125.39v65.21h96.55v-65.21h-96.55Zm1.88,131.38v3l4.65.97c1.19-.64,2.12-.97,2.77-.97v-3l-4.65-.97c-1.19.64-2.12.97-2.77.97Zm5.54-5.99c.18,1.29.8,1.93,1.88,1.93h4.65c1.19,0,1.79-.64,1.79-1.93,0-1.35-.6-2.03-1.79-2.03h-4.65c-1.25.19-1.88.87-1.88,2.03Zm6.53,5.99v3l4.65.97h.89c1.25,0,1.88-.64,1.88-1.93v-2.03l-4.65-.97c-1.19.64-2.12.97-2.77.97Zm5.54-5.99c.18,1.29.8,1.93,1.88,1.93h4.65c1.19,0,1.79-.64,1.79-1.93,0-1.35-.6-2.03-1.79-2.03h-4.65c-1.25.19-1.88.87-1.88,2.03Zm7.42,5.99v3l4.65.97c1.19-.64,2.12-.97,2.77-.97v-3l-4.65-.97c-1.19.64-2.12.97-2.77.97Zm5.54-5.99c.24,1.29.86,1.93,1.88,1.93h4.65c1.25,0,1.88-.64,1.88-1.93,0-1.35-.63-2.03-1.88-2.03h-4.65c-1.25.19-1.88.87-1.88,2.03Zm6.53,5.99v3l4.65.97h.89c1.25,0,1.88-.64,1.88-1.93v-2.03l-4.65-.97c-1.19.64-2.12.97-2.77.97Zm5.54-5.99c.18,1.29.8,1.93,1.88,1.93h4.65c1.25,0,1.88-.64,1.88-1.93,0-1.35-.63-2.03-1.88-2.03h-4.65c-1.25.19-1.88.87-1.88,2.03Zm.98-46.17v2.03c.18,1.35.77,2.03,1.79,2.03h2.86c1.19,0,1.79-.68,1.79-2.03v-2.03c0-.97-.92-1.96-2.77-3h-.89c-.89,0-1.82,1-2.77,3Zm6.44,52.16v3l4.65.97c1.19-.64,2.12-.97,2.77-.97v-3l-4.65-.97c-1.19.64-2.12.97-2.77.97Zm5.63-5.99c.18,1.29.77,1.93,1.79,1.93h4.65c1.25,0,1.88-.64,1.88-1.93,0-1.35-.63-2.03-1.88-2.03h-4.65c-1.19.19-1.79.87-1.79,2.03Zm6.44,8.02v.97l4.65.97h.98c1.19,0,1.79-.64,1.79-1.93v-2.03l-3.67-.97c-2.5.97-3.75,1.97-3.75,3Zm5.63-8.02c.18,1.29.77,1.93,1.79,1.93h4.65c1.25,0,1.88-.64,1.88-1.93,0-1.35-.62-2.03-1.88-2.03h-4.65c-1.19.19-1.79.87-1.79,2.03Zm7.42,5.99v3l4.56.97c1.25-.64,2.2-.97,2.86-.97v-3l-4.65-.97c-1.19.64-2.12.97-2.77.97Zm5.54-5.99c.18,1.29.8,1.93,1.88,1.93h4.56c1.25,0,1.88-.64,1.88-1.93,0-1.35-.62-2.03-1.88-2.03h-4.56c-1.25.19-1.88.87-1.88,2.03Zm6.44,5.99v3l4.65.97h.98c1.25,0,1.88-.64,1.88-1.93v-2.03l-4.65-.97c-1.19.64-2.15.97-2.86.97Zm5.63-5.99c.18,1.29.8,1.93,1.88,1.93h4.56c1.25,0,1.88-.64,1.88-1.93,0-1.35-.62-2.03-1.88-2.03h-4.56c-1.25.19-1.88.87-1.88,2.03Zm7.42,5.99v2.03c.18,1.29.8,1.93,1.88,1.93h.89l4.65-.97v-3l-4.65-.97c-1.19.64-2.12.97-2.77.97Zm4.65-5.99c.18,1.29.77,1.93,1.79,1.93h4.65c1.25,0,1.88-.64,1.88-1.93,0-1.35-.62-2.03-1.88-2.03h-4.65c-1.19.19-1.79.87-1.79,2.03Zm6.44,5.99v3l4.65.97c1.19-.64,2.12-.97,2.77-.97v-3l-4.56-.97c-1.25.64-2.21.97-2.86.97Z"/></svg>