<?xml version="1.0" encoding="UTF-8"?><svg id="Layer_1" xmlns="http://www.w3.org/2000/svg" viewBox="0 0 1024 1024"><defs><style>.cls-1{fill:#f8dac3;}.cls-1,.cls-2,.cls-3,.cls-4,.cls-5,.cls-6,.cls-7,.cls-8,.cls-9,.cls-10,.cls-11,.cls-12,.cls-13,.cls-14,.cls-15,.cls-16{stroke-width:0px;}.cls-2{fill:#f8ddc7;}.cls-3{fill:#23388f;}.cls-4{fill:#d26820;}.cls-5{fill:#e16c16;}.cls-6{fill:#e36d15;}.cls-7{fill:#b46033;}.cls-8{fill:#995944;}.cls-9{fill:#f2b689;}.cls-10{fill:#f2b68a;}.cls-11{fill:#e56d14;}.cls-12{fill:#e56d13;}.cls-13{fill:#ec9451;}.cls-14{fill:#e66e13;}.cls-15{fill:#e66d13;}.cls-16{fill:#fefefe;}</style></defs><path class="cls-16" d="m517.51,383.02c40.56,0,81.11,0,121.67-.02.9,0,1.1.2,1.1,1.1-.02,85.03-.02,170.05,0,255.08,0,.9-.2,1.1-1.1,1.1-85.39-.02-170.77-.02-256.16-.02,0-85.39,0-170.77-.02-256.16,0-.9.2-1.1,1.1-1.1,40.64.03,81.27.02,121.91.02.08.12.07.24-.04.33-1.23.42-2.53.32-3.78.41-14.29.97-27.99,4.41-41.13,10.03-11.98,5.12-22.91,11.97-32.78,20.5-11.47,9.92-21.04,21.4-28.44,34.64-7.86,14.07-12.88,29.1-15.1,45.07-1.06,7.58-1.43,15.19-1.11,22.81.57,13.58,3.22,26.77,7.98,39.52,4.32,11.57,10.21,22.28,17.62,32.15,2.97,3.96,6.22,7.69,9.62,11.31,8.05,8.56,17.15,15.78,27.2,21.81,14.72,8.83,30.62,14.36,47.59,16.8,3.99.57,8,.91,12.03,1.1,2.47.12,4.95.21,7.42.18,8.89-.11,17.68-1.11,26.36-3.04,10.78-2.4,21.09-6.11,30.91-11.17,8.49-4.38,16.37-9.65,23.68-15.79,3.12-2.62,6.14-5.35,8.98-8.27,7.82-8.01,14.55-16.85,20.11-26.59,6.26-10.98,10.73-22.65,13.54-34.96,1.26-5.49,2.05-11.06,2.62-16.67.61-6.06.6-12.14.36-18.19-.41-10.13-2.18-20.07-5.06-29.8-2.07-6.99-4.68-13.77-7.91-20.3-4.31-8.73-9.56-16.88-15.75-24.42-3.02-3.67-6.16-7.24-9.59-10.53-8.01-7.7-16.77-14.4-26.44-19.91-7.18-4.09-14.69-7.41-22.51-10.04-8.35-2.81-16.92-4.73-25.68-5.73-2.78-.32-5.56-.55-8.34-.72-.28-.02-.56-.04-.8-.21-.11-.1-.12-.21-.04-.34Z"/><path class="cls-10" d="m507.44,383.02h3.12c.07.15.04.27-.09.37-.98.33-1.96.33-2.93,0-.14-.1-.17-.22-.09-.37Z"/><path class="cls-9" d="m512.72,383.02h3.12c.07.15.04.27-.09.37-.98.33-1.96.33-2.93,0-.14-.1-.17-.22-.09-.37Z"/><path class="cls-13" d="m512.72,383.02c0,.07,0,.15.02.22-.73.54-1.46.53-2.19,0,.01-.07.02-.15.01-.22h2.16Z"/><path class="cls-2" d="m515.85,383.23c-.01-.07-.02-.14-.02-.21h1.68c0,.07,0,.14,0,.21-.56.47-1.12.47-1.67,0Z"/><path class="cls-1" d="m507.44,383.02c0,.07,0,.14-.01.22-.49.42-.97.43-1.44-.02,0-.07,0-.13.01-.2h1.44Z"/><path class="cls-12" d="m505.99,383.22c.48,0,.96.01,1.44.02,1.04,0,2.08,0,3.12,0,.73,0,1.46,0,2.19,0,1.04,0,2.08,0,3.12-.01.56,0,1.11,0,1.67,0,30,1.56,56.44,12.08,78.99,31.93,21.88,19.26,35.59,43.36,41.28,71.96,2.37,11.9,2.9,23.92,1.78,36-2.65,28.48-13.58,53.38-32.7,74.61-14.88,16.53-32.97,28.32-54.03,35.51-9.21,3.14-18.67,5.16-28.36,6.09-23.96,2.31-46.82-1.65-68.53-12.04-12.26-5.87-23.29-13.56-33.1-22.99-15.4-14.8-26.48-32.32-33.2-52.6-4.85-14.62-6.98-29.67-6.32-45.03,1.33-30.66,12.08-57.63,32.51-80.57,18.51-20.79,41.52-34.09,68.69-40.12,7.06-1.57,14.23-2.43,21.46-2.75Z"/><path class="cls-3" d="m509.78,444.39c21.02,0,42.03-.07,63.05.06,4.23.03,8.12,1.63,11.3,4.57,1.95,1.8,2.82,4.13,2.9,6.75.06,1.8.02,3.6,0,5.39-.01,1.25-.42,1.66-1.63,1.69-3.28.09-3.3.09-4.16-3.1-.51-1.89-.96-3.79-1.39-5.69-.13-.58-.39-1-.85-1.38-1.98-1.59-4.22-2.34-6.76-2.33-8.03.02-16.06,0-24.09,0-33.32,0-66.64,0-99.96,0-2.07,0-4.06.3-5.94,1.17-2.44,1.13-3.68,3.08-3.84,5.75-.02.32-.01.64-.01.96,0,22.77,0,45.55,0,68.32,0,1.31.26,2.54.74,3.73,1.02,2.53,2.92,3.81,5.66,3.81,7.83.01,15.66,0,23.49,0,24.17,0,48.34.01,72.52-.03,1.34,0,2.06.48,2.6,1.6,1.19,2.49,2.02,5.11,2.83,7.74.24.77.63,1.32,1.24,1.82,3.61,2.97,7.59,4.6,12.41,4.47,7.55-.2,15.1-.05,22.65-.05.36,0,.73-.03,1.08.03.54.09.96.39,1.18.91.25.57-.15.89-.49,1.23-3.39,3.47-7.61,5.15-12.37,5.2-9.83.12-19.66.06-29.48.06-8.51,0-17.02.02-25.53-.02-.99,0-1.28.25-1.26,1.25.07,2.59.07,5.19,0,7.79-.02.99.26,1.28,1.27,1.27,12.51-.03,25.01-.01,37.52-.04,1,0,1.74.28,2.45.96,1.5,1.44,2.82,3.04,4.25,4.55.71.75.93,1.55.94,2.57.03,4.19-.21,3.72-3.76,3.72-32.76,0-65.52,0-98.29,0-2.41,0-2.37-.17-2.61-2.6-.25-2.46.72-4.11,2.51-5.55,1.43-1.15,2.61-2.83,4.22-3.46,1.57-.6,3.54-.17,5.34-.17,11.03,0,22.05-.02,33.08.02,1.05,0,1.36-.25,1.32-1.32-.08-2.47-.09-4.96,0-7.43.04-1.2-.23-1.59-1.53-1.58-17.78.05-35.56.03-53.34.03-2.73,0-5.41-.29-8.01-1.2-5.07-1.79-8.6-6.75-8.6-12.1,0-28.93.02-57.85-.02-86.78,0-5.1,2.24-8.6,6.84-10.65,2.79-1.24,5.68-1.98,8.79-1.97,20.58.05,41.15.02,61.73.02Z"/><path class="cls-3" d="m598.06,519.8c0,5.39-.04,10.78.01,16.17.03,3.36-1.46,5.71-4.41,7.2-1.65.84-3.37,1.32-5.27,1.31-9.86-.05-19.73-.11-29.59.01-5.17.06-7.58-2.74-8.69-6.62-.45-1.58-.69-3.18-.69-4.84.01-9.78,0-19.57.01-29.35,0-.43-.01-.9.13-1.29.28-.81.62-1.64,1.74-.84.45.32,1.01.17,1.52.17,14.61,0,29.23.02,43.84-.03,1.18,0,1.43.32,1.42,1.45-.06,5.55-.03,11.1-.03,16.65Z"/><path class="cls-3" d="m574.19,498.13c-4.95,0-9.9,0-14.86,0-1.44,0-1.78-.33-1.78-1.74,0-8.83,0-17.65,0-26.48,0-1.46.48-1.98,1.92-1.98,9.74-.01,19.49-.01,29.23,0,1.56,0,2.02.5,2.02,2,0,8.75,0,17.49,0,26.24,0,1.77-.21,1.96-2.04,1.96-4.83,0-9.66,0-14.5,0Z"/><path class="cls-3" d="m499.04,506.97c-2.2,0-4.39,0-6.59,0-1.46,0-1.78-.31-1.79-1.73,0-2.72,0-5.43,0-8.15,0-1.51.4-1.9,1.92-1.91,4.35,0,8.71-.04,13.06.02,1.03.01,1.27-.32,1.25-1.29-.06-2.95-.02-5.91-.02-8.86,0-.52.03-1.02.24-1.52.28-.7.61-.87,1.33-.51,10.73,5.37,21.59,10.5,32.07,16.36.59.33,1.17.69,1.72,1.08,1.04.74,1,1.21-.14,1.76-7.1,3.46-14.19,6.91-21.3,10.35-4.16,2.02-8.33,4.01-12.6,5.8-1.3.54-1.32.52-1.32-.85,0-3.19-.02-6.39.02-9.58,0-.79-.23-1.02-1.02-1-2.28.05-4.55.02-6.83.02Z"/><path class="cls-3" d="m495.2,597.21c.49-2.57,1-5.07,1.44-7.58.11-.66.29-.98,1.03-.97,2.24.02,4.47,0,6.71-.06.79-.02,1.01.26,1.03,1.03.15,4.7.27,9.41.24,14.11,0,.81-.3,1.03-1.06,1.01-1.12-.04-2.24-.05-3.35.04-.93.07-1.21-.37-1.21-1.17-.01-2.08-.02-4.15-.05-6.23,0-.37.15-.79-.32-1.3-.37,1.54-.72,2.93-1.05,4.33-.26,1.13-.54,2.25-.73,3.39-.12.7-.46.96-1.13.93-.52-.02-1.04-.02-1.56-.02q-2.69,0-3.27-2.57c-.43-1.9-.85-3.81-1.29-5.71-.08-.32-.07-.7-.48-1.01-.31,1.19-.16,2.34-.19,3.47-.05,1.6-.04,3.2,0,4.79.02.67-.17.92-.87.89-1.08-.04-2.16-.05-3.23.04-.82.07-1.05-.25-1.04-1,.02-3.47.02-6.95.03-10.42,0-1.16.02-2.32-.04-3.47-.04-.78.14-1.17,1.04-1.13,2.19.08,4.39.11,6.58.09.68,0,.85.28.96.89.42,2.31.9,4.62,1.35,6.92.04.23.01.49.45.7Z"/><path class="cls-3" d="m482.79,599.77c0,1.16-.02,2.32,0,3.47.02.56-.16.91-.73,1.04-3.29.78-6.62,1.14-9.95.35-4.53-1.08-6.1-5.09-5.56-9.42.47-3.81,2.89-6.15,6.71-6.72,1.87-.28,3.73-.22,5.58.21,2.18.5,3.58,2.23,3.64,4.45.01.48-.15.64-.6.63-1.56-.02-3.11-.03-4.67-.04-.31,0-.48-.14-.66-.41-.83-1.31-2.14-1.32-2.99-.01-.21.32-.34.72-.42,1.1-.34,1.58-.4,3.18-.03,4.74.37,1.57,2.83,2.39,4.15,1.46.48-.34.23-.89.27-1.34.04-.44-.38-.29-.62-.31-1.61-.13-1.61-.13-1.61-1.72,0-.36.02-.72,0-1.08-.03-.56.2-.79.77-.78,1.92.03,3.83.03,5.75.04.79,0,1.24.2,1.08,1.2-.16,1.01-.03,2.07-.03,3.11-.02,0-.04,0-.07,0Z"/><path class="cls-3" d="m449.94,596.51c0-2.28,0-4.55,0-6.83,0-.48-.08-.97.67-.98,3.11-.04,6.23-.33,9.32.22,3.42.61,5.25,2.6,5.75,6.12.64,4.52-1.69,8.35-5.74,9.38-1.29.33-2.62.2-3.94.22-1.64.03-3.27.03-4.91.13-.93.06-1.18-.35-1.17-1.18.02-2.36,0-4.71,0-7.07Z"/><path class="cls-3" d="m565.33,595.38c2.02-1.64,4.09-1.76,6.15-.62,3.22,1.78,3.42,6.48.35,8.67-2.87,2.05-6.01,2.01-9.08.55-1.41-.67-2.2-2.11-2.66-3.57-.9-2.87-.89-5.75.53-8.49,1.78-3.42,6.13-4.95,9.68-3.43,1.41.6,2.31,1.65,2.78,3.1.21.64.19,1.04-.68,1.03-1.11-.01-2.23.1-3.34.12-.52.01-1.02.16-1.33-.61-.27-.66-1.49-.35-1.95.47-.44.79-.5,1.67-.48,2.77Z"/><path class="cls-3" d="m507.44,596.61c0-2.36.02-4.71-.02-7.07-.01-.63.15-.83.79-.83,3.47,0,6.95-.04,10.42-.09.67-.01.88.22.91.89.12,3.01.14,3.01-2.89,3.01-.6,0-1.2,0-1.8,0-1.17-.02-1.83.91-1.43,2,.18.5.58.32.91.31,1.24-.03,2.47-.06,3.71-.12.72-.03.95.26.97.99.04,2.31.07,2.32-2.21,2.42-.84.04-1.68.06-2.51.04-1.21-.02-.73.88-.8,1.45-.07.57-.1,1.13.8,1.07,1.51-.1,3.03-.1,4.54-.19.69-.04.96.22.89.89-.03.28-.01.56,0,.84.08,2.39.08,2.4-2.25,2.36-2.95-.06-5.91.02-8.86.19-.95.05-1.24-.25-1.21-1.2.07-2.31.02-4.63.02-6.95,0,0,.02,0,.03,0Z"/><path class="cls-3" d="m551.41,592.83c-1.88,0-3.74-.05-5.6.02-1.03.04-1.34-.34-1.26-1.31.07-.75.07-1.52,0-2.27-.08-.88.29-1.06,1.1-1.04,3.91.1,7.82.17,11.72.2.77,0,.9.33.95,1,.16,2.42-.35,4.6-1.64,6.72-1.52,2.48-2.78,5.11-4.1,7.7-.33.66-.71.95-1.46.92-1.43-.06-2.87-.01-4.31-.03-.82-.01-1.12-.26-.66-1.14,1.65-3.19,3.23-6.41,4.84-9.62.17-.35.46-.65.44-1.14Z"/><path class="cls-3" d="m532.83,594.43c-.9.44-1.65.81-2.39,1.18-.57.28-1.01.33-.91-.54,0-.04,0-.08,0-.12-.38-2.33,0-4.23,2.69-4.86.07-.02.15-.07.2-.13,1.65-1.72,3.75-1.54,5.86-1.47.68.02.78.26.78.84,0,4.79.02,9.58.08,14.36,0,.79-.27,1.09-1.03,1.08-1.28-.01-2.56-.05-3.83.02-1.14.06-1.53-.36-1.48-1.52.1-2.63.07-5.27.09-7.9,0-.27-.03-.54-.05-.95Z"/><path class="cls-12" d="m572.15,526.92c1.34-.02,1.68-.79,1.66-1.76-.13-5.5.45-11.02-.61-16.48-.08-.4-.28-.91.28-1.16.31-.14.86-.52.93-.31.22.63.84,1.29.46,1.96-.24.42-.33.78-.33,1.21,0,3.47.03,6.95-.02,10.42-.01,1.05.34,1.2,1.18.76.99-.52,2.01-1.04,2.43-2.18.12-.32.22-.71.61-.45.33.22.11.58-.1.83-1,1.19-1.97,2.42-3.04,3.54-.79.84-1.22,1.72-1.08,2.88.07.55.07,1.12,0,1.67-.23,1.92.3,3.57,1.44,5.13.87,1.18.44,2.5-.87,3.19-1.78.94-3.43,0-3.44-1.98,0-.44.02-.88,0-1.32-.03-.51.12-.77.67-.91,1.51-.39,2.07-2.07,1.15-3.37-.37-.52-.79-1-1.33-1.67Z"/><path class="cls-6" d="m569.24,523c-.48-1.61-.59-3.1-1.71-4.28-.48-.51.23-1.32.44-1.96.16-.49.75-.1,1.14.06.58.24,1.03.49.88,1.3-.29,1.55-.48,3.12-.75,4.88Z"/><path class="cls-5" d="m579.12,512.81c.72-.11,1.37-.06,1.27,1.17-.08.98-.25,1.75-1.38,1.83-.95.07-1.52-.71-1.53-1.99q0-1.01,1.64-1.01Z"/><path class="cls-4" d="m570.22,524.97q-.93-.52-.83-1.75c.42.55.77,1.01,1.12,1.46.06.25-.04.35-.29.29Z"/><path class="cls-7" d="m570.22,524.97c.1-.1.19-.19.29-.29.26.32.52.65.79.97-.11.11-.22.12-.34.02-.25-.24-.49-.47-.74-.71Z"/><path class="cls-8" d="m570.96,525.67c.11,0,.23-.01.34-.02.26.22.55.43.58,1.05-.39-.43-.65-.73-.92-1.03Z"/><path class="cls-15" d="m578.9,484.39c.15-.97-.44-2.28.26-2.93.63-.59,1.9-.18,2.89-.16,1.14.03,2.6-.52,3.32.24.66.69.18,2.13.19,3.23.02,3.02,0,3.02-3,3.02-.08,0-.16,0-.24,0-1.1-.09-2.51.48-3.21-.24-.64-.66-.11-2.05-.21-3.16Z"/><path class="cls-14" d="m565.1,487.79c-.83-.09-2.16.44-2.81-.19-.66-.63-.2-1.96-.2-2.99,0-1.07-.46-2.44.19-3.11.66-.67,2.04-.2,3.11-.2,1.03,0,2.35-.44,3,.18.67.63.17,1.96.21,2.99.04.88-.01,1.76.01,2.63.02.51-.17.71-.69.7-.88-.03-1.76,0-2.83,0Z"/><path class="cls-14" d="m455.57,596.58c0-1.04,0-2.08,0-3.11,0-1.64.32-1.91,1.93-1.63,1.07.18,1.69.89,1.94,1.88.47,1.85.43,3.72-.11,5.56-.2.67-.55,1.25-1.13,1.64-.63.43-1.39.53-2.06.34-.75-.22-.46-1-.48-1.57-.03-1.04,0-2.08,0-3.11-.03,0-.06,0-.09,0Z"/><path class="cls-11" d="m569.06,599.28c0,2.22-1.36,3.23-3.03,2.21-1.08-.65-.88-1.77-.8-2.79.07-.92.56-1.56,1.49-1.77,1.43-.31,2.34.61,2.34,2.34Z"/></svg>