<?xml version="1.0" encoding="UTF-8"?><svg id="Layer_1" xmlns="http://www.w3.org/2000/svg" viewBox="0 0 360 360"><defs><style>.cls-1{fill:#233890;}.cls-1,.cls-2{stroke-width:0px;}.cls-2{fill:#e76e13;}</style></defs><circle class="cls-2" cx="180" cy="167.37" r="149.04"/><path class="cls-1" d="m117.27,259.36l2.13-.03c3.71,0,6.32.61,7.83,1.84.32.24.67.63,1.05,1.18,1.1,1.6,1.65,3.37,1.65,5.31,0,3.46-1.19,6.01-3.57,7.67-1.42,1-3.05,1.5-4.9,1.51l-.05.05h-.28l-3.03-.03c-1.37,0-3.09.03-5.16.1-.14-.27-.22-.6-.22-.97v-.41s.01-1.78.01-1.78l.02-2.53v-4.17c-.02-.96-.02-1.67-.02-2.14v-2.13s.01-3.26.01-3.26c0-.06.41-.11,1.24-.15s1.49-.06,1.98-.06h1.3Zm4.83,3.94c-.43-.31-.91-.49-1.44-.52-.18,0-.43-.02-.75-.02-.32,0-.54-.01-.69-.02-.14.21-.23.36-.27.46l-.21.42v.64c0,1.31.03,3.09.09,5.34l.07,3.29c.05.24.2.38.46.42.78-.02,1.39-.07,1.81-.16,1.5-.53,2.24-2.35,2.24-5.46,0-2.3-.44-3.76-1.32-4.39Z"/><path class="cls-1" d="m148.56,275.92s0,.02.01.04l-.03.09h.01v.02s0,.03-.01.03c-.36.27-1.23.52-2.61.75-1.39.23-2.34.34-2.86.34s-.81,0-.87-.01l-.58.03c-.61.04-.96.06-1.05.06-3.19,0-5.62-.8-7.28-2.4-1.67-1.6-2.5-3.88-2.5-6.83s.9-5.19,2.69-6.71,4.23-2.29,7.3-2.29c.56,0,1.25.05,2.08.16s1.55.26,2.17.47c.76.31,1.41.76,1.95,1.35.54.59.9,1.24,1.06,1.95.03.2.07.51.11.93.04.42.08.73.11.93-.05.11-.21.17-.49.17l-5.79-.1s-.07-.12-.11-.31v.03c-.14-.62-.41-.99-.81-1.13-.18-.07-.42-.1-.72-.1s-.58.05-.84.15c-.26.1-.48.24-.65.41-.17.17-.33.38-.47.61s-.24.48-.31.75-.13.54-.18.82c-.05.28-.09.56-.1.83s-.02.54-.03.79c-.01.25-.01.46,0,.62,0,.16.01.27.01.33v.79c0,.49.02.84.07,1.03.05.19.1.41.16.64.06.23.13.41.22.53.3.42.62.71.96.87.35.16.88.25,1.62.25s1.43-.11,2.09-.33l.06-1.8-.82-.07-.11.06h-1.32s-.28-.29-.28-.29c-.02-.13-.02-.33-.02-.62v-2.55c0-.13.09-.26.27-.39h.76c.66,0,1.4,0,2.22.02h.11c.74.01,1.31.02,1.7.02h.95c1.35-.01,2.12.08,2.31.25l-.14,8.64v.16Z"/><path class="cls-1" d="m156.52,266.78c-.09,2.15-.14,4.36-.14,6.63v3.39h-1.12s-4.04.02-4.04.02c-.26,0-.39,0-.41.01,0,0,.02-.07.05-.19v-.11c-.03-.55-.05-1.21-.05-1.99l.05-12.72v-.59s-.01-.57-.01-.57l-.02-1.07c0-.08.04-.16.12-.24h2.47c2.14-.01,3.67.02,4.6.08.92.06,1.58.09,1.99.09.22,1.31.55,3.04.98,5.19l.81,4.08h.4l1.46-7.45c.02-.11.08-.45.16-1,.08-.55.15-.86.19-.92h.05l7.42-.07h.44s1.28.01,1.28.01c.07.03.11.17.11.42l.11,4.31c.09,3.57.16,6.35.19,8.34,0,1.53-.02,2.97-.07,4.32-.02.09-.17.14-.46.16l-.51.02c-.41.01-.71.02-.91.02h-.59c-.74,0-1.82.01-3.26.01-.27-.24-.4-1.25-.4-3.05l.02-3.58v-.92c0-.81,0-1.41-.01-1.8l-.43-.08c-.25.92-.73,2.97-1.45,6.14l-.1.46c-.05.24-.14.66-.27,1.26-.13.6-.23,1.06-.3,1.37-.09.11-.49.16-1.21.16h-.15l-1.28-.03h-.69s-.54.01-.54.01h-.9s-.32.01-.32.01c-.35,0-.54-.08-.58-.24h.01s-1.04-4.51-1.04-4.51c-.03-.11-.1-.36-.21-.75-.11-.38-.17-.71-.18-.96l-.85-3.69-.42.02Z"/><path class="cls-1" d="m175.61,262.48l-.06-3s.03.01.08.03c5.77-.1,10.12-.15,13.04-.16.03.01.05.04.07.07v3.21c0,.31,0,.57-.02.76-.04.12-.26.18-.67.18h-.08c-1.84,0-3.75-.03-5.74-.09,0,.07,0,.19-.03.37-.02.17-.03.3-.04.38l-.06.43c-.04.29-.06.79-.08,1.5l3.53-.08c.61-.02,1.05-.02,1.32-.02h.18c.46,0,.77.01.91.04.14.03.22.1.22.23v.09s-.01.27-.01.27l.06,2.93h-.01s0,0,0,0c-2.31.11-4.15.17-5.54.17h-.54v2.76l6.18-.19c.34,0,.56.05.65.15,0,.2-.01.48-.01.84l.08,3.1c0,.19-.08.3-.25.33l-3.78-.03c-.74,0-2.22.03-4.44.08l-1.87.04c-1.32.05-2.3.07-2.94.07l-.03-.02h.01c-.08-.08-.15-.15-.22-.22v-.4l.07-12.18v-1.65Z"/><path class="cls-1" d="m210.09,260.52l-.02,3.35c0,2.23.02,4.15.06,5.76l.1,7.07c-.19.17-.68.26-1.47.26l-.98-.02h-.66s-.47.01-.47.01h-.72c-.77.01-1.53,0-2.28-.02l-.18-.29c-.08-.11-.11-.35-.11-.72s.03-2.84.09-7.39l.05-3.12c-1.25.85-2.46,1.46-3.65,1.83-.05,0-.08-.04-.09-.1v-1.72c-.01-2,0-3,.03-3.01.03-.01.14-.07.34-.18.19-.11.42-.21.67-.31.25-.1.4-.17.45-.21s.11-.07.18-.1c1.95-.93,3.14-1.74,3.58-2.42l3.51.07c.7,0,1.21-.02,1.55-.05.02.05.03.26.03.64v.65Z"/><path class="cls-1" d="m222.2,267c.94-1.12,2.2-1.67,3.78-1.67s2.92.51,4.03,1.54c1.11,1.03,1.67,2.32,1.67,3.88,0,2.01-.8,3.62-2.4,4.83-1.25.94-2.85,1.48-4.81,1.62-1.45-.02-2.65-.17-3.59-.47-.95-.3-1.62-.62-2.02-.98h0c-1.28-1.27-2.13-2.71-2.57-4.29-.23-1.02-.34-2.15-.34-3.39,0-1.79.34-3.38,1.02-4.77.68-1.4,1.66-2.51,2.93-3.33,1.27-.82,2.75-1.27,4.42-1.36,2.57.06,4.41.82,5.51,2.27.58.77.94,1.67,1.08,2.71-.67.17-2.51.25-5.52.25-.15,0-.23.02-.24.05l-.02-.68c-.16-.26-.45-.39-.88-.39-.82,0-1.38.39-1.67,1.16-.25.65-.38,1.38-.38,2.16v.51c0,.08,0,.2.01.35Zm2,1.38c-1.48,0-2.22.97-2.22,2.92,0,1.08.37,1.85,1.1,2.31l.14-.17s.06.01.11.01l-.05.23.17.06h-.01c.38.11.67.17.88.17s.45-.06.72-.17c.87-.38,1.31-1.29,1.31-2.75,0-.83-.16-1.46-.49-1.91-.33-.45-.88-.68-1.67-.7Z"/><path class="cls-1" d="m232.79,260.39l-.04-.73c0-.47.1-.71.31-.71,2.73,0,6.77.05,12.12.16l2.36.04c.18,0,.27.56.27,1.66v.54c0,1.73-.17,2.96-.52,3.69-.35.73-.75,1.47-1.2,2.23-1.46,2.48-3.12,5.65-5,9.49-.04.11-.14.17-.31.17h-1.03s-.56-.01-.56-.01h-.57s-1.01-.01-1.01-.01h-.74c-1.83.01-2.75-.06-2.75-.22,0-.09.04-.21.12-.37.08-.16.14-.27.17-.35l4.81-9.59c.69-1.37,1.12-2.2,1.29-2.5h-.8c-.74,0-1.95.02-3.63.05h-2.73c-.12,0-.22-.02-.29-.06s-.16-.14-.27-.3v-3.19Z"/><path class="cls-1" d="m98.76,66.15h160.98c17.42,0,26.13,6.28,26.13,18.85v7.28h-8.71v-5.84c0-7.72-4.85-11.58-14.55-11.58H95.78c-7.43,0-12.24,2.43-14.44,7.28v101.55c0,1.25,2.43,3.64,7.28,7.17h137.72c1.17,13.6,6.98,20.4,17.42,20.4h39.14v1.43c-3.02,5.81-8.31,8.71-15.88,8.71h-79.83v14.44h50.83c5.29,0,9.63,2.91,13.01,8.71v5.84c0,1.91-.96,2.87-2.87,2.87H110.34c-1.91,0-2.87-.95-2.87-2.87v-5.84c3.38-5.81,7.72-8.71,13.01-8.71h50.83v-14.44h-82.7c-8.01,0-13.34-5.81-15.99-17.42v-117.54c0-13.52,8.71-20.29,26.13-20.29Zm75.42,53.7c1.91,0,18.82,7.72,50.72,23.16v1.43c0,1.98-16.91,10.7-50.72,26.13v-17.42h-21.72v-15.88h21.72v-17.42Zm71.01-20.29h47.96c3.82,1.91,6.69,4.78,8.6,8.6v84.13c-1.25,8.75-5.59,13.12-13.01,13.12h-40.58c-10.66,0-15.99-4.85-15.99-14.55v-75.42c0-10.59,4.34-15.88,13.01-15.88Zm-5.73,10.14v69.58c0,1.4,1.43,2.87,4.3,4.41h43.55c5.81,0,8.71-2.9,8.71-8.71v-60.98c0-5.81-2.91-8.71-8.71-8.71h-43.55c-1.4,0-2.83,1.47-4.3,4.41Zm24.59,84.13v4.3h4.41c1.91,0,2.87-.95,2.87-2.87v-1.43c0-1.99-.96-2.98-2.87-2.98h-1.43c-1.99.29-2.98,1.29-2.98,2.98Z"/></svg>