<?xml version="1.0" encoding="UTF-8"?><svg id="Layer_1" xmlns="http://www.w3.org/2000/svg" viewBox="0 0 1024 1024"><defs><style>.cls-1{fill:#f8dac3;}.cls-1,.cls-2,.cls-3,.cls-4,.cls-5,.cls-6,.cls-7,.cls-8,.cls-9,.cls-10,.cls-11{stroke-width:0px;}.cls-2{fill:#f8f8f8;}.cls-3{fill:#23388f;}.cls-4{fill:#f2b385;}.cls-5{fill:#f2b588;}.cls-6{fill:#e56d13;}.cls-7{fill:#e66e13;}.cls-8{fill:#e66d13;}.cls-9{fill:#ec914d;}.cls-10{fill:#ec914b;}.cls-11{fill:#fefefe;}</style></defs><path class="cls-6" d="m337.02,516.16v-7.19c.26-.79.05-1.6.12-2.39,0-.47,0-.94,0-1.4,0-.46,0-.92,0-1.37-.11-12.72,2.08-25.1,5.38-37.33,2.13-7.92,4.83-15.65,8.06-23.19,3.49-8.13,7.57-15.95,12.24-23.46,4.46-7.17,9.42-13.97,14.83-20.45,4.72-5.65,9.86-10.91,15.23-15.93,7.48-7,15.56-13.26,24.19-18.79,6.94-4.45,14.14-8.4,21.62-11.87,10.59-4.91,21.56-8.68,32.9-11.39,7.7-1.84,15.49-3.19,23.38-3.86,2.06-.17,4.13-.19,6.19-.26,5.95-.2,11.9-.14,17.85-.13,15.38.03,30.32,2.76,44.99,7.23,10.47,3.19,20.53,7.35,30.2,12.45,10.91,5.76,21.11,12.6,30.61,20.5,5.82,4.84,11.25,10.08,16.42,15.58,8.61,9.17,16.09,19.23,22.5,30.06,6.76,11.43,12.19,23.46,16.22,36.11,3.22,10.11,5.5,20.43,6.84,30.96.59,4.59.66,9.2.83,13.81.18,4.75.07,9.5.1,14.26.08,13.83-2.02,27.36-5.64,40.68-3.38,12.43-8.06,24.34-14.07,35.72-5.44,10.31-11.86,19.97-19.21,29.03-5.17,6.37-10.82,12.3-16.79,17.9-9.71,9.1-20.37,16.94-31.92,23.59-10.78,6.2-22.06,11.24-33.9,15.03-10.22,3.28-20.64,5.65-31.3,6.95-4.58.56-9.18.58-13.77.72h-2.99c-.73.07-1.48-.14-2.2.12h-7.19c-.71-.26-1.45-.05-2.18-.12h-2.97c-9.99.08-19.82-1.26-29.55-3.44-10.75-2.41-21.2-5.76-31.3-10.13-11.74-5.07-22.78-11.38-33.17-18.83-9.52-6.82-18.17-14.62-26.16-23.14-8.6-9.17-16.07-19.23-22.48-30.06-6.74-11.39-12.15-23.38-16.18-35.99-3.24-10.14-5.55-20.49-6.87-31.07-.4-3.22-.44-6.45-.59-9.68-.06-1.35-.15-2.71-.11-4.07,0-.46,0-.91,0-1.37,0-.54,0-1.07,0-1.61-.07-.73.14-1.48-.12-2.2Z"/><path class="cls-11" d="m521.2,687.65c38.89-2.19,73.47-15.53,103.37-40.49,29.22-24.39,48.45-55.21,57.86-92.11,2.98-11.68,4.61-23.57,5.05-35.62,1.03-28.39-4.33-55.49-16.39-81.24-8.18-17.47-18.97-33.15-32.35-47.05-19.07-19.81-41.54-34.39-67.41-43.69-12.59-4.53-25.54-7.54-38.85-9.01-35.32-3.9-68.92,1.97-100.49,18.32-32.8,16.98-57.8,41.99-75.07,74.65-9.09,17.19-14.97,35.45-17.92,54.66-.9,5.84-1.47,11.72-1.77,17.63-.06.17-.13.18-.21.01,0-55.15,0-110.3-.02-165.44,0-.96.14-1.25,1.2-1.25,116.17.03,232.33.03,348.5.03.6,0,1.18-.28,1.18.9-.04,116.49-.04,232.98-.04,349.47v.46h-166.66c-.17-.08-.16-.15.01-.21Z"/><path class="cls-11" d="m337.23,521.45c4.39,89.65,76.55,161.81,166.2,166.2.17.06.18.13.01.21-55.11,0-110.23,0-165.34.02-.9,0-1.1-.2-1.1-1.1.02-55.11.02-110.23.02-165.34.08-.17.15-.16.21.01Z"/><path class="cls-9" d="m337.24,506.55c-.04.81.22,1.64-.22,2.42v-2.4c.06-.17.13-.18.22-.02Z"/><path class="cls-10" d="m337.02,516.16c.42.7.2,1.46.19,2.2-.09.1-.15.09-.19-.04v-2.16Z"/><path class="cls-10" d="m506.52,687.67c.74-.02,1.49-.23,2.2.19h-2.16c-.09-.02-.13-.06-.11-.11.02-.05.04-.08.07-.08Z"/><path class="cls-10" d="m515.91,687.86c.7-.42,1.46-.2,2.2-.19.08.06.09.11.06.14-.03.03-.06.05-.1.05h-2.16Z"/><path class="cls-4" d="m337.02,518.32c.06.03.12.04.19.04,0,.55,0,1.11.01,1.66-.08.17-.15.16-.2-.02v-1.68Z"/><path class="cls-4" d="m506.52,687.67c0,.06.02.13.04.19h-1.68c-.18-.05-.19-.11-.02-.2.55,0,1.11,0,1.66.01Z"/><path class="cls-4" d="m518.07,687.86c.02-.06.03-.12.04-.19.55,0,1.11,0,1.66-.01.17.08.16.15-.02.2h-1.68Z"/><path class="cls-1" d="m337.02,520c.06.02.13.03.2.02,0,.48,0,.95,0,1.43,0,0-.1,0-.1,0h-.1v-1.45Z"/><path class="cls-5" d="m337.24,506.55c-.07,0-.15.01-.22.02v-1.44c.05-.18.11-.19.2-.02,0,.48.01.96.02,1.44Z"/><path class="cls-1" d="m337.22,505.11s-.1,0-.1,0l-.1.02v-1.44c.07-.01.14-.02.21-.01,0,.48,0,.95-.01,1.43Z"/><path class="cls-1" d="m504.86,687.66c0,.07.01.13.02.2h-1.44c0-.07,0-.14-.01-.21.48,0,.95,0,1.43,0Z"/><path class="cls-1" d="m519.75,687.86c0-.07.02-.13.02-.2.48,0,.95,0,1.43,0,0,.07-.01.14-.01.21h-1.44Z"/><path class="cls-3" d="m508.28,600.05c-22.1,0-44.2.03-66.3-.02-4.54-.01-9.1.1-13.63-.62-13.54-2.15-23.61-11.91-26.09-25.41-.51-2.8-.78-5.61-.77-8.46.01-12.59.02-25.18,0-37.77-.01-10.87-.07-21.74-.07-32.61,0-20.5,0-41,.09-61.5.03-7.65,1.65-14.92,6.06-21.34,4.69-6.83,11.42-10.48,19.35-12.24,4.12-.91,8.32-.99,12.5-1.18.98-.04,1.27-.34,1.26-1.32-.03-3.79-.31-7.6.19-11.37.88-6.63,4.02-11.83,10.31-14.52,6.1-2.61,12.07-1.97,17.45,2.04,4.09,3.05,6.15,7.36,6.76,12.36.46,3.78.22,7.58.18,11.38-.01,1.02.3,1.24,1.28,1.24,26.1-.03,52.19-.03,78.29,0,1.01,0,1.36-.19,1.34-1.29-.06-3.87-.35-7.76.22-11.61,2.4-16,18.35-18.74,26.93-12.63,4.79,3.41,7.04,8.25,7.57,13.96.33,3.58.12,7.19.11,10.78,0,.96.3,1.2,1.23,1.19,4.43-.04,8.85-.13,13.23.91,14.74,3.51,24.42,15.67,24.59,30.81.26,22.3.22,44.59.22,66.89,0,13.79-.04,27.57-.08,41.36-.02,5.35-.04,10.71-.18,16.06-.06,2.44-1.12,4.58-2.81,6.32-11.16,11.56-22.51,22.91-34.01,34.13-3.1,3.02-6.62,4.32-10.89,4.31-13.67-.05-27.33.03-41,.05-11.11.01-22.22,0-33.33,0,0,.03,0,.06,0,.08Z"/><path class="cls-2" d="m509.5,658.5c.14-3.07.3-6.14.4-9.21.02-.75.24-1.06,1.02-1.05,2.8.03,5.58-.21,8.36-.48.72-.07,1.07.12,1.38.76,1.51,3.05,3.34,5.9,5.28,8.69.2.29.33.89.83.65.37-.18.08-.65.03-.98-.48-2.95-.94-5.91-1.46-8.85-.12-.7.02-1.02.74-1.15,1.8-.33,3.61-.67,5.39-1.11.93-.23.79.49.9.88,1.4,5.15,2.78,10.32,4.12,15.49.27,1.05,1.14,2.28.57,3.15-.52.79-1.96.68-3,.93-2.6.64-5.24,1.06-7.87,1.51-1.05.18-1.68-.07-2.24-1.01-1.59-2.72-3.27-5.38-4.94-8.06-.19-.31-.26-.9-.78-.72-.42.14-.19.64-.17.96.19,2.75.42,5.49.64,8.23.12,1.45.07,1.51-1.33,1.55-2.27.07-4.55.12-6.82.21-1.02.04-1.42-.37-1.4-1.41.05-2.99.02-5.98.02-8.97.1,0,.2,0,.31,0Z"/><path class="cls-2" d="m581.14,636.86c.01,1.61-.54,3.06-1.36,4.4-3.13,5.11-7.38,8.86-13.16,10.73-2.3.74-4.4.41-6.2-1.31-.53-.5-.67-.83.12-1.3,2.37-1.4,4.65-2.95,6.84-4.62.5-.38.95-.43,1.55-.23,1.51.51,3.74-.99,3.9-2.58.09-.85-.53-1.44-1.42-1.28-.91.16-1.74.55-2.54,1.01-2.29,1.31-4.66,2.45-7.26,3.02-1.95.43-3.88.51-5.27-1.24-1.53-1.91-1.7-4.09-.8-6.33,1-2.47,2.76-4.37,4.79-6.04,2.41-1.98,4.84-3.94,8.04-4.51,1.43-.25,2.77-.08,4.02.73.62.4.71.8.19,1.34-1.71,1.8-3.5,3.5-5.4,5.09-.31.26-.68.58-1.07.4-1.45-.65-2.12.42-2.87,1.27-.3.34-.6.83-.28,1.31.34.51.92.49,1.41.28.88-.36,1.75-.77,2.6-1.21,2.05-1.06,3.99-2.36,6.16-3.19,1.16-.45,2.33-.81,3.61-.66,2.62.29,4.41,2.28,4.42,4.93Z"/><path class="cls-2" d="m463.61,655.55c.41-2.23.85-4.46,1.22-6.7.71-4.21,1.51-8.39,2.67-12.51.25-.9.52-1.02,1.35-.52,1.98,1.2,4,2.33,6.05,3.4.85.44,1.12.86.83,1.86-1.16,4.02-2.07,8.11-2.9,12.21-.07.36-.37.88.06,1.1.55.28.7-.37.93-.68,2.55-3.48,5.08-6.96,7.59-10.47.36-.5.66-.66,1.26-.46,2.19.74,4.38,1.45,6.59,2.13.67.2.72.44.36.99-3.48,5.21-7.06,10.35-11.09,15.16-1.43,1.71-1.5,1.65-3.55.81-3.46-1.43-6.91-2.89-10.27-4.57-.78-.39-1.24-.84-1.1-1.75Z"/><path class="cls-2" d="m459.59,648.3c-.5.83-.96,1.62-1.44,2.4-1.3,2.1-.78,2.2-2.99.67-5.39-3.73-10.51-7.79-15.24-12.34-.78-.75-.84-1.19,0-1.98,4.44-4.19,8.82-8.44,13.2-12.7.53-.52.8-.52,1.32,0,3.72,3.75,7.83,7.04,12.23,9.96.85.56,1.09,1.04.41,1.9-.54.68-1.02,1.43-1.44,2.2-.42.77-.85.76-1.51.3-1.91-1.31-3.81-2.64-5.53-4.19-.81-.73-1.3-.67-2.01.07-1.21,1.26-1.27,1.25.12,2.28,1.7,1.26,3.41,2.5,5.15,3.7.71.49.81.89.33,1.64-1.72,2.68-1.7,2.72-4.33.91-1.48-1.02-2.92-2.09-4.34-3.19-.53-.42-.82-.54-1.32.08-1.46,1.81-1.49,1.78.4,3.19,1.99,1.47,4.01,2.89,6.11,4.2.36.23.75.45.88.89Z"/><path class="cls-2" d="m507.76,650.13c-.1,2.89-.1,2.92-2.91,2.71-1.59-.12-3.2-.24-4.75-.59-1.16-.26-1.52.09-1.77,1.15-.4,1.71-.47,1.7,1.22,1.85,1.95.18,3.89.37,5.84.49.87.05,1.27.28,1.23,1.27-.12,3.2-.08,3.22-3.32,2.98-1.67-.12-3.34-.29-5-.53-.62-.09-.81.01-.95.63-.52,2.36-.54,2.35,1.82,2.63,2.26.27,4.53.46,6.8.47.98,0,1.7.18,1.45,1.48-.15.81-.15,1.68-.07,2.51.12,1.26-.45,1.39-1.52,1.31-6.37-.48-12.69-1.31-18.94-2.7-1.09-.24-1.29-.66-.99-1.73,1.64-5.83,3.2-11.69,4.76-17.54.17-.63.28-.97,1.08-.77,4.74,1.17,9.55,1.85,14.42,2.17,1.65.11,1.64.14,1.6,1.74,0,.2,0,.4,0,.48Z"/><path class="cls-2" d="m554.57,641.95c.02.47-.34.54-.61.68-1.12.6-2.21,1.3-3.39,1.76-1.06.41-.99.89-.56,1.74,1.89,3.74,3.71,7.51,5.61,11.24.47.92.4,1.35-.62,1.79-2.75,1.19-5.51,2.33-8.29,3.44-1.1.44-1.55.16-1.89-.95-.97-3.21-2.04-6.38-3.07-9.57-.1-.3-.2-.61-.31-.9q-.82-2.24-3.11-1.52c-.42.13-.84.24-1.27.36q-2.08.59-2.62-1.45c-.21-.81-.41-1.63-.68-2.42-.19-.58-.11-.83.53-1.02,5.87-1.75,11.48-4.12,16.79-7.17.66-.38,1.07-.32,1.44.38.56,1.06,1.19,2.08,1.78,3.12.1.17.18.35.25.49Z"/><path class="cls-8" d="m515.89,457.05c9.79,0,19.58-.01,29.37,0,8.67.01,17.34.07,26.01.07,10.11,0,20.22-.04,30.33-.08,4.51-.02,9.03-.07,13.54-.12,4.81-.06,6.28,1.52,6.1,6.34-.12,3.23-.07,6.47-.07,9.71-.02,17.58-.04,35.17-.04,52.75,0,6.95.05,13.91.07,20.86,0,.48,0,.96-.04,1.44-.23,2.81-1.58,4.16-4.4,4.12-3.43-.05-6.86-.38-10.3-.21-3.18.16-6.39,0-9.53.79-8.61,2.17-13.99,9.14-14.18,18.46-.1,4.95-.35,9.9.02,14.85.05.67.03,1.35-.12,2.03-.3,1.36-1.13,2.14-2.47,2.47-.79.19-1.58.21-2.38.21-35.09-.01-70.18-.03-105.27-.04-12.19,0-24.38.02-36.56-.01-3.37,0-6.69-.44-9.91-1.5-8.01-2.64-12.68-8.25-14.49-16.37-.56-2.5-.77-5.05-.77-7.61,0-26.06,0-52.11,0-78.17,0-6.47-.03-12.95-.08-19.42-.02-2.32-.21-4.63.09-6.94.3-2.25,1.25-3.22,3.52-3.55.71-.1,1.43-.14,2.15-.14,33.13,0,66.26,0,99.39,0,0,.03,0,.06,0,.08Z"/><path class="cls-7" d="m516.53,447.62c-33.65,0-67.29,0-100.94,0-4.24,0-4.74-.49-4.75-4.75,0-3.59,0-7.19,0-10.78.01-13.88,10.59-24.09,24.47-23.63,1.4.05,2.78.28,4.16.47.99.14,1.26.5,1.25,1.54-.05,4.46-.44,8.95.6,13.37,1.94,8.25,8.91,13.63,17.37,13.44,8.19-.19,14.92-6.03,16.45-14.26.73-3.93.36-7.89.43-11.84.04-2.48,0-2.49,2.53-2.67,1.03-.07,2.07-.12,3.11-.12,14.71,0,29.41,0,44.12-.01,8.27-.01,16.54-.08,24.81-.12.76,0,1.52,0,2.28.04,3.16.21,4.36,1.57,4.11,4.74-.24,3.03-.21,6.06.13,9.08.93,8.26,8.19,14.97,16.44,15.15,8.97.2,16.53-5.85,17.88-14.33.67-4.21.36-8.45.3-12.67,0-.69,0-1.13.81-1.27,8.55-1.52,16.23.14,22.52,6.42,4.16,4.16,6.14,9.35,6.45,15.19.24,4.48-.2,8.94-.54,13.39-.08,1.01.37,2.37-.39,2.95-.66.5-1.92.23-2.91.28-4.11.21-8.21.4-12.33.4-29.45-.01-58.9,0-88.35,0Z"/><path class="cls-7" d="m565.79,403.57c0-5.03-.02-10.07,0-15.1.02-4.1,2.27-7.46,5.61-8.5,5.15-1.61,9.94,1.78,10.44,7.45.15,1.75.2,3.51.2,5.26.02,8.03.02,16.05,0,24.08,0,1.67-.03,3.35-.47,4.99-1.07,4.01-4.15,6.31-8.18,6.12-3.79-.18-6.66-2.86-7.37-6.82-.42-2.34-.21-4.7-.25-7.05-.07-3.47-.02-6.95-.02-10.43h.04Z"/><path class="cls-7" d="m450.01,403.44c0-5.35-.12-10.7.21-16.04.39-6.29,6.72-9.83,11.93-6.71,2.98,1.78,4.04,4.69,4.06,7.95.07,10.02.03,20.05.01,30.07,0,1.03-.15,2.07-.42,3.08-1.06,4.05-4.28,6.42-8.3,6.09-3.97-.32-6.95-3.22-7.27-7.31-.35-4.42-.21-8.86-.22-13.29,0-1.28,0-2.56,0-3.83Z"/><path class="cls-7" d="m592.6,581.32c-.36-1.38-.45-2.77-.56-4.15-.22-2.87-.39-5.75.31-8.58,1.05-4.27,3.74-6.47,8.56-7.08,3.64-.46,7.25-.11,10.87.28.1.01.19.11.29.17-.61.91-18.51,18.71-19.47,19.36Z"/><path class="cls-3" d="m525.83,577.57c-1.29.07-2.86-.4-4.4-1.17-2.86-1.42-5.81-2.26-8.99-.99-.97.39-1.84.94-2.7,1.53-3.9,2.68-7.96,1.92-10.56-2-1.68-2.53-2.55-5.23-2.05-8.38.71-4.48-.83-8.19-4.25-11.23-3.66-3.25-4.06-8.15-1.13-11.69,1.47-1.77,3.41-2.72,5.67-3.04,3.09-.44,6.04-1.2,8.29-3.59,1.03-1.09,1.86-2.32,2.4-3.69.67-1.68,1.88-2.81,3.29-3.85,1.87-1.38,3.72-2.21,6.17-1.45,2.68.83,4.91,2.08,6.26,4.62.32.6.59,1.22.83,1.85,1.43,3.85,4.12,5.75,8.29,5.79,6.61.07,10.91,6.5,8.37,12.34-.59,1.35-1.47,2.49-2.64,3.35-3.63,2.67-4.71,6.29-3.96,10.57.45,2.55-.07,4.91-1.18,7.19-1.49,3.06-4.19,3.8-7.71,3.82Z"/><path class="cls-3" d="m538.2,494.21c.17,3.63.36,7.28-.21,10.87-.99,6.28-5.75,10.86-12.06,11.25-6.36.4-12.76.6-19.13.02-4.12-.37-7.88-1.74-10.42-5.33-1.86-2.63-2.48-5.67-2.78-8.8-.26-2.71-.15-5.42,0-8.13.17-3.15-.24-6.31.15-9.45.98-7.8,5.52-12.29,13.37-12.73,6.29-.35,12.62-.42,18.91.1,6.83.56,11.86,5.86,12.14,12.74.13,3.15.02,6.3.02,9.45Z"/><path class="cls-3" d="m455.33,532.17c3.57.12,7.26-.13,10.9.48,6.59,1.12,10.96,6.01,11.3,12.68.32,6.22.33,12.45,0,18.68-.38,7.38-5.97,12.78-13.35,13.07-5.87.23-11.73.2-17.6,0-7.45-.26-12.94-5.55-13.42-12.99-.18-2.79-.11-5.59-.09-8.39.03-3.51-.19-7.02.07-10.53.52-7.16,5.79-12.35,12.99-12.76,3.03-.17,6.07-.16,9.2-.24Z"/><path class="cls-3" d="m576.6,516.64c-3.71-.06-7.44.12-11.11-.46-5.94-.94-10.46-5.66-10.94-11.68-.54-6.85-.55-13.73,0-20.58.51-6.38,5.4-11.1,11.85-11.89,1.99-.24,3.98-.26,5.98-.22,4.63.1,9.28-.29,13.89.17,7.34.72,11.94,5.28,12.47,12.63.48,6.69.53,13.41-.09,20.1-.61,6.54-5.8,11.35-12.35,11.69-3.23.17-6.46.29-9.69.25Z"/><path class="cls-3" d="m432.92,495.46c.03-5.03-.07-8.8.48-12.51.88-6,5.61-10.47,11.66-10.9,6.78-.48,13.58-.54,20.35,0,6.77.54,11.72,5.87,12.13,12.69.16,2.59.14,5.19.05,7.78-.12,3.43.13,6.87,0,10.3-.28,7.92-5.71,13.34-13.61,13.65-6.07.24-12.14.2-18.2-.06-6.93-.29-12.34-5.7-12.6-12.64-.12-3.19-.3-6.38-.25-8.31Z"/><path class="cls-7" d="m500.8,549.76c7.56-.43,12.54-3.88,15.05-11.1,2.97,6.72,7.39,11.1,15.36,10.95-5.71,4.94-7.97,10.69-5.76,18.11-6.42-4.14-12.57-4.19-18.93.01,2.14-7.33.17-13.14-5.73-17.97Z"/><path class="cls-7" d="m528.98,494.19c-.03,2.75.06,5.51-.33,8.25-.42,2.92-1.57,4.24-4.52,4.53-5.45.54-10.93.56-16.37-.01-2.96-.31-4.23-1.73-4.5-4.83-.47-5.34-.49-10.69-.02-16.02.27-3.05,1.56-4.42,4.58-4.73,5.45-.56,10.92-.55,16.37,0,2.86.29,4.06,1.59,4.47,4.44.4,2.77.31,5.57.33,8.37Z"/><path class="cls-7" d="m454.85,541.62c2.99.11,5.99-.05,8.97.4,2.88.44,4.13,1.62,4.33,4.53.39,5.58.5,11.17.04,16.75-.23,2.72-1.33,3.77-4.03,4.24-1.27.22-2.55.23-3.82.2-4.35-.1-8.71.18-13.05-.26-3-.31-4.42-1.54-4.69-4.47-.53-5.57-.49-11.17-.1-16.75.22-3.13,1.53-4.21,4.7-4.44,1.27-.09,2.55-.16,3.83-.19,1.28-.03,2.55,0,3.83,0Z"/><path class="cls-7" d="m589.63,494.9c.05,2.51.15,5.03-.08,7.54-.27,3.02-1.41,4.35-4.45,4.62-5.46.49-10.94.4-16.39-.06-3.25-.27-4.57-1.59-4.86-4.86-.47-5.42-.48-10.85.04-16.27.27-2.82,1.62-4.19,4.43-4.48,5.53-.57,11.09-.53,16.62.01,2.71.26,3.94,1.58,4.36,4.28.48,3.05.31,6.14.34,9.21Z"/><path class="cls-7" d="m442.28,495.3c.05-3.1-.06-5.94.22-8.77.35-3.47,1.48-4.86,4.93-5.18,5.25-.49,10.53-.54,15.78,0,3.42.35,4.7,1.75,4.96,5.19.39,5.18.41,10.37,0,15.55-.25,3.24-1.73,4.62-5.06,4.95-4.06.4-8.14.23-12.21.26-1.68.01-3.36-.01-5-.39-2.18-.5-3.03-1.44-3.39-3.63-.45-2.74-.09-5.5-.23-7.98Z"/></svg>