<?xml version="1.0" encoding="UTF-8"?><svg id="Layer_1" xmlns="http://www.w3.org/2000/svg" viewBox="0 0 1024 1024"><defs><style>.cls-1{fill:#f8dac3;}.cls-1,.cls-2,.cls-3,.cls-4,.cls-5,.cls-6,.cls-7,.cls-8,.cls-9{stroke-width:0px;}.cls-2{fill:#23388f;}.cls-3{fill:#f2b385;}.cls-4{fill:#f2b588;}.cls-5{fill:#e56d13;}.cls-6{fill:#e66e13;}.cls-7{fill:#ec914d;}.cls-8{fill:#ec914b;}.cls-9{fill:#fefefe;}</style></defs><path class="cls-5" d="m337.02,516.16v-7.19c.26-.79.05-1.6.12-2.39,0-.47,0-.94,0-1.4,0-.46,0-.92,0-1.37-.11-12.72,2.08-25.1,5.38-37.33,2.13-7.92,4.83-15.65,8.06-23.19,3.49-8.13,7.57-15.95,12.24-23.46,4.46-7.17,9.42-13.97,14.83-20.45,4.72-5.65,9.86-10.91,15.23-15.93,7.48-7,15.56-13.26,24.19-18.79,6.94-4.45,14.14-8.4,21.62-11.87,10.59-4.91,21.56-8.68,32.9-11.39,7.7-1.84,15.49-3.19,23.38-3.85,2.06-.17,4.13-.19,6.2-.26,5.95-.2,11.9-.14,17.85-.13,15.38.03,30.32,2.76,44.99,7.23,10.47,3.19,20.53,7.35,30.2,12.46,10.92,5.76,21.11,12.6,30.61,20.5,5.82,4.84,11.25,10.08,16.42,15.58,8.61,9.17,16.08,19.23,22.49,30.06,6.76,11.43,12.19,23.46,16.22,36.11,3.22,10.11,5.5,20.43,6.84,30.96.58,4.56.66,9.13.83,13.7.18,4.75.07,9.5.1,14.26.09,13.87-2.01,27.43-5.65,40.79-3.38,12.43-8.07,24.34-14.07,35.72-5.42,10.27-11.82,19.91-19.14,28.94-5.19,6.41-10.87,12.37-16.87,17.99-9.71,9.1-20.38,16.94-31.92,23.58-10.78,6.2-22.06,11.24-33.9,15.03-10.22,3.28-20.64,5.64-31.3,6.95-4.57.56-9.17.59-13.76.71h-2.99c-.73.07-1.48-.14-2.2.12h-7.19c-.71-.26-1.45-.05-2.18-.12h-2.97c-9.99.08-19.82-1.26-29.55-3.44-10.75-2.41-21.2-5.76-31.3-10.13-11.74-5.07-22.78-11.38-33.17-18.83-9.52-6.82-18.17-14.62-26.16-23.14-8.6-9.17-16.07-19.23-22.48-30.06-6.74-11.39-12.15-23.38-16.18-35.99-3.24-10.14-5.55-20.49-6.87-31.07-.4-3.22-.44-6.45-.59-9.68-.06-1.35-.15-2.71-.11-4.07,0-.46,0-.91,0-1.37,0-.54,0-1.07,0-1.61-.07-.73.14-1.48-.12-2.2Z"/><path class="cls-9" d="m521.2,687.65c94.29-4.62,168.23-83.86,166.41-178.29-1.81-93.98-76.95-169.34-170.05-172.02-96.89-2.79-175.66,72.49-180.32,166.34-.06.17-.13.18-.21.01,0-55.15,0-110.3-.02-165.44,0-.96.14-1.25,1.2-1.25,116.17.03,232.33.03,348.5.03.6,0,1.18-.28,1.18.9-.04,116.49-.04,232.98-.04,349.47v.46h-166.66c-.17-.08-.16-.15.01-.21Z"/><path class="cls-9" d="m337.23,521.45c4.39,89.65,76.55,161.81,166.2,166.2.17.06.18.13.01.21-55.11,0-110.23,0-165.34.02-.9,0-1.1-.2-1.1-1.1.02-55.11.02-110.23.02-165.34.08-.17.15-.16.21.01Z"/><path class="cls-7" d="m337.24,506.55c-.04.81.22,1.64-.22,2.42v-2.4c.06-.17.13-.18.22-.02Z"/><path class="cls-8" d="m337.02,516.16c.42.7.2,1.46.19,2.2-.09.1-.15.09-.19-.04v-2.16Z"/><path class="cls-8" d="m506.52,687.67c.74-.02,1.49-.23,2.2.19h-2.16c-.09-.02-.13-.06-.11-.11.02-.05.05-.08.07-.08Z"/><path class="cls-8" d="m515.91,687.86c.7-.42,1.46-.2,2.2-.19.08.06.09.11.06.14-.03.03-.06.05-.1.05h-2.16Z"/><path class="cls-3" d="m337.02,518.32c.06.03.12.04.19.04,0,.55,0,1.11.01,1.66-.08.17-.15.16-.2-.02v-1.68Z"/><path class="cls-3" d="m506.52,687.67c0,.06.02.13.04.19h-1.68c-.18-.05-.19-.11-.02-.2.55,0,1.11,0,1.66.01Z"/><path class="cls-3" d="m518.07,687.86c.02-.06.03-.12.04-.19.55,0,1.11,0,1.66-.01.17.08.16.15-.02.2h-1.68Z"/><path class="cls-1" d="m337.02,503.69c.07-.01.14-.02.21-.01,0,.48,0,.95-.01,1.43-.05.18-.11.19-.2.02v-1.44Z"/><path class="cls-4" d="m337.02,505.13c.06-.03.13-.03.2-.02,0,.48.01.96.02,1.44-.07,0-.15.01-.22.02v-1.44Z"/><path class="cls-1" d="m337.02,520c.06.02.13.03.2.02,0,.48,0,.95,0,1.43,0,0-.1,0-.1,0h-.1v-1.45Z"/><path class="cls-1" d="m504.86,687.66c0,.07.01.13.02.2h-1.44c0-.07,0-.14-.01-.21.48,0,.95,0,1.43,0Z"/><path class="cls-1" d="m519.75,687.86c0-.07.02-.13.02-.2.48,0,.95,0,1.43,0,0,.07-.01.14-.01.21h-1.44Z"/><path class="cls-2" d="m514.86,394.25c25.09-.61,47.54,7.97,67.93,22.77,5.86,4.25,11.46,8.83,16.6,13.92,2.89,2.86,5.19,6.27,7.61,9.55,7.13,9.67,13.41,19.83,17.85,31.05,2.66,6.72,4.33,13.67,5.21,20.84.52,4.24,1.44,8.43,1.69,12.7.72,12.55,0,24.97-3.65,37.11-3.05,10.12-6.98,19.89-12,29.17-3.77,6.97-8.68,13.21-13.96,19.12-14.34,16.07-31.88,27.29-52.17,34.26-5.28,1.81-10.83,2.71-16.31,3.81-8.66,1.74-17.4,2.35-26.22,1.95-17.84-.81-34.45-5.86-49.97-14.61-10.53-5.94-20.18-13.11-28.8-21.54-5.29-5.17-9.57-11.25-13.6-17.46-8.82-13.6-14.7-28.37-17.55-44.33-1.44-8.04-2.05-16.15-1.98-24.32,0-.47.1-.95.16-1.42.12-.81.99-1.66-.11-2.42-.05-.04,0-.23.02-.35,2.46-17.67,6.67-34.8,15.59-50.47,12.94-22.73,31.84-38.7,55.62-49.19,10.74-4.74,21.87-7.97,33.5-9.51,4.68-.62,9.39-.73,14.54-.65Z"/><path class="cls-6" d="m519.99,551.7c0,10.51-.01,21.02.02,31.53,0,1.01-.27,1.26-1.26,1.25-7.43-.04-14.87-.04-22.3,0-1,0-1.33-.32-1.36-1.27-.05-1.84-.26-3.66-.25-5.5.02-18.82.01-37.65.01-56.47,0-2.44-.94-3.37-3.38-3.37-3.2,0-6.39-.02-9.59.02-.8.01-1-.25-1-1.02.03-7.43.03-14.87,0-22.3,0-.77.2-1.02,1-1.02,3.28.04,6.55.02,9.83.02,2.11,0,3.19-1.08,3.13-3.14-.21-6.59-.45-13.17-.61-19.76-.06-2.54.77-4.96,1.32-7.41,1.98-8.76,6.72-15.43,14.95-19.36,4.57-2.18,9.45-3.13,14.49-3.35,6.23-.27,12.45-.31,18.65.52.24.03.47.08.71.13,2.11.49,2.21.62,2.21,2.79,0,6.07-.02,12.15.02,18.22,0,.94-.25,1.21-1.2,1.2-4.12-.05-8.23-.06-12.35,0-2.59.03-5.07.63-7.39,1.79-3.68,1.85-5.49,5-5.59,8.98-.16,5.95-.08,11.91-.07,17.86,0,1.21.45,1.53,1.91,1.53,7.27,0,14.55,0,21.82,0,1.52,0,1.58,0,1.44,1.47-.68,6.95-1.23,13.92-2.63,20.78-.42,2.05-.45,2.05-2.58,2.05-5.71,0-11.43,0-17.14,0-2.59,0-2.82.23-2.82,2.77,0,10.35,0,20.7,0,31.05Z"/></svg>