<?xml version="1.0" encoding="UTF-8"?><svg id="Layer_1" xmlns="http://www.w3.org/2000/svg" viewBox="0 0 1024 1024"><defs><style>.cls-1{fill:#f8dac3;}.cls-1,.cls-2,.cls-3,.cls-4,.cls-5,.cls-6,.cls-7,.cls-8,.cls-9{stroke-width:0px;}.cls-2{fill:#23388f;}.cls-3{fill:#f2b385;}.cls-4{fill:#f2b588;}.cls-5{fill:#e66e14;}.cls-6{fill:#e66e13;}.cls-7{fill:#ec914d;}.cls-8{fill:#ec914b;}.cls-9{fill:#fefefe;}</style></defs><path class="cls-6" d="m591.84,353.02h7.2c.79.26,1.6.05,2.39.12.47,0,.94,0,1.4,0,.46,0,.91,0,1.37,0,10-.08,19.83,1.26,29.57,3.44,10.76,2.41,21.21,5.76,31.33,10.13,11.78,5.09,22.86,11.42,33.29,18.9,9.49,6.81,18.12,14.57,26.08,23.07,8.61,9.17,16.08,19.23,22.5,30.06,6.74,11.39,12.16,23.38,16.19,35.99,3.24,10.14,5.56,20.49,6.88,31.07.4,3.22.44,6.45.59,9.68.06,1.35.15,2.71.11,4.07v2.98c.07.73-.14,1.48.12,2.2v7.19c-.26.71-.05,1.45-.12,2.18v2.98c.11,12.72-2.08,25.11-5.39,37.35-2.13,7.88-4.81,15.57-8.02,23.08-3.45,8.06-7.49,15.81-12.1,23.27-4.53,7.31-9.57,14.27-15.12,20.84-5.01,5.93-10.45,11.44-16.15,16.7-7.3,6.75-15.16,12.75-23.52,18.12-7.58,4.87-15.5,9.11-23.73,12.77-9.86,4.38-20.04,7.79-30.53,10.29-6.57,1.57-13.22,2.74-19.94,3.52-4.05.46-8.12.47-12.18.62-4.92.19-9.83.08-14.75.1-13.63.04-26.95-2.05-40.08-5.62-8-2.18-15.82-4.87-23.42-8.16-11.23-4.85-21.84-10.81-31.84-17.86-5.37-3.78-10.49-7.86-15.39-12.21-4.63-4.11-8.99-8.52-13.19-13.07-6.66-7.21-12.61-14.96-17.94-23.2-4.98-7.7-9.31-15.74-13.03-24.12-4.37-9.81-7.77-19.95-10.26-30.39-1.64-6.88-2.97-13.83-3.59-20.88-.33-3.69-.43-7.4-.42-11.11,0-.46,0-.92,0-1.38,0-.54,0-1.08,0-1.61-.07-.73.14-1.48-.12-2.2v-7.19c.26-.79.05-1.6.12-2.39,0-.47,0-.93,0-1.4,0-.46,0-.91,0-1.37-.08-9.99,1.26-19.82,3.44-29.55,2.41-10.75,5.76-21.2,10.14-31.3,5.09-11.77,11.43-22.84,18.92-33.27,6.81-9.48,14.59-18.11,23.08-26.07,9.18-8.6,19.24-16.07,30.08-22.48,11.4-6.74,23.39-12.15,36.01-16.18,10.15-3.24,20.51-5.55,31.09-6.87,3.22-.4,6.45-.44,9.68-.59,1.36-.06,2.71-.15,4.07-.11.46,0,.92,0,1.37,0,.54,0,1.08,0,1.61,0,.73-.07,1.48.14,2.2-.12Z"/><path class="cls-9" d="m420.23,537.2c4.64,93.21,82.33,167.71,177.73,166.41,92.32-1.26,168.03-74.08,172.69-166.41.06-.17.13-.18.21-.01,0,55.18,0,110.37.02,165.55,0,.85-.1,1.13-1.07,1.13-116.24-.03-232.49-.03-348.73,0-.96,0-1.07-.29-1.07-1.13.02-55.18.02-110.37.02-165.55.08-.17.15-.16.21.01Z"/><path class="cls-9" d="m586.55,353.23c-89.71,4.38-161.94,76.56-166.32,166.21-.06.17-.13.18-.21.01,0-55.11,0-110.23-.02-165.34,0-.9.2-1.1,1.1-1.1,55.15.02,110.31.02,165.46.02.17.08.16.15-.01.21Z"/><path class="cls-9" d="m770.65,519.43c-4.38-89.64-76.61-161.82-166.32-166.2-.17-.06-.18-.13-.01-.21,55.15,0,110.31,0,165.46-.02.9,0,1.1.2,1.1,1.1-.02,55.11-.02,110.23-.02,165.34-.08.17-.15.16-.21-.01Z"/><path class="cls-7" d="m420.24,522.3c-.04.81.22,1.64-.22,2.42v-2.4c.06-.17.13-.18.22-.02Z"/><path class="cls-7" d="m601.46,353.24c-.81-.04-1.64.22-2.42-.22h2.4c.17.06.18.13.02.22Z"/><path class="cls-8" d="m770.67,534.11c-.02-.74-.23-1.49.19-2.2v2.16c-.04.13-.1.14-.19.04Z"/><path class="cls-8" d="m420.02,531.92c.42.7.2,1.46.19,2.2-.09.1-.15.09-.19-.04v-2.16Z"/><path class="cls-8" d="m770.86,524.72c-.42-.7-.2-1.46-.19-2.2.09-.1.15-.09.19.04v2.16Z"/><path class="cls-8" d="m591.84,353.02c-.7.42-1.46.2-2.2.19-.07-.06-.09-.11-.06-.14.03-.03.06-.04.1-.04h2.16Z"/><path class="cls-3" d="m770.67,534.11c.07,0,.13,0,.19-.04v1.68c-.05.18-.11.19-.2.02v-1.66Z"/><path class="cls-3" d="m420.02,534.07c.06.03.12.04.19.04,0,.55,0,1.11.01,1.66-.08.17-.15.16-.2-.02v-1.68Z"/><path class="cls-3" d="m770.86,522.56c-.06-.03-.12-.04-.19-.04,0-.55,0-1.11-.01-1.66.08-.17.15-.16.2.02v1.68Z"/><path class="cls-3" d="m589.68,353.02c-.02.06-.03.12-.04.19-.55,0-1.11,0-1.66.01-.17-.08-.16-.15.02-.2h1.68Z"/><path class="cls-1" d="m420.02,535.75c.06.02.13.03.2.02,0,.48,0,.95,0,1.43,0,0-.1,0-.1,0h-.1v-1.45Z"/><path class="cls-1" d="m770.66,535.77c.07.01.13,0,.2-.02v1.44h-.1s-.1.01-.1.01c0-.48,0-.95,0-1.43Z"/><path class="cls-1" d="m588,353.02c0,.07-.02.13-.02.2-.48,0-.95,0-1.43,0,0-.07.01-.14.01-.21h1.44Z"/><path class="cls-4" d="m420.24,522.3c-.07,0-.15.01-.22.02v-1.44c.05-.18.11-.19.2-.02,0,.48.01.96.02,1.44Z"/><path class="cls-1" d="m770.86,520.88l-.1-.02h-.1c0-.47,0-.95,0-1.43.07,0,.14,0,.21.01v1.44Z"/><path class="cls-1" d="m420.22,520.86s-.1,0-.1,0l-.1.02v-1.44c.07-.01.14-.02.21-.01,0,.48,0,.95-.01,1.43Z"/><path class="cls-1" d="m604.32,353.02c0,.07,0,.14.01.21-.48,0-.95,0-1.43-.01-.18-.05-.19-.11-.02-.2h1.44Z"/><path class="cls-4" d="m602.88,353.02c.01.06.02.13.02.2-.48,0-.96.01-1.44.02-.01-.07-.02-.14-.02-.22h1.44Z"/><path class="cls-2" d="m595.92,625.56c-31.67,0-63.34-.01-95.02.03-1.91,0-3.52-.52-4.98-1.68-2.48-1.98-4.68-4.23-6.59-6.77-1.06-1.42-1.56-2.96-1.56-4.78.03-61.9.03-123.8,0-185.7,0-1.56.37-2.9,1.26-4.14,1.5-2.12,3.18-4.1,4.97-5.99.6-.63,1.37-.94,2.13-1.29,3.49-1.63,7.1-2.31,11.01-2.3,60.22.07,120.45.05,180.67.04,1.63,0,3.17.29,4.66.93,3.1,1.34,5.98,3.05,8.51,5.29,2.01,1.77,3.06,3.92,3.06,6.72-.04,62.3-.04,124.6,0,186.9,0,1.65-.4,3.06-1.39,4.34-2.07,2.67-4.4,5.06-7.13,7.06-1.3.95-2.71,1.38-4.36,1.37-31.75-.03-63.5-.02-95.26-.02Z"/><path class="cls-6" d="m581.8,540.45c0-18.9,0-37.8.02-56.7,0-.93-.26-1.49-1.06-2.03-17.08-11.32-34.15-22.67-51.42-33.71-2.34-1.49-3.13-3.52-3.03-6.06.12-2.86,1.52-5.02,3.98-6.42,1.64-.93,3.33-1.08,5.11-.08,5.69,3.19,11.13,6.76,16.58,10.32,10.16,6.65,20.3,13.33,30.44,20.02.84.55,1.67.81,2.68.8,14.2-.03,28.39,0,42.59-.04,1.47,0,2.76.32,3.95,1.13.23.16.47.31.71.45,3.02,1.65,4.29,3.92,4.24,7.63-.24,15.9-.09,31.81-.13,47.71,0,1.07.23,1.46,1.36,1.4,1.91-.1,3.84.02,5.76-.05.97-.04,1.22.32,1.2,1.24-.06,2.04.02,4.08-.03,6.11-.02.86.2,1.19,1.13,1.16,2.56-.07,5.12,0,7.68-.04.73-.01.95.21.95.95-.02,13.51-.03,27.01,0,40.52,0,1.08-.55,1-1.26,1-11.44,0-22.87,0-34.31,0q-1.53,0-1.53,1.56c0,6.91-.03,13.83.02,20.74.01,1.66-.62,2.83-1.95,3.72-1.37.92-2.84,1.63-4.37,2.23-.6.23-1.23.28-1.88.14-1.99-.44-3.77-1.3-5.36-2.55-1.08-.85-1.43-2.02-1.43-3.39.02-19.78.01-39.56.01-59.34,0-1.55,0-1.58-1.54-1.54-1.07.03-2.49-.47-3.11.23-.53.59-.19,1.98-.19,3.01,0,19.1-.02,38.2.02,57.3,0,1.66-.62,2.84-1.88,3.78-1.42,1.06-3.01,1.82-4.69,2.37-1.02.33-2.04.3-3.05-.1-1.69-.67-3.21-1.62-4.58-2.8-1.23-1.07-1.65-2.45-1.64-4.07.02-18.86.02-37.72.02-56.58Z"/><path class="cls-6" d="m599.79,462.68c-7.47.19-12.8-6.83-12.76-12.5.04-6.64,6.11-12.55,12.92-12.5,7.07.05,12.66,5.64,12.64,12.64-.02,7.32-5.27,12.39-12.8,12.37Z"/><path class="cls-6" d="m658.27,554.77c0-6.51.02-13.03-.02-19.54,0-.96.21-1.36,1.24-1.29,1.35.09,2.72-.01,4.08.03,1.59.05,2.3.79,2.41,2.38.02.32,0,.64,0,.96,0,11.59,0,23.18,0,34.77,0,2.93-.75,3.68-3.68,3.68-.96,0-1.93-.07-2.88.02-1,.09-1.18-.33-1.18-1.23.03-6.59.02-13.19.02-19.78Z"/><path class="cls-5" d="m483.49,634.36c0,.95-.78,1.64-1.77,1.45-1.56-.3-2.49-1.49-3.46-2.62-.25-.3.03-.43.19-.57.33-.29.66-.58,1.02-.84,2.13-1.53,1.54-1.93,3.32.69.38.56.67,1.18.7,1.89Z"/><path class="cls-6" d="m464.45,607.19c1.91-.07,2.73.93,3.37,2.14.66,1.26.8,2.55-.23,3.68-1.36,1.49-3.08,2.41-5.05,2.79-1.44.28-2.57-.5-3.5-2.18-.88-1.6-.84-2.82.19-3.98,1.47-1.67,3.52-2.06,5.23-2.45Z"/><path class="cls-5" d="m527.64,673.13c-1.06-.22-2.72-.21-3.06-1.22-.31-.94.86-2.1,1.47-3.11.23-.38.51-.24.81-.08.75.38,1.49.78,2.11,1.34.58.52,1.08,1.12.72,1.97-.36.85-1.11,1.07-2.06,1.11Z"/><path class="cls-5" d="m710.93,638c-1.46-2.11-2.77-4.18-3.92-6.35-.36-.67.18-.84.63-.69,2.11.7,4.26,1.29,6.25,2.31.59.3.22.57.03.82-.95,1.27-1.93,2.53-2.99,3.91Z"/><path class="cls-6" d="m552.05,681.54c-.17,1.77-.65,3.45-1.62,4.95-.87,1.36-2.26,1.74-4.02,1.16-1.49-.49-2.2-1.44-2.07-3.08.18-2.18,1.1-4.1,2.62-5.64.95-.96,2.21-.77,3.37-.27,1.25.53,1.81,1.51,1.71,2.87Z"/><path class="cls-5" d="m507.12,661.17c-1.17-.16-2.17-.72-3.15-1.33-.43-.27-.36-.54-.09-.87.74-.88,1.48-1.77,2.21-2.66.25-.3.49-.51.88-.18.74.61,1.51,1.18,2.01,2.02.39.66.49,1.35.04,2.02-.45.67-1.05,1.08-1.91,1Z"/><path class="cls-2" d="m622.04,509.57c0,7.39,0,14.77,0,22.16,0,1.41-.82,2.2-2.31,2.23-1.59.03-2.33-.63-2.33-2.17,0-14.81,0-29.62-.01-44.43,0-1.02.3-1.81,1.33-2.16,1.12-.38,2.45-.04,3.09.73.33.39.22.83.22,1.26,0,7.47,0,14.93,0,22.4Z"/><path class="cls-2" d="m634.79,527.56c1.88,0,3.75.02,5.63-.01.65-.01.93.16.91.87-.04,1.55-.04,3.11,0,4.67.02.69-.24.89-.9.89-3.75-.02-7.5-.02-11.25,0-.65,0-.93-.18-.91-.88.04-1.55.04-3.11,0-4.67-.02-.69.24-.89.9-.87,1.88.03,3.75.01,5.63.01Z"/><path class="cls-2" d="m491.25,631.99h8.82c3.68,0,6.14,1.8,6.14,4.78,0,3.16-2.48,4.8-5.94,4.8h-2.96v4.5h-6.06v-14.08Zm6.06,6.06h1.36c1.04,0,1.56-.54,1.56-1.28,0-.64-.4-1.26-1.56-1.26h-1.36v2.54Z"/><path class="cls-2" d="m513.93,641.09v4.98h-5.98v-14.08h9.7c3.82,0,5.62,1.8,5.62,4,0,1.76-.96,2.92-2.44,3.46,1.24.52,2.04,1.48,2.04,3.58v.84c0,.54.04,1.5.22,2.2h-5.9c-.22-.54-.3-1.56-.3-2.82v-.5c0-1.36-.34-1.66-1.76-1.66h-1.2Zm0-3.22h1.76c.7,0,1.5-.26,1.5-1.16,0-.78-.6-1.18-1.54-1.18h-1.72v2.34Z"/><path class="cls-2" d="m541.98,639.03c0,4.14-2.7,7.4-8.84,7.4-5.54,0-8.54-3.2-8.54-7.38,0-3.9,2.42-7.42,8.8-7.42,5.22,0,8.58,3.1,8.58,7.4Zm-10.9-.1c0,2.2.48,3.78,2.28,3.78s2.14-1.58,2.14-3.66c0-2.52-.46-3.86-2.24-3.86-1.6,0-2.18,1.34-2.18,3.74Z"/><path class="cls-2" d="m544.01,631.99h13.2v3.8h-7.14v1.86h6.7v3.8h-6.7v4.62h-6.06v-14.08Z"/><path class="cls-2" d="m572.2,640.85h-7.14v1.44h8.04l-.72,3.78h-13.28v-14.08h13.46v3.8h-7.5v1.26h7.14v3.8Z"/><path class="cls-2" d="m580.41,641.85c.14.58.5,1.24,1.58,1.24.82,0,1.26-.32,1.26-.8s-.14-.86-2.44-1.28c-5.52-1-6.06-3.02-6.06-4.82,0-2.6,2.32-4.56,7.02-4.56,4.3,0,7.14,1.54,7.36,4.36h-5.78c-.12-.6-.44-1.06-1.38-1.06-.68,0-1.02.26-1.02.66,0,.48.6.72,2.16,1,5.16.9,6.54,2.66,6.54,4.88,0,3.06-2.84,4.96-7.54,4.96-5.12,0-7.44-2-7.86-4.58h6.16Z"/><path class="cls-2" d="m596.89,641.85c.14.58.5,1.24,1.58,1.24.82,0,1.26-.32,1.26-.8s-.14-.86-2.44-1.28c-5.52-1-6.06-3.02-6.06-4.82,0-2.6,2.32-4.56,7.02-4.56,4.3,0,7.14,1.54,7.36,4.36h-5.78c-.12-.6-.44-1.06-1.38-1.06-.68,0-1.02.26-1.02.66,0,.48.6.72,2.16,1,5.16.9,6.54,2.66,6.54,4.88,0,3.06-2.84,4.96-7.54,4.96-5.12,0-7.44-2-7.86-4.58h6.16Z"/><path class="cls-2" d="m614.15,631.99v14.08h-6.16v-14.08h6.16Z"/><path class="cls-2" d="m633.58,639.03c0,4.14-2.7,7.4-8.84,7.4-5.54,0-8.54-3.2-8.54-7.38,0-3.9,2.42-7.42,8.8-7.42,5.22,0,8.58,3.1,8.58,7.4Zm-10.9-.1c0,2.2.48,3.78,2.28,3.78s2.14-1.58,2.14-3.66c0-2.52-.46-3.86-2.24-3.86-1.6,0-2.18,1.34-2.18,3.74Z"/><path class="cls-2" d="m635.61,646.07v-14.08h7.04c1.26,2.56,2.52,5.14,3.44,7.12h.14c-.1-1.18-.12-3.4-.12-5.74v-1.38h5.44v14.08h-6.72c-.98-1.98-2.92-6.36-3.82-8.28h-.12c.16,1.4.18,3.02.18,6.26v2.02h-5.46Z"/><path class="cls-2" d="m659.37,644.07l-.5,2h-6l4.84-14.08h8.1l5.28,14.08h-6.56l-.54-2h-4.62Zm3.48-3.8c-.36-1.52-.76-3.12-1.14-4.44h-.16c-.28,1.32-.76,3.16-1.08,4.44h2.38Z"/><path class="cls-2" d="m672.21,631.99h6.18v10.28h7.2l-.64,3.8h-12.74v-14.08Z"/><path class="cls-2" d="m692.55,641.85c.14.58.5,1.24,1.58,1.24.82,0,1.26-.32,1.26-.8s-.14-.86-2.44-1.28c-5.52-1-6.06-3.02-6.06-4.82,0-2.6,2.32-4.56,7.02-4.56,4.3,0,7.14,1.54,7.36,4.36h-5.78c-.12-.6-.44-1.06-1.38-1.06-.68,0-1.02.26-1.02.66,0,.48.6.72,2.16,1,5.16.9,6.54,2.66,6.54,4.88,0,3.06-2.84,4.96-7.54,4.96-5.12,0-7.44-2-7.86-4.58h6.16Z"/></svg>