<?xml version="1.0" encoding="UTF-8"?><svg id="Layer_1" xmlns="http://www.w3.org/2000/svg" viewBox="0 0 1024 1024"><defs><style>.cls-1{fill:#f8dac3;}.cls-1,.cls-2,.cls-3,.cls-4,.cls-5,.cls-6,.cls-7,.cls-8,.cls-9,.cls-10,.cls-11{stroke-width:0px;}.cls-2{fill:#13359f;}.cls-3{fill:#14359f;}.cls-4{fill:#f2b385;}.cls-5{fill:#f2b588;}.cls-6{fill:#e56d13;}.cls-7{fill:#e66e14;}.cls-8{fill:#e66e13;}.cls-9{fill:#ec914d;}.cls-10{fill:#ec914b;}.cls-11{fill:#fefefe;}</style></defs><path class="cls-6" d="m515.91,687.86h-7.19c-.71-.26-1.45-.05-2.18-.12h-2.97c-10.11.03-20.06-1.31-29.9-3.54-9.48-2.15-18.75-5.01-27.75-8.7-9.52-3.9-18.63-8.6-27.33-14.08-7.48-4.71-14.56-9.97-21.25-15.74-5.3-4.57-10.23-9.51-14.98-14.64-6.41-6.94-12.15-14.4-17.32-22.29-5.86-8.94-10.84-18.35-14.99-28.2-3.61-8.56-6.48-17.36-8.67-26.38-1.78-7.34-3.19-14.76-3.82-22.29-.29-3.5-.37-7.02-.41-10.53,0-.46,0-.91,0-1.37,0-.54,0-1.07,0-1.61-.07-.73.14-1.48-.12-2.2v-7.19c.26-.79.05-1.6.12-2.39,0-.47,0-.94,0-1.4,0-.46,0-.92,0-1.37-.02-10.15,1.33-20.14,3.57-30.02,2.58-11.42,6.23-22.48,11.03-33.15,4.55-10.11,10-19.73,16.39-28.81,4.35-6.18,9.04-12.08,14.14-17.66,3.32-3.63,6.77-7.14,10.36-10.48,8.41-7.83,17.5-14.78,27.3-20.81,5.31-3.27,10.76-6.3,16.38-8.99,9.5-4.54,19.32-8.23,29.49-11,7.61-2.07,15.32-3.59,23.12-4.67,3.68-.51,7.38-.74,11.1-.85,5.53-.16,11.06-.19,16.59-.22,13.47-.06,26.71,1.68,39.74,5.08,10.27,2.68,20.22,6.23,29.85,10.69,13.71,6.35,26.33,14.39,38.03,23.93,6.05,4.93,11.66,10.34,16.97,16.04,9.65,10.35,17.92,21.74,24.81,34.12,5.7,10.23,10.37,20.89,13.92,32.04,3.24,10.18,5.53,20.58,6.86,31.2.61,4.9.69,9.82.84,14.74.12,3.95.07,7.91.1,11.86.1,13.49-1.67,26.75-5.07,39.79-2.68,10.27-6.23,20.22-10.7,29.85-6.34,13.67-14.35,26.27-23.86,37.93-4.98,6.11-10.45,11.77-16.2,17.15-9.07,8.48-18.99,15.88-29.67,22.22-9.64,5.73-19.73,10.52-30.29,14.32-8.32,3-16.82,5.34-25.5,7.05-4.86.96-9.74,1.82-14.68,2.18-3.54.26-7.1.37-10.65.41h-2.99c-.73.07-1.48-.14-2.2.12Z"/><path class="cls-11" d="m521.2,687.65c38.89-2.19,73.47-15.53,103.37-40.5,29.22-24.39,48.45-55.21,57.86-92.11,2.98-11.68,4.61-23.57,5.05-35.62,1.03-28.39-4.33-55.49-16.39-81.24-8.18-17.47-18.97-33.15-32.35-47.05-19.07-19.81-41.54-34.39-67.41-43.69-12.59-4.53-25.54-7.55-38.85-9.01-35.27-3.89-68.77,2.08-100.39,18.24-15.18,7.76-28.9,17.59-41.15,29.44-24.2,23.38-40.47,51.37-48.73,84-2.79,11.02-4.38,22.23-4.96,33.58-.06.17-.13.18-.21.01,0-55.15,0-110.3-.02-165.44,0-.96.14-1.25,1.2-1.25,116.17.03,232.33.03,348.5.03.6,0,1.18-.28,1.18.9-.04,116.49-.04,232.98-.04,349.47v.46h-166.66c-.17-.08-.16-.15.01-.21Z"/><path class="cls-11" d="m337.23,521.45c4.36,89.61,76.59,161.85,166.2,166.2.17.06.18.13.01.21-55.11,0-110.23,0-165.34.02-.9,0-1.1-.2-1.1-1.1.02-55.11.02-110.23.02-165.34.08-.17.15-.16.21.01Z"/><path class="cls-9" d="m337.24,506.55c-.04.81.22,1.64-.22,2.42v-2.4c.06-.17.13-.18.22-.02Z"/><path class="cls-10" d="m337.02,516.16c.42.7.2,1.46.19,2.2-.09.1-.15.09-.19-.04v-2.16Z"/><path class="cls-10" d="m506.52,687.67c.74-.02,1.49-.23,2.2.19h-2.16c-.09-.02-.13-.06-.11-.11.02-.05.05-.08.07-.08Z"/><path class="cls-10" d="m515.91,687.86c.7-.42,1.46-.2,2.2-.19.08.06.09.11.06.14-.03.03-.06.05-.1.05h-2.16Z"/><path class="cls-4" d="m337.02,518.32c.06.03.12.04.19.04,0,.55,0,1.11.01,1.66-.08.17-.15.16-.2-.02v-1.68Z"/><path class="cls-4" d="m506.52,687.67c0,.06.02.13.04.19h-1.68c-.18-.05-.19-.11-.02-.2.55,0,1.11,0,1.66.01Z"/><path class="cls-4" d="m518.07,687.86c.02-.06.03-.12.04-.19.55,0,1.11,0,1.66-.01.17.08.16.15-.02.2h-1.68Z"/><path class="cls-1" d="m337.02,520c.06.02.13.03.2.02,0,.48,0,.95,0,1.43,0,0-.1,0-.1,0h-.1v-1.45Z"/><path class="cls-5" d="m337.24,506.55c-.07,0-.15.01-.22.02v-1.44c.05-.18.11-.19.2-.02,0,.48.01.96.02,1.44Z"/><path class="cls-1" d="m337.22,505.11h-.1s-.1.02-.1.02v-1.44c.07-.01.14-.02.21-.01,0,.48,0,.95-.01,1.43Z"/><path class="cls-1" d="m504.86,687.66c0,.07.01.13.02.2h-1.44c0-.07,0-.14-.01-.21.48,0,.95,0,1.43,0Z"/><path class="cls-1" d="m519.75,687.86c0-.07.02-.13.02-.2.48,0,.95,0,1.43,0,0,.07-.01.14-.01.21h-1.44Z"/><path class="cls-2" d="m415.29,444.8c1.41-1.12,2.67-2.15,3.96-3.15,1.07-.83,1.81-.85,2.86.05.34.29.57.16.85.11.59-.1,1.17-.29,1.77-.22.6.06,1.13.27,1.13.98,0,.96.51.82,1.09.55.98-.45,1.88-1.05,2.92-1.37,1.94-.59,2.86-.15,3.41,1.75.24.84.66,1.03,1.39.62,1.05-.58,2.06-1.23,3.14-1.73,1.65-.77,2.81-.5,3.03,1.27.1.83.66,1.01,1.41.82,1.16-.29,2.11-.93,2.99-1.7.6-.53,1.27-.81,2.06-.84,1.5-.05,2.07.44,2.23,1.95.03.23.08.46.16.9,1.28-1.01,2.45-1.93,3.61-2.86,1.44-1.15,1.68-1.16,3.33-.14.46.29.91-.02,1.36-.11,1.52-.29,1.8-.17,2.34,1.27.2.54.57.38.87.25.66-.29,1.28-.64,1.93-.96.75-.38,1.53-.68,2.39-.69,1.15-.02,1.89.46,2.17,1.63.33,1.36.54,1.43,1.76.77,1.02-.55,2-1.18,3.05-1.64,1.59-.7,2.23-.38,2.72,1.28.27.91.8,1.12,1.62.87,1.05-.32,1.93-.93,2.77-1.62.37-.3.73-.62,1.21-.76,2.02-.61,2.95.1,3.31,2.73,1.24-.99,2.41-1.93,3.58-2.86,1.48-1.17,1.73-1.2,3.31-.16.38.25.7.04,1.02-.02,1.88-.38,1.88-.39,2.75,1.28.22.43.55.27.81.16.51-.22,1-.5,1.5-.75.85-.44,1.72-.85,2.7-.89,1.33-.05,1.89.35,2.26,1.63.4,1.36.56,1.43,1.8.76,1.09-.58,2.09-1.33,3.28-1.73,1.47-.5,2.13-.21,2.48,1.27.26,1.08.86,1.24,1.76.94,1.04-.34,1.94-.94,2.75-1.67.6-.53,1.28-.8,2.07-.81,1.48-.03,2.01.43,2.2,1.87.04.27-.05.57.28.89,1.22-.98,2.45-1.97,3.7-2.95,1.22-.96,1.78-.99,3.05-.02.47.36.84.05,1.22-.02,1.69-.32,1.78-.3,2.52,1.28.23.49.6.32.91.19.58-.25,1.14-.58,1.71-.87.83-.41,1.67-.77,2.61-.77,1.15,0,1.87.49,2.13,1.67.29,1.32.47,1.39,1.67.76,1.02-.54,2-1.19,3.05-1.64,1.74-.75,2.64-.25,2.86,1.27.14.98.81,1.08,1.61.85.69-.21,1.32-.56,1.91-.97.29-.21.59-.41.85-.66.98-.92,2.13-1.09,3.34-.7,1.21.38.93,1.52,1.06,2.42.36.23.53-.09.72-.24,1.16-.91,2.32-1.83,3.47-2.76.74-.6,1.63-.75,2.31-.17.63.53,1.14.51,1.82.34,1.22-.3,2.31-.19,2.92,1.15.3.65.82.5,1.32.26.9-.43,1.77-.94,2.7-1.28,2.07-.76,2.98-.3,3.67,1.78.23.68.6.9,1.25.59.87-.41,1.72-.84,2.59-1.23.73-.32,1.45-.68,2.22-.88,1.34-.34,1.81-.02,2.21,1.3.36,1.18.74,1.39,1.9.97.99-.36,1.85-.93,2.63-1.64.59-.54,1.29-.78,2.07-.79,1.45-.02,1.98.45,2.15,1.91.03.27,0,.56.3.84,1.26-1.01,2.53-2.03,3.81-3.04,1.07-.83,1.85-.86,2.86.03.38.33.65.14.97.11.55-.06,1.1-.18,1.66-.21.51-.02,1.08.19,1.1.71.07,1.52.84.97,1.56.6.89-.45,1.75-.97,2.72-1.23,1.78-.48,2.73.03,3.19,1.81.22.85.64,1.03,1.38.63,1.09-.59,2.14-1.26,3.26-1.77,1.71-.78,2.33-.48,2.9,1.31.27.86.8,1.02,1.56.8,1.1-.32,2.01-.95,2.87-1.68.5-.42,1.03-.73,1.7-.81,1.78-.22,2.5.36,2.64,2.16.01.18.04.37.07.71,1.39-1.1,2.65-2.13,3.93-3.13,1.15-.9,1.76-.92,2.96,0,.51.39.91.06,1.34-.03,1.6-.3,1.9-.18,2.47,1.27.24.61.65.32.97.18.76-.34,1.5-.75,2.25-1.11.69-.33,1.42-.51,2.2-.47,1.15.06,1.73.69,1.91,1.78.17,1.05.69,1.22,1.58.7,1.03-.6,2.07-1.22,3.16-1.71,1.66-.74,2.3-.43,2.81,1.3.25.85.74,1.06,1.53.84,1.11-.3,2.04-.92,2.88-1.67.7-.62,1.49-.9,2.41-.86,1.3.06,1.77.48,1.89,1.8.07.79.1,1.59.12,2.39.02.63-.22,1.18-.66,1.61-.3.29-.66.47-1.09.35-.46-.12-.38-.55-.46-.89-.03-.12-.03-.24-.06-.35-.13-.49.17-1.27-.26-1.44-.57-.23-1.04.44-1.49.81-7.06,5.76-13.75,11.94-20.19,18.38-.68.68-1.18,1.36-1.2,2.47-.18,14.62,0,29.25.04,43.87.03,9.83.17,19.65.27,29.48.02,1.63.14,3.25.22,5.09,1.49-1.01,2.52-2.27,3.69-3.37.2-.19.38-.41.57-.62.25-.26.49-.59.9-.45.49.16.43.63.44,1.01.04,1.03-.21,1.99-.95,2.75-1.7,1.75-3.42,3.47-5.13,5.21-.41.42-.91.59-1.5.62-8.14.41-16.28,1-24.42.65-4.74-.2-4,.53-4.3-4.28-.02-.28-.03-.55-.05-.94-.88.41-1.4,1.1-1.93,1.75-1.59,1.94-3.42,2.97-6.1,3.01-8.1.14-16.19.89-24.3.33-1.81-.13-1.83-.18-1.92-1.99-.05-1.02-.13-2.05-.21-3.19-1.32,1.31-2.54,2.51-3.75,3.71-.55.55-1.13.93-1.97.96-8.46.39-16.91.85-25.38.68-.44,0-.88-.03-1.31-.07-3.96-.35-3.18.21-3.53-3.71-.04-.48-.05-.96-.08-1.7-.92.92-1.79,1.64-2.48,2.52-1.3,1.66-2.86,2.31-5.02,2.39-7.34.27-14.68.7-22.03.58q-4.54-.08-4.85-4.53c-.02-.23.05-.49-.17-.68-1.25,1.21-2.51,2.42-3.75,3.64-.5.49-1.01.84-1.76.87-8.14.4-16.27.87-24.42.69-1.03-.02-2.07-.16-3.1-.26-.63-.07-.99-.36-1.02-1.07-.04-1.27-.17-2.54-.27-3.91-.82.35-1.32,1.02-1.82,1.64-1.61,1.97-3.43,3.06-6.18,3.11-8.1.13-16.19.89-24.3.32-1.81-.13-1.83-.18-1.92-1.99-.05-.92-.12-1.83-.19-2.75,0-.11-.06-.22-.09-.33-1.26,1.23-2.51,2.46-3.76,3.67-.49.48-1,.84-1.76.88-8.14.41-16.27.87-24.42.69-1-.02-1.99-.15-2.98-.24-.72-.06-1.16-.38-1.18-1.19-.04-1.26-.15-2.53-.24-3.9-1.06,1.04-2.1,1.94-3.01,2.97-1.04,1.18-2.21,1.69-3.84,1.76-7.62.32-15.24.76-22.87.61-1.04-.02-2.07-.14-3.11-.21-.94-.07-1.35-.49-1.4-1.51-.33-6.18-.4-12.37-.49-18.56-.25-16.86-.25-33.72-.23-50.58,0-5.03.16-10.07.12-15.1-.01-1.68.57-2.83,1.79-3.92,5.93-5.3,12.1-10.31,18.26-15.34,1.83-1.49,3.66-2.97,5.51-4.43,1.15-.91,1.76-.93,2.96,0,.33.25.58.16.88.1.59-.13,1.17-.28,1.78-.22.55.06,1.1.23,1.09.88,0,1.16.6.89,1.23.59.97-.47,1.88-1.07,2.92-1.36,1.86-.52,2.79-.03,3.28,1.82.23.88.66.99,1.38.58,1.05-.58,2.07-1.2,3.15-1.71,1.72-.82,2.39-.52,3,1.29.26.76.71.98,1.46.8.76-.18,1.4-.57,2.03-1,.26-.18.54-.35.77-.57.98-.97,2.15-1.2,3.43-.82,1.29.38.93,1.6,1.2,2.69Z"/><path class="cls-8" d="m533.69,507.74c0-9.95-.01-19.89,0-29.84,0-2.95.14-5.91.13-8.86,0-.94.35-1.26,1.22-1.28,2.51-.06,5.03-.2,7.54-.23,5.15-.06,10.31-.08,15.45.25,2.99.19,2.56-.2,2.64,2.68.52,17.97.34,35.95.3,53.92-.01,5.47-.07,10.94-.12,16.42-.02,1.96-.11,3.91-.11,5.87,0,.88-.35,1.29-1.21,1.46-3.11.6-6.27.63-9.42.76-4.27.18-8.54.12-12.81-.11-.16,0-.32-.01-.48-.02-2.03-.13-2.1-.19-2.2-2.21-.32-6.54-.49-13.09-.54-19.63-.05-6.39-.01-12.78-.01-19.17-.13,0-.27,0-.4,0Z"/><path class="cls-8" d="m595.4,507.95c0,8.55.03,17.1-.01,25.65-.02,4.23-.13,8.46-.23,12.69-.04,1.62-.16,1.71-1.87,1.98-2.69.43-5.4.5-8.12.61-3.95.16-7.9.13-11.85-.12-.48-.03-.95-.11-1.43-.13-.78-.03-1.06-.4-1.12-1.19-.29-4.14-.37-8.29-.47-12.44-.47-20.73-.51-41.46-.48-62.19,0-1.28.08-2.56.03-3.83-.03-.89.35-1.2,1.17-1.22,2.35-.06,4.71-.2,7.06-.23,4.87-.06,9.75-.02,14.61.23,2.28.12,2.24.14,2.39,2.33.3,4.43.24,8.86.28,13.29.09,8.19.03,16.38.03,24.57Z"/><path class="cls-8" d="m396.05,508.04v-8.39c0-9.39,0-18.78,0-28.16,0-.6.06-1.2.08-1.79q.05-1.91,1.9-1.97c6.78-.26,13.57-.35,20.35.02,3.4.19,2.9-.18,2.99,2.97.5,17.77.33,35.55.29,53.32-.01,5.35-.07,10.7-.12,16.05-.02,2.08-.08,4.15-.11,6.23-.03,1.52-.17,1.69-1.78,1.95-2.69.43-5.4.51-8.11.62-4.07.17-8.14.1-12.21-.11-2.26-.12-2.24-.11-2.37-2.41-.4-7.26-.49-14.52-.56-21.79-.06-5.51-.01-11.02-.01-16.53-.11,0-.21,0-.32,0Z"/><path class="cls-8" d="m524.98,507.77c0,7.31.03,14.62,0,21.94-.03,5.39-.15,10.78-.23,16.17-.03,2.06-.11,2.17-2.21,2.43-6.84.83-13.7.81-20.56.43-1.09-.06-1.65-.37-1.72-1.68-.31-5.42-.41-10.85-.51-16.28-.34-18.57-.46-37.15-.41-55.72,0-2,.1-4,.05-5.99-.02-.95.34-1.28,1.23-1.31,2.31-.06,4.63-.2,6.94-.23,4.91-.06,9.83-.02,14.73.23,2.19.11,2.25.13,2.33,2.26.14,3.67.26,7.34.27,11.02.04,8.91.01,17.82.01,26.73.03,0,.05,0,.08,0Z"/><path class="cls-8" d="m604.51,507.96c-.35-11.06-.33-22.13-.31-33.2,0-1.95.14-3.91.13-5.86,0-.84.32-1.11,1.1-1.15,5.27-.21,10.54-.3,15.81-.22,2.15.04,4.31.12,6.46.27,1.75.12,1.76.18,1.83,1.9.1,2.71.21,5.43.23,8.14.05,7.03.02,14.06.1,21.09.15,13.62-.08,27.24-.1,40.86,0,2.35-.15,4.71-.18,7.06-.01.74-.33,1.07-1.02,1.22-2.2.48-4.43.58-6.66.69-4.83.25-9.66.26-14.49-.02-2.16-.13-2.2-.18-2.31-2.36-.4-8.02-.51-16.04-.59-24.06-.05-4.79,0-9.58,0-14.38Z"/><path class="cls-8" d="m361.6,507.52c0-10.19,0-20.38,0-30.56,0-2.68.11-5.35.09-8.03,0-.84.32-1.14,1.1-1.16,2.15-.06,4.31-.17,6.46-.2,5.43-.1,10.86-.08,16.29.28,1,.07,1.36.46,1.37,1.47.04,3.75.22,7.5.25,11.26.08,12.34.16,24.69.16,37.03,0,8.79-.14,17.57-.23,26.36,0,.96-.15,1.91-.13,2.87.02.8-.34,1.11-1.08,1.27-2.91.62-5.87.64-8.81.77-3.99.18-7.98.11-11.97-.1-2.44-.13-2.49-.11-2.6-2.57-.18-4.19-.32-8.38-.4-12.57-.16-8.7-.27-17.41-.4-26.12-.03,0-.06,0-.09,0Z"/><path class="cls-8" d="m456.08,507.89c0,8.55.02,17.1-.01,25.65-.02,4.23-.13,8.46-.23,12.7-.04,1.69-.14,1.77-1.81,2.04-2.73.44-5.48.51-8.23.62-3.95.16-7.9.12-11.85-.12-.32-.02-.64-.04-.96-.05-1.01-.03-1.5-.39-1.58-1.56-.32-4.98-.39-9.97-.5-14.96-.4-19.81-.46-39.62-.41-59.44,0-1.24.07-2.48.02-3.71-.04-.93.33-1.28,1.23-1.3,2.15-.04,4.31-.17,6.46-.2,5.39-.08,10.78-.07,16.17.29.99.07,1.32.44,1.37,1.46.26,4.71.24,9.42.29,14.13.09,8.15.02,16.3.02,24.45Z"/><path class="cls-8" d="m465.19,507.91c-.35-10.9-.33-21.81-.31-32.71,0-2.07.15-4.15.12-6.22-.02-1.02.45-1.2,1.29-1.22,2.31-.06,4.63-.19,6.94-.22,4.79-.06,9.58-.01,14.37.21,2.57.12,2.6.13,2.65,2.74.11,6.23.23,12.46.28,18.68.06,7.07.09,14.14.08,21.21-.02,9.87-.09,19.73-.16,29.6-.02,2.23-.16,4.47-.17,6.7,0,.89-.35,1.29-1.2,1.46-2.83.57-5.71.61-8.58.74-4.15.18-8.3.13-12.45-.12-2.09-.12-2.15-.19-2.25-2.29-.4-7.98-.51-15.96-.59-23.94-.05-4.87,0-9.74,0-14.62Z"/><path class="cls-8" d="m579.88,447.16c-5.36,4.87-10.56,9.59-15.76,14.31-.06.05-.13.09-.18.15-2.03,2.49-4.58,3.4-7.85,3.35-6.83-.1-13.66-.06-20.47-.48-.39-.02-.78-.11-1.23-.18.14-.64.64-.95,1.03-1.31,6.95-6.32,14.23-12.25,21.45-18.25.92-.77,2.07-1,3.2-1.24.3-.06.69-.16.89.15.23.35-.02.69-.21.99-1.12,1.72-2.58,3.15-4,4.6-2.24,2.28-4.52,4.52-6.77,6.79-.56.56-1.1,1.15-1.5,1.98.79.28,1.28-.19,1.76-.52,2.58-1.76,4.88-3.87,7.27-5.87,2.91-2.44,5.74-4.97,8.91-7.08.7-.46,1.4-.94,2.24-1.11.83-.17,1.16.24.91,1.01-.32,1-.95,1.84-1.56,2.68-2.04,2.77-4.36,5.31-6.52,7.98-.63.78-1.27,1.55-1.72,2.44-.11.21-.28.45-.1.66.23.26.52.13.75-.04.61-.45,1.23-.88,1.8-1.38,3.45-3.04,6.59-6.41,10.17-9.29,1.12-.9,2.25-1.79,3.6-2.36,1.4-.59,1.93-.4,2.53.96.24.54.53.98,1.37,1.05Z"/><path class="cls-8" d="m362.06,464.29c1.55-1.71,3.15-3.03,4.7-4.39,5.86-5.12,11.87-10.07,17.86-15.05.96-.8,2.13-1.06,3.29-1.32.29-.07.69-.16.89.13.24.35-.01.69-.22.98-1.25,1.83-2.9,3.3-4.48,4.82-2.3,2.22-4.65,4.37-6.96,6.58-.59.57-1.21,1.14-1.56,2,.89.25,1.42-.32,1.96-.71,2.59-1.81,4.92-3.94,7.34-5.97,2.62-2.21,5.21-4.48,8.03-6.44.82-.57,1.65-1.13,2.61-1.43.34-.11.72-.19,1.01.11.32.33.1.68-.04,1-.64,1.45-1.66,2.63-2.68,3.8-2.22,2.57-4.48,5.1-6.71,7.65-.26.3-.52.61-.73.95-.24.38-.8.83-.36,1.23.41.38.88-.18,1.23-.45,2.21-1.72,4.15-3.74,6.19-5.65,2.16-2.02,4.28-4.07,6.71-5.78.62-.43,1.27-.84,1.95-1.16,1.47-.68,2.01-.48,2.7.99.25.52.57.9,1.3.98-3.9,3.55-7.68,6.98-11.46,10.41-2.28,2.07-4.58,4.1-6.82,6.2-.62.58-1.28.93-2.11.97-7.58.36-15.16.2-22.73-.33-.23-.02-.46-.08-.93-.16Z"/><path class="cls-8" d="m648.72,447.17c-4.79,4.35-9.46,8.59-14.13,12.82-1.39,1.26-2.8,2.5-4.15,3.8-.64.62-1.36.96-2.23,1-7.51.34-15.01.18-22.51-.32-.27-.02-.53-.1-.94-.18.56-.82,1.21-1.38,1.85-1.95,6.72-6.04,13.71-11.75,20.64-17.53.96-.8,2.13-1.05,3.3-1.29.29-.06.67-.15.87.18.2.33-.04.63-.21.88-1.17,1.69-2.65,3.09-4.12,4.5-2.54,2.43-5.11,4.83-7.64,7.27-.49.48-1.08.93-1.24,1.77.92.11,1.49-.47,2.07-.89,3.25-2.34,6.17-5.07,9.25-7.61,2.34-1.93,4.62-3.95,7.25-5.49.69-.41,1.59-1.2,2.25-.48.65.71-.21,1.55-.66,2.21-1.84,2.68-4.12,4.98-6.26,7.4-1.16,1.32-2.39,2.58-3.35,4.06-.18.27-.55.62-.22.93.32.3.69-.04.96-.23,2.06-1.47,3.78-3.31,5.62-5.03,2.13-1.99,4.22-4.03,6.52-5.83,1.07-.84,2.17-1.65,3.45-2.13.99-.37,1.82-.23,2.19.93.2.63.52,1.16,1.42,1.21Z"/><path class="cls-8" d="m478.89,458.12c.98.09,1.54-.48,2.13-.91,3.21-2.32,6.11-5.01,9.16-7.54,2.27-1.89,4.51-3.84,7.04-5.38.77-.47,1.79-1.43,2.54-.59.66.74-.33,1.68-.84,2.4-2.37,3.33-5.32,6.17-7.95,9.28-.59.7-1.12,1.45-1.65,2.2-.12.18-.32.44-.13.65.23.27.51.11.75-.04,1.31-.79,2.38-1.87,3.49-2.91,2.86-2.67,5.61-5.46,8.67-7.91,1.06-.85,2.15-1.67,3.41-2.21,1.39-.59,1.9-.4,2.53.97.25.54.55.97,1.36,1.05-2.66,2.41-5.21,4.73-7.77,7.05-3.49,3.17-6.99,6.32-10.45,9.52-.68.63-1.41,1.01-2.33,1.05-7.43.33-14.85.17-22.27-.31-.34-.02-.71.01-1.11-.35.6-.59,1.16-1.19,1.77-1.74,6.74-6.07,13.77-11.8,20.73-17.61.93-.77,2.07-1,3.2-1.26.3-.07.7-.14.91.12.27.34,0,.7-.2.98-1.18,1.67-2.65,3.08-4.13,4.49-2.52,2.4-5.05,4.78-7.55,7.18-.51.49-1.08.95-1.3,1.82Z"/><path class="cls-8" d="m513.25,458.07c.99.2,1.58-.42,2.2-.86,2.92-2.1,5.58-4.53,8.33-6.84,2.17-1.82,4.33-3.66,6.65-5.3.75-.53,1.51-1.05,2.37-1.4.48-.2,1.03-.5,1.44-.04.38.42.05.93-.19,1.33-.45.75-.94,1.48-1.48,2.17-2.01,2.59-4.31,4.93-6.46,7.4-.73.84-1.44,1.71-2.11,2.61-.24.32-.71.75-.3,1.13.33.31.73-.12,1.05-.34,1.45-1.01,2.68-2.27,3.96-3.47,2.73-2.57,5.38-5.24,8.36-7.53.92-.71,1.85-1.39,2.95-1.81,1.37-.52,1.82-.34,2.45.97q.35.73,1.27,1.13c-2.12,1.93-4.2,3.84-6.28,5.73-3.87,3.52-7.78,7-11.6,10.57-.99.92-2.04,1.28-3.32,1.32-6.55.23-13.09.1-19.64-.23-.99-.05-1.97-.09-3.08-.33.96-1.18,2.02-2.08,3.05-2.99,6.37-5.64,12.94-11.05,19.49-16.48.99-.82,2.2-1.11,3.42-1.3.8-.13,1.07.22.63.94-.61,1-1.39,1.85-2.23,2.65-2.8,2.68-5.62,5.33-8.41,8.02-.91.87-1.89,1.71-2.51,2.93Z"/><path class="cls-8" d="m410.12,458.11c1,.1,1.63-.58,2.3-1.08,3.22-2.37,6.15-5.08,9.23-7.63,2.27-1.88,4.51-3.83,7.07-5.32.66-.38,1.52-1.12,2.16-.45.66.69-.16,1.49-.58,2.11-1.88,2.79-4.27,5.16-6.47,7.69-.92,1.05-1.84,2.1-2.71,3.19-.38.47-1.15,1.17-.71,1.58.58.54,1.21-.31,1.68-.72,1.85-1.64,3.66-3.33,5.47-5.02,2.19-2.04,4.34-4.13,6.77-5.9.74-.54,1.51-1.05,2.36-1.4,1.4-.57,1.89-.39,2.52.99.25.54.55.97,1.34,1.03-2.38,2.17-4.67,4.26-6.97,6.34-3.78,3.44-7.57,6.86-11.34,10.31-.62.57-1.29.92-2.11.96-7.58.34-15.16.2-22.73-.35-.22-.02-.44-.08-.74-.14.43-.9,1.18-1.4,1.81-1.97,6.75-6.05,13.75-11.8,20.73-17.58.98-.81,2.2-1.09,3.44-1.23.68-.08.89.22.54.85-.55.99-1.32,1.81-2.12,2.58-3.35,3.25-6.72,6.49-10.07,9.74-.38.37-.87.72-.88,1.42Z"/><path class="cls-8" d="m474.98,447.17c-4.09,3.71-8.04,7.31-12,10.91-2.01,1.83-4.09,3.58-6.02,5.49-.98.97-2.06,1.24-3.33,1.29-6.47.23-12.94.1-19.4-.22-1.03-.05-2.07-.06-3.14-.32.37-.85,1.12-1.35,1.75-1.92,6.76-6.1,13.82-11.86,20.83-17.68.92-.76,2.08-.97,3.22-1.19.29-.06.67-.14.86.23.14.29-.06.55-.21.77-.76,1.18-1.73,2.19-2.74,3.16-2.99,2.88-6.01,5.73-9.01,8.61-.4.39-.75.83-1.11,1.26-.12.15-.3.35-.11.51.12.1.41.11.55.04.63-.35,1.26-.7,1.83-1.13,3.8-2.86,7.28-6.11,10.98-9.1,1.71-1.38,3.41-2.77,5.33-3.86.38-.21.79-.37,1.2-.52.31-.11.64-.15.9.11.33.31.16.67.01.99-.59,1.29-1.46,2.38-2.38,3.44-2.3,2.65-4.64,5.28-6.95,7.93-.44.51-.82,1.08-1.19,1.65-.13.19-.22.46-.03.66.21.21.44.06.65-.06.84-.48,1.55-1.12,2.26-1.77,3.17-2.87,6.13-5.96,9.44-8.67,1.24-1.01,2.48-2.02,3.98-2.63,1.33-.55,1.87-.35,2.45.95.25.57.53,1.04,1.37,1.08Z"/><path class="cls-8" d="m614.24,447.22c-4.88,4.43-9.66,8.77-14.45,13.12-1.12,1.02-2.33,1.97-3.36,3.07-.99,1.06-2.14,1.39-3.52,1.44-6.47.22-12.94.09-19.4-.23-1.03-.05-2.06-.07-3.43-.38.77-.7,1.38-1.26,1.99-1.8,6.81-6.11,13.88-11.91,20.93-17.75.92-.76,2.09-.97,3.23-1.17.26-.05.59-.11.78.16.23.32-.02.62-.18.87-1.06,1.57-2.41,2.87-3.76,4.17-2.65,2.54-5.33,5.06-7.99,7.6-.51.49-1.02.99-1.34,1.73.94.27,1.49-.35,2.06-.76,3.09-2.21,5.89-4.79,8.8-7.22,2.15-1.79,4.28-3.61,6.58-5.2.79-.54,1.59-1.07,2.51-1.37.34-.11.72-.2,1.01.11.3.32.13.68-.02,1-.43.95-1.03,1.81-1.71,2.59-2.51,2.9-5.04,5.78-7.55,8.68-.29.33-.58.67-.81,1.04-.26.41-.89.91-.42,1.33.42.37.95-.21,1.32-.53,1.42-1.23,2.82-2.47,4.19-3.76,2.62-2.46,5.16-5.01,8.04-7.18.89-.68,1.81-1.32,2.87-1.71,1.21-.45,1.73-.23,2.28.93q.4.85,1.34,1.22Z"/><path class="cls-8" d="m550.37,445.3c.49.86.28,1.44-.48,2.05-5.77,4.68-11.52,9.38-17.04,14.35-1.1.99-1.56,2.07-1.57,3.54-.01,10.07-.13,20.13-.13,30.2,0,9.99.07,19.97.16,29.96.05,5.35.19,10.7.29,16.05,0,.36.07.75-.21,1.02-1.01,1-1.91,2.13-3.27,2.98-.34-1.97-.22-3.84-.24-5.69-.11-8.59-.14-17.17-.26-25.76-.21-14.82-.13-29.64-.15-44.46,0-.96.08-1.92.07-2.87,0-.76.42-1.26.9-1.75,4.55-4.72,9.41-9.1,14.3-13.46,1.85-1.65,3.75-3.23,5.65-4.82.6-.51,1.2-1.05,1.98-1.33Z"/><path class="cls-8" d="m481.5,445.25c.54,1.03.18,1.58-.54,2.16-5.51,4.49-11,9-16.34,13.71-1.56,1.38-2.24,2.83-2.23,4.95.05,12.82-.07,25.65-.07,38.47,0,7.79.08,15.58.16,23.37.04,4.35.13,8.7.25,13.05.03,1-.21,1.75-.99,2.4-.79.66-1.45,1.47-2.39,2.05-.4-.72-.25-1.45-.26-2.14-.2-8.34-.22-16.69-.31-25.04-.16-14.94-.18-29.88-.18-44.82,0-2.24.07-4.47.1-6.71,0-.6.21-1.07.63-1.49,6.71-6.85,13.77-13.33,21.24-19.35.27-.22.59-.38.93-.6Z"/><path class="cls-8" d="m620.79,445.21c.54.96.3,1.54-.45,2.15-5.55,4.51-11.06,9.06-16.43,13.78-1.53,1.35-2.2,2.78-2.2,4.84.04,12.82-.07,25.65-.07,38.47,0,7.71.08,15.42.16,23.13.04,4.39.12,8.78.25,13.17.03,1.12-.19,2-1.11,2.71-.77.6-1.36,1.43-2.31,1.92-.32-.83-.21-1.63-.23-2.42-.2-8.38-.21-16.77-.3-25.16-.18-16.66-.2-33.31-.16-49.97,0-1.42.46-2.47,1.47-3.47,6.26-6.23,12.76-12.19,19.56-17.82.57-.48,1.2-.89,1.82-1.34Z"/><path class="cls-8" d="m390.14,545.55c0-2.14.02-4.03,0-5.93-.04-4.31-.11-8.62-.16-12.94-.21-18.41-.22-36.82-.2-55.24,0-1.16.13-2.33.01-3.47-.16-1.54.45-2.64,1.51-3.69,6.32-6.23,12.82-12.24,19.67-17.88.52-.43,1.08-.79,1.65-1.2.57,1.06.17,1.66-.61,2.29-5.74,4.65-11.46,9.32-16.94,14.28-1.02.92-1.49,1.91-1.49,3.32-.02,9.5-.17,19.01-.16,28.51.01,12.14.13,24.28.23,36.42.03,3.71.12,7.42.23,11.13.02.78-.13,1.37-.74,1.89-.89.76-1.58,1.76-3.01,2.49Z"/><path class="cls-8" d="m424.82,545.48c-.31-3.51-.27-6.83-.3-10.14-.1-12.06-.18-24.13-.24-36.19-.05-9.07-.06-18.14-.08-27.2,0-1.32.15-2.64.05-3.95-.12-1.52.38-2.65,1.46-3.7,6.39-6.26,12.94-12.35,19.87-18.03.19-.15.36-.33.57-.43.35-.16.72-.81,1.07-.26.27.42.3,1.05-.26,1.5-1.41,1.12-2.8,2.25-4.18,3.4-4.6,3.84-9.28,7.57-13.63,11.71-.66.63-1.03,1.29-1.06,2.27-.16,4.23-.16,8.46-.16,12.7,0,13.22-.02,26.45.05,39.67.04,8.07.24,16.13.4,24.19.02.93-.24,1.61-.92,2.2-.84.71-1.52,1.6-2.62,2.26Z"/><path class="cls-8" d="m493.6,545.52c-.08-2.76-.2-5.33-.22-7.91-.11-11.74-.21-23.48-.28-35.22-.05-8.35-.07-16.7-.08-25.04,0-3.23.13-6.47.06-9.7-.03-1.38.49-2.32,1.4-3.24,3.35-3.37,6.82-6.62,10.34-9.81,3.13-2.84,6.27-5.69,9.59-8.31.13-.1.23-.24.38-.29.43-.17.84-1,1.25-.47.38.5.2,1.21-.46,1.75-5.07,4.09-10.09,8.23-14.99,12.51-3.72,3.26-3.73,3.24-3.74,8.2-.03,10.86-.13,21.73-.1,32.59.03,11.58.17,23.16.27,34.74.02,2.03.08,4.07.17,6.1.03.62-.13,1.05-.58,1.46-.93.84-1.73,1.84-3,2.64Z"/><path class="cls-8" d="m564.15,545.54c-.33-3.57-.28-6.92-.31-10.26-.1-12.22-.18-24.45-.25-36.67-.05-8.79-.06-17.58-.08-26.37,0-1.68.09-3.35.06-5.03-.02-.95.27-1.67.93-2.34,4.31-4.45,8.91-8.59,13.51-12.73,2.34-2.11,4.71-4.2,7.22-6.12.37-.28.86-.99,1.27-.49.43.52.21,1.2-.45,1.73-4.89,3.93-9.72,7.92-14.45,12.04-4.2,3.66-4.3,3.65-4.31,9.15-.05,16.22-.05,32.44,0,48.66.02,7.39.04,14.78.39,22.15.12,2.49-.68,4.09-2.51,5.46-.28.21-.55.44-1.01.8Z"/><path class="cls-7" d="m441.92,603.92c.97,0,1.87.23,2.23,1.23.39,1.07.09,2.03-.84,2.75-.06.05-.13.1-.19.14-2.02,1.46-2.61,1.26-3.15-1.08-.04-.19-.07-.39-.11-.58-.47-2.27-.31-2.46,2.06-2.45Z"/><path class="cls-8" d="m533.86,606.79c.16-2.62.31-5.24.48-7.87.1-1.53.46-1.81,1.93-1.6,2.27.32,3.16,1.17,3.45,3.41.28,2.13-.02,4.22-.77,6.22-.78,2.07-1.93,2.74-4.14,2.61-.75-.04-1.1-.32-1-1.1.07-.55.06-1.11.09-1.67-.01,0-.03,0-.04,0Z"/><path class="cls-2" d="m553.42,515.95c-.15-2.04-.29-4.08-.44-6.11-.4-5.13-.79-10.27-1.23-15.4-.1-1.12.53-1.41,1.41-1.48.92-.07,1.36.38,1.42,1.34.36,6.37.76,12.75,1.15,19.12.13,2.07.22,4.15.42,6.21.1,1.06-.13,1.8-1.21,2.14-1.08.34-1.63-.28-2.08-1.12-3.31-6.28-6.45-12.64-9.58-19.02-.17-.35-.35-.7-.62-1.23,0,1.97-.03,3.72,0,5.48.1,4.67.21,9.34.35,14,.03.92-.27,1.48-1.23,1.52-.99.04-1.28-.55-1.3-1.45-.19-8.14-.39-16.28-.59-24.42-.02-.82-.2-1.76.99-1.98,1.17-.22,1.55.55,1.99,1.45,3.31,6.86,6.67,13.69,10.01,20.54.08.17.19.32.29.48.08-.02.16-.05.24-.07Z"/><path class="cls-3" d="m546.85,473.75c-3.11-.2-6.22-.33-9.33-.12-.92.06-1.24-.34-1.26-1.16-.03-.79.28-1.33,1.15-1.34,1.28-.02,2.56-.02,3.83,0,5.07.06,10.13.13,15.2.17.81,0,1.47.11,1.41,1.13-.06.95-.51,1.37-1.55,1.35-3.15-.06-6.3-.02-9.46-.02Z"/><path class="cls-2" d="m547.68,542.1c3.07,0,6.14,0,9.22,0,.79,0,1.64.03,1.67,1.07.03,1.01-.65,1.28-1.6,1.31-5.91.18-11.81.35-17.72.1-.28-.01-.56-.06-.83-.08-.86-.07-1.33-.51-1.26-1.4.07-.95.78-.81,1.42-.81,3.03.01,6.07,0,9.1,0,0-.07,0-.13,0-.2Z"/><path class="cls-2" d="m581.33,508.55c0-3.87-.03-7.75.02-11.62.01-1.08-.26-1.53-1.43-1.29-.81.17-1.67.12-2.5.21-.78.08-1.43-.1-1.49-.96-.06-.86.6-1.15,1.34-1.21,2.35-.19,4.7-.35,7.04-.52,1.07-.08,2.15-.16,3.22-.24.73-.06,1.45,0,1.48.94.03.9-.58,1.21-1.42,1.24-.96.04-1.91.2-2.86.2-.79,0-.99.31-.97,1.07.1,5.15.17,10.3.23,15.45.04,2.87.02,5.75.08,8.63.02.92-.44,1.39-1.26,1.4-.88.01-1.21-.56-1.2-1.43.02-3.95.01-7.9.01-11.85-.09,0-.19,0-.28,0Z"/><path class="cls-3" d="m582.15,473.72c-2.87-.19-5.75-.32-8.62-.1-.96.07-1.22-.43-1.25-1.18-.03-.78.32-1.32,1.18-1.32,1.08-.01,2.16-.01,3.23,0,4.59.05,9.18.1,13.77.17.77.01,1.81-.27,1.8,1.09,0,1.06-.46,1.36-1.86,1.35-2.75-.02-5.51,0-8.26,0Z"/><path class="cls-2" d="m582.91,542.1c2.91,0,5.82-.01,8.73,0,1.11,0,1.61.69,1.25,1.61-.2.49-.55.73-1.1.75-5.54.2-11.08.37-16.63.11-.4-.02-.81-.04-1.18-.17-.6-.21-.85-.69-.78-1.32.08-.65.47-.81,1.09-.8,2.87.03,5.75.01,8.62.01v-.19Z"/><path class="cls-2" d="m407.52,508.18c0-3.95-.01-7.89.01-11.84,0-.65-.22-.82-.82-.75-.99.11-1.99.16-2.98.25-.73.07-1.43.02-1.51-.91-.08-.97.62-1.2,1.39-1.26,2.35-.18,4.69-.35,7.04-.52,1.11-.08,2.23-.16,3.34-.24.68-.05,1.2.12,1.23.93.03.8-.38,1.17-1.14,1.23-1.07.08-2.15.19-3.22.24-.6.03-.84.25-.83.87.08,5.62.13,11.25.2,16.87.03,2.39.06,4.78.13,7.18.03.97-.37,1.59-1.33,1.62-.99.03-1.23-.74-1.23-1.57,0-4.03,0-8.06,0-12.09-.09,0-.19,0-.28,0Z"/><path class="cls-3" d="m408.39,473.75c-2.87-.21-5.74-.34-8.61-.13-.97.07-1.2-.47-1.22-1.21-.03-.79.34-1.3,1.2-1.3,3.51.03,7.02.06,10.53.1,2.31.02,4.63.08,6.94.07.81,0,1.35.2,1.3,1.11-.05.86-.39,1.38-1.41,1.36-2.91-.05-5.82-.02-8.73-.02Z"/><path class="cls-2" d="m409.2,542.1c2.79,0,5.59,0,8.38,0,.8,0,1.64.03,1.67,1.07.03,1.02-.66,1.28-1.6,1.31-5.39.18-10.77.35-16.16.09-.44-.02-.89-.04-1.3-.19-.59-.21-.85-.71-.75-1.34.1-.64.52-.77,1.13-.76,2.87.03,5.75.01,8.63.01,0-.07,0-.13,0-.2Z"/><path class="cls-2" d="m505.89,505.14c0-3.43.02-6.87-.01-10.3-.01-1.22.58-1.62,1.72-1.74,2.75-.29,5.5-.15,8.26-.21.77-.02,1.11.32,1.12,1.05,0,.78-.25,1.32-1.16,1.32-1.83,0-3.67.04-5.5.04-1.14,0-1.78.4-1.78,1.66,0,2.31-.05,4.63-.11,6.94-.02.64.27.68.8.65,1.91-.11,3.83-.14,5.74-.28,1.02-.07,1.35.4,1.43,1.3.09.98-.39,1.21-1.27,1.26-1.87.11-3.73.35-5.61.47-.73.05-.96.34-.92,1.04.16,3.15.2,6.3.59,9.43.22,1.77.4,1.92,2.19,1.67,1.66-.23,3.32-.46,4.98-.67.84-.11,1.4.19,1.5,1.11.1.89-.26,1.28-1.18,1.41-2.65.35-5.3.71-7.97.88-1.06.07-1.6-.26-1.76-1.39-.6-4.2-.77-8.42-.91-12.65-.03-1,0-1.99,0-2.99h-.15Z"/><path class="cls-3" d="m511.63,473.75c-2.79-.2-5.59-.35-8.38-.13-.99.08-1.45-.27-1.45-1.22,0-.88.46-1.3,1.36-1.29,3.43.04,6.86.07,10.3.1,2.35.03,4.71.09,7.06.08.84,0,1.31.23,1.26,1.14-.05.89-.4,1.36-1.41,1.34-2.91-.05-5.82-.02-8.74-.02Z"/><path class="cls-3" d="m512.52,542.1c2.75,0,5.5,0,8.25,0,.83,0,1.72-.01,1.73,1.12,0,1.04-.72,1.23-1.64,1.27-5.38.18-10.77.34-16.15.09-.36-.02-.72-.04-1.07-.13-.68-.17-.98-.64-.92-1.34.06-.74.53-.83,1.17-.83,2.87.03,5.75.01,8.62.01,0-.07,0-.13,0-.2Z"/><path class="cls-2" d="m612.31,514.78c0-.44-.03-.88,0-1.32.07-.8.65-1.08,1.34-1.07.66.02,1.09.35,1.1,1.13.02,1.48.07,2.96.43,4.4.44,1.79,1.26,2.6,2.54,2.56,1.58-.05,2.72-1.14,2.99-2.9.42-2.75-.28-5.16-2.3-7.1-1.24-1.19-2.55-2.3-3.81-3.47-1.85-1.73-3.27-3.69-3.64-6.3-.59-4.13,3.45-8.24,7.41-7.47,2.57.5,3.65,2.39,4.14,4.72.19.89.18,1.82.24,2.74.05.81-.3,1.31-1.18,1.3-.88,0-1.34-.47-1.33-1.34,0-1.01-.12-2-.49-2.94-.44-1.13-1.12-2.07-2.44-2.2-1.4-.15-2.36.62-3.05,1.73-1.19,1.91-.97,4.48.52,6.4,1.01,1.31,2.32,2.3,3.57,3.36,2.35,2,4.42,4.18,4.88,7.42.2,1.41.13,2.79-.28,4.15-.97,3.19-3.78,4.69-6.97,3.71-1.49-.46-2.41-1.51-2.94-2.94-.55-1.48-.69-3.03-.72-4.59Z"/><path class="cls-3" d="m616.63,473.74c-2.91-.2-5.82-.33-8.73-.12-.9.06-1.11-.39-1.15-1.13-.03-.79.21-1.37,1.11-1.37,1.83,0,3.67.05,5.5.07,4.03.04,8.06.06,12.09.12,1.17.02,1.56.76,1.08,1.83-.3.68-.85.6-1.41.6-2.83,0-5.66,0-8.5,0Z"/><path class="cls-2" d="m617.37,542.1c2.79,0,5.58,0,8.38,0,.78,0,1.63-.02,1.66,1.06.03,1.04-.65,1.29-1.58,1.32-5.38.18-10.77.35-16.16.1-.36-.02-.72-.05-1.07-.12-.68-.15-1.04-.62-.99-1.29.06-.76.56-.89,1.27-.88,2.83.04,5.67.02,8.5.02,0-.07,0-.13,0-.2Z"/><path class="cls-2" d="m369.67,514.73c0-.46,0-.66,0-.86-.05-.94.43-1.47,1.33-1.47.87,0,1.25.55,1.23,1.42-.03,1.28,0,2.55.27,3.81.41,1.91,1.26,2.87,2.54,2.86,1.6-.01,2.75-1.06,3.06-2.95.44-2.65-.27-4.96-2.16-6.91-1.67-1.72-3.65-3.11-5.22-4.93-1.99-2.31-3.02-4.89-2.04-7.95.84-2.62,3.5-4.56,6.13-4.57,2.04,0,3.5.97,4.4,2.76.77,1.53.95,3.19.92,4.89-.01.8-.43,1.17-1.19,1.17-.74,0-1.22-.32-1.29-1.11-.09-.99-.08-2-.44-2.95-.45-1.2-1.08-2.28-2.52-2.42-1.5-.14-2.48.72-3.17,1.94-1.14,2.01-.76,4.61.93,6.55,1.24,1.42,2.76,2.53,4.16,3.78,1.87,1.69,3.44,3.58,3.9,6.15.41,2.3.27,4.54-1.11,6.55-1.23,1.8-3.05,2.17-5.07,1.98-1.9-.18-3.14-1.23-3.85-2.97-.67-1.62-.68-3.35-.82-4.79Z"/><path class="cls-3" d="m373.93,473.75c-2.83-.2-5.66-.34-8.49-.13-.89.07-1.27-.29-1.31-1.11-.04-.85.29-1.4,1.23-1.39,3.47.03,6.94.06,10.41.1,2.35.02,4.71.08,7.06.08.83,0,1.29.21,1.24,1.14-.05.93-.43,1.35-1.41,1.33-2.91-.04-5.82-.02-8.73-.02Z"/><path class="cls-2" d="m374.78,542.1c2.79,0,5.58,0,8.37,0,.79,0,1.62.01,1.65,1.08.03,1.05-.66,1.27-1.59,1.3-5.38.18-10.76.35-16.14.1-.4-.02-.8-.05-1.18-.15-.7-.19-.9-.72-.83-1.39.07-.69.53-.76,1.11-.75,2.87.02,5.74.01,8.62.01,0-.06,0-.13,0-.19Z"/><path class="cls-2" d="m436.9,502.62c0-2.87,0-5.74,0-8.61,0-.81.27-1.42,1.24-1.39.97.04,1.32.6,1.27,1.5-.23,4.55-.36,9.1-.19,13.65.11,2.91.33,5.82,1.14,8.64.25.89.58,1.74,1.11,2.5,1.18,1.67,3.04,1.73,4.32.13.9-1.12,1.27-2.48,1.53-3.85.82-4.27.68-8.58.51-12.88-.1-2.39-.24-4.78-.35-7.17-.04-.77.21-1.36,1.1-1.38.77-.02,1.33.3,1.38,1.15.36,5.69,1.05,11.38.47,17.09-.26,2.55-.68,5.07-1.98,7.34-1.39,2.42-3.76,3.47-6.26,2.84-1.45-.36-2.44-1.31-3.17-2.56-1.56-2.7-1.94-5.71-2.23-8.74-.26-2.75-.25-5.5-.2-8.26h.31Z"/><path class="cls-3" d="m442.86,473.75c-2.87-.21-5.75-.34-8.62-.12-.93.07-1.25-.37-1.29-1.14-.04-.78.28-1.32,1.15-1.36.08,0,.16,0,.24,0,5.79.06,11.58.12,17.36.2,1.08.01,1.44.59,1.15,1.63-.21.74-.72.82-1.38.82-2.87-.02-5.75-.01-8.62-.01Z"/><path class="cls-2" d="m443.68,542.1c2.79,0,5.58,0,8.37,0,.82,0,1.6.08,1.59,1.13,0,.95-.62,1.22-1.53,1.25-5.42.18-10.84.35-16.27.1-.36-.02-.72-.04-1.07-.13-.68-.17-.97-.66-.91-1.34.07-.74.55-.82,1.19-.82,2.87.03,5.75.01,8.62.01,0-.07,0-.13,0-.2Z"/><path class="cls-2" d="m472.98,506.27c.08-3.82-.27-7.8-.04-11.8.08-1.43.45-1.83,1.88-1.89.83-.04,1.57.24,2.3.57,2.9,1.32,5.01,3.48,6.14,6.41,2.25,5.83,2.06,11.64-.66,17.29-.97,2.02-2.48,3.61-4.45,4.72-.52.29-1.07.54-1.64.7-1.79.5-2.64-.11-2.82-1.97-.46-4.61-.45-9.24-.7-14.04Z"/><path class="cls-3" d="m477.29,473.75c-2.87-.2-5.74-.34-8.61-.13-.83.06-1.2-.23-1.24-1.03-.04-.81.14-1.45,1.12-1.47,1.12-.02,2.24-.02,3.35,0,4.71.06,9.41.13,14.12.17.84,0,1.43.18,1.34,1.18-.08.9-.49,1.31-1.47,1.29-2.87-.05-5.74-.02-8.61-.02Z"/><path class="cls-2" d="m477.9,542.1c2.83,0,5.66,0,8.5,0,.77,0,1.63-.05,1.68,1.04.05,1.13-.72,1.32-1.68,1.35-5.35.18-10.69.34-16.04.1-.32-.01-.64-.05-.95-.1-.8-.12-1.21-.61-1.12-1.41.09-.81.7-.79,1.35-.78,2.75.03,5.51.01,8.26.01,0-.07,0-.13,0-.2Z"/><path class="cls-8" d="m475.58,505.94c-.13-3.31-.3-6.62,0-9.93.1-1.07.34-1.22,1.23-.61,2.25,1.52,3.57,3.75,4.39,6.25,1.54,4.7,1.49,9.34-.88,13.8-.73,1.38-1.7,2.6-3,3.53-.69.49-1.03.4-1.12-.5-.39-3.69-.54-7.4-.63-11.1-.01-.48,0-.96,0-1.43Z"/><path class="cls-2" d="m436.27,639.54c.18.75.65,1.61,2.05,1.61,1.07,0,1.64-.42,1.64-1.04s-.18-1.12-3.17-1.66c-7.18-1.3-7.88-3.93-7.88-6.27,0-3.38,3.02-5.93,9.13-5.93,5.59,0,9.28,2,9.57,5.67h-7.51c-.16-.78-.57-1.38-1.79-1.38-.88,0-1.33.34-1.33.86,0,.62.78.94,2.81,1.3,6.71,1.17,8.5,3.46,8.5,6.34,0,3.98-3.69,6.45-9.8,6.45-6.66,0-9.67-2.6-10.22-5.95h8.01Z"/><path class="cls-2" d="m454.62,631.66h-5.51v-4.94h18.95v4.94h-5.46v13.36h-7.98v-13.36Z"/><path class="cls-2" d="m478.21,626.72v11.08c0,1.46.52,2.52,2.16,2.52,1.82,0,2.11-1.35,2.11-2.52v-11.08h8.01v10.82c0,5.04-2.65,7.96-10.3,7.96s-9.98-3.02-9.98-8.11v-10.66h8.01Z"/><path class="cls-2" d="m493.81,626.72h10.82c7.31,0,10.63,4.06,10.63,8.92,0,5.28-3.74,9.39-10.61,9.39h-10.84v-18.3Zm8.01,13.47h1.98c2.29,0,3.07-1.74,3.07-4.39,0-2.08-.44-4.24-3.09-4.24h-1.95v8.63Z"/><path class="cls-2" d="m534.94,638.24h-9.28v1.87h10.45l-.94,4.91h-17.26v-18.3h17.5v4.94h-9.75v1.64h9.28v4.94Z"/><path class="cls-2" d="m538.29,645.03v-18.3h9.15c1.64,3.33,3.28,6.68,4.47,9.26h.18c-.13-1.53-.16-4.42-.16-7.46v-1.79h7.07v18.3h-8.74c-1.27-2.57-3.8-8.27-4.97-10.76h-.16c.21,1.82.23,3.93.23,8.14v2.63h-7.1Z"/><path class="cls-2" d="m566.6,631.66h-5.51v-4.94h18.95v4.94h-5.46v13.36h-7.98v-13.36Z"/><path class="cls-2" d="m589.15,639.54c.18.75.65,1.61,2.05,1.61,1.07,0,1.64-.42,1.64-1.04s-.18-1.12-3.17-1.66c-7.18-1.3-7.88-3.93-7.88-6.27,0-3.38,3.02-5.93,9.13-5.93,5.59,0,9.28,2,9.57,5.67h-7.51c-.16-.78-.57-1.38-1.79-1.38-.88,0-1.33.34-1.33.86,0,.62.78.94,2.81,1.3,6.71,1.17,8.5,3.46,8.5,6.34,0,3.98-3.69,6.45-9.8,6.45-6.66,0-9.67-2.6-10.22-5.95h8.01Z"/></svg>