<?xml version="1.0" encoding="UTF-8"?><svg id="Layer_1" xmlns="http://www.w3.org/2000/svg" viewBox="0 0 350.88 350.88"><defs><style>.cls-1{fill:#f8dac3;}.cls-1,.cls-2,.cls-3,.cls-4,.cls-5,.cls-6,.cls-7,.cls-8,.cls-9{stroke-width:0px;}.cls-2{fill:#23388f;}.cls-3{fill:#f2b385;}.cls-4{fill:#f2b588;}.cls-5{fill:#e56d13;}.cls-6{fill:#e66e13;}.cls-7{fill:#ec914d;}.cls-8{fill:#ec914b;}.cls-9{fill:#fefefe;}</style></defs><path class="cls-5" d="m.02,179.16v-7.19c.26-.79.05-1.6.12-2.39,0-.47,0-.94,0-1.4,0-.46,0-.92,0-1.37-.11-12.72,2.08-25.1,5.38-37.33,2.13-7.92,4.83-15.65,8.06-23.19,3.49-8.13,7.57-15.95,12.24-23.46,4.46-7.17,9.42-13.97,14.83-20.45,4.72-5.65,9.86-10.91,15.23-15.93,7.48-7,15.56-13.26,24.19-18.79,6.94-4.45,14.14-8.4,21.62-11.87,10.59-4.91,21.56-8.68,32.9-11.39,7.7-1.84,15.49-3.19,23.38-3.86,2.06-.17,4.13-.19,6.2-.26,5.95-.2,11.9-.14,17.85-.13,15.38.03,30.32,2.76,44.99,7.23,10.47,3.19,20.53,7.35,30.2,12.45,10.92,5.76,21.11,12.6,30.61,20.5,5.82,4.84,11.25,10.08,16.42,15.58,8.64,9.2,16.13,19.29,22.56,30.16,6.73,11.4,12.14,23.39,16.16,36,3.22,10.11,5.5,20.43,6.84,30.96.59,4.6.66,9.21.83,13.83.18,4.71.07,9.42.1,14.14.09,13.87-2.01,27.44-5.65,40.8-3.38,12.43-8.07,24.34-14.07,35.72-5.42,10.27-11.82,19.91-19.14,28.94-5.19,6.41-10.87,12.37-16.87,17.99-9.71,9.1-20.38,16.94-31.92,23.58-10.78,6.2-22.06,11.24-33.9,15.03-10.22,3.28-20.64,5.64-31.3,6.95-4.57.56-9.17.59-13.76.72h-2.99c-.73.07-1.48-.14-2.2.12h-7.19c-.71-.26-1.45-.05-2.18-.12h-2.97c-9.99.08-19.82-1.26-29.55-3.44-10.75-2.41-21.2-5.76-31.3-10.13-11.74-5.07-22.78-11.38-33.17-18.83-9.52-6.82-18.17-14.62-26.16-23.14-8.6-9.17-16.07-19.23-22.48-30.06-6.74-11.39-12.15-23.38-16.18-35.98-3.24-10.14-5.55-20.49-6.87-31.07-.4-3.22-.44-6.45-.59-9.68-.06-1.35-.15-2.71-.11-4.07,0-.46,0-.91,0-1.37,0-.54,0-1.07,0-1.61-.07-.73.14-1.48-.12-2.2Z"/><path class="cls-9" d="m184.2,350.65c94.29-4.62,168.23-83.85,166.41-178.29C348.79,78.38,273.66,3.02,180.55.34,83.67-2.46,4.89,72.83.23,166.68c-.06.17-.13.18-.21.01C.02,111.54.03,56.4,0,1.25,0,.29.14,0,1.2,0c116.17.03,232.33.03,348.5.03.6,0,1.18-.28,1.18.9-.04,116.49-.04,232.98-.04,349.47v.46h-166.66c-.17-.08-.16-.15.01-.21Z"/><path class="cls-9" d="m.23,184.45c4.39,89.65,76.55,161.81,166.2,166.2.17.06.18.13.01.21-55.11,0-110.23,0-165.34.02-.9,0-1.1-.2-1.1-1.1.02-55.11.02-110.23.02-165.34.08-.17.15-.16.21.01Z"/><path class="cls-7" d="m.24,169.55c-.04.81.22,1.64-.22,2.42v-2.4c.06-.17.13-.18.22-.02Z"/><path class="cls-8" d="m.02,179.16c.42.7.2,1.46.19,2.2-.09.1-.15.09-.19-.04v-2.16Z"/><path class="cls-8" d="m169.52,350.67c.74-.02,1.49-.23,2.2.19h-2.16c-.09-.02-.13-.06-.11-.11.02-.05.05-.08.07-.08Z"/><path class="cls-8" d="m178.91,350.86c.7-.42,1.46-.2,2.2-.19.08.06.09.11.06.14-.03.03-.06.05-.1.05h-2.16Z"/><path class="cls-3" d="m.02,181.32c.06.03.12.04.19.04,0,.55,0,1.11.01,1.66-.08.17-.15.16-.2-.02v-1.68Z"/><path class="cls-3" d="m169.52,350.67c0,.06.02.13.04.19h-1.68c-.18-.05-.19-.11-.02-.2.55,0,1.11,0,1.66.01Z"/><path class="cls-3" d="m181.07,350.86c.02-.06.03-.12.04-.19.55,0,1.11,0,1.66-.01.17.08.16.15-.02.2h-1.68Z"/><path class="cls-1" d="m.02,166.69c.07-.01.14-.02.21-.01,0,.48,0,.95-.01,1.43-.05.18-.11.19-.2.02v-1.44Z"/><path class="cls-4" d="m.02,168.13c.06-.03.13-.03.2-.02,0,.48.01.96.02,1.44-.07,0-.15.01-.22.02v-1.44Z"/><path class="cls-1" d="m.02,183c.06.02.13.03.2.02,0,.48,0,.95,0,1.43h-.1s-.1-.01-.1-.01v-1.44Z"/><path class="cls-1" d="m167.86,350.66c0,.07.01.13.02.2h-1.44c0-.07,0-.14-.01-.21.48,0,.95,0,1.43,0Z"/><path class="cls-1" d="m182.75,350.86c0-.07.02-.13.02-.2.48,0,.95,0,1.43,0,0,.07-.01.14-.01.21h-1.44Z"/><path class="cls-2" d="m176.34,59.26c4.53.09,9.81-.19,15.07.39,8.96.99,17.52,3.47,25.83,6.86,9.72,3.96,18.9,8.95,27.63,14.75,4.19,2.79,7.86,6.28,11.5,9.76,10.07,9.64,18.55,20.5,24.55,33.13,5.76,12.13,9.97,24.79,11.82,38.16.4,2.89.59,5.8.55,8.72-.07,5.99.14,11.98-.41,17.97-1.05,11.49-4.12,22.42-8.79,32.93-5.74,12.91-13.4,24.62-22.58,35.3-4.17,4.85-9.31,8.74-14.44,12.57-14.07,10.52-29.61,17.86-46.86,21.44-11.81,2.46-23.73,3.09-35.75,2.12-13.76-1.11-26.87-4.59-39.28-10.66-10.6-5.18-20.07-11.97-28.64-20.06-7.79-7.35-14.65-15.5-20.7-24.32-3.25-4.73-5.46-10.01-7.71-15.25-4.39-10.24-7.51-20.87-9.04-31.92-1.26-9.02-1.36-18.06-.41-27.12,2.68-25.37,13.57-46.99,30.06-66.07,2.9-3.36,5.91-6.62,9.15-9.65,2.6-2.43,5.62-4.34,8.55-6.36,10.69-7.36,21.93-13.69,34.26-17.94,8.98-3.1,18.18-4.88,27.71-4.75,2.4.03,4.8,0,7.93,0Z"/><path class="cls-6" d="m238.25,177.96c0,8.27.06,16.54-.02,24.81-.06,6.56-1.01,12.97-3.68,19.03-1.73,3.93-4.43,7.1-7.38,10.22-4.3,4.54-9.87,5.64-15.54,6.58-7.3,1.21-14.69,1.43-22.08,1.53-8.15.11-16.29.37-24.44.28-7.78-.08-15.55-.42-23.31-1.21-12.31-1.27-20.03-8.28-24.79-19.15-2.61-5.96-3.74-12.32-3.81-18.78-.15-14.74-.12-29.48-.1-44.23,0-4.15.37-8.29.82-12.42.55-5.07,2.82-9.46,5.46-13.66,5.82-9.26,14.32-14.31,25.12-15.63,2.3-.28,4.61-.4,6.93-.4,15.38,0,30.77.03,46.15-.01,4.08-.01,8.15.24,12.18.76,2.18.28,4.27,1.24,6.4,1.93,11.25,3.65,17.66,11.67,20.53,22.85,1.08,4.2,1.54,8.48,1.55,12.81.03,8.23,0,16.46,0,24.69Z"/><path class="cls-2" d="m180.03,229.04c-8.58.21-16.04.48-23.5.66-7.19.17-14.29-.61-20.84-4-5.08-2.63-8.52-6.67-10.01-12.23-.67-2.51-.74-5.13-.91-7.72-.91-13.77-.51-27.56-.53-41.34,0-5.99.27-11.98.96-17.93.34-2.93.75-5.86,1.86-8.64.5-1.24,1.06-2.43,2.53-2.82.2-.05.37-.29.5-.48,2.93-4.24,7.22-6.27,12.04-7.42,3.44-.82,6.95-1.07,10.46-1.07,16.26-.02,32.53-.02,48.79,0,5.2,0,10.28.7,14.94,3.23,5.93,3.23,9.05,8.47,10.52,14.86.68,2.97.98,5.98.97,9.03,0,16.47.27,32.94-.12,49.39-.18,7.83-2.53,15.3-8.14,21.24-3.39,3.59-7.73,5.18-12.6,5.21-9.35.06-18.7.02-26.94.02Z"/><path class="cls-6" d="m176.37,209.49c-.2,0-.4-.02-.6,0-5.45.7-10.27-1.12-14.93-3.69-6.81-3.75-12.31-8.72-15.13-16.17-1.83-4.83-2.36-9.8-1.58-14.94,1.37-9.05,5.37-16.69,12.3-22.63,6.37-5.46,14.06-6.9,22.21-6.35,5.72.38,11.03,2.24,15.56,5.65,7.22,5.44,12.8,12.28,13.84,21.58,1.47,13.15-2.52,24.65-15.8,32.45-2.31,1.36-4.74,2.46-7.21,3.49-1.09.45-2.19.66-3.38.62-1.76-.05-3.52-.01-5.27-.01Z"/><path class="cls-6" d="m209.35,151.82c-1.16-.04-2.49-.62-3.64-1.62-1.54-1.34-2.6-3.03-3.39-4.88-.49-1.14-.12-2.29.25-3.38.9-2.64,4.31-5.36,6.77-5.46,2.88-.11,5.52,1.81,7,4.8,1.21,2.44,1.04,4.57-.57,6.78-1.79,2.44-3.76,3.8-6.42,3.76Z"/><path class="cls-2" d="m176.36,199.19c-9.4,0-15.65-4.76-19.73-12.92-2.35-4.7-2.13-9.45-.73-14.31,1.49-5.17,3.92-9.69,8.68-12.6,2.57-1.57,5.41-2.35,8.38-2.61,4.3-.37,8.55-.16,12.54,1.72,4.86,2.28,7.66,6.36,9.99,11.02,2.62,5.26,1.85,10.36.04,15.54-1.25,3.59-3,6.88-5.84,9.49-3.77,3.47-8.35,4.67-13.34,4.68Z"/></svg>