<?xml version="1.0" encoding="UTF-8"?><svg id="Layer_1" xmlns="http://www.w3.org/2000/svg" viewBox="0 0 1024 1024"><defs><style>.cls-1{fill:#f8d8c0;}.cls-1,.cls-2,.cls-3,.cls-4,.cls-5,.cls-6,.cls-7,.cls-8,.cls-9,.cls-10,.cls-11,.cls-12{stroke-width:0px;}.cls-2{fill:#f8dcc6;}.cls-3{fill:#23388f;}.cls-4{fill:#ee9d5f;}.cls-5{fill:#f2b588;}.cls-6{fill:#ee9e62;}.cls-7{fill:#eb914d;}.cls-8{fill:#ec924e;}.cls-9{fill:#e66e13;}.cls-10{fill:#e66d13;}.cls-11{fill:#fbfbfb;}.cls-12{fill:#fefefe;}</style></defs><path class="cls-10" d="m391.02,514v-3.84c.26-.78.05-1.59.12-2.38,0-.47,0-.93,0-1.4,0-.39,0-.78,0-1.17-.14-9.92,1.78-19.52,4.68-28.95,2.14-6.97,4.89-13.68,8.26-20.14,4-7.68,8.78-14.83,14.3-21.5,3.29-3.97,6.84-7.71,10.59-11.24,6.78-6.36,14.21-11.86,22.27-16.51,7.82-4.51,16.04-8.07,24.65-10.76,7.15-2.23,14.45-3.77,21.89-4.57,1.86-.2,3.75-.22,5.62-.27,4.07-.11,8.14-.13,12.21-.14,15.54-.06,30.29,3.48,44.51,9.58,10.42,4.47,19.96,10.39,28.72,17.56,4.45,3.64,8.59,7.61,12.48,11.87,4.27,4.67,8.17,9.61,11.67,14.86,7.24,10.86,12.53,22.6,15.96,35.19,1.58,5.79,2.75,11.65,3.37,17.62.21,2.01.24,4.04.31,6.05.13,3.99.13,7.98.15,11.97.07,15.4-3.42,30.04-9.4,44.15-3.68,8.68-8.4,16.77-14,24.35-4.45,6.02-9.43,11.58-14.91,16.66-9.28,8.61-19.64,15.69-31.13,21.04-10.74,5.01-21.99,8.43-33.72,10.13-3.67.53-7.4.54-11.12.59h-2.59c-.95.07-1.91-.15-2.86.12h-2.4c-1.39-.26-2.79-.05-4.19-.12h-1.2c-10.01.16-19.69-1.77-29.22-4.67-7.56-2.3-14.79-5.37-21.74-9.09-6.95-3.72-13.43-8.16-19.55-13.14-4.38-3.56-8.43-7.48-12.25-11.6-6.51-7.02-12.08-14.75-16.75-23.13-5.16-9.26-9.03-19.04-11.65-29.3-1.11-4.33-2.05-8.71-2.49-13.17-.36-3.66-.51-7.34-.46-11.02-.06-1.22.14-2.44-.12-3.65Z"/><path class="cls-12" d="m518.56,632.7c29.32-1.85,54.83-12.71,76.2-32.85,18.98-17.89,31.2-39.76,35.69-65.49,6.89-39.47-3.06-74.44-29.98-104.16-17.84-19.7-40.19-31.78-66.31-36.8-8.14-1.57-16.37-2.29-24.65-2.06-28.94.78-54.55,10.43-76.54,29.31-16.83,14.44-28.71,32.29-35.78,53.31-3.4,10.11-5.33,20.52-5.96,31.17-.06.17-.13.18-.21.01,0-37.67,0-75.34-.02-113.01,0-.86.14-1.12,1.08-1.12,79.89.03,159.78.03,239.67,0,.97,0,1.17.19,1.16,1.17-.03,79.85-.03,159.7,0,239.55,0,1.07-.29,1.2-1.25,1.2-37.71-.03-75.42-.02-113.12-.02-.17-.08-.16-.14.01-.2Z"/><path class="cls-12" d="m391.22,517.88c.38,10.47,2.24,20.68,5.41,30.65,5.82,18.34,15.46,34.41,28.97,48.12,18.26,18.52,40.24,29.99,65.84,34.52,4.52.8,9.08,1.28,13.67,1.53.18.05.18.12.01.2-37.69,0-75.39,0-113.08.02-.86,0-1.04-.18-1.04-1.04.03-38.01.02-76.03.02-114.04.05-.05.1-.11.14-.16.02.07.04.14.06.21Z"/><path class="cls-4" d="m506.3,632.68c1.45,0,2.91-.18,4.33.22h-4.31c-.17-.06-.18-.13-.02-.22Z"/><path class="cls-6" d="m391.22,517.88h-.11s-.09-.05-.09-.05v-3.84c.36,1.28.26,2.58.2,3.88Z"/><path class="cls-8" d="m513.03,632.9c.94-.47,1.93-.15,2.89-.22.16.09.16.16-.02.22h-2.88Z"/><path class="cls-8" d="m391.24,507.75c-.05.81.23,1.64-.22,2.42v-2.4c.06-.17.13-.18.22-.02Z"/><path class="cls-5" d="m391.24,507.75c-.07,0-.14.01-.22.02v-1.44c.05-.18.12-.19.2-.02,0,.48,0,.96.01,1.44Z"/><path class="cls-5" d="m515.91,632.9c0-.07,0-.15.02-.22.48,0,.96.01,1.44.02.17.08.17.15-.02.2h-1.44Z"/><path class="cls-2" d="m391.23,506.31c-.07,0-.14,0-.2.02v-1.2c.07,0,.14-.01.21-.01,0,.4,0,.79,0,1.19Z"/><path class="cls-1" d="m506.3,632.68c.02.07.03.15.02.22h-1.2c0-.07-.01-.13-.01-.2.4,0,.8-.02,1.19-.02Z"/><path class="cls-1" d="m517.35,632.9c0-.07.01-.13.02-.2.4,0,.8,0,1.2,0,0,.07,0,.13-.01.2h-1.2Z"/><path class="cls-3" d="m512.23,581.16c-26.93,0-53.85.01-80.78,0-7.8,0-13.43-3.73-17.13-10.46-1.7-3.1-2.43-6.5-2.43-10.02-.01-34.68,0-69.35,0-104.03,0-3.12.94-4.04,4.12-4.04,8.39-.01,16.78-.03,25.17.02,1.12,0,1.39-.32,1.38-1.4-.05-5.91-.03-11.82-.02-17.74,0-.68.03-1.36.15-2.02.22-1.19.98-1.9,2.18-2.08.71-.11,1.43-.19,2.14-.19,48.34,0,96.68,0,145.01,0,.59,0,1.2.05,1.78.18,1.79.41,2.55,1.38,2.55,3.2,0,42.91,0,85.81,0,128.72,0,6.15-.03,12.3.03,18.45.01,1.15-.28,1.46-1.45,1.45-27.56-.04-55.13-.03-82.69-.03Z"/><path class="cls-11" d="m510.64,610.42c1.48,0,2.96.09,4.42-.04,1.27-.11,1.67.43,1.84,1.56.33,2.13.76,4.24,1.15,6.36.06.3,0,.66.36.84.43-.18.33-.59.36-.91.24-2.3.48-4.6.68-6.91.06-.67.26-.96.99-1.02,1.71-.15,3.41-.38,5.1-.65.76-.12,1.02.14,1.26.83.78,2.3,1.65,4.57,2.48,6.85.12.33.19.68.55.97.31-.44.15-.86.13-1.27-.13-2.43-.26-4.86-.41-7.29-.03-.54.05-.91.68-1.04,1.44-.3,2.88-.63,4.31-.99.64-.16.96-.07,1,.68.29,5.11.24,10.21.24,15.32,0,.5-.22.69-.67.81-2.47.65-4.99,1.06-7.5,1.52-.73.14-.78-.34-.92-.79-.7-2.16-1.4-4.32-2.09-6.48-.12-.37-.15-.78-.57-1.18-.36.92-.32,1.82-.39,2.69-.13,1.71-.22,3.42-.24,5.14,0,.96-.36,1.34-1.33,1.37-2.27.07-4.55.15-6.81.35-1.06.09-1.4-.35-1.6-1.27-.91-4.29-1.87-8.57-2.81-12.85-.06-.6-.76-.85-.78-1.47,0-.46.17-.85.57-1.12Z"/><path class="cls-11" d="m481.17,610.75c-.75,1.54-1.42,2.92-2.08,4.31-.39.83-.78,1.66-1.13,2.51-.33.81-.7,1.1-1.59.56-1.47-.88-3.01-1.63-4.54-2.41-.77-.39-.92-.84-.44-1.61,2.49-4.04,4.97-8.09,7.4-12.16.45-.76.83-.83,1.59-.42,1.79.96,3.62,1.84,5.47,2.69.61.28.79.59.73,1.27-.26,2.89-.07,5.78.15,8.72.56-.07.55-.49.67-.79.82-2.12,1.65-4.23,2.42-6.37.25-.71.55-.95,1.29-.66,1.19.46,2.39.88,3.61,1.26.5.16.6.33.45.85-1.37,4.79-2.73,9.58-4.06,14.38-.18.63-.44.68-1.02.51-2.57-.75-5.09-1.62-7.58-2.6-.66-.26-.9-.62-.9-1.32,0-2.39-.05-4.79-.1-7.18,0-.42.13-.87-.34-1.52Z"/><path class="cls-11" d="m543.18,621.66c-1.87.03-3.31-.73-4.25-2.37-.25-.44-.24-.66.32-.85,1.92-.67,3.82-1.39,5.7-2.14.44-.17.76-.08,1.12.1,1.14.57,2.31.33,3.04-.62.62-.81.33-1.58-.68-1.75-.69-.11-1.34.1-2,.27-1.74.45-3.5.77-5.31.74-3.8-.06-5.68-3.28-3.87-6.64.15-.28.32-.56.53-.8,2.63-2.99,5.99-4.57,9.91-4.92,1.39-.12,2.68.34,3.66,1.44.44.5.48.89-.16,1.24-1.51.82-3,1.65-4.51,2.46-.36.19-.75.29-1.13,0-.94-.68-1.56.06-2.21.53-.24.17-.45.48-.32.84.14.41.49.47.87.48,1.21.02,2.36-.36,3.52-.63,1.24-.29,2.48-.6,3.76-.7,1.92-.15,3.58.29,4.59,2.11,1.02,1.83.68,3.59-.56,5.13-2.53,3.11-5.81,5.04-9.76,5.81-.43.08-.86.16-1.3.21-.32.04-.64.03-.96.05Z"/><path class="cls-11" d="m510.64,610.42c0,.39,0,.78,0,1.18-.26.28.04.67-.19.95-.11,1.84-.11,1.86-1.98,1.69-1.35-.13-2.69-.3-4.03-.5-1.43-.21-1.05.98-1.28,1.65-.31.94.51.68.93.73,1.54.18,3.09.34,4.64.45.6.04.79.23.79.87-.02,2.63.01,2.65-2.59,2.49-1.15-.07-2.31-.16-3.45-.37-1.52-.28-.86.97-1.13,1.53-.35.75.15.95.81,1,1.91.14,3.81.39,5.72.43,1.06.02,1.29.4,1.17,1.33-.09.67-.1,1.35-.08,2.03.02.67-.23.95-.91.89-4.89-.41-9.75-1.02-14.55-2.05-.77-.16-.9-.49-.7-1.26,1.24-4.7,2.44-9.4,3.6-14.12.17-.71.44-.8,1.06-.66,4.01.95,8.09,1.36,12.18,1.73Z"/><path class="cls-7" d="m510.43,612.54c.02-.32-.22-.7.19-.95.07.47.15.94.22,1.42-.14-.16-.28-.31-.42-.47Z"/><path class="cls-10" d="m443.27,574.81c.46-.77.92-1.51,1.34-2.26,2.97-5.22,3.94-10.9,3.94-16.82-.02-39.55-.03-79.1-.04-118.66q0-1.7,1.72-1.7c46.14,0,92.29,0,138.43-.02,1.17,0,1.8.19,1.64,1.51-.07.55.04,1.12.04,1.67,0,35.72,0,71.43,0,107.15,0,5.11.02,10.23-.1,15.34-.09,4.12-1.16,7.91-4.43,10.73-2.44,2.1-5.43,2.79-8.52,3.11-1.03.11-2.07.14-3.11.14-43.07,0-86.13,0-129.2,0-.54,0-1.1.14-1.7-.19Z"/><path class="cls-9" d="m417.91,510.64c0-16.7,0-33.4,0-50.1q0-1.79,1.73-1.8c7.19,0,14.38.02,21.57-.02,1.06,0,1.33.3,1.33,1.35-.03,28.24.02,56.49-.06,84.73-.01,5.02.3,10.07-.4,15.08-.41,2.91-.59,5.83-1.88,8.6-3.7,7.97-13.23,8.56-18.46,2.44-2.52-2.95-3.83-6.31-3.83-10.18,0-16.7,0-33.4,0-50.1Z"/><path class="cls-3" d="m519.38,500.1c-17.65,0-35.31-.01-52.96.02-1.11,0-1.48-.2-1.48-1.41.05-14.42.04-28.84,0-43.26,0-1.12.34-1.37,1.41-1.37,35.39.03,70.78.03,106.17,0,1.13,0,1.47.25,1.47,1.43-.04,14.42-.04,28.84,0,43.26,0,1.14-.35,1.35-1.4,1.35-17.73-.03-35.47-.02-53.2-.02Z"/><path class="cls-3" d="m548.4,520.67c-7.74,0-15.49,0-23.23,0-.72,0-1.44-.04-2.13-.28-1.27-.43-1.98-1.47-1.97-2.83,0-1.37.73-2.39,2.01-2.79.65-.2,1.32-.26,2.01-.26,15.69,0,31.37,0,47.06,0,.61,0,1.2.05,1.77.23,1.33.41,2.18,1.62,2.12,2.99-.06,1.33-.94,2.4-2.27,2.74-.7.18-1.42.2-2.14.2-7.74,0-15.49,0-23.23,0Z"/><path class="cls-3" d="m548.63,537.93c-7.67,0-15.34,0-23.01,0-.85,0-1.68-.05-2.48-.31-1.42-.45-2.1-1.41-2.07-2.85.03-1.39.8-2.4,2.23-2.73.77-.18,1.58-.26,2.37-.26,15.38-.01,30.76-.01,46.13,0,.67,0,1.36.06,2.02.21,1.4.33,2.23,1.46,2.22,2.89-.01,1.45-.84,2.53-2.26,2.84-.66.14-1.34.2-2.02.2-7.71.01-15.42,0-23.13,0Z"/><path class="cls-3" d="m548.55,549.11c7.75,0,15.5,0,23.24,0,.6,0,1.2.02,1.79.12,1.5.25,2.41,1.33,2.45,2.81.04,1.55-.84,2.66-2.39,2.96-.62.12-1.27.18-1.9.18-15.54,0-31.07,0-46.61.01-.69,0-1.36-.06-2.01-.27-1.35-.43-2.1-1.5-2.06-2.89.04-1.37.85-2.43,2.22-2.76.61-.14,1.27-.17,1.9-.17,7.79-.01,15.58,0,23.36,0Z"/><path class="cls-3" d="m491.26,531.85c5.68-.19,12.78.03,19.89,0,.6,0,1.2.02,1.79.11,1.62.25,2.48,1.26,2.49,2.85.01,1.61-.83,2.65-2.43,2.91-.82.13-1.67.18-2.5.18-14.06.01-28.12,0-42.18.01-.72,0-1.44-.03-2.13-.24-1.41-.42-2.17-1.57-2.07-3.11.08-1.34.99-2.33,2.36-2.64.95-.22,1.91-.09,2.86-.09,6.83,0,13.66,0,21.92,0Z"/><path class="cls-3" d="m488.42,549.11c7.35,0,14.69,0,22.04,0,2.38,0,3.63,1.16,3.53,3.23-.07,1.36-.84,2.34-2.19,2.63-.62.14-1.26.2-1.9.2-14.37.01-28.75,0-43.12.01-.69,0-1.36-.08-2.01-.27-1.37-.4-2.13-1.44-2.1-2.84.02-1.41.79-2.45,2.17-2.79.61-.15,1.26-.18,1.9-.18,7.23-.01,14.45,0,21.68,0Z"/><path class="cls-3" d="m488.27,514.52c7.23,0,14.46,0,21.69,0,.69,0,1.36.05,2.01.25,1.33.42,2.05,1.47,2.02,2.91-.02,1.4-.81,2.48-2.18,2.78-.77.17-1.58.22-2.38.22-11.58.01-23.17.01-34.75,0-2.79,0-5.59-.04-8.38-.08-.4,0-.8-.04-1.19-.11-2.34-.44-3.08-2.32-1.71-4.27.81-1.16,1.79-1.74,3.3-1.72,7.19.07,14.38.03,21.57.03Z"/><path class="cls-9" d="m537.54,477.73c.4-2.33.77-4.51,1.14-6.7.25-1.49.51-2.99.74-4.49.08-.55.28-.86.9-.85,1.44.03,2.87.02,4.31,0,.57,0,.75.16.63.79-1.36,6.88-2.68,13.77-4.02,20.66-.19.96-.76,1.45-1.76,1.44-1.2,0-2.4-.06-3.59.02-.82.05-1.08-.29-1.26-1.02-.93-3.92-1.91-7.82-2.87-11.73-.09-.38-.13-.79-.42-1.15-.48.36-.42.93-.54,1.39-.96,3.83-1.92,7.66-2.81,11.5-.18.78-.49,1.05-1.27,1.01-1.19-.06-2.39-.02-3.59-.02-.98,0-1.53-.42-1.73-1.43-1.31-6.81-2.65-13.62-4-20.42-.16-.8-.05-1.18.89-1.13,1.27.07,2.56.05,3.83,0,.7-.03.96.2,1.08.9.55,3.46,1.16,6.92,1.76,10.38.04.22-.02.49.3.68.34-.29.35-.74.45-1.13.82-3.29,1.64-6.57,2.42-9.87.16-.69.43-1.01,1.19-.96,1.11.07,2.25.12,3.35,0,1.28-.15,1.69.4,1.95,1.57.71,3.23,1.57,6.43,2.36,9.64.07.27.07.56.55.93Z"/><path class="cls-9" d="m479.2,477.13c0,3.35-.05,6.7.03,10.04.02,1.09-.33,1.39-1.36,1.32-1.19-.08-2.39-.04-3.59-.01-.66.02-.92-.22-.91-.9.02-7.06.01-14.13,0-21.19,0-.62.22-.84.84-.82,1.04.04,2.08.09,3.11-.01,1.32-.13,2.05.5,2.68,1.56,2.1,3.57,4.26,7.11,6.4,10.68.45-.26.27-.61.27-.88.02-3.35.05-6.71-.01-10.06-.02-.98.31-1.23,1.22-1.18,1.19.07,2.39.04,3.59,0,.69-.02.98.15.98.92-.03,7.02-.03,14.05,0,21.08,0,.77-.26.95-.97.91-1-.05-2-.07-2.99,0-1.24.09-2-.47-2.63-1.48-1.84-2.99-3.72-5.95-5.6-8.92-.25-.4-.53-.77-.8-1.16-.09.03-.17.05-.26.08Z"/><path class="cls-9" d="m497.93,477.11c0-3.43.02-6.87-.02-10.3,0-.78.13-1.13,1.03-1.12,4.83.04,9.66.03,14.49,0,.8,0,1.05.28,1.01,1.05-.07,1.15.35,2.63-.22,3.36-.61.78-2.16.23-3.3.26-1.96.04-3.91.03-5.87,0-.64-.01-.9.12-.92.84-.08,2.97-.11,2.96,2.88,2.96,1.92,0,3.83.02,5.75-.01.67-.01.94.21.9.89-.08,1.19.47,2.68-.22,3.49-.67.78-2.18.22-3.32.25-1.72.05-3.43.03-5.15,0-.62-.01-.85.19-.83.82.04,1,.06,2,0,2.99-.05.77.27.93.97.93,2.79-.03,5.59.04,8.38-.04,1.03-.03,1.32.31,1.22,1.28-.08.87-.07,1.76,0,2.63.07.85-.15,1.18-1.1,1.17-4.87-.05-9.74-.05-14.61,0-.94,0-1.12-.31-1.1-1.16.05-3.43.02-6.87.02-10.3Z"/><path class="cls-9" d="m556.81,465.28c1.07.11,2.14.16,3.21.33,2.81.45,4.73,2.69,4.88,5.56.03.64-.18.85-.79.88-1.23.06-2.47.13-3.7.28-.77.09-1.1-.17-1.37-.9-.84-2.25-2.64-2.64-4.41-1.07-.4.35-.5.59-.21,1.09.47.79,1.03,1.36,1.96,1.62,1.5.41,3,.83,4.45,1.39,3.62,1.39,5.21,3.86,4.91,7.44-.29,3.49-2.64,6.15-6.19,6.83-2.25.43-4.55.41-6.77-.22-3.59-1.01-4.69-3.81-5.19-6.9-.09-.56.33-.57.67-.6,1.43-.12,2.86-.21,4.29-.33.47-.04.71.13.85.6.17.57.38,1.14.67,1.66,1.12,1.95,3.59,2.12,5.02.38.98-1.2-.06-3.29-1.94-3.81-1.66-.46-3.27-1.04-4.85-1.7-3.5-1.48-4.91-4.66-3.67-8.23.78-2.24,2.34-3.58,4.68-3.94,1.14-.18,2.3-.23,3.47-.35Z"/></svg>