<?xml version="1.0" encoding="UTF-8"?><svg id="Layer_1" xmlns="http://www.w3.org/2000/svg" viewBox="0 0 1024 1024"><defs><style>.cls-1{fill:#f8d8c0;}.cls-1,.cls-2,.cls-3,.cls-4,.cls-5,.cls-6,.cls-7,.cls-8,.cls-9,.cls-10,.cls-11,.cls-12,.cls-13{stroke-width:0px;}.cls-2{fill:#f8dcc6;}.cls-3{fill:#23388f;}.cls-4{fill:#ee9d5f;}.cls-5{fill:#f2b588;}.cls-6{fill:#ee9e62;}.cls-7{fill:#e56d13;}.cls-8{fill:#ec924e;}.cls-9{fill:#e66e14;}.cls-10{fill:#e66e13;}.cls-11{fill:#e66f15;}.cls-12{fill:#fbfbfb;}.cls-13{fill:#fefefe;}</style></defs><path class="cls-7" d="m391.02,514v-3.84c.26-.78.05-1.59.12-2.38,0-.47,0-.93,0-1.4,0-.39,0-.78,0-1.17-.14-9.92,1.78-19.52,4.68-28.95,2.14-6.97,4.89-13.68,8.26-20.14,4-7.68,8.78-14.83,14.3-21.5,3.29-3.97,6.84-7.71,10.59-11.24,6.78-6.36,14.21-11.86,22.27-16.51,7.82-4.51,16.04-8.07,24.65-10.76,7.15-2.23,14.45-3.77,21.89-4.57,1.86-.2,3.75-.21,5.62-.27,4.07-.11,8.14-.13,12.21-.14,15.54-.06,30.29,3.48,44.51,9.58,10.42,4.47,19.96,10.39,28.72,17.56,4.45,3.64,8.59,7.61,12.48,11.87,4.27,4.67,8.17,9.61,11.67,14.86,7.24,10.85,12.53,22.6,15.96,35.19,1.58,5.79,2.75,11.65,3.37,17.62.21,2.01.24,4.04.31,6.06.13,3.99.13,7.98.15,11.97.07,15.4-3.42,30.04-9.4,44.15-3.68,8.68-8.4,16.77-14,24.35-4.45,6.02-9.43,11.58-14.91,16.66-9.28,8.61-19.64,15.69-31.13,21.04-10.74,5.01-21.99,8.43-33.72,10.13-3.67.53-7.4.54-11.12.59h-2.59c-.95.07-1.91-.15-2.86.12h-2.4c-1.39-.26-2.79-.05-4.19-.12h-1.2c-10.01.16-19.69-1.77-29.22-4.67-7.56-2.3-14.78-5.37-21.73-9.09-6.95-3.72-13.43-8.16-19.55-13.14-4.38-3.56-8.43-7.48-12.25-11.6-6.51-7.02-12.08-14.75-16.75-23.13-5.16-9.26-9.03-19.03-11.65-29.3-1.11-4.33-2.05-8.71-2.49-13.17-.36-3.66-.51-7.34-.46-11.02-.06-1.22.14-2.44-.12-3.65Z"/><path class="cls-13" d="m518.56,632.7c29.28-1.85,54.75-12.69,76.11-32.77,18.34-17.24,30.08-38.33,35.35-62.98,1.89-8.86,2.77-17.83,2.57-26.88-.59-26.08-8.48-49.74-24.26-70.54-18.64-24.57-43.19-40.06-73.47-45.98-26.15-5.11-51.48-1.98-75.45,9.76-30.44,14.9-51.14,38.61-62.21,70.64-3.49,10.08-5.34,20.51-5.97,31.16-.06.17-.13.18-.21.01,0-37.67,0-75.34-.02-113.01,0-.86.14-1.12,1.08-1.12,79.89.03,159.78.03,239.67,0,.97,0,1.17.19,1.16,1.17-.03,79.85-.03,159.7,0,239.55,0,1.07-.29,1.2-1.25,1.2-37.71-.03-75.42-.02-113.12-.02-.17-.08-.16-.14.01-.2Z"/><path class="cls-13" d="m391.22,517.88c.38,10.47,2.24,20.68,5.41,30.65,5.82,18.34,15.46,34.41,28.97,48.12,18.26,18.52,40.24,29.99,65.84,34.52,4.52.8,9.08,1.28,13.67,1.53.18.05.18.12.01.2-37.69,0-75.39,0-113.08.02-.86,0-1.04-.18-1.04-1.04.03-38.01.02-76.03.02-114.04.05-.05.1-.11.14-.16.02.07.04.14.06.21Z"/><path class="cls-4" d="m506.3,632.68c1.45,0,2.91-.18,4.33.22h-4.31c-.17-.06-.18-.13-.02-.22Z"/><path class="cls-6" d="m391.22,517.88h-.11s-.09-.05-.09-.05v-3.84c.36,1.28.26,2.58.2,3.88Z"/><path class="cls-8" d="m513.03,632.9c.94-.47,1.93-.15,2.89-.22.16.09.16.16-.02.22h-2.88Z"/><path class="cls-8" d="m391.24,507.75c-.05.81.23,1.64-.22,2.42v-2.4c.06-.17.13-.18.22-.02Z"/><path class="cls-5" d="m391.24,507.75c-.07,0-.14.01-.22.02v-1.44c.05-.18.12-.19.2-.02,0,.48,0,.96.01,1.44Z"/><path class="cls-5" d="m515.91,632.9c0-.07,0-.15.02-.22.48,0,.96.01,1.44.02.17.08.17.15-.02.2h-1.44Z"/><path class="cls-2" d="m391.23,506.31c-.07,0-.14,0-.2.02v-1.2c.07,0,.14-.01.21-.01,0,.4,0,.79,0,1.19Z"/><path class="cls-1" d="m506.3,632.68c.02.07.03.15.02.22h-1.2c0-.07-.01-.13-.01-.2.4,0,.8-.02,1.19-.02Z"/><path class="cls-1" d="m517.35,632.9c0-.07.01-.13.02-.2.4,0,.8,0,1.2,0,0,.07,0,.13-.01.2h-1.2Z"/><path class="cls-3" d="m573.2,437.72c-2.84.88-5.58,1.72-8.31,2.57-16.3,5.08-32.59,10.16-48.88,15.24-1.99.62-2.26.98-2.26,3.07,0,13.3,0,26.6,0,39.91,0,.89-.06,1.76-.29,2.61-.45,1.73-1.93,2.85-3.7,2.82-1.8-.03-3.3-1.25-3.7-3.01-.17-.74-.2-1.5-.2-2.26,0-13.54,0-27.09,0-40.63,0-2.02-.12-2.18-2.05-2.78-18.54-5.78-37.08-11.56-55.62-17.34-2.07-.65-1.78-.57-1.78,1.3,0,29.84,0,59.68,0,89.53,0,2.4-.03,4.79-.04,7.19,0,2.49.19,2.75,2.53,3.48,14.66,4.57,29.31,9.13,43.97,13.7.72.23,1.45.47,2.13.79,2.06.97,2.91,2.96,2.15,4.95-.77,2.02-2.66,2.92-4.89,2.25-5.12-1.54-10.23-3.1-15.33-4.69-11.46-3.57-22.91-7.16-34.37-10.75-3.33-1.04-4.07-2.03-4.07-5.54,0-35.63,0-71.27,0-106.9,0-.04,0-.08,0-.12.03-4.19,2.23-5.8,6.25-4.55,9.14,2.85,18.27,5.71,27.41,8.56,12.03,3.75,24.06,7.49,36.08,11.27,1.44.45,2.78.44,4.21,0,20.64-6.41,41.29-12.8,61.88-19.37.6-.19,1.23-.35,1.86-.42,2.73-.32,4.66,1.26,4.88,4.02.09,1.11.02,2.23.02,3.35,0,20.97,0,41.95,0,62.92,0,1.31.05,2.64-.24,3.94-.41,1.87-1.87,3.08-3.74,3.07-1.87-.01-3.33-1.23-3.73-3.09-.19-.87-.2-1.74-.2-2.62,0-20.29,0-40.59,0-60.88v-1.58Z"/><path class="cls-3" d="m596.29,532.14c-4.38,1.3-8.54,2.53-12.7,3.77-12.35,3.67-24.7,7.33-37.03,11.03-2.06.62-4.05.63-6.11.02-8.29-2.48-16.59-4.92-24.89-7.37-.49-.15-.99-.28-1.61-.46v1.31c0,10.31.02,20.61-.02,30.92,0,.99.25,1.37,1.25,1.53,8.01,1.27,16.06,2.09,24.18,2.29,10.69.26,21.29-.53,31.85-2.21,2-.32,2-.29,2-2.29,0-6.31,0-12.62,0-18.94,0-.85.05-1.68.35-2.48.6-1.62,2.1-2.68,3.65-2.6,1.8.09,3.21,1.22,3.67,2.92.2.74.24,1.49.24,2.25,0,7.63,0,15.26,0,22.89,0,3.34-1.07,4.58-4.35,5.22-11.12,2.15-22.35,3.26-33.68,3.21-8.44-.04-16.81-.93-25.15-2.15-2.57-.38-5.13-.77-7.7-1.08-3.14-.39-4.34-1.68-4.34-4.87,0-12.06,0-24.13,0-36.19,0-2.01-.23-2.28-2.15-2.85-5.89-1.75-11.78-3.48-17.65-5.28-2.67-.82-3.79-2.88-2.97-5.23.53-1.5,1.75-2.2,3.19-2.63,5.12-1.52,10.24-3.05,15.36-4.58,13.03-3.9,26.06-7.79,39.08-11.7,1.82-.55,3.58-.56,5.41-.01,17.91,5.37,35.84,10.71,53.76,16.07,3.49,1.04,4.2,2.01,4.21,5.66,0,5.15.02,10.31.04,15.46,0,2.76.78,5.35,1.73,7.9.2.52.43,1.03.62,1.56.51,1.4.28,2.67-.72,3.78-1.02,1.13-2.31,1.64-3.78,1.23-1.24-.35-2.38-.41-3.62-.02-1.57.48-2.93-.11-3.96-1.34-1.13-1.35-1.13-2.91-.37-4.39,1.48-2.87,2.22-5.88,2.23-9.09.01-3.7,0-7.4,0-11.25Z"/><path class="cls-12" d="m524.49,610.55c3.31.96,3.42,3.84,4.33,6.34.73-3.1,1.47-6.2,2.18-9.3.41-1.79.79-3.59,1.14-5.39.09-.43.18-.68.7-.77,2.4-.4,4.79-.84,7.19-1.29.5-.1.72.16.95.52,2.8,4.56,5.6,9.11,8.59,13.55.36.53.25.76-.33.88-1.95.42-3.9.84-5.85,1.26-.7.15-1.22.08-1.42-.78-.25-1.09-.88-1.58-2.09-1.15-.74.27-1.56.44-2.34.43-1.26-.01-1.68.64-1.67,1.74.01.91-.43,1.18-1.29,1.32-3.9.64-7.85.73-11.77,1.1-.86.08-1.25-.27-1.4-1.06-.19-1.02-.45-2.03-.62-3.05-.18-1.02-.8-1.37-1.77-1.39-.65-.01-.92.12-.87.86.11,1.39.08,2.79.15,4.19.02.51-.13.72-.66.73-1.95.03-3.91.09-5.86.16-.84.03-1.08-.34-1.05-1.15.14-4.83.23-9.66.33-14.48.01-.51-.03-.91.71-.92,3.75-.05,7.5-.21,11.26-.2,2.7,0,4.4,1.81,4.25,4.27-.11,1.74-1.34,2.63-2.8,3.6Z"/><path class="cls-12" d="m560.42,604.05c-.26-2.26-.45-4.29-.73-6.32-.38-2.74-.4-2.73,2.22-3.75,1.71-.67,3.42-1.34,5.09-2.08.69-.31,1.05-.26,1.38.48,1.96,4.41,4.11,8.73,5.98,13.18.37.87.2,1.27-.65,1.59-1.38.52-2.76,1.06-4.08,1.7-.94.45-1.34.01-1.64-.73-.75-1.89-1.47-3.79-2.21-5.68-.17-.44-.36-.87-.54-1.31-.53.16-.36.52-.33.81.23,2.42.42,4.85.73,7.27.1.81-.17,1.16-.87,1.38-1.33.42-2.66.84-3.97,1.33-.74.28-1.15.12-1.55-.57-1.39-2.33-2.84-4.62-4.27-6.93-.12-.19-.17-.46-.56-.5-.2.47.08.9.19,1.31.61,2.31,1.24,4.62,1.93,6.91.21.7.13.99-.62,1.16-1.44.33-2.85.75-4.27,1.17-.54.16-.85.19-1.02-.5-1.21-4.92-2.45-9.82-3.7-14.73-.13-.49.1-.66.49-.76,2.54-.67,5.09-1.33,7.63-2.03.59-.16.75.15.99.56,1.14,2.01,2.31,4.01,3.47,6.01.19.32.32.7.94,1.04Z"/><path class="cls-12" d="m467.38,603.75c1.72,1.47,2.05,3.26,1.63,5.27-.15.74-.26,1.49-.31,2.25-.1,1.47-.09,1.5-1.47,1.08-1.56-.47-3.1-1.03-4.67-1.47-.97-.27-1.15-.81-.94-1.68.21-.89.34-1.8.53-2.69.27-1.26-.1-1.83-1.32-2.25-.53-.18-.7-.02-.86.44-.47,1.31-.99,2.6-1.45,3.92-.2.59-.52.73-1.07.5-1.92-.78-3.83-1.56-5.76-2.31-.56-.22-.6-.46-.37-.99,2.02-4.55,4.02-9.1,6.01-13.67.23-.53.44-.77,1.05-.48,3.18,1.48,6.54,2.52,9.8,3.8.93.37,1.81.84,2.51,1.58,1.9,2.03,1.16,5.19-1.44,6.15-.56.21-1.14.33-1.87.54Z"/><path class="cls-12" d="m508.88,614.27c-.05,1.2-.14,2.39-.15,3.59,0,.6-.23.88-.8.97-4.46.73-8.91.9-13.17-.91-3.24-1.38-4.86-4.5-4.41-7.99.58-4.41,2.84-6.99,6.79-7.72,2.68-.5,5.33-.28,7.93.5,2.23.67,3.39,2.25,3.56,4.56.04.57-.06.85-.66.81-1.75-.12-3.5-.25-5.25-.36-.33-.02-.46-.21-.61-.47-.87-1.53-2.72-1.57-3.56.02-.97,1.84-1.18,3.87-.84,5.93.13.76.69,1.23,1.43,1.48.89.3,1.81.24,2.73.24.81,0,.84-.5.9-1.1.07-.72-.36-.73-.88-.8-.55-.07-1.43.31-1.57-.4-.21-.99-.12-2.06.23-3.05.11-.31.48-.23.75-.22,2.31.15,4.62.33,6.93.46.67.04.86.28.8.97-.09,1.15-.02,2.31-.02,3.47h-.13Z"/><path class="cls-12" d="m481.22,616.09c-2.03.02-3.97-.41-5.8-1.25-4.22-1.94-5.79-5.92-4.1-10.26,2.07-5.3,6.99-7.27,12.8-5.15,2.99,1.09,5,3.11,5.4,6.27.44,3.46-.21,6.7-3.2,9.01-1.51,1.17-3.28,1.36-5.1,1.38Z"/><path class="cls-3" d="m490.73,470.79c.04,3.44-2.4,5.18-5.38,4.28-4.92-1.48-9.82-3.03-14.72-4.57-2.17-.68-4.34-1.35-6.46-2.15-2.18-.81-3.05-2.6-2.44-4.65.57-1.93,2.49-3.12,4.61-2.68,2.7.55,5.27,1.55,7.9,2.36,4.34,1.35,8.67,2.72,13,4.07.81.25,1.56.61,2.21,1.16.83.71,1.29,1.61,1.3,2.17Z"/><path class="cls-3" d="m532.98,475.2c-2.34,0-3.55-.92-3.98-2.94-.42-1.98.45-3.71,2.51-4.47,2.43-.9,4.92-1.63,7.39-2.4,4.3-1.35,8.6-2.68,12.9-4.03,1.12-.35,2.24-.62,3.41-.29,1.57.44,2.67,1.76,2.83,3.36.15,1.54-.68,3.06-2.2,3.8-1.95.94-4.07,1.41-6.11,2.07-4.82,1.54-9.67,3.01-14.51,4.51-.77.24-1.54.44-2.24.39Z"/><path class="cls-3" d="m528.88,489.5c.09-1.75,1.08-2.96,2.8-3.53,2.95-.99,5.91-1.93,8.88-2.87,3.76-1.19,7.54-2.35,11.31-3.53.73-.23,1.46-.38,2.23-.38,1.97.01,3.33.97,3.76,2.68.51,2.04-.17,3.69-2.06,4.58-2.35,1.11-4.9,1.68-7.36,2.46-4.37,1.39-8.75,2.75-13.13,4.1-1.14.35-2.28.71-3.51.36-1.78-.5-2.94-1.97-2.91-3.88Z"/><path class="cls-3" d="m465.57,479.15c1.79.07,3.41.81,5.07,1.32,5.52,1.7,11.02,3.45,16.53,5.19.42.13.83.28,1.22.47,1.99.98,2.74,2.7,2.08,4.76-.58,1.81-2.33,2.93-4.34,2.52-1.83-.37-3.61-.98-5.4-1.53-5.06-1.57-10.11-3.17-15.16-4.76-.88-.28-1.72-.63-2.46-1.2-1.47-1.13-1.93-2.49-1.37-4.09.62-1.77,2-2.74,3.81-2.68Z"/><path class="cls-12" d="m571.24,593.51c-.1-1.14.35-2.25,1.12-3.2,2.29-2.81,5.28-4.47,8.86-4.96,1.51-.21,2.94.16,4.03,1.38.45.5.48.87-.14,1.23-1.45.83-2.9,1.68-4.35,2.52-.42.24-.82.31-1.21-.05-.19-.17-.42-.24-.67-.14-.75.3-1.71.67-1.55,1.57.17.99,1.18.59,1.81.45,1.63-.36,3.23-.91,4.87-1.23,1.89-.37,3.77-.36,5.17,1.32,1.35,1.62,1.51,3.81.17,5.66-2.67,3.68-6.32,5.81-10.85,6.26-1.7.17-3.07-.67-4.04-2.11-.26-.39-.23-.58.23-.79,1.7-.79,3.37-1.63,5.05-2.47.49-.24.92-.16,1.34.14.43.31.88.35,1.35.11.8-.41,1.7-.86,1.38-1.92-.31-1.05-1.32-.77-2.05-.58-2.05.52-4.05,1.23-6.19,1.25-2.72.02-4.31-1.56-4.33-4.42Z"/><path class="cls-12" d="m449.74,598.86c-1.99-.09-3.83-.74-5.55-1.68-.81-.44-1.18-.25-1.55.51-.48,1-1.08,1.95-1.58,2.95-.32.63-.66.78-1.31.41-1.7-.96-3.4-1.91-5.15-2.78-.87-.43-.66-.95-.32-1.53,1.02-1.76,2.05-3.51,3.09-5.25,1.4-2.36,2.83-4.71,4.2-7.09.36-.62.63-.73,1.29-.38,2.98,1.6,6,3.12,8.98,4.72,3.01,1.62,3.94,4.82,2.28,7.73-.92,1.62-2.4,2.43-4.37,2.39Z"/><path class="cls-3" d="m479.99,505.05c0,3.35-2.19,5.1-4.95,4.39-3.71-.95-7.35-2.15-10.95-3.44-2.07-.74-2.97-2.63-2.36-4.72.59-2.02,2.33-3.12,4.45-2.61,4,.95,7.88,2.28,11.75,3.66,1.42.51,2.03,1.72,2.05,2.73Z"/><path class="cls-10" d="m585.94,526.93c-2.06.64-4.03,1.27-6,1.85-11.46,3.41-22.92,6.8-34.38,10.24-1.44.43-2.77.42-4.21-.01-12.9-3.89-25.81-7.72-38.72-11.58-.53-.16-1.08-.25-1.65-.7,2.84-.85,5.58-1.66,8.32-2.48,10.81-3.22,21.62-6.43,32.43-9.67,1.19-.36,2.31-.38,3.51-.02,13.02,3.91,26.04,7.78,39.06,11.67.52.16,1.08.23,1.64.71Z"/><path class="cls-9" d="m536.21,609.7c.18-1.62.37-3.24.55-4.85.02-.19,0-.43.24-.5.29-.08.42.13.52.36.79,1.82,1.69,3.59,2.34,5.47.18.51.02.7-.48.76-.47.06-.94.16-1.41.25q-1.86.36-1.76-1.48Z"/><path class="cls-11" d="m518.94,606.05c1.73.03,2.51.57,2.52,1.69.01,1.24-1.36,2.5-2.86,2.13-1.37-.34-.51-1.84-.72-2.8-.22-.99.41-1.12,1.06-1.02Z"/><path class="cls-11" d="m463.81,601.13c-.25,0-.29,0-.33,0-1.95-.04-2.13-.29-1.48-2.06.08-.22.12-.48.26-.66.32-.41.1-1.43,1-1.18,1.02.28,2.12.67,2.41,1.88.19.78-.26,1.39-.93,1.76-.33.18-.75.22-.93.27Z"/><path class="cls-10" d="m477.35,608.96c.24-1.67.73-3.54,1.82-5.21.52-.79,1.3-1,2.2-.84.91.17,1.58.7,1.69,1.62.28,2.36-.17,4.62-1.47,6.62-.64.98-1.71,1.1-2.79.71-1.24-.44-1.43-1.48-1.45-2.9Z"/><path class="cls-11" d="m446.6,594.34c-.08,0-.28-.01-.47-.04-1.75-.26-1.87-.5-1.01-2.05.15-.28.25-.61.47-.82.5-.47.33-1.77,1.47-1.41,1.25.39,2.05,1.55,1.91,2.46-.18,1.14-1.06,1.87-2.37,1.85Z"/></svg>