<?xml version="1.0" encoding="UTF-8"?><svg id="Layer_1" xmlns="http://www.w3.org/2000/svg" viewBox="0 0 241.78 241.78"><defs><style>.cls-1{fill:#f9f7f8;}.cls-1,.cls-2,.cls-3{stroke-width:0px;}.cls-2{fill:#233890;}.cls-3{fill:#e76e13;}</style></defs><circle class="cls-3" cx="120.89" cy="120.89" r="120.89"/><path class="cls-2" d="m120.04,38.17c23.24,0,40.34,10.52,51.32,31.54,3.56,7.77,5.35,15.54,5.35,23.31,0,22.24-7.2,42.06-21.6,59.45-2.35,6.49-4.46,19.39-6.31,38.71h-51.22c-1.21,0-1.82-.6-1.82-1.82v-15.29c0-1.21-.61-1.82-1.82-1.82h-14.43c-7.27,0-11.48-8.98-12.62-26.94,0-.5-.29-2.32-.85-5.45h-9.94c-3.57,0-5.95-2.1-7.16-6.31,8.98-25.23,13.47-42.34,13.47-51.32,7.48-29.37,26.69-44.05,57.63-44.05h0Zm-34.22,44.05l-.86,1.82v1.82c.36,1.78,2.74,2.67,7.16,2.67h1.82l.86-3.53c-2.5-1.85-5.49-2.78-8.98-2.78Zm0,23.42v.96c0,1.21.89,1.82,2.67,1.82,4.85-1.14,7.27-2.35,7.27-3.64v-.96c0-.86-.93-1.75-2.78-2.67-4.78,1.64-7.16,3.14-7.16,4.49Zm8.98-37.74v.86c0,.86,1.82,2.67,5.45,5.45h.86c.86,0,1.75-.93,2.67-2.78,0-.78-1.78-2.57-5.35-5.35h-1.82c-1.21.21-1.82.82-1.82,1.82h.01Zm4.49,26.09c0,2.64,2.71,8.63,8.13,17.96,0,4.21.6,6.31,1.82,6.31h18.93c.78,0,2.28-4.21,4.49-12.62,3.56-3.28,5.35-8.38,5.35-15.29-3.35-11.4-9.05-17.11-17.11-17.11h-3.53c-10.62,0-16.65,6.92-18.07,20.74h-.01Zm9.09,32.4c.36,2.42,2.74,3.64,7.16,3.64h3.64c1.35,0,2.53-.32,3.53-.96l1.82.96c2.99-.78,4.49-1.71,4.49-2.78,0-.86-.89-1.75-2.67-2.67h-15.29l-2.67,1.82h-.01Zm3.53,8.98v1.82c.21,1.21.82,1.82,1.82,1.82h9.94c1.21,0,1.82-.6,1.82-1.82v-1.82c0-1.21-.61-1.82-1.82-1.82h-9.94c-1.21.21-1.82.82-1.82,1.82Zm4.49-75.59v7.16l3.64.96,1.82-2.67v-5.45c0-1.21-.61-1.82-1.82-1.82h-1.82c-1.21.21-1.82.82-1.82,1.82Zm18.07,10.8v1.82c.14,1.21.75,1.82,1.82,1.82h1.71c.71,0,2.53-1.82,5.45-5.45-.64-1.14-.96-2.03-.96-2.67h-.86c-3.28,0-5.67,1.5-7.16,4.49h0Zm8.02,31.54v2.67c0,1.57,2.42,2.78,7.27,3.64,1.21,0,1.82-.6,1.82-1.82v-2.78c-4.21-.93-6.31-1.82-6.31-2.67-1.21.64-2.14.96-2.78.96h0Zm.96-16.25v.96c.14,1.14.75,1.71,1.82,1.71h.86c4.42,0,6.81-.89,7.16-2.67v-1.82c0-1.21-.57-1.82-1.71-1.82-4.63,0-7.34,1.21-8.13,3.64Z"/><path class="cls-1" d="m57.79,205.27l.02-4.42v-4.48h.6c.15,0,.26,0,.34-.02l1.33-.05c.34,0,.61-.02.79-.02h1.71l3.16-.08c.43,0,.9.02,1.42.05h.08c.24,0,.4-.02.46-.02,1.43,0,2.66.46,3.67,1.36.49.44.88,1,1.17,1.69s.43,1.4.43,2.13-.08,1.36-.23,1.88-.34.95-.58,1.31c-.95,1.45-2.78,2.29-5.49,2.54l-2.32.1c-.07,1.72-.11,3.05-.11,4.01v1.2c-.02.1-.07.17-.15.2l-6.13.1c-.12-.34-.18-.9-.18-1.65v-5.81h0v-.02Zm9.4-4.61c-.29-.75-1.05-1.15-2.28-1.2h-.74c-.09,0-.14,1.06-.16,3.17l-.02.81.03.64c.88,0,1.66-.2,2.33-.56s1-1.01,1-1.96c0-.4-.05-.7-.16-.89h0Z"/><path class="cls-1" d="m78.94,196.21l3.45-.03c.73,0,1.39,0,1.99.04,1.6.04,2.81.42,3.65,1.13.83.71,1.25,1.71,1.25,3,0,.9-.26,1.66-.78,2.29-.52.63-1.29,1.19-2.29,1.67,1.59.5,2.55,1.72,2.89,3.65.08.42.14.91.19,1.45s.08.91.11,1.1l.11.55c.11.64.21,1.11.3,1.4l-.04.03c-1.22.08-2.33.12-3.34.12s-1.9-.02-2.67-.05h-.06c-.22,0-.46-1.06-.71-3.17l-.05-.46c-.03-.79-.17-1.32-.41-1.59s-.68-.41-1.28-.41h-.71v5.59c0,.07-.07.11-.15.13-.79.03-1.9.04-3.34.04h-2.84l-.06-.02h-.02s-.04,0-.06-.02l.02-.97v-.32l.03-4.46v-1.59l.02-2.78v-.37l-.02-2.44.04-3.43c0-.06.2-.09.61-.09h4.19-.02Zm3.97,3.5c-.43-.19-1-.28-1.72-.28h-.62c-.08.11-.12.72-.12,1.81s.02,1.82.05,2.2c2.24-.05,3.36-.82,3.36-2.32,0-.64-.32-1.11-.96-1.41h.01Zm6.9,12.74h-.01.01Zm.05-.03l-.05.03v-.02h.05Z"/><path class="cls-1" d="m90.08,204.29l.02-.24c.09-.9.2-1.69.34-2.38s.38-1.34.7-1.94c.77-1.33,1.83-2.33,3.21-3.01,1.37-.68,2.85-1.03,4.44-1.03s3.03.32,4.32.96c.77.38,1.38.86,1.82,1.44.84,1.05,1.39,2.01,1.65,2.89s.4,1.9.4,3.05c0,2.56-.53,4.52-1.59,5.87l-.49.66c-.67.77-1.61,1.37-2.83,1.79s-2.42.64-3.62.65c-2.05,0-3.73-.43-5.04-1.29-2.22-1.44-3.33-3.91-3.33-7.41h0Zm6.18-.09s0,.03-.01.05v.03c-.03.3-.04.64-.04,1.01s.03.77.09,1.18c.06.42.16.83.3,1.25s.36.75.65,1.01c.31.27.67.41,1.06.41s.72-.06.99-.17.49-.25.68-.42.34-.4.48-.7c.34-.78.52-1.99.52-3.63s-.19-2.84-.57-3.51-.96-1-1.73-1c-.39,0-.73.09-1.02.28s-.51.38-.66.58-.3.63-.45,1.28c-.15.65-.23,1.25-.23,1.8l-.04.55s-.02,0-.02,0Z"/><path class="cls-1" d="m108.77,207.03h1.81l1.82.02c.32.02.5.22.54.6.01.15.03.3.05.45.05.36.31.54.78.54s.77-.22.9-.67c.09-.34.14-.75.14-1.22v-.28h-.03l-.04-1.53c-.03-1-.04-2.47-.04-4.42s.01-3.36.04-4.23h-.01c0-.07.02-.11.06-.14l.14-.02h6.29c.06,0,.1.02.13.09-.01.16-.02.4-.02.72v.35l-.03.55c-.05,1.36-.08,3.38-.08,6.06v1.18c0,1.01,0,1.85-.01,2.53,0,.68-.17,1.35-.5,2.03s-.73,1.22-1.22,1.62c-.49.41-1.06.74-1.7,1-1.14.47-2.33.7-3.57.7s-2.27-.12-3.1-.38c-.74-.19-1.35-.47-1.83-.85s-.86-.75-1.12-1.09c-.59-.77-.88-1.73-.88-2.86v-.41c-.01-.28.03-.42.12-.42l1.39.04-.03.02v.02Z"/><path class="cls-1" d="m123.46,199.07l-.05-2.83s.03,0,.08.03c5.44-.09,9.54-.14,12.3-.15.03,0,.05.04.06.06v3.03c0,.29,0,.53-.02.72-.04.11-.25.17-.63.17h-.08c-1.73,0-3.54-.03-5.41-.09,0,.06,0,.18-.03.34s-.03.28-.04.35l-.05.41c-.04.27-.06.75-.08,1.42l3.33-.08c.57,0,.99-.02,1.25-.02h.17c.44,0,.72,0,.86.04.14.02.2.1.2.22v.35l.04,2.76h0c-2.18.11-3.92.16-5.22.16h-.5v2.6l5.83-.18c.32,0,.53.05.61.14v.79l.08,2.92c0,.18-.08.28-.24.31l-3.57-.03c-.7,0-2.1.03-4.19.08l-1.76.04c-1.25.04-2.17.06-2.77.06l-.03-.02h.01c-.07-.07-.14-.14-.2-.2v-.38l.06-11.48v-1.56.02h0Z"/><path class="cls-1" d="m136.79,203.81c.17-1.63.46-2.86.86-3.68.77-1.59,1.91-2.72,3.43-3.38,1.35-.59,2.83-.89,4.42-.89,2.66,0,4.61.73,5.83,2.19.74.87,1.16,1.94,1.28,3.23l.1,1.01c-.12.11-.89.17-2.31.17l-1.71-.02h-.14l-.93-.02h-.47c-.2,0-.35-.28-.46-.87s-.26-.98-.47-1.17-.46-.28-.74-.28-.53.05-.74.15-.38.22-.52.36-.25.34-.34.6c-.17.44-.28.92-.31,1.41-.04.5-.05,1.05-.05,1.67v.26l-.04,1.08c0,1.98.56,2.99,1.68,3.03.29,0,.49-.05.6-.15.31-.27.58-.82.81-1.64.05-.17.11-.31.18-.42h5.88c.09,0,.15.09.18.24l-.03.35c-.06.84-.26,1.61-.59,2.3-.61,1.26-1.57,2.2-2.87,2.81-1.31.61-2.74.92-4.3.92-2.73,0-4.78-.81-6.14-2.42-1.37-1.61-2.05-3.89-2.05-6.84h-.04,0Z"/><path class="cls-1" d="m167.34,200.18c0,.24-.03.35-.08.35l-3.89-.03c0,.69-.02,1.78-.02,3.25v3.07l.04,5.69c-.04.1-.11.15-.21.16l-2.27-.03h-3.88l-.18-.16s-.05-.06-.14-.17c0-.63.02-2.03.08-4.2l.12-5.71-.02-.27c-.05-.71-.1-1.13-.15-1.26-.05-.13-.14-.21-.27-.21-.14,0-.24-.02-.3-.02l-.43.02-2.66-.04c-.09-.19-.14-.61-.14-1.26l.02-.95v-.29c0-1.15-.02-1.76-.03-1.84,0,0,.04,0,.09.02l13.67-.12c.28,0,.45.02.53.06.07.04.11.11.11.22v3.7h0v.02Z"/><path class="cls-1" d="m167.8,207.93l5.68-.1c.14,0,.26.12.36.37s.19.44.29.58c.22.34.59.52,1.1.52s.93-.12,1.24-.36c.31-.24.47-.55.47-.93s-.1-.64-.29-.78c-.19-.14-.41-.28-.63-.41-.23-.13-.57-.23-1.02-.31s-.69-.11-.74-.13h.02l-.61-.16c-.39-.07-.72-.15-.99-.24-1.71-.46-2.95-1.04-3.71-1.73s-1.14-1.63-1.14-2.8c0-.85.16-1.62.47-2.3.31-.68.73-1.24,1.24-1.67,1.47-1.24,3.49-1.86,6.08-1.86,2.05,0,3.67.37,4.84,1.12h0c.75.54,1.27,1.08,1.55,1.61s.45,1.18.53,1.95l-.28.28c-1.88.07-3.55.11-5.01.11-.44,0-.7-.13-.78-.39-.04-.11-.08-.21-.12-.32-.1-.26-.42-.39-.97-.39h-.04c-.42,0-.78.1-1.08.3s-.45.39-.46.57.04.34.12.46.17.22.26.29c.09.07.24.14.43.22.19.07.34.12.43.15.1.02.25.07.46.12l.38.1c.15.04.59.15,1.32.32s1.33.34,1.82.49h0c1.53.5,2.57,1.15,3.12,1.92.55.77.83,1.67.83,2.69,0,2.73-1.63,4.5-4.89,5.31-.95.24-1.96.4-3.03.5-1.32,0-2.62-.19-3.91-.58s-2.15-1.02-2.59-1.89c-.29-.42-.49-.81-.59-1.17-.1-.36-.18-.85-.25-1.49h.1v.02h-.01Z"/></svg>