<?xml version="1.0" encoding="UTF-8"?><svg id="Layer_1" xmlns="http://www.w3.org/2000/svg" viewBox="0 0 1024 1024"><defs><style>.cls-1{fill:#f8dac3;}.cls-1,.cls-2,.cls-3,.cls-4,.cls-5,.cls-6,.cls-7,.cls-8,.cls-9{stroke-width:0px;}.cls-2{fill:#23388f;}.cls-3{fill:#f2b385;}.cls-4{fill:#f2b588;}.cls-5{fill:#e56d13;}.cls-6{fill:#e66d13;}.cls-7{fill:#ec914d;}.cls-8{fill:#ec914b;}.cls-9{fill:#fefefe;}</style></defs><path class="cls-5" d="m515.91,687.86h-7.19c-.71-.26-1.45-.05-2.18-.12h-2.97c-9.99.08-19.82-1.26-29.55-3.44-10.75-2.41-21.2-5.76-31.3-10.13-11.74-5.07-22.78-11.38-33.17-18.83-9.52-6.82-18.17-14.62-26.16-23.14-8.6-9.17-16.07-19.23-22.48-30.06-6.74-11.39-12.15-23.38-16.18-35.99-3.24-10.14-5.55-20.49-6.87-31.07-.4-3.22-.44-6.45-.59-9.68-.06-1.35-.15-2.71-.11-4.07,0-.46,0-.91,0-1.37,0-.54,0-1.07,0-1.61-.07-.73.14-1.48-.12-2.2v-7.19c.26-.79.05-1.6.12-2.39,0-.47,0-.94,0-1.4,0-.46,0-.92,0-1.37-.11-12.72,2.08-25.1,5.38-37.33,2.13-7.92,4.83-15.65,8.06-23.19,3.49-8.13,7.57-15.95,12.24-23.46,4.46-7.17,9.42-13.97,14.83-20.45,4.72-5.65,9.86-10.91,15.23-15.93,7.48-7,15.56-13.26,24.19-18.79,6.94-4.45,14.14-8.41,21.62-11.87,6.43-2.98,13.01-5.55,19.74-7.71,10.22-3.29,20.65-5.6,31.3-6.97,4.72-.61,9.45-.67,14.19-.84,4.59-.17,9.19-.06,13.78-.09,13.9-.1,27.5,2.01,40.9,5.66,12.39,3.38,24.26,8.05,35.61,14.03,10.31,5.43,19.98,11.85,29.04,19.2,6.41,5.19,12.36,10.88,17.99,16.88,8.63,9.2,16.13,19.29,22.55,30.17,6.73,11.4,12.14,23.39,16.16,36,3.22,10.11,5.5,20.43,6.84,30.96.59,4.59.66,9.2.83,13.81.18,4.75.07,9.5.1,14.26.08,13.83-2.02,27.36-5.64,40.68-3.38,12.43-8.07,24.34-14.07,35.72-5.44,10.31-11.86,19.97-19.21,29.03-5.17,6.37-10.82,12.3-16.79,17.9-9.71,9.1-20.37,16.94-31.92,23.59-10.78,6.2-22.06,11.24-33.9,15.03-10.22,3.28-20.64,5.64-31.3,6.95-4.58.56-9.18.58-13.77.72h-2.99c-.73.07-1.48-.14-2.2.12Z"/><path class="cls-9" d="m521.2,687.65c38.89-2.19,73.47-15.53,103.37-40.49,29.22-24.39,48.45-55.21,57.86-92.11,2.98-11.68,4.61-23.57,5.05-35.62,1.03-28.39-4.33-55.49-16.39-81.24-8.18-17.47-18.97-33.15-32.35-47.05-19.07-19.81-41.54-34.39-67.41-43.69-12.59-4.53-25.54-7.54-38.85-9.01-35.32-3.9-68.92,1.97-100.49,18.32-32.8,16.98-57.8,41.99-75.07,74.65-9.09,17.19-14.97,35.45-17.92,54.66-.9,5.84-1.47,11.72-1.77,17.63-.06.17-.13.18-.21.01,0-55.15,0-110.3-.02-165.44,0-.96.14-1.25,1.2-1.25,116.17.03,232.33.03,348.5.03.6,0,1.18-.28,1.18.9-.04,116.49-.04,232.98-.04,349.47v.46h-166.66c-.17-.08-.16-.15.01-.21Z"/><path class="cls-9" d="m337.23,521.45c4.39,89.65,76.55,161.81,166.2,166.2.17.06.18.13.01.21-55.11,0-110.23,0-165.34.02-.9,0-1.1-.2-1.1-1.1.02-55.11.02-110.23.02-165.34.08-.17.15-.16.21.01Z"/><path class="cls-7" d="m337.24,506.55c-.04.81.22,1.64-.22,2.42v-2.4c.06-.17.13-.18.22-.02Z"/><path class="cls-8" d="m337.02,516.16c.42.7.2,1.46.19,2.2-.09.1-.15.09-.19-.04v-2.16Z"/><path class="cls-8" d="m506.52,687.67c.74-.02,1.49-.23,2.2.19h-2.16c-.09-.02-.13-.06-.11-.11.02-.05.05-.08.07-.08Z"/><path class="cls-8" d="m515.91,687.86c.7-.42,1.46-.2,2.2-.19.08.06.09.11.06.14-.03.03-.06.05-.1.05h-2.16Z"/><path class="cls-3" d="m337.02,518.32c.06.03.12.04.19.04,0,.55,0,1.11.01,1.66-.08.17-.15.16-.2-.02v-1.68Z"/><path class="cls-3" d="m506.52,687.67c0,.06.02.13.04.19h-1.68c-.18-.05-.19-.11-.02-.2.55,0,1.11,0,1.66.01Z"/><path class="cls-3" d="m518.07,687.86c.02-.06.03-.12.04-.19.55,0,1.11,0,1.66-.01.17.08.16.15-.02.2h-1.68Z"/><path class="cls-1" d="m337.02,503.69c.07-.01.14-.02.21-.01,0,.48,0,.95-.01,1.43-.05.18-.11.19-.2.02v-1.44Z"/><path class="cls-4" d="m337.02,505.13c.06-.03.13-.03.2-.02,0,.48.01.96.02,1.44-.07,0-.15.01-.22.02v-1.44Z"/><path class="cls-1" d="m337.02,520c.06.02.13.03.2.02,0,.48,0,.95,0,1.43h-.1s-.1-.01-.1-.01v-1.44Z"/><path class="cls-1" d="m504.86,687.66c0,.07.01.13.02.2h-1.44c0-.07,0-.14-.01-.21.48,0,.95,0,1.43,0Z"/><path class="cls-1" d="m519.75,687.86c0-.07.02-.13.02-.2.48,0,.95,0,1.43,0,0,.07-.01.14-.01.21h-1.44Z"/><path class="cls-2" d="m511.13,637.86c-18.78-.02-36.7-3.82-53.59-12.13-11.12-5.47-21.13-12.56-30.2-20.98-7.1-6.59-13.73-13.63-19.29-21.59-6.61-9.47-11.3-19.9-15.09-30.76-1.14-3.28-2.18-6.59-3.16-9.92-.99-3.38-1.14-6.92-1.68-10.39-.58-3.67-1.05-7.35-1.56-11.03-.03-.24-.08-.47-.09-.71-.72-16.82,1.44-33.22,7.24-49.09,2.41-6.61,5.13-13.09,8.5-19.26,2.65-4.85,6.07-9.19,9.47-13.53,9.01-11.53,19.32-21.72,31.45-29.98,13.93-9.49,29.21-15.64,45.82-18.5,8.45-1.45,16.97-2.05,25.53-1.84,28.46.69,53.64,10.11,75.44,28.49,8.53,7.19,16.21,15.21,22.84,24.16,4.93,6.65,8.72,14.02,12.14,21.56,5.3,11.67,8.86,23.85,10.39,36.59,3.18,26.6-2.18,51.44-15.48,74.64-4.4,7.68-9.37,14.98-15.14,21.68-4.44,5.15-9.56,9.64-14.82,13.95-12.1,9.92-25.42,17.65-40.31,22.58-11.38,3.77-23.06,5.76-35.04,5.97-.56,0-1.12.06-1.67.07-.56.01-1.12,0-1.68,0Z"/><path class="cls-6" d="m512.86,566.16c-9.15,0-18.3.02-27.45,0-8.43-.02-16.85-.16-25.24-1.08-3.02-.33-6-.86-8.95-1.59-3.09-.76-5.24-2.6-6.76-5.29-1.97-3.49-3.03-7.29-3.8-11.17-1.48-7.42-1.95-14.95-2.25-22.5-.39-9.64.11-19.24.82-28.84.38-5.14.89-10.27,2.12-15.28.49-2.01,1.02-4.01,2.51-5.61.57-.61.49-1.64,1.15-2.31,1.1-1.11,2.43-1.81,3.84-2.37,4.46-1.75,9.16-2.47,13.87-3.06,10-1.25,20.05-1.61,30.12-1.83,10.23-.22,20.46-.17,30.68-.05,11.06.13,22.12.36,33.16,1.17,4.54.33,9.05.86,13.55,1.58,4.21.67,6.92,2.98,8.63,6.74,2.14,4.71,3.08,9.73,3.7,14.81,1.44,11.73,1.1,23.52,1.01,35.3-.05,6.68-.46,13.33-1.48,19.93-.51,3.32-1.28,6.57-2.3,9.78-1.19,3.73-3.6,6.32-7.04,8.06-4.03,2.04-8.37,2.82-12.8,3.27-4.14.43-8.3.37-12.45.37-11.55,0-23.1,0-34.65,0Z"/><path class="cls-2" d="m533.36,515.06c-.23.46-.65.55-.98.74-10.75,5.97-21.5,11.93-32.25,17.89-.35.19-.69.42-1.06.56-1.71.67-2.58.11-2.58-1.63,0-11.87,0-23.74,0-35.61,0-2.15.01-2.17,1.99-1.14,10.53,5.52,21.13,10.93,31.43,16.89,1.2.69,2.41,1.39,3.46,2.3Z"/></svg>